0
SECTION
2
HEADER
9
$INSUNITS
70
4
9
$ACADVER
1
AC1014
9
$HANDSEED
5
FFFF
0
ENDSEC
0
SECTION
2
TABLES
0
TABLE
2
VPORT
5
8
100
AcDbSymbolTable
0
ENDTAB
0
TABLE
2
LTYPE
5
5
100
AcDbSymbolTable
0
LTYPE
5
14
100
AcDbSymbolTableRecord
100
AcDbLinetypeTableRecord
2
BYBLOCK
70
0
0
LTYPE
5
15
100
AcDbSymbolTableRecord
100
AcDbLinetypeTableRecord
2
BYLAYER
70
0
0
LTYPE
5
16
100
AcDbSymbolTableRecord
100
AcDbLinetypeTableRecord
2
DASHED
70
0
3
Dashed __ __ __ __ __ __ __ __ __ __ __ __ __ _
72
65
73
2
40
0.75
49
0.5
74
0
49
-0.25
74
0
0
ENDTAB
0
TABLE
2
LAYER
5
2
100
AcDbSymbolTable
70
3
0
LAYER
5
50
100
AcDbSymbolTableRecord
100
AcDbLayerTableRecord
2
1
70
0
62
7
6
DASHED
0
LAYER
5
51
100
AcDbSymbolTableRecord
100
AcDbLayerTableRecord
2
0
70
0
62
7
6
CONTINUOUS
0
ENDTAB
0
TABLE
2
STYLE
5
3
100
AcDbSymbolTable
70
1
0
STYLE
5
11
100
AcDbSymbolTableRecord
100
AcDbTextStyleTableRecord
2
STANDARD
70
0
0
ENDTAB
0
TABLE
2
VIEW
5
6
100
AcDbSymbolTable
70
0
0
ENDTAB
0
TABLE
2
UCS
5
7
100
AcDbSymbolTable
70
0
0
ENDTAB
0
TABLE
2
APPID
5
9
100
AcDbSymbolTable
70
2
0
APPID
5
12
100
AcDbSymbolTableRecord
100
AcDbRegAppTableRecord
2
ACAD
70
0
0
ENDTAB
0
TABLE
2
DIMSTYLE
5
A
100
AcDbSymbolTable
70
1
0
ENDTAB
0
TABLE
2
BLOCK_RECORD
5
1
100
AcDbSymbolTable
70
1
0
BLOCK_RECORD
5
1F
100
AcDbSymbolTableRecord
100
AcDbBlockTableRecord
2
*MODEL_SPACE
0
BLOCK_RECORD
5
1B
100
AcDbSymbolTableRecord
100
AcDbBlockTableRecord
2
*PAPER_SPACE
0
ENDTAB
0
ENDSEC
0
SECTION
2
BLOCKS
0
BLOCK
5
20
100
AcDbEntity
100
AcDbBlockBegin
2
*MODEL_SPACE
0
ENDBLK
5
21
100
AcDbEntity
100
AcDbBlockEnd
0
BLOCK
5
1C
100
AcDbEntity
100
AcDbBlockBegin
2
*PAPER_SPACE
0
ENDBLK
5
1D
100
AcDbEntity
100
AcDbBlockEnd
0
ENDSEC
0
SECTION
2
ENTITIES
0
ARC
5
100
100
AcDbEntity
8
0
100
AcDbCircle
10
452.8263732787911
20
90.830544186808908
30
0
40
4.0001692800360864
210
0
220
0
230
1
100
AcDbArc
50
90.270157485757991
51
179.99857034207176
0
LINE
5
101
100
AcDbEntity
8
0
100
AcDbLine
10
492.82620399999996
20
-1.1693309999999999
30
0
11
487.52237299999996
21
-1.1693309999999999
31
0
0
ARC
5
102
100
AcDbEntity
8
0
100
AcDbCircle
10
492.82624966553396
20
2.8306233342590001
30
0
40
3.9999543345199999
210
0
220
0
230
1
100
AcDbArc
50
-90.000654118059586
51
0.00029601823365252029
0
LINE
5
103
100
AcDbEntity
8
0
100
AcDbLine
10
496.82620399999996
20
32.134543999999998
30
0
11
496.82620399999996
21
2.8306439999999977
31
0
0
LINE
5
104
100
AcDbEntity
8
0
100
AcDbLine
10
496.82619799999998
20
90.830644000000007
30
0
11
496.82620399999996
21
61.526744000000008
31
0
0
ARC
5
105
100
AcDbEntity
8
0
100
AcDbCircle
10
492.82617367459511
20
90.830644674595078
30
0
40
4.0000243254048797
210
0
220
0
230
1
100
AcDbArc
50
-9.6593461451598224e-06
51
90.000009662804672
0
LINE
5
106
100
AcDbEntity
8
0
100
AcDbLine
10
496.82620400000064
20
2.8306440000000004
30
0
11
496.82620399999996
21
32.134543999999998
31
0
0
LINE
5
107
100
AcDbEntity
8
0
100
AcDbLine
10
496.82620399999996
20
61.526744000000008
30
0
11
496.82619799999998
21
90.830644000000007
31
0
0
ARC
5
108
100
AcDbEntity
8
0
100
AcDbCircle
10
492.82617367459477
20
90.830644674594808
30
0
40
4.000024325405235
210
0
220
0
230
1
100
AcDbArc
50
-9.6593461451598224e-06
51
90.000009662799783
0
ARC
5
109
100
AcDbEntity
8
0
100
AcDbCircle
10
452.82637327879138
20
90.830544186808396
30
0
40
4.0001692800366566
210
0
220
0
230
1
100
AcDbArc
50
90.270157485762837
51
179.99857034207176
0
LINE
5
110
100
AcDbEntity
8
0
100
AcDbLine
10
496.82620399999996
20
61.526744000000008
30
0
11
496.82620399999996
21
32.134543999999998
31
0
0
LINE
5
111
100
AcDbEntity
8
0
100
AcDbLine
10
492.82617299999998
20
94.830669
30
0
11
452.80751199999997
21
94.830669
31
0
0
LINE
5
112
100
AcDbEntity
8
0
100
AcDbLine
10
448.82620399999956
20
2.8243200000000206
30
0
11
448.82620400000002
21
90.830644000000007
31
0
0
ARC
5
113
100
AcDbEntity
8
0
100
AcDbCircle
10
452.81985998967878
20
2.824319999999982
30
0
40
3.9936559896791834
210
0
220
0
230
1
100
AcDbArc
50
180
51
270.09057089519121
0
LINE
5
114
100
AcDbEntity
8
0
100
AcDbLine
10
452.82617300000004
20
-1.1693309999999999
30
0
11
487.52237299999996
21
-1.1693309999999999
31
0
0
LINE
5
115
100
AcDbEntity
8
0
100
AcDbLine
10
487.52237299999996
20
-1.1693309999999999
30
0
11
492.82620399999996
21
-1.1693310000003292
31
0
0
ARC
5
116
100
AcDbEntity
8
0
100
AcDbCircle
10
492.82624966553442
20
2.8306233342579139
30
0
40
3.999954334518931
210
0
220
0
230
1
100
AcDbArc
50
-90.000654118066095
51
0.00029601823365252029
0
LWPOLYLINE
5
117
100
AcDbEntity
8
0
100
AcDbPolyline
90
11
70
1
43
0.0
10
498.82620399999774
20
2.8306491664945197
10
498.82620400000002
20
32.134544000000041
10
498.82620400000002
20
61.526744000000008
10
498.82619799999992
20
90.830644409501815
42
0.41421362470946166
10
492.82617266270461
20
96.830668999999972
10
452.80327316585095
20
96.830669
42
0.4130803105583174
10
446.82620400005192
20
90.83066895224195
10
446.82620399999956
20
2.8243200000000304
42
0.41459936166176581
10
452.82775376104019
20
-3.1693307915452538
10
487.52237299999996
20
-3.1693310000000001
10
492.82619373691068
20
-3.1693310000003305
42
0.41421755360936235
0
LWPOLYLINE
5
118
100
AcDbEntity
8
0
100
AcDbPolyline
90
11
70
1
43
0.0
10
495.82620400001332
20
2.8306388335054979
10
495.82620399999996
20
32.134543999999977
10
495.82620399999996
20
61.526744000000008
10
495.82619799999998
20
90.830643795249117
42
0.41421369761963123
10
492.82617316864764
20
93.830669000000015
10
452.8100388321368
20
93.830669000000015
42
0.41261127579177054
10
449.82620400002594
20
90.830631523879049
10
449.82620399999962
20
2.8243200000000157
42
0.41475398877024988
10
452.82538261882053
20
-0.16933089566394166
10
487.52237299999996
20
-0.16933099999999993
10
492.82621011814479
20
-0.16933100000033008
42
0.41421893672736732
0
CIRCLE
5
119
100
AcDbEntity
8
0
100
AcDbCircle
10
494.94751135082987
20
92.951982086797159
30
0
40
0.99999999999999178
210
0
220
0
230
1
0
CIRCLE
5
120
100
AcDbEntity
8
0
100
AcDbCircle
10
450.69919677085869
20
92.946232210354097
30
0
40
0.99999999999999734
210
0
220
0
230
1
0
CIRCLE
5
121
100
AcDbEntity
8
0
100
AcDbCircle
10
450.70497898442898
20
0.70553390457282816
30
0
40
1.0000000000000071
210
0
220
0
230
1
0
CIRCLE
5
122
100
AcDbEntity
8
0
100
AcDbCircle
10
494.94752921640355
20
0.70932677878448724
30
0
40
1.0000000000000155
210
0
220
0
230
1
0
ENDSEC
0
SECTION
2
OBJECTS
0
DICTIONARY
5
C
100
AcDbDictionary
3
ACAD_GROUP
350
D
3
ACAD_MLINESTYLE
350
17
0
DICTIONARY
5
D
100
AcDbDictionary
0
DICTIONARY
5
1A
330
C
100
AcDbDictionary
0
DICTIONARY
5
17
100
AcDbDictionary
0
ENDSEC
0
EOF
