0
SECTION
2
HEADER
9
$INSUNITS
70
4
9
$ACADVER
1
AC1014
9
$HANDSEED
5
FFFF
0
ENDSEC
0
SECTION
2
TABLES
0
TABLE
2
VPORT
5
8
100
AcDbSymbolTable
0
ENDTAB
0
TABLE
2
LTYPE
5
5
100
AcDbSymbolTable
0
LTYPE
5
14
100
AcDbSymbolTableRecord
100
AcDbLinetypeTableRecord
2
BYBLOCK
70
0
0
LTYPE
5
15
100
AcDbSymbolTableRecord
100
AcDbLinetypeTableRecord
2
BYLAYER
70
0
0
LTYPE
5
16
100
AcDbSymbolTableRecord
100
AcDbLinetypeTableRecord
2
DASHED
70
0
3
Dashed __ __ __ __ __ __ __ __ __ __ __ __ __ _
72
65
73
2
40
0.75
49
0.5
74
0
49
-0.25
74
0
0
ENDTAB
0
TABLE
2
LAYER
5
2
100
AcDbSymbolTable
70
3
0
LAYER
5
50
100
AcDbSymbolTableRecord
100
AcDbLayerTableRecord
2
1
70
0
62
7
6
DASHED
0
LAYER
5
51
100
AcDbSymbolTableRecord
100
AcDbLayerTableRecord
2
0
70
0
62
7
6
CONTINUOUS
0
ENDTAB
0
TABLE
2
STYLE
5
3
100
AcDbSymbolTable
70
1
0
STYLE
5
11
100
AcDbSymbolTableRecord
100
AcDbTextStyleTableRecord
2
STANDARD
70
0
0
ENDTAB
0
TABLE
2
VIEW
5
6
100
AcDbSymbolTable
70
0
0
ENDTAB
0
TABLE
2
UCS
5
7
100
AcDbSymbolTable
70
0
0
ENDTAB
0
TABLE
2
APPID
5
9
100
AcDbSymbolTable
70
2
0
APPID
5
12
100
AcDbSymbolTableRecord
100
AcDbRegAppTableRecord
2
ACAD
70
0
0
ENDTAB
0
TABLE
2
DIMSTYLE
5
A
100
AcDbSymbolTable
70
1
0
ENDTAB
0
TABLE
2
BLOCK_RECORD
5
1
100
AcDbSymbolTable
70
1
0
BLOCK_RECORD
5
1F
100
AcDbSymbolTableRecord
100
AcDbBlockTableRecord
2
*MODEL_SPACE
0
BLOCK_RECORD
5
1B
100
AcDbSymbolTableRecord
100
AcDbBlockTableRecord
2
*PAPER_SPACE
0
ENDTAB
0
ENDSEC
0
SECTION
2
BLOCKS
0
BLOCK
5
20
100
AcDbEntity
100
AcDbBlockBegin
2
*MODEL_SPACE
0
ENDBLK
5
21
100
AcDbEntity
100
AcDbBlockEnd
0
BLOCK
5
1C
100
AcDbEntity
100
AcDbBlockBegin
2
*PAPER_SPACE
0
ENDBLK
5
1D
100
AcDbEntity
100
AcDbBlockEnd
0
ENDSEC
0
SECTION
2
ENTITIES
0
POINT
5
100
100
AcDbEntity
8
0
100
AcDbPoint
10
147.72013092353581
20
-1.038875226394218
30
0
0
LWPOLYLINE
5
101
100
AcDbEntity
8
0
100
AcDbPolyline
90
26
70
1
43
0.0
10
120.72013092353583
20
56.461124773605789
10
120.72013092353583
20
37.461124773605789
42
0.26794919243111964
10
122.22013092353583
20
34.863048562252473
42
-0.26794919243112475
10
123.72013092353583
20
32.264972350899171
10
123.72013092353583
20
2.961124773605782
42
0.41421356237309209
10
127.72013092353583
20
-1.0388752263942185
10
133.02397850082917
20
-1.0388752263942045
42
-0.26794919243112497
10
135.62205471218252
20
-2.5388752263942109
42
0.2679491924311202
10
138.22013092353583
20
-4.038875226394218
10
157.22013092353581
20
-4.038875226394218
42
0.2679491924311212
10
159.81820713488915
20
-2.5388752263942154
42
-0.2679491924311232
10
162.41628334624244
20
-1.038875226394218
10
167.72013092353581
20
-1.038875226394218
42
0.41421356237309503
10
171.72013092353581
20
2.9611247736057815
10
171.72013092353581
20
32.264972350899171
42
-0.26794919243111714
10
173.22013092353581
20
34.863048562252487
42
0.26794919243111887
10
174.72013092353581
20
37.461124773605789
10
174.72013092353581
20
56.461124773605789
42
0.26794919243111848
10
173.22013092353581
20
59.059200984959084
42
-0.26794919243111859
10
171.72013092353581
20
61.657277196312414
10
171.72013092353581
20
90.961124773605789
42
0.41421356237309503
10
167.72013092353581
20
94.961124773605803
10
127.72013092353583
20
94.961124773605803
42
0.41421356237309503
10
123.72013092353583
20
90.961124773605789
10
123.72013092353583
20
61.657277196312414
42
-0.26794919243112453
10
122.22013092353583
20
59.059200984959112
42
0.26794919243111998
0
LWPOLYLINE
5
102
100
AcDbEntity
8
0
100
AcDbPolyline
90
4
70
1
43
0.0
10
128.72013092353583
20
89.961124773605803
10
141.22013092353583
20
89.961124773605803
10
141.22013092353583
20
76.561124773605798
10
128.72013092353583
20
76.561124773605798
0
LWPOLYLINE
5
103
100
AcDbEntity
8
0
100
AcDbPolyline
90
4
70
1
43
0.0
10
128.72013092353583
20
53.661124773605799
10
141.22013092353583
20
53.661124773605799
10
141.22013092353583
20
40.2611247736058
10
128.72013092353583
20
40.2611247736058
0
LWPOLYLINE
5
104
100
AcDbEntity
8
0
100
AcDbPolyline
90
4
70
1
43
0.0
10
128.72013092353583
20
17.361124773605798
10
141.22013092353583
20
17.361124773605798
10
141.22013092353583
20
3.9611247736057997
10
128.72013092353583
20
3.9611247736057997
0
LINE
5
105
100
AcDbEntity
8
0
100
AcDbLine
10
147.72013092353581
20
94.961124773605803
30
0
11
147.72013092353581
21
-4.038875226394218
31
0
0
LWPOLYLINE
5
106
100
AcDbEntity
8
0
100
AcDbPolyline
90
4
70
1
43
0.0
10
166.72013092353581
20
76.561124773605798
10
166.72013092353581
20
89.961124773605803
10
154.22013092353581
20
89.961124773605803
10
154.22013092353581
20
76.561124773605798
0
LWPOLYLINE
5
107
100
AcDbEntity
8
0
100
AcDbPolyline
90
4
70
1
43
0.0
10
154.22013092353581
20
40.2611247736058
10
166.72013092353581
20
40.2611247736058
10
166.72013092353581
20
53.661124773605799
10
154.22013092353581
20
53.661124773605799
0
LWPOLYLINE
5
108
100
AcDbEntity
8
0
100
AcDbPolyline
90
4
70
1
43
0.0
10
154.22013092353581
20
3.9611247736057997
10
166.72013092353581
20
3.9611247736057997
10
166.72013092353581
20
17.361124773605798
10
154.22013092353581
20
17.361124773605798
0
ENDSEC
0
SECTION
2
OBJECTS
0
DICTIONARY
5
C
100
AcDbDictionary
3
ACAD_GROUP
350
D
3
ACAD_MLINESTYLE
350
17
0
DICTIONARY
5
D
100
AcDbDictionary
0
DICTIONARY
5
1A
330
C
100
AcDbDictionary
0
DICTIONARY
5
17
100
AcDbDictionary
0
ENDSEC
0
EOF
