0
SECTION
2
HEADER
9
$INSUNITS
70
4
9
$ACADVER
1
AC1014
9
$HANDSEED
5
FFFF
0
ENDSEC
0
SECTION
2
TABLES
0
TABLE
2
VPORT
5
8
100
AcDbSymbolTable
0
ENDTAB
0
TABLE
2
LTYPE
5
5
100
AcDbSymbolTable
0
LTYPE
5
14
100
AcDbSymbolTableRecord
100
AcDbLinetypeTableRecord
2
BYBLOCK
70
0
0
LTYPE
5
15
100
AcDbSymbolTableRecord
100
AcDbLinetypeTableRecord
2
BYLAYER
70
0
0
LTYPE
5
16
100
AcDbSymbolTableRecord
100
AcDbLinetypeTableRecord
2
DASHED
70
0
3
Dashed __ __ __ __ __ __ __ __ __ __ __ __ __ _
72
65
73
2
40
0.75
49
0.5
74
0
49
-0.25
74
0
0
ENDTAB
0
TABLE
2
LAYER
5
2
100
AcDbSymbolTable
70
3
0
LAYER
5
50
100
AcDbSymbolTableRecord
100
AcDbLayerTableRecord
2
1
70
0
62
7
6
DASHED
0
LAYER
5
51
100
AcDbSymbolTableRecord
100
AcDbLayerTableRecord
2
0
70
0
62
7
6
CONTINUOUS
0
ENDTAB
0
TABLE
2
STYLE
5
3
100
AcDbSymbolTable
70
1
0
STYLE
5
11
100
AcDbSymbolTableRecord
100
AcDbTextStyleTableRecord
2
STANDARD
70
0
0
ENDTAB
0
TABLE
2
VIEW
5
6
100
AcDbSymbolTable
70
0
0
ENDTAB
0
TABLE
2
UCS
5
7
100
AcDbSymbolTable
70
0
0
ENDTAB
0
TABLE
2
APPID
5
9
100
AcDbSymbolTable
70
2
0
APPID
5
12
100
AcDbSymbolTableRecord
100
AcDbRegAppTableRecord
2
ACAD
70
0
0
ENDTAB
0
TABLE
2
DIMSTYLE
5
A
100
AcDbSymbolTable
70
1
0
ENDTAB
0
TABLE
2
BLOCK_RECORD
5
1
100
AcDbSymbolTable
70
1
0
BLOCK_RECORD
5
1F
100
AcDbSymbolTableRecord
100
AcDbBlockTableRecord
2
*MODEL_SPACE
0
BLOCK_RECORD
5
1B
100
AcDbSymbolTableRecord
100
AcDbBlockTableRecord
2
*PAPER_SPACE
0
ENDTAB
0
ENDSEC
0
SECTION
2
BLOCKS
0
BLOCK
5
20
100
AcDbEntity
100
AcDbBlockBegin
2
*MODEL_SPACE
0
ENDBLK
5
21
100
AcDbEntity
100
AcDbBlockEnd
0
BLOCK
5
1C
100
AcDbEntity
100
AcDbBlockBegin
2
*PAPER_SPACE
0
ENDBLK
5
1D
100
AcDbEntity
100
AcDbBlockEnd
0
ENDSEC
0
SECTION
2
ENTITIES
0
POINT
5
100
100
AcDbEntity
8
0
100
AcDbPoint
10
0
20
0
30
0
0
LINE
5
101
100
AcDbEntity
8
0
100
AcDbLine
10
-1.1715720000005576
20
34.328426
30
0
11
-1.1715720000000003
21
2.8284280000000006
31
0
0
ARC
5
102
100
AcDbEntity
8
0
100
AcDbCircle
10
2.8284267188040002
20
2.8284257188040005
30
0
40
3.9999987188046511
210
0
220
0
230
1
100
AcDbArc
50
179.99996732154185
51
270.00001835178676
0
LINE
5
103
100
AcDbEntity
8
0
100
AcDbLine
10
2.8284280000000006
20
-1.171573000000794
30
0
11
34.328427000000005
21
-1.171573
31
0
0
LINE
5
104
100
AcDbEntity
8
0
100
AcDbLine
10
59.328429000000007
20
-1.171573000000057
30
0
11
90.828429000000014
21
-1.171573
31
0
0
ARC
5
105
100
AcDbEntity
8
0
100
AcDbCircle
10
90.828427574089005
20
2.8284274259099851
30
0
40
4.0000004259102395
210
0
220
0
230
1
100
AcDbArc
50
270.00002042466849
51
359.99999396290866
0
LINE
5
106
100
AcDbEntity
8
0
100
AcDbLine
10
94.828427999999974
20
2.828427
30
0
11
94.828428000000002
21
34.328426
31
0
0
CIRCLE
5
107
100
AcDbEntity
8
0
100
AcDbCircle
10
-1.174372
20
51.919426999999999
30
0
40
0.40000000000000008
210
0
220
0
230
1
0
LINE
5
108
100
AcDbEntity
8
0
100
AcDbLine
10
34.328428000000002
20
94.828427000000005
30
0
11
59.328428000000002
21
94.828427000000005
31
0
0
LINE
5
109
100
AcDbEntity
8
0
100
AcDbLine
10
59.328428000000002
20
94.828427000000005
30
0
11
90.828428000000002
21
94.828426999999976
31
0
0
ARC
5
110
100
AcDbEntity
8
0
100
AcDbCircle
10
90.82842757409
20
90.828426574090017
30
0
40
4.0000004259099819
210
0
220
-0
230
1
100
AcDbArc
50
6.0370913486286684e-06
51
89.999993899289251
0
LINE
5
111
100
AcDbEntity
8
0
100
AcDbLine
10
94.828427999999988
20
90.828427000000005
30
0
11
94.828428000000002
21
34.328426
31
0
0
LINE
5
112
100
AcDbEntity
8
0
100
AcDbLine
10
94.828428000000002
20
34.328426
30
0
11
94.828427999999974
21
2.828427
31
0
0
ARC
5
113
100
AcDbEntity
8
0
100
AcDbCircle
10
90.828427574088465
20
2.8284274259112658
30
0
40
4.0000004259115247
210
0
220
0
230
1
100
AcDbArc
50
270.00002042467622
51
359.99999396290866
0
LINE
5
114
100
AcDbEntity
8
0
100
AcDbLine
10
30.64181
20
-1.1715729999999991
30
0
11
90.828429000000014
21
-1.171573
31
0
0
LINE
5
115
100
AcDbEntity
8
0
100
AcDbLine
10
34.328427000000005
20
-1.171573
30
0
11
2.8284280000000006
21
-1.171573000000794
31
0
0
LINE
5
116
100
AcDbEntity
8
0
100
AcDbLine
10
-1.1715720000000003
20
2.8284280000000006
30
0
11
-1.1715720000005576
21
34.328426
31
0
0
ARC
5
117
100
AcDbEntity
8
0
100
AcDbCircle
10
2.8284267188053676
20
2.8284257188050201
30
0
40
3.9999987188060189
210
0
220
0
230
1
100
AcDbArc
50
179.9999673326968
51
270.00001835176715
0
CIRCLE
5
118
100
AcDbEntity
8
0
100
AcDbCircle
10
-2.6715731206128481
20
37.328425879388654
30
0
40
1.4999988793886498
210
0
220
0
230
1
0
LINE
5
119
100
AcDbEntity
8
0
100
AcDbLine
10
-1.1715719999999896
20
90.828427000000005
30
0
11
-1.1715720000005576
21
34.328426
31
0
0
LINE
5
120
100
AcDbEntity
8
0
100
AcDbLine
10
34.328428000000002
20
94.828427000000005
30
0
11
2.8284280000000006
21
94.828427000000005
31
0
0
LINE
5
121
100
AcDbEntity
8
0
100
AcDbLine
10
-1.1715719999999896
20
90.828427000000005
30
0
11
-3.1715719999999954
21
90.828427212954978
31
0
0
LINE
5
122
100
AcDbEntity
8
0
100
AcDbLine
10
-3.1715719999999967
20
65.828427000000005
30
0
11
-1.1715719999999896
21
65.828427000000005
31
0
0
LINE
5
123
100
AcDbEntity
8
0
100
AcDbLine
10
-1.1715719999999896
20
65.828427000000005
30
0
11
-1.1715719999999896
21
90.828427000000005
31
0
0
LWPOLYLINE
5
124
100
AcDbEntity
8
0
100
AcDbPolyline
90
10
70
1
43
0.0
10
-3.1715719999999954
20
90.828427212954978
10
-3.1715720000000003
20
2.8284279999999651
42
0.41421376754437361
10
2.8284286405982053
20
-3.1715730000003424
10
90.828429000000014
20
-3.1715730000000022
42
0.41421346157995992
10
96.828427999999235
20
2.8284267870450304
10
96.828427999999974
20
90.828427000000033
42
0.41421351039553828
10
90.828428212954975
20
96.828426999999948
10
59.328428000000002
20
96.828427000000005
10
34.328428000000002
20
96.828427000000005
10
2.8284280000000006
20
96.828427000000005
42
0.41421351039553939
0
LWPOLYLINE
5
125
100
AcDbEntity
8
0
100
AcDbPolyline
90
10
70
1
43
0.0
10
2.8284280000000006
20
93.828426999999991
42
0.41421348960451887
10
-0.17157199999999817
20
90.828426893522533
10
-0.17157199999999984
20
2.8284279999999562
42
0.41421387890226946
10
2.8284276797008978
20
-0.17157300000027853
10
90.828429000000014
20
-0.17157299999999986
42
0.41421339197337109
10
93.82842799999915
20
2.8284271064774846
10
93.828427999999974
20
90.828427000000076
42
0.41421348960451332
10
90.82842789352253
20
93.828426999999962
10
59.328428000000002
20
93.828426999999991
10
34.328428000000002
20
93.828426999999991
0
CIRCLE
5
126
100
AcDbEntity
8
0
100
AcDbCircle
10
0.70710681438996681
20
0.70710674798238449
30
0
40
1
210
0
220
0
230
1
0
LINE
5
127
100
AcDbEntity
8
1
100
AcDbLine
10
93.656855353552942
20
3.5355354705291117e-07
30
0
11
96.656855353552942
21
3.5355354705291117e-07
31
0
0
ARC
5
128
100
AcDbEntity
8
0
100
AcDbCircle
10
2.8284280000000472
20
90.828426999999976
30
0
40
4.0000000000000568
210
0
220
0
230
1
100
AcDbArc
50
90.000000000000668
51
180
0
CIRCLE
5
129
100
AcDbEntity
8
0
100
AcDbCircle
10
0.70710774354101757
20
92.949747181168036
30
0
40
0.99999999999999889
210
0
220
0
230
1
0
CIRCLE
5
130
100
AcDbEntity
8
0
100
AcDbCircle
10
92.949748610011923
20
0.70710717238552478
30
0
40
1.0000000000000022
210
0
220
0
230
1
0
CIRCLE
5
131
100
AcDbEntity
8
0
100
AcDbCircle
10
92.94974818116799
20
92.949747256458991
30
0
40
1
210
0
220
0
230
1
0
ENDSEC
0
SECTION
2
OBJECTS
0
DICTIONARY
5
C
100
AcDbDictionary
3
ACAD_GROUP
350
D
3
ACAD_MLINESTYLE
350
17
0
DICTIONARY
5
D
100
AcDbDictionary
0
DICTIONARY
5
1A
330
C
100
AcDbDictionary
0
DICTIONARY
5
17
100
AcDbDictionary
0
ENDSEC
0
EOF
