%TF.GenerationSoftware,KiCad,Pcbnew,8.0.6*%
%TF.CreationDate,2025-02-02T15:37:04-07:00*%
%TF.ProjectId,Modular MacroPad,4d6f6475-6c61-4722-904d-6163726f5061,rev?*%
%TF.SameCoordinates,Original*%
%TF.FileFunction,Legend,Bot*%
%TF.FilePolarity,Positive*%
%FSLAX46Y46*%
G04 Gerber Fmt 4.6, Leading zero omitted, Abs format (unit mm)*
G04 Created by KiCad (PCBNEW 8.0.6) date 2025-02-02 15:37:04*
%MOMM*%
%LPD*%
G01*
G04 APERTURE LIST*
%ADD10C,0.150000*%
%ADD11C,0.120000*%
%ADD12C,0.152400*%
%ADD13C,0.000000*%
G04 APERTURE END LIST*
D10*
X149575122Y-103990808D02*
X149432265Y-104038427D01*
X149432265Y-104038427D02*
X149194170Y-104038427D01*
X149194170Y-104038427D02*
X149098932Y-103990808D01*
X149098932Y-103990808D02*
X149051313Y-103943188D01*
X149051313Y-103943188D02*
X149003694Y-103847950D01*
X149003694Y-103847950D02*
X149003694Y-103752712D01*
X149003694Y-103752712D02*
X149051313Y-103657474D01*
X149051313Y-103657474D02*
X149098932Y-103609855D01*
X149098932Y-103609855D02*
X149194170Y-103562236D01*
X149194170Y-103562236D02*
X149384646Y-103514617D01*
X149384646Y-103514617D02*
X149479884Y-103466998D01*
X149479884Y-103466998D02*
X149527503Y-103419379D01*
X149527503Y-103419379D02*
X149575122Y-103324141D01*
X149575122Y-103324141D02*
X149575122Y-103228903D01*
X149575122Y-103228903D02*
X149527503Y-103133665D01*
X149527503Y-103133665D02*
X149479884Y-103086046D01*
X149479884Y-103086046D02*
X149384646Y-103038427D01*
X149384646Y-103038427D02*
X149146551Y-103038427D01*
X149146551Y-103038427D02*
X149003694Y-103086046D01*
X148670360Y-103038427D02*
X148432265Y-104038427D01*
X148432265Y-104038427D02*
X148241789Y-103324141D01*
X148241789Y-103324141D02*
X148051313Y-104038427D01*
X148051313Y-104038427D02*
X147813218Y-103038427D01*
X147003694Y-103038427D02*
X147194170Y-103038427D01*
X147194170Y-103038427D02*
X147289408Y-103086046D01*
X147289408Y-103086046D02*
X147337027Y-103133665D01*
X147337027Y-103133665D02*
X147432265Y-103276522D01*
X147432265Y-103276522D02*
X147479884Y-103466998D01*
X147479884Y-103466998D02*
X147479884Y-103847950D01*
X147479884Y-103847950D02*
X147432265Y-103943188D01*
X147432265Y-103943188D02*
X147384646Y-103990808D01*
X147384646Y-103990808D02*
X147289408Y-104038427D01*
X147289408Y-104038427D02*
X147098932Y-104038427D01*
X147098932Y-104038427D02*
X147003694Y-103990808D01*
X147003694Y-103990808D02*
X146956075Y-103943188D01*
X146956075Y-103943188D02*
X146908456Y-103847950D01*
X146908456Y-103847950D02*
X146908456Y-103609855D01*
X146908456Y-103609855D02*
X146956075Y-103514617D01*
X146956075Y-103514617D02*
X147003694Y-103466998D01*
X147003694Y-103466998D02*
X147098932Y-103419379D01*
X147098932Y-103419379D02*
X147289408Y-103419379D01*
X147289408Y-103419379D02*
X147384646Y-103466998D01*
X147384646Y-103466998D02*
X147432265Y-103514617D01*
X147432265Y-103514617D02*
X147479884Y-103609855D01*
X187251313Y-122590808D02*
X187108456Y-122638427D01*
X187108456Y-122638427D02*
X186870361Y-122638427D01*
X186870361Y-122638427D02*
X186775123Y-122590808D01*
X186775123Y-122590808D02*
X186727504Y-122543188D01*
X186727504Y-122543188D02*
X186679885Y-122447950D01*
X186679885Y-122447950D02*
X186679885Y-122352712D01*
X186679885Y-122352712D02*
X186727504Y-122257474D01*
X186727504Y-122257474D02*
X186775123Y-122209855D01*
X186775123Y-122209855D02*
X186870361Y-122162236D01*
X186870361Y-122162236D02*
X187060837Y-122114617D01*
X187060837Y-122114617D02*
X187156075Y-122066998D01*
X187156075Y-122066998D02*
X187203694Y-122019379D01*
X187203694Y-122019379D02*
X187251313Y-121924141D01*
X187251313Y-121924141D02*
X187251313Y-121828903D01*
X187251313Y-121828903D02*
X187203694Y-121733665D01*
X187203694Y-121733665D02*
X187156075Y-121686046D01*
X187156075Y-121686046D02*
X187060837Y-121638427D01*
X187060837Y-121638427D02*
X186822742Y-121638427D01*
X186822742Y-121638427D02*
X186679885Y-121686046D01*
X186346551Y-121638427D02*
X186108456Y-122638427D01*
X186108456Y-122638427D02*
X185917980Y-121924141D01*
X185917980Y-121924141D02*
X185727504Y-122638427D01*
X185727504Y-122638427D02*
X185489409Y-121638427D01*
X184584647Y-122638427D02*
X185156075Y-122638427D01*
X184870361Y-122638427D02*
X184870361Y-121638427D01*
X184870361Y-121638427D02*
X184965599Y-121781284D01*
X184965599Y-121781284D02*
X185060837Y-121876522D01*
X185060837Y-121876522D02*
X185156075Y-121924141D01*
X184251313Y-121638427D02*
X183632266Y-121638427D01*
X183632266Y-121638427D02*
X183965599Y-122019379D01*
X183965599Y-122019379D02*
X183822742Y-122019379D01*
X183822742Y-122019379D02*
X183727504Y-122066998D01*
X183727504Y-122066998D02*
X183679885Y-122114617D01*
X183679885Y-122114617D02*
X183632266Y-122209855D01*
X183632266Y-122209855D02*
X183632266Y-122447950D01*
X183632266Y-122447950D02*
X183679885Y-122543188D01*
X183679885Y-122543188D02*
X183727504Y-122590808D01*
X183727504Y-122590808D02*
X183822742Y-122638427D01*
X183822742Y-122638427D02*
X184108456Y-122638427D01*
X184108456Y-122638427D02*
X184203694Y-122590808D01*
X184203694Y-122590808D02*
X184251313Y-122543188D01*
X168651313Y-122590808D02*
X168508456Y-122638427D01*
X168508456Y-122638427D02*
X168270361Y-122638427D01*
X168270361Y-122638427D02*
X168175123Y-122590808D01*
X168175123Y-122590808D02*
X168127504Y-122543188D01*
X168127504Y-122543188D02*
X168079885Y-122447950D01*
X168079885Y-122447950D02*
X168079885Y-122352712D01*
X168079885Y-122352712D02*
X168127504Y-122257474D01*
X168127504Y-122257474D02*
X168175123Y-122209855D01*
X168175123Y-122209855D02*
X168270361Y-122162236D01*
X168270361Y-122162236D02*
X168460837Y-122114617D01*
X168460837Y-122114617D02*
X168556075Y-122066998D01*
X168556075Y-122066998D02*
X168603694Y-122019379D01*
X168603694Y-122019379D02*
X168651313Y-121924141D01*
X168651313Y-121924141D02*
X168651313Y-121828903D01*
X168651313Y-121828903D02*
X168603694Y-121733665D01*
X168603694Y-121733665D02*
X168556075Y-121686046D01*
X168556075Y-121686046D02*
X168460837Y-121638427D01*
X168460837Y-121638427D02*
X168222742Y-121638427D01*
X168222742Y-121638427D02*
X168079885Y-121686046D01*
X167746551Y-121638427D02*
X167508456Y-122638427D01*
X167508456Y-122638427D02*
X167317980Y-121924141D01*
X167317980Y-121924141D02*
X167127504Y-122638427D01*
X167127504Y-122638427D02*
X166889409Y-121638427D01*
X165984647Y-122638427D02*
X166556075Y-122638427D01*
X166270361Y-122638427D02*
X166270361Y-121638427D01*
X166270361Y-121638427D02*
X166365599Y-121781284D01*
X166365599Y-121781284D02*
X166460837Y-121876522D01*
X166460837Y-121876522D02*
X166556075Y-121924141D01*
X165603694Y-121733665D02*
X165556075Y-121686046D01*
X165556075Y-121686046D02*
X165460837Y-121638427D01*
X165460837Y-121638427D02*
X165222742Y-121638427D01*
X165222742Y-121638427D02*
X165127504Y-121686046D01*
X165127504Y-121686046D02*
X165079885Y-121733665D01*
X165079885Y-121733665D02*
X165032266Y-121828903D01*
X165032266Y-121828903D02*
X165032266Y-121924141D01*
X165032266Y-121924141D02*
X165079885Y-122066998D01*
X165079885Y-122066998D02*
X165651313Y-122638427D01*
X165651313Y-122638427D02*
X165032266Y-122638427D01*
X112375122Y-122590808D02*
X112232265Y-122638427D01*
X112232265Y-122638427D02*
X111994170Y-122638427D01*
X111994170Y-122638427D02*
X111898932Y-122590808D01*
X111898932Y-122590808D02*
X111851313Y-122543188D01*
X111851313Y-122543188D02*
X111803694Y-122447950D01*
X111803694Y-122447950D02*
X111803694Y-122352712D01*
X111803694Y-122352712D02*
X111851313Y-122257474D01*
X111851313Y-122257474D02*
X111898932Y-122209855D01*
X111898932Y-122209855D02*
X111994170Y-122162236D01*
X111994170Y-122162236D02*
X112184646Y-122114617D01*
X112184646Y-122114617D02*
X112279884Y-122066998D01*
X112279884Y-122066998D02*
X112327503Y-122019379D01*
X112327503Y-122019379D02*
X112375122Y-121924141D01*
X112375122Y-121924141D02*
X112375122Y-121828903D01*
X112375122Y-121828903D02*
X112327503Y-121733665D01*
X112327503Y-121733665D02*
X112279884Y-121686046D01*
X112279884Y-121686046D02*
X112184646Y-121638427D01*
X112184646Y-121638427D02*
X111946551Y-121638427D01*
X111946551Y-121638427D02*
X111803694Y-121686046D01*
X111470360Y-121638427D02*
X111232265Y-122638427D01*
X111232265Y-122638427D02*
X111041789Y-121924141D01*
X111041789Y-121924141D02*
X110851313Y-122638427D01*
X110851313Y-122638427D02*
X110613218Y-121638427D01*
X110184646Y-122638427D02*
X109994170Y-122638427D01*
X109994170Y-122638427D02*
X109898932Y-122590808D01*
X109898932Y-122590808D02*
X109851313Y-122543188D01*
X109851313Y-122543188D02*
X109756075Y-122400331D01*
X109756075Y-122400331D02*
X109708456Y-122209855D01*
X109708456Y-122209855D02*
X109708456Y-121828903D01*
X109708456Y-121828903D02*
X109756075Y-121733665D01*
X109756075Y-121733665D02*
X109803694Y-121686046D01*
X109803694Y-121686046D02*
X109898932Y-121638427D01*
X109898932Y-121638427D02*
X110089408Y-121638427D01*
X110089408Y-121638427D02*
X110184646Y-121686046D01*
X110184646Y-121686046D02*
X110232265Y-121733665D01*
X110232265Y-121733665D02*
X110279884Y-121828903D01*
X110279884Y-121828903D02*
X110279884Y-122066998D01*
X110279884Y-122066998D02*
X110232265Y-122162236D01*
X110232265Y-122162236D02*
X110184646Y-122209855D01*
X110184646Y-122209855D02*
X110089408Y-122257474D01*
X110089408Y-122257474D02*
X109898932Y-122257474D01*
X109898932Y-122257474D02*
X109803694Y-122209855D01*
X109803694Y-122209855D02*
X109756075Y-122162236D01*
X109756075Y-122162236D02*
X109708456Y-122066998D01*
X130975122Y-103990808D02*
X130832265Y-104038427D01*
X130832265Y-104038427D02*
X130594170Y-104038427D01*
X130594170Y-104038427D02*
X130498932Y-103990808D01*
X130498932Y-103990808D02*
X130451313Y-103943188D01*
X130451313Y-103943188D02*
X130403694Y-103847950D01*
X130403694Y-103847950D02*
X130403694Y-103752712D01*
X130403694Y-103752712D02*
X130451313Y-103657474D01*
X130451313Y-103657474D02*
X130498932Y-103609855D01*
X130498932Y-103609855D02*
X130594170Y-103562236D01*
X130594170Y-103562236D02*
X130784646Y-103514617D01*
X130784646Y-103514617D02*
X130879884Y-103466998D01*
X130879884Y-103466998D02*
X130927503Y-103419379D01*
X130927503Y-103419379D02*
X130975122Y-103324141D01*
X130975122Y-103324141D02*
X130975122Y-103228903D01*
X130975122Y-103228903D02*
X130927503Y-103133665D01*
X130927503Y-103133665D02*
X130879884Y-103086046D01*
X130879884Y-103086046D02*
X130784646Y-103038427D01*
X130784646Y-103038427D02*
X130546551Y-103038427D01*
X130546551Y-103038427D02*
X130403694Y-103086046D01*
X130070360Y-103038427D02*
X129832265Y-104038427D01*
X129832265Y-104038427D02*
X129641789Y-103324141D01*
X129641789Y-103324141D02*
X129451313Y-104038427D01*
X129451313Y-104038427D02*
X129213218Y-103038427D01*
X128356075Y-103038427D02*
X128832265Y-103038427D01*
X128832265Y-103038427D02*
X128879884Y-103514617D01*
X128879884Y-103514617D02*
X128832265Y-103466998D01*
X128832265Y-103466998D02*
X128737027Y-103419379D01*
X128737027Y-103419379D02*
X128498932Y-103419379D01*
X128498932Y-103419379D02*
X128403694Y-103466998D01*
X128403694Y-103466998D02*
X128356075Y-103514617D01*
X128356075Y-103514617D02*
X128308456Y-103609855D01*
X128308456Y-103609855D02*
X128308456Y-103847950D01*
X128308456Y-103847950D02*
X128356075Y-103943188D01*
X128356075Y-103943188D02*
X128403694Y-103990808D01*
X128403694Y-103990808D02*
X128498932Y-104038427D01*
X128498932Y-104038427D02*
X128737027Y-104038427D01*
X128737027Y-104038427D02*
X128832265Y-103990808D01*
X128832265Y-103990808D02*
X128879884Y-103943188D01*
X150051313Y-122590808D02*
X149908456Y-122638427D01*
X149908456Y-122638427D02*
X149670361Y-122638427D01*
X149670361Y-122638427D02*
X149575123Y-122590808D01*
X149575123Y-122590808D02*
X149527504Y-122543188D01*
X149527504Y-122543188D02*
X149479885Y-122447950D01*
X149479885Y-122447950D02*
X149479885Y-122352712D01*
X149479885Y-122352712D02*
X149527504Y-122257474D01*
X149527504Y-122257474D02*
X149575123Y-122209855D01*
X149575123Y-122209855D02*
X149670361Y-122162236D01*
X149670361Y-122162236D02*
X149860837Y-122114617D01*
X149860837Y-122114617D02*
X149956075Y-122066998D01*
X149956075Y-122066998D02*
X150003694Y-122019379D01*
X150003694Y-122019379D02*
X150051313Y-121924141D01*
X150051313Y-121924141D02*
X150051313Y-121828903D01*
X150051313Y-121828903D02*
X150003694Y-121733665D01*
X150003694Y-121733665D02*
X149956075Y-121686046D01*
X149956075Y-121686046D02*
X149860837Y-121638427D01*
X149860837Y-121638427D02*
X149622742Y-121638427D01*
X149622742Y-121638427D02*
X149479885Y-121686046D01*
X149146551Y-121638427D02*
X148908456Y-122638427D01*
X148908456Y-122638427D02*
X148717980Y-121924141D01*
X148717980Y-121924141D02*
X148527504Y-122638427D01*
X148527504Y-122638427D02*
X148289409Y-121638427D01*
X147384647Y-122638427D02*
X147956075Y-122638427D01*
X147670361Y-122638427D02*
X147670361Y-121638427D01*
X147670361Y-121638427D02*
X147765599Y-121781284D01*
X147765599Y-121781284D02*
X147860837Y-121876522D01*
X147860837Y-121876522D02*
X147956075Y-121924141D01*
X146432266Y-122638427D02*
X147003694Y-122638427D01*
X146717980Y-122638427D02*
X146717980Y-121638427D01*
X146717980Y-121638427D02*
X146813218Y-121781284D01*
X146813218Y-121781284D02*
X146908456Y-121876522D01*
X146908456Y-121876522D02*
X147003694Y-121924141D01*
X131451313Y-122590808D02*
X131308456Y-122638427D01*
X131308456Y-122638427D02*
X131070361Y-122638427D01*
X131070361Y-122638427D02*
X130975123Y-122590808D01*
X130975123Y-122590808D02*
X130927504Y-122543188D01*
X130927504Y-122543188D02*
X130879885Y-122447950D01*
X130879885Y-122447950D02*
X130879885Y-122352712D01*
X130879885Y-122352712D02*
X130927504Y-122257474D01*
X130927504Y-122257474D02*
X130975123Y-122209855D01*
X130975123Y-122209855D02*
X131070361Y-122162236D01*
X131070361Y-122162236D02*
X131260837Y-122114617D01*
X131260837Y-122114617D02*
X131356075Y-122066998D01*
X131356075Y-122066998D02*
X131403694Y-122019379D01*
X131403694Y-122019379D02*
X131451313Y-121924141D01*
X131451313Y-121924141D02*
X131451313Y-121828903D01*
X131451313Y-121828903D02*
X131403694Y-121733665D01*
X131403694Y-121733665D02*
X131356075Y-121686046D01*
X131356075Y-121686046D02*
X131260837Y-121638427D01*
X131260837Y-121638427D02*
X131022742Y-121638427D01*
X131022742Y-121638427D02*
X130879885Y-121686046D01*
X130546551Y-121638427D02*
X130308456Y-122638427D01*
X130308456Y-122638427D02*
X130117980Y-121924141D01*
X130117980Y-121924141D02*
X129927504Y-122638427D01*
X129927504Y-122638427D02*
X129689409Y-121638427D01*
X128784647Y-122638427D02*
X129356075Y-122638427D01*
X129070361Y-122638427D02*
X129070361Y-121638427D01*
X129070361Y-121638427D02*
X129165599Y-121781284D01*
X129165599Y-121781284D02*
X129260837Y-121876522D01*
X129260837Y-121876522D02*
X129356075Y-121924141D01*
X128165599Y-121638427D02*
X128070361Y-121638427D01*
X128070361Y-121638427D02*
X127975123Y-121686046D01*
X127975123Y-121686046D02*
X127927504Y-121733665D01*
X127927504Y-121733665D02*
X127879885Y-121828903D01*
X127879885Y-121828903D02*
X127832266Y-122019379D01*
X127832266Y-122019379D02*
X127832266Y-122257474D01*
X127832266Y-122257474D02*
X127879885Y-122447950D01*
X127879885Y-122447950D02*
X127927504Y-122543188D01*
X127927504Y-122543188D02*
X127975123Y-122590808D01*
X127975123Y-122590808D02*
X128070361Y-122638427D01*
X128070361Y-122638427D02*
X128165599Y-122638427D01*
X128165599Y-122638427D02*
X128260837Y-122590808D01*
X128260837Y-122590808D02*
X128308456Y-122543188D01*
X128308456Y-122543188D02*
X128356075Y-122447950D01*
X128356075Y-122447950D02*
X128403694Y-122257474D01*
X128403694Y-122257474D02*
X128403694Y-122019379D01*
X128403694Y-122019379D02*
X128356075Y-121828903D01*
X128356075Y-121828903D02*
X128308456Y-121733665D01*
X128308456Y-121733665D02*
X128260837Y-121686046D01*
X128260837Y-121686046D02*
X128165599Y-121638427D01*
X112851313Y-140850389D02*
X112708456Y-140898008D01*
X112708456Y-140898008D02*
X112470361Y-140898008D01*
X112470361Y-140898008D02*
X112375123Y-140850389D01*
X112375123Y-140850389D02*
X112327504Y-140802769D01*
X112327504Y-140802769D02*
X112279885Y-140707531D01*
X112279885Y-140707531D02*
X112279885Y-140612293D01*
X112279885Y-140612293D02*
X112327504Y-140517055D01*
X112327504Y-140517055D02*
X112375123Y-140469436D01*
X112375123Y-140469436D02*
X112470361Y-140421817D01*
X112470361Y-140421817D02*
X112660837Y-140374198D01*
X112660837Y-140374198D02*
X112756075Y-140326579D01*
X112756075Y-140326579D02*
X112803694Y-140278960D01*
X112803694Y-140278960D02*
X112851313Y-140183722D01*
X112851313Y-140183722D02*
X112851313Y-140088484D01*
X112851313Y-140088484D02*
X112803694Y-139993246D01*
X112803694Y-139993246D02*
X112756075Y-139945627D01*
X112756075Y-139945627D02*
X112660837Y-139898008D01*
X112660837Y-139898008D02*
X112422742Y-139898008D01*
X112422742Y-139898008D02*
X112279885Y-139945627D01*
X111946551Y-139898008D02*
X111708456Y-140898008D01*
X111708456Y-140898008D02*
X111517980Y-140183722D01*
X111517980Y-140183722D02*
X111327504Y-140898008D01*
X111327504Y-140898008D02*
X111089409Y-139898008D01*
X110184647Y-140898008D02*
X110756075Y-140898008D01*
X110470361Y-140898008D02*
X110470361Y-139898008D01*
X110470361Y-139898008D02*
X110565599Y-140040865D01*
X110565599Y-140040865D02*
X110660837Y-140136103D01*
X110660837Y-140136103D02*
X110756075Y-140183722D01*
X109327504Y-140231341D02*
X109327504Y-140898008D01*
X109565599Y-139850389D02*
X109803694Y-140564674D01*
X109803694Y-140564674D02*
X109184647Y-140564674D01*
X187251313Y-140850389D02*
X187108456Y-140898008D01*
X187108456Y-140898008D02*
X186870361Y-140898008D01*
X186870361Y-140898008D02*
X186775123Y-140850389D01*
X186775123Y-140850389D02*
X186727504Y-140802769D01*
X186727504Y-140802769D02*
X186679885Y-140707531D01*
X186679885Y-140707531D02*
X186679885Y-140612293D01*
X186679885Y-140612293D02*
X186727504Y-140517055D01*
X186727504Y-140517055D02*
X186775123Y-140469436D01*
X186775123Y-140469436D02*
X186870361Y-140421817D01*
X186870361Y-140421817D02*
X187060837Y-140374198D01*
X187060837Y-140374198D02*
X187156075Y-140326579D01*
X187156075Y-140326579D02*
X187203694Y-140278960D01*
X187203694Y-140278960D02*
X187251313Y-140183722D01*
X187251313Y-140183722D02*
X187251313Y-140088484D01*
X187251313Y-140088484D02*
X187203694Y-139993246D01*
X187203694Y-139993246D02*
X187156075Y-139945627D01*
X187156075Y-139945627D02*
X187060837Y-139898008D01*
X187060837Y-139898008D02*
X186822742Y-139898008D01*
X186822742Y-139898008D02*
X186679885Y-139945627D01*
X186346551Y-139898008D02*
X186108456Y-140898008D01*
X186108456Y-140898008D02*
X185917980Y-140183722D01*
X185917980Y-140183722D02*
X185727504Y-140898008D01*
X185727504Y-140898008D02*
X185489409Y-139898008D01*
X184584647Y-140898008D02*
X185156075Y-140898008D01*
X184870361Y-140898008D02*
X184870361Y-139898008D01*
X184870361Y-139898008D02*
X184965599Y-140040865D01*
X184965599Y-140040865D02*
X185060837Y-140136103D01*
X185060837Y-140136103D02*
X185156075Y-140183722D01*
X184013218Y-140326579D02*
X184108456Y-140278960D01*
X184108456Y-140278960D02*
X184156075Y-140231341D01*
X184156075Y-140231341D02*
X184203694Y-140136103D01*
X184203694Y-140136103D02*
X184203694Y-140088484D01*
X184203694Y-140088484D02*
X184156075Y-139993246D01*
X184156075Y-139993246D02*
X184108456Y-139945627D01*
X184108456Y-139945627D02*
X184013218Y-139898008D01*
X184013218Y-139898008D02*
X183822742Y-139898008D01*
X183822742Y-139898008D02*
X183727504Y-139945627D01*
X183727504Y-139945627D02*
X183679885Y-139993246D01*
X183679885Y-139993246D02*
X183632266Y-140088484D01*
X183632266Y-140088484D02*
X183632266Y-140136103D01*
X183632266Y-140136103D02*
X183679885Y-140231341D01*
X183679885Y-140231341D02*
X183727504Y-140278960D01*
X183727504Y-140278960D02*
X183822742Y-140326579D01*
X183822742Y-140326579D02*
X184013218Y-140326579D01*
X184013218Y-140326579D02*
X184108456Y-140374198D01*
X184108456Y-140374198D02*
X184156075Y-140421817D01*
X184156075Y-140421817D02*
X184203694Y-140517055D01*
X184203694Y-140517055D02*
X184203694Y-140707531D01*
X184203694Y-140707531D02*
X184156075Y-140802769D01*
X184156075Y-140802769D02*
X184108456Y-140850389D01*
X184108456Y-140850389D02*
X184013218Y-140898008D01*
X184013218Y-140898008D02*
X183822742Y-140898008D01*
X183822742Y-140898008D02*
X183727504Y-140850389D01*
X183727504Y-140850389D02*
X183679885Y-140802769D01*
X183679885Y-140802769D02*
X183632266Y-140707531D01*
X183632266Y-140707531D02*
X183632266Y-140517055D01*
X183632266Y-140517055D02*
X183679885Y-140421817D01*
X183679885Y-140421817D02*
X183727504Y-140374198D01*
X183727504Y-140374198D02*
X183822742Y-140326579D01*
X112375122Y-103990808D02*
X112232265Y-104038427D01*
X112232265Y-104038427D02*
X111994170Y-104038427D01*
X111994170Y-104038427D02*
X111898932Y-103990808D01*
X111898932Y-103990808D02*
X111851313Y-103943188D01*
X111851313Y-103943188D02*
X111803694Y-103847950D01*
X111803694Y-103847950D02*
X111803694Y-103752712D01*
X111803694Y-103752712D02*
X111851313Y-103657474D01*
X111851313Y-103657474D02*
X111898932Y-103609855D01*
X111898932Y-103609855D02*
X111994170Y-103562236D01*
X111994170Y-103562236D02*
X112184646Y-103514617D01*
X112184646Y-103514617D02*
X112279884Y-103466998D01*
X112279884Y-103466998D02*
X112327503Y-103419379D01*
X112327503Y-103419379D02*
X112375122Y-103324141D01*
X112375122Y-103324141D02*
X112375122Y-103228903D01*
X112375122Y-103228903D02*
X112327503Y-103133665D01*
X112327503Y-103133665D02*
X112279884Y-103086046D01*
X112279884Y-103086046D02*
X112184646Y-103038427D01*
X112184646Y-103038427D02*
X111946551Y-103038427D01*
X111946551Y-103038427D02*
X111803694Y-103086046D01*
X111470360Y-103038427D02*
X111232265Y-104038427D01*
X111232265Y-104038427D02*
X111041789Y-103324141D01*
X111041789Y-103324141D02*
X110851313Y-104038427D01*
X110851313Y-104038427D02*
X110613218Y-103038427D01*
X109803694Y-103371760D02*
X109803694Y-104038427D01*
X110041789Y-102990808D02*
X110279884Y-103705093D01*
X110279884Y-103705093D02*
X109660837Y-103705093D01*
X131451313Y-140850389D02*
X131308456Y-140898008D01*
X131308456Y-140898008D02*
X131070361Y-140898008D01*
X131070361Y-140898008D02*
X130975123Y-140850389D01*
X130975123Y-140850389D02*
X130927504Y-140802769D01*
X130927504Y-140802769D02*
X130879885Y-140707531D01*
X130879885Y-140707531D02*
X130879885Y-140612293D01*
X130879885Y-140612293D02*
X130927504Y-140517055D01*
X130927504Y-140517055D02*
X130975123Y-140469436D01*
X130975123Y-140469436D02*
X131070361Y-140421817D01*
X131070361Y-140421817D02*
X131260837Y-140374198D01*
X131260837Y-140374198D02*
X131356075Y-140326579D01*
X131356075Y-140326579D02*
X131403694Y-140278960D01*
X131403694Y-140278960D02*
X131451313Y-140183722D01*
X131451313Y-140183722D02*
X131451313Y-140088484D01*
X131451313Y-140088484D02*
X131403694Y-139993246D01*
X131403694Y-139993246D02*
X131356075Y-139945627D01*
X131356075Y-139945627D02*
X131260837Y-139898008D01*
X131260837Y-139898008D02*
X131022742Y-139898008D01*
X131022742Y-139898008D02*
X130879885Y-139945627D01*
X130546551Y-139898008D02*
X130308456Y-140898008D01*
X130308456Y-140898008D02*
X130117980Y-140183722D01*
X130117980Y-140183722D02*
X129927504Y-140898008D01*
X129927504Y-140898008D02*
X129689409Y-139898008D01*
X128784647Y-140898008D02*
X129356075Y-140898008D01*
X129070361Y-140898008D02*
X129070361Y-139898008D01*
X129070361Y-139898008D02*
X129165599Y-140040865D01*
X129165599Y-140040865D02*
X129260837Y-140136103D01*
X129260837Y-140136103D02*
X129356075Y-140183722D01*
X127879885Y-139898008D02*
X128356075Y-139898008D01*
X128356075Y-139898008D02*
X128403694Y-140374198D01*
X128403694Y-140374198D02*
X128356075Y-140326579D01*
X128356075Y-140326579D02*
X128260837Y-140278960D01*
X128260837Y-140278960D02*
X128022742Y-140278960D01*
X128022742Y-140278960D02*
X127927504Y-140326579D01*
X127927504Y-140326579D02*
X127879885Y-140374198D01*
X127879885Y-140374198D02*
X127832266Y-140469436D01*
X127832266Y-140469436D02*
X127832266Y-140707531D01*
X127832266Y-140707531D02*
X127879885Y-140802769D01*
X127879885Y-140802769D02*
X127927504Y-140850389D01*
X127927504Y-140850389D02*
X128022742Y-140898008D01*
X128022742Y-140898008D02*
X128260837Y-140898008D01*
X128260837Y-140898008D02*
X128356075Y-140850389D01*
X128356075Y-140850389D02*
X128403694Y-140802769D01*
X168175122Y-103990808D02*
X168032265Y-104038427D01*
X168032265Y-104038427D02*
X167794170Y-104038427D01*
X167794170Y-104038427D02*
X167698932Y-103990808D01*
X167698932Y-103990808D02*
X167651313Y-103943188D01*
X167651313Y-103943188D02*
X167603694Y-103847950D01*
X167603694Y-103847950D02*
X167603694Y-103752712D01*
X167603694Y-103752712D02*
X167651313Y-103657474D01*
X167651313Y-103657474D02*
X167698932Y-103609855D01*
X167698932Y-103609855D02*
X167794170Y-103562236D01*
X167794170Y-103562236D02*
X167984646Y-103514617D01*
X167984646Y-103514617D02*
X168079884Y-103466998D01*
X168079884Y-103466998D02*
X168127503Y-103419379D01*
X168127503Y-103419379D02*
X168175122Y-103324141D01*
X168175122Y-103324141D02*
X168175122Y-103228903D01*
X168175122Y-103228903D02*
X168127503Y-103133665D01*
X168127503Y-103133665D02*
X168079884Y-103086046D01*
X168079884Y-103086046D02*
X167984646Y-103038427D01*
X167984646Y-103038427D02*
X167746551Y-103038427D01*
X167746551Y-103038427D02*
X167603694Y-103086046D01*
X167270360Y-103038427D02*
X167032265Y-104038427D01*
X167032265Y-104038427D02*
X166841789Y-103324141D01*
X166841789Y-103324141D02*
X166651313Y-104038427D01*
X166651313Y-104038427D02*
X166413218Y-103038427D01*
X166127503Y-103038427D02*
X165460837Y-103038427D01*
X165460837Y-103038427D02*
X165889408Y-104038427D01*
X168178922Y-85446189D02*
X168036065Y-85493808D01*
X168036065Y-85493808D02*
X167797970Y-85493808D01*
X167797970Y-85493808D02*
X167702732Y-85446189D01*
X167702732Y-85446189D02*
X167655113Y-85398569D01*
X167655113Y-85398569D02*
X167607494Y-85303331D01*
X167607494Y-85303331D02*
X167607494Y-85208093D01*
X167607494Y-85208093D02*
X167655113Y-85112855D01*
X167655113Y-85112855D02*
X167702732Y-85065236D01*
X167702732Y-85065236D02*
X167797970Y-85017617D01*
X167797970Y-85017617D02*
X167988446Y-84969998D01*
X167988446Y-84969998D02*
X168083684Y-84922379D01*
X168083684Y-84922379D02*
X168131303Y-84874760D01*
X168131303Y-84874760D02*
X168178922Y-84779522D01*
X168178922Y-84779522D02*
X168178922Y-84684284D01*
X168178922Y-84684284D02*
X168131303Y-84589046D01*
X168131303Y-84589046D02*
X168083684Y-84541427D01*
X168083684Y-84541427D02*
X167988446Y-84493808D01*
X167988446Y-84493808D02*
X167750351Y-84493808D01*
X167750351Y-84493808D02*
X167607494Y-84541427D01*
X167274160Y-84493808D02*
X167036065Y-85493808D01*
X167036065Y-85493808D02*
X166845589Y-84779522D01*
X166845589Y-84779522D02*
X166655113Y-85493808D01*
X166655113Y-85493808D02*
X166417018Y-84493808D01*
X166131303Y-84493808D02*
X165512256Y-84493808D01*
X165512256Y-84493808D02*
X165845589Y-84874760D01*
X165845589Y-84874760D02*
X165702732Y-84874760D01*
X165702732Y-84874760D02*
X165607494Y-84922379D01*
X165607494Y-84922379D02*
X165559875Y-84969998D01*
X165559875Y-84969998D02*
X165512256Y-85065236D01*
X165512256Y-85065236D02*
X165512256Y-85303331D01*
X165512256Y-85303331D02*
X165559875Y-85398569D01*
X165559875Y-85398569D02*
X165607494Y-85446189D01*
X165607494Y-85446189D02*
X165702732Y-85493808D01*
X165702732Y-85493808D02*
X165988446Y-85493808D01*
X165988446Y-85493808D02*
X166083684Y-85446189D01*
X166083684Y-85446189D02*
X166131303Y-85398569D01*
X168651313Y-140850389D02*
X168508456Y-140898008D01*
X168508456Y-140898008D02*
X168270361Y-140898008D01*
X168270361Y-140898008D02*
X168175123Y-140850389D01*
X168175123Y-140850389D02*
X168127504Y-140802769D01*
X168127504Y-140802769D02*
X168079885Y-140707531D01*
X168079885Y-140707531D02*
X168079885Y-140612293D01*
X168079885Y-140612293D02*
X168127504Y-140517055D01*
X168127504Y-140517055D02*
X168175123Y-140469436D01*
X168175123Y-140469436D02*
X168270361Y-140421817D01*
X168270361Y-140421817D02*
X168460837Y-140374198D01*
X168460837Y-140374198D02*
X168556075Y-140326579D01*
X168556075Y-140326579D02*
X168603694Y-140278960D01*
X168603694Y-140278960D02*
X168651313Y-140183722D01*
X168651313Y-140183722D02*
X168651313Y-140088484D01*
X168651313Y-140088484D02*
X168603694Y-139993246D01*
X168603694Y-139993246D02*
X168556075Y-139945627D01*
X168556075Y-139945627D02*
X168460837Y-139898008D01*
X168460837Y-139898008D02*
X168222742Y-139898008D01*
X168222742Y-139898008D02*
X168079885Y-139945627D01*
X167746551Y-139898008D02*
X167508456Y-140898008D01*
X167508456Y-140898008D02*
X167317980Y-140183722D01*
X167317980Y-140183722D02*
X167127504Y-140898008D01*
X167127504Y-140898008D02*
X166889409Y-139898008D01*
X165984647Y-140898008D02*
X166556075Y-140898008D01*
X166270361Y-140898008D02*
X166270361Y-139898008D01*
X166270361Y-139898008D02*
X166365599Y-140040865D01*
X166365599Y-140040865D02*
X166460837Y-140136103D01*
X166460837Y-140136103D02*
X166556075Y-140183722D01*
X165651313Y-139898008D02*
X164984647Y-139898008D01*
X164984647Y-139898008D02*
X165413218Y-140898008D01*
X146013931Y-140850389D02*
X145871074Y-140898008D01*
X145871074Y-140898008D02*
X145632979Y-140898008D01*
X145632979Y-140898008D02*
X145537741Y-140850389D01*
X145537741Y-140850389D02*
X145490122Y-140802769D01*
X145490122Y-140802769D02*
X145442503Y-140707531D01*
X145442503Y-140707531D02*
X145442503Y-140612293D01*
X145442503Y-140612293D02*
X145490122Y-140517055D01*
X145490122Y-140517055D02*
X145537741Y-140469436D01*
X145537741Y-140469436D02*
X145632979Y-140421817D01*
X145632979Y-140421817D02*
X145823455Y-140374198D01*
X145823455Y-140374198D02*
X145918693Y-140326579D01*
X145918693Y-140326579D02*
X145966312Y-140278960D01*
X145966312Y-140278960D02*
X146013931Y-140183722D01*
X146013931Y-140183722D02*
X146013931Y-140088484D01*
X146013931Y-140088484D02*
X145966312Y-139993246D01*
X145966312Y-139993246D02*
X145918693Y-139945627D01*
X145918693Y-139945627D02*
X145823455Y-139898008D01*
X145823455Y-139898008D02*
X145585360Y-139898008D01*
X145585360Y-139898008D02*
X145442503Y-139945627D01*
X145109169Y-139898008D02*
X144871074Y-140898008D01*
X144871074Y-140898008D02*
X144680598Y-140183722D01*
X144680598Y-140183722D02*
X144490122Y-140898008D01*
X144490122Y-140898008D02*
X144252027Y-139898008D01*
X143347265Y-140898008D02*
X143918693Y-140898008D01*
X143632979Y-140898008D02*
X143632979Y-139898008D01*
X143632979Y-139898008D02*
X143728217Y-140040865D01*
X143728217Y-140040865D02*
X143823455Y-140136103D01*
X143823455Y-140136103D02*
X143918693Y-140183722D01*
X142490122Y-139898008D02*
X142680598Y-139898008D01*
X142680598Y-139898008D02*
X142775836Y-139945627D01*
X142775836Y-139945627D02*
X142823455Y-139993246D01*
X142823455Y-139993246D02*
X142918693Y-140136103D01*
X142918693Y-140136103D02*
X142966312Y-140326579D01*
X142966312Y-140326579D02*
X142966312Y-140707531D01*
X142966312Y-140707531D02*
X142918693Y-140802769D01*
X142918693Y-140802769D02*
X142871074Y-140850389D01*
X142871074Y-140850389D02*
X142775836Y-140898008D01*
X142775836Y-140898008D02*
X142585360Y-140898008D01*
X142585360Y-140898008D02*
X142490122Y-140850389D01*
X142490122Y-140850389D02*
X142442503Y-140802769D01*
X142442503Y-140802769D02*
X142394884Y-140707531D01*
X142394884Y-140707531D02*
X142394884Y-140469436D01*
X142394884Y-140469436D02*
X142442503Y-140374198D01*
X142442503Y-140374198D02*
X142490122Y-140326579D01*
X142490122Y-140326579D02*
X142585360Y-140278960D01*
X142585360Y-140278960D02*
X142775836Y-140278960D01*
X142775836Y-140278960D02*
X142871074Y-140326579D01*
X142871074Y-140326579D02*
X142918693Y-140374198D01*
X142918693Y-140374198D02*
X142966312Y-140469436D01*
X168178922Y-66827989D02*
X168036065Y-66875608D01*
X168036065Y-66875608D02*
X167797970Y-66875608D01*
X167797970Y-66875608D02*
X167702732Y-66827989D01*
X167702732Y-66827989D02*
X167655113Y-66780369D01*
X167655113Y-66780369D02*
X167607494Y-66685131D01*
X167607494Y-66685131D02*
X167607494Y-66589893D01*
X167607494Y-66589893D02*
X167655113Y-66494655D01*
X167655113Y-66494655D02*
X167702732Y-66447036D01*
X167702732Y-66447036D02*
X167797970Y-66399417D01*
X167797970Y-66399417D02*
X167988446Y-66351798D01*
X167988446Y-66351798D02*
X168083684Y-66304179D01*
X168083684Y-66304179D02*
X168131303Y-66256560D01*
X168131303Y-66256560D02*
X168178922Y-66161322D01*
X168178922Y-66161322D02*
X168178922Y-66066084D01*
X168178922Y-66066084D02*
X168131303Y-65970846D01*
X168131303Y-65970846D02*
X168083684Y-65923227D01*
X168083684Y-65923227D02*
X167988446Y-65875608D01*
X167988446Y-65875608D02*
X167750351Y-65875608D01*
X167750351Y-65875608D02*
X167607494Y-65923227D01*
X167274160Y-65875608D02*
X167036065Y-66875608D01*
X167036065Y-66875608D02*
X166845589Y-66161322D01*
X166845589Y-66161322D02*
X166655113Y-66875608D01*
X166655113Y-66875608D02*
X166417018Y-65875608D01*
X165512256Y-66875608D02*
X166083684Y-66875608D01*
X165797970Y-66875608D02*
X165797970Y-65875608D01*
X165797970Y-65875608D02*
X165893208Y-66018465D01*
X165893208Y-66018465D02*
X165988446Y-66113703D01*
X165988446Y-66113703D02*
X166083684Y-66161322D01*
X144241209Y-66418350D02*
X143765018Y-66085017D01*
X144241209Y-65846922D02*
X143241209Y-65846922D01*
X143241209Y-65846922D02*
X143241209Y-66227874D01*
X143241209Y-66227874D02*
X143288828Y-66323112D01*
X143288828Y-66323112D02*
X143336447Y-66370731D01*
X143336447Y-66370731D02*
X143431685Y-66418350D01*
X143431685Y-66418350D02*
X143574542Y-66418350D01*
X143574542Y-66418350D02*
X143669780Y-66370731D01*
X143669780Y-66370731D02*
X143717399Y-66323112D01*
X143717399Y-66323112D02*
X143765018Y-66227874D01*
X143765018Y-66227874D02*
X143765018Y-65846922D01*
X144241209Y-67370731D02*
X144241209Y-66799303D01*
X144241209Y-67085017D02*
X143241209Y-67085017D01*
X143241209Y-67085017D02*
X143384066Y-66989779D01*
X143384066Y-66989779D02*
X143479304Y-66894541D01*
X143479304Y-66894541D02*
X143526923Y-66799303D01*
X143336447Y-67751684D02*
X143288828Y-67799303D01*
X143288828Y-67799303D02*
X143241209Y-67894541D01*
X143241209Y-67894541D02*
X143241209Y-68132636D01*
X143241209Y-68132636D02*
X143288828Y-68227874D01*
X143288828Y-68227874D02*
X143336447Y-68275493D01*
X143336447Y-68275493D02*
X143431685Y-68323112D01*
X143431685Y-68323112D02*
X143526923Y-68323112D01*
X143526923Y-68323112D02*
X143669780Y-68275493D01*
X143669780Y-68275493D02*
X144241209Y-67704065D01*
X144241209Y-67704065D02*
X144241209Y-68323112D01*
X135011209Y-92896922D02*
X134011209Y-92896922D01*
X134011209Y-92896922D02*
X134011209Y-93135017D01*
X134011209Y-93135017D02*
X134058828Y-93277874D01*
X134058828Y-93277874D02*
X134154066Y-93373112D01*
X134154066Y-93373112D02*
X134249304Y-93420731D01*
X134249304Y-93420731D02*
X134439780Y-93468350D01*
X134439780Y-93468350D02*
X134582637Y-93468350D01*
X134582637Y-93468350D02*
X134773113Y-93420731D01*
X134773113Y-93420731D02*
X134868351Y-93373112D01*
X134868351Y-93373112D02*
X134963590Y-93277874D01*
X134963590Y-93277874D02*
X135011209Y-93135017D01*
X135011209Y-93135017D02*
X135011209Y-92896922D01*
X134011209Y-93801684D02*
X134011209Y-94420731D01*
X134011209Y-94420731D02*
X134392161Y-94087398D01*
X134392161Y-94087398D02*
X134392161Y-94230255D01*
X134392161Y-94230255D02*
X134439780Y-94325493D01*
X134439780Y-94325493D02*
X134487399Y-94373112D01*
X134487399Y-94373112D02*
X134582637Y-94420731D01*
X134582637Y-94420731D02*
X134820732Y-94420731D01*
X134820732Y-94420731D02*
X134915970Y-94373112D01*
X134915970Y-94373112D02*
X134963590Y-94325493D01*
X134963590Y-94325493D02*
X135011209Y-94230255D01*
X135011209Y-94230255D02*
X135011209Y-93944541D01*
X135011209Y-93944541D02*
X134963590Y-93849303D01*
X134963590Y-93849303D02*
X134915970Y-93801684D01*
X134439780Y-94992160D02*
X134392161Y-94896922D01*
X134392161Y-94896922D02*
X134344542Y-94849303D01*
X134344542Y-94849303D02*
X134249304Y-94801684D01*
X134249304Y-94801684D02*
X134201685Y-94801684D01*
X134201685Y-94801684D02*
X134106447Y-94849303D01*
X134106447Y-94849303D02*
X134058828Y-94896922D01*
X134058828Y-94896922D02*
X134011209Y-94992160D01*
X134011209Y-94992160D02*
X134011209Y-95182636D01*
X134011209Y-95182636D02*
X134058828Y-95277874D01*
X134058828Y-95277874D02*
X134106447Y-95325493D01*
X134106447Y-95325493D02*
X134201685Y-95373112D01*
X134201685Y-95373112D02*
X134249304Y-95373112D01*
X134249304Y-95373112D02*
X134344542Y-95325493D01*
X134344542Y-95325493D02*
X134392161Y-95277874D01*
X134392161Y-95277874D02*
X134439780Y-95182636D01*
X134439780Y-95182636D02*
X134439780Y-94992160D01*
X134439780Y-94992160D02*
X134487399Y-94896922D01*
X134487399Y-94896922D02*
X134535018Y-94849303D01*
X134535018Y-94849303D02*
X134630256Y-94801684D01*
X134630256Y-94801684D02*
X134820732Y-94801684D01*
X134820732Y-94801684D02*
X134915970Y-94849303D01*
X134915970Y-94849303D02*
X134963590Y-94896922D01*
X134963590Y-94896922D02*
X135011209Y-94992160D01*
X135011209Y-94992160D02*
X135011209Y-95182636D01*
X135011209Y-95182636D02*
X134963590Y-95277874D01*
X134963590Y-95277874D02*
X134915970Y-95325493D01*
X134915970Y-95325493D02*
X134820732Y-95373112D01*
X134820732Y-95373112D02*
X134630256Y-95373112D01*
X134630256Y-95373112D02*
X134535018Y-95325493D01*
X134535018Y-95325493D02*
X134487399Y-95277874D01*
X134487399Y-95277874D02*
X134439780Y-95182636D01*
X135111209Y-111284422D02*
X134111209Y-111284422D01*
X134111209Y-111284422D02*
X134111209Y-111522517D01*
X134111209Y-111522517D02*
X134158828Y-111665374D01*
X134158828Y-111665374D02*
X134254066Y-111760612D01*
X134254066Y-111760612D02*
X134349304Y-111808231D01*
X134349304Y-111808231D02*
X134539780Y-111855850D01*
X134539780Y-111855850D02*
X134682637Y-111855850D01*
X134682637Y-111855850D02*
X134873113Y-111808231D01*
X134873113Y-111808231D02*
X134968351Y-111760612D01*
X134968351Y-111760612D02*
X135063590Y-111665374D01*
X135063590Y-111665374D02*
X135111209Y-111522517D01*
X135111209Y-111522517D02*
X135111209Y-111284422D01*
X134111209Y-112189184D02*
X134111209Y-112808231D01*
X134111209Y-112808231D02*
X134492161Y-112474898D01*
X134492161Y-112474898D02*
X134492161Y-112617755D01*
X134492161Y-112617755D02*
X134539780Y-112712993D01*
X134539780Y-112712993D02*
X134587399Y-112760612D01*
X134587399Y-112760612D02*
X134682637Y-112808231D01*
X134682637Y-112808231D02*
X134920732Y-112808231D01*
X134920732Y-112808231D02*
X135015970Y-112760612D01*
X135015970Y-112760612D02*
X135063590Y-112712993D01*
X135063590Y-112712993D02*
X135111209Y-112617755D01*
X135111209Y-112617755D02*
X135111209Y-112332041D01*
X135111209Y-112332041D02*
X135063590Y-112236803D01*
X135063590Y-112236803D02*
X135015970Y-112189184D01*
X134444542Y-113665374D02*
X135111209Y-113665374D01*
X134063590Y-113427279D02*
X134777875Y-113189184D01*
X134777875Y-113189184D02*
X134777875Y-113808231D01*
X131879247Y-81216027D02*
X132212580Y-80739836D01*
X132450675Y-81216027D02*
X132450675Y-80216027D01*
X132450675Y-80216027D02*
X132069723Y-80216027D01*
X132069723Y-80216027D02*
X131974485Y-80263646D01*
X131974485Y-80263646D02*
X131926866Y-80311265D01*
X131926866Y-80311265D02*
X131879247Y-80406503D01*
X131879247Y-80406503D02*
X131879247Y-80549360D01*
X131879247Y-80549360D02*
X131926866Y-80644598D01*
X131926866Y-80644598D02*
X131974485Y-80692217D01*
X131974485Y-80692217D02*
X132069723Y-80739836D01*
X132069723Y-80739836D02*
X132450675Y-80739836D01*
X130926866Y-81216027D02*
X131498294Y-81216027D01*
X131212580Y-81216027D02*
X131212580Y-80216027D01*
X131212580Y-80216027D02*
X131307818Y-80358884D01*
X131307818Y-80358884D02*
X131403056Y-80454122D01*
X131403056Y-80454122D02*
X131498294Y-80501741D01*
X130593532Y-80216027D02*
X129974485Y-80216027D01*
X129974485Y-80216027D02*
X130307818Y-80596979D01*
X130307818Y-80596979D02*
X130164961Y-80596979D01*
X130164961Y-80596979D02*
X130069723Y-80644598D01*
X130069723Y-80644598D02*
X130022104Y-80692217D01*
X130022104Y-80692217D02*
X129974485Y-80787455D01*
X129974485Y-80787455D02*
X129974485Y-81025550D01*
X129974485Y-81025550D02*
X130022104Y-81120788D01*
X130022104Y-81120788D02*
X130069723Y-81168408D01*
X130069723Y-81168408D02*
X130164961Y-81216027D01*
X130164961Y-81216027D02*
X130450675Y-81216027D01*
X130450675Y-81216027D02*
X130545913Y-81168408D01*
X130545913Y-81168408D02*
X130593532Y-81120788D01*
X153761209Y-93084422D02*
X152761209Y-93084422D01*
X152761209Y-93084422D02*
X152761209Y-93322517D01*
X152761209Y-93322517D02*
X152808828Y-93465374D01*
X152808828Y-93465374D02*
X152904066Y-93560612D01*
X152904066Y-93560612D02*
X152999304Y-93608231D01*
X152999304Y-93608231D02*
X153189780Y-93655850D01*
X153189780Y-93655850D02*
X153332637Y-93655850D01*
X153332637Y-93655850D02*
X153523113Y-93608231D01*
X153523113Y-93608231D02*
X153618351Y-93560612D01*
X153618351Y-93560612D02*
X153713590Y-93465374D01*
X153713590Y-93465374D02*
X153761209Y-93322517D01*
X153761209Y-93322517D02*
X153761209Y-93084422D01*
X152761209Y-93989184D02*
X152761209Y-94608231D01*
X152761209Y-94608231D02*
X153142161Y-94274898D01*
X153142161Y-94274898D02*
X153142161Y-94417755D01*
X153142161Y-94417755D02*
X153189780Y-94512993D01*
X153189780Y-94512993D02*
X153237399Y-94560612D01*
X153237399Y-94560612D02*
X153332637Y-94608231D01*
X153332637Y-94608231D02*
X153570732Y-94608231D01*
X153570732Y-94608231D02*
X153665970Y-94560612D01*
X153665970Y-94560612D02*
X153713590Y-94512993D01*
X153713590Y-94512993D02*
X153761209Y-94417755D01*
X153761209Y-94417755D02*
X153761209Y-94132041D01*
X153761209Y-94132041D02*
X153713590Y-94036803D01*
X153713590Y-94036803D02*
X153665970Y-93989184D01*
X153761209Y-95084422D02*
X153761209Y-95274898D01*
X153761209Y-95274898D02*
X153713590Y-95370136D01*
X153713590Y-95370136D02*
X153665970Y-95417755D01*
X153665970Y-95417755D02*
X153523113Y-95512993D01*
X153523113Y-95512993D02*
X153332637Y-95560612D01*
X153332637Y-95560612D02*
X152951685Y-95560612D01*
X152951685Y-95560612D02*
X152856447Y-95512993D01*
X152856447Y-95512993D02*
X152808828Y-95465374D01*
X152808828Y-95465374D02*
X152761209Y-95370136D01*
X152761209Y-95370136D02*
X152761209Y-95179660D01*
X152761209Y-95179660D02*
X152808828Y-95084422D01*
X152808828Y-95084422D02*
X152856447Y-95036803D01*
X152856447Y-95036803D02*
X152951685Y-94989184D01*
X152951685Y-94989184D02*
X153189780Y-94989184D01*
X153189780Y-94989184D02*
X153285018Y-95036803D01*
X153285018Y-95036803D02*
X153332637Y-95084422D01*
X153332637Y-95084422D02*
X153380256Y-95179660D01*
X153380256Y-95179660D02*
X153380256Y-95370136D01*
X153380256Y-95370136D02*
X153332637Y-95465374D01*
X153332637Y-95465374D02*
X153285018Y-95512993D01*
X153285018Y-95512993D02*
X153189780Y-95560612D01*
X190961209Y-93096922D02*
X189961209Y-93096922D01*
X189961209Y-93096922D02*
X189961209Y-93335017D01*
X189961209Y-93335017D02*
X190008828Y-93477874D01*
X190008828Y-93477874D02*
X190104066Y-93573112D01*
X190104066Y-93573112D02*
X190199304Y-93620731D01*
X190199304Y-93620731D02*
X190389780Y-93668350D01*
X190389780Y-93668350D02*
X190532637Y-93668350D01*
X190532637Y-93668350D02*
X190723113Y-93620731D01*
X190723113Y-93620731D02*
X190818351Y-93573112D01*
X190818351Y-93573112D02*
X190913590Y-93477874D01*
X190913590Y-93477874D02*
X190961209Y-93335017D01*
X190961209Y-93335017D02*
X190961209Y-93096922D01*
X189961209Y-94001684D02*
X189961209Y-94620731D01*
X189961209Y-94620731D02*
X190342161Y-94287398D01*
X190342161Y-94287398D02*
X190342161Y-94430255D01*
X190342161Y-94430255D02*
X190389780Y-94525493D01*
X190389780Y-94525493D02*
X190437399Y-94573112D01*
X190437399Y-94573112D02*
X190532637Y-94620731D01*
X190532637Y-94620731D02*
X190770732Y-94620731D01*
X190770732Y-94620731D02*
X190865970Y-94573112D01*
X190865970Y-94573112D02*
X190913590Y-94525493D01*
X190913590Y-94525493D02*
X190961209Y-94430255D01*
X190961209Y-94430255D02*
X190961209Y-94144541D01*
X190961209Y-94144541D02*
X190913590Y-94049303D01*
X190913590Y-94049303D02*
X190865970Y-94001684D01*
X189961209Y-95239779D02*
X189961209Y-95335017D01*
X189961209Y-95335017D02*
X190008828Y-95430255D01*
X190008828Y-95430255D02*
X190056447Y-95477874D01*
X190056447Y-95477874D02*
X190151685Y-95525493D01*
X190151685Y-95525493D02*
X190342161Y-95573112D01*
X190342161Y-95573112D02*
X190580256Y-95573112D01*
X190580256Y-95573112D02*
X190770732Y-95525493D01*
X190770732Y-95525493D02*
X190865970Y-95477874D01*
X190865970Y-95477874D02*
X190913590Y-95430255D01*
X190913590Y-95430255D02*
X190961209Y-95335017D01*
X190961209Y-95335017D02*
X190961209Y-95239779D01*
X190961209Y-95239779D02*
X190913590Y-95144541D01*
X190913590Y-95144541D02*
X190865970Y-95096922D01*
X190865970Y-95096922D02*
X190770732Y-95049303D01*
X190770732Y-95049303D02*
X190580256Y-95001684D01*
X190580256Y-95001684D02*
X190342161Y-95001684D01*
X190342161Y-95001684D02*
X190151685Y-95049303D01*
X190151685Y-95049303D02*
X190056447Y-95096922D01*
X190056447Y-95096922D02*
X190008828Y-95144541D01*
X190008828Y-95144541D02*
X189961209Y-95239779D01*
X145065556Y-73420788D02*
X145113175Y-73468408D01*
X145113175Y-73468408D02*
X145256032Y-73516027D01*
X145256032Y-73516027D02*
X145351270Y-73516027D01*
X145351270Y-73516027D02*
X145494127Y-73468408D01*
X145494127Y-73468408D02*
X145589365Y-73373169D01*
X145589365Y-73373169D02*
X145636984Y-73277931D01*
X145636984Y-73277931D02*
X145684603Y-73087455D01*
X145684603Y-73087455D02*
X145684603Y-72944598D01*
X145684603Y-72944598D02*
X145636984Y-72754122D01*
X145636984Y-72754122D02*
X145589365Y-72658884D01*
X145589365Y-72658884D02*
X145494127Y-72563646D01*
X145494127Y-72563646D02*
X145351270Y-72516027D01*
X145351270Y-72516027D02*
X145256032Y-72516027D01*
X145256032Y-72516027D02*
X145113175Y-72563646D01*
X145113175Y-72563646D02*
X145065556Y-72611265D01*
X144494127Y-72944598D02*
X144589365Y-72896979D01*
X144589365Y-72896979D02*
X144636984Y-72849360D01*
X144636984Y-72849360D02*
X144684603Y-72754122D01*
X144684603Y-72754122D02*
X144684603Y-72706503D01*
X144684603Y-72706503D02*
X144636984Y-72611265D01*
X144636984Y-72611265D02*
X144589365Y-72563646D01*
X144589365Y-72563646D02*
X144494127Y-72516027D01*
X144494127Y-72516027D02*
X144303651Y-72516027D01*
X144303651Y-72516027D02*
X144208413Y-72563646D01*
X144208413Y-72563646D02*
X144160794Y-72611265D01*
X144160794Y-72611265D02*
X144113175Y-72706503D01*
X144113175Y-72706503D02*
X144113175Y-72754122D01*
X144113175Y-72754122D02*
X144160794Y-72849360D01*
X144160794Y-72849360D02*
X144208413Y-72896979D01*
X144208413Y-72896979D02*
X144303651Y-72944598D01*
X144303651Y-72944598D02*
X144494127Y-72944598D01*
X144494127Y-72944598D02*
X144589365Y-72992217D01*
X144589365Y-72992217D02*
X144636984Y-73039836D01*
X144636984Y-73039836D02*
X144684603Y-73135074D01*
X144684603Y-73135074D02*
X144684603Y-73325550D01*
X144684603Y-73325550D02*
X144636984Y-73420788D01*
X144636984Y-73420788D02*
X144589365Y-73468408D01*
X144589365Y-73468408D02*
X144494127Y-73516027D01*
X144494127Y-73516027D02*
X144303651Y-73516027D01*
X144303651Y-73516027D02*
X144208413Y-73468408D01*
X144208413Y-73468408D02*
X144160794Y-73420788D01*
X144160794Y-73420788D02*
X144113175Y-73325550D01*
X144113175Y-73325550D02*
X144113175Y-73135074D01*
X144113175Y-73135074D02*
X144160794Y-73039836D01*
X144160794Y-73039836D02*
X144208413Y-72992217D01*
X144208413Y-72992217D02*
X144303651Y-72944598D01*
X147905056Y-56456388D02*
X147905056Y-55742103D01*
X147905056Y-55742103D02*
X147857437Y-55599246D01*
X147857437Y-55599246D02*
X147762199Y-55504008D01*
X147762199Y-55504008D02*
X147619342Y-55456388D01*
X147619342Y-55456388D02*
X147524104Y-55456388D01*
X148905056Y-55456388D02*
X148333628Y-55456388D01*
X148619342Y-55456388D02*
X148619342Y-56456388D01*
X148619342Y-56456388D02*
X148524104Y-56313531D01*
X148524104Y-56313531D02*
X148428866Y-56218293D01*
X148428866Y-56218293D02*
X148333628Y-56170674D01*
X145115556Y-80120788D02*
X145163175Y-80168408D01*
X145163175Y-80168408D02*
X145306032Y-80216027D01*
X145306032Y-80216027D02*
X145401270Y-80216027D01*
X145401270Y-80216027D02*
X145544127Y-80168408D01*
X145544127Y-80168408D02*
X145639365Y-80073169D01*
X145639365Y-80073169D02*
X145686984Y-79977931D01*
X145686984Y-79977931D02*
X145734603Y-79787455D01*
X145734603Y-79787455D02*
X145734603Y-79644598D01*
X145734603Y-79644598D02*
X145686984Y-79454122D01*
X145686984Y-79454122D02*
X145639365Y-79358884D01*
X145639365Y-79358884D02*
X145544127Y-79263646D01*
X145544127Y-79263646D02*
X145401270Y-79216027D01*
X145401270Y-79216027D02*
X145306032Y-79216027D01*
X145306032Y-79216027D02*
X145163175Y-79263646D01*
X145163175Y-79263646D02*
X145115556Y-79311265D01*
X144639365Y-80216027D02*
X144448889Y-80216027D01*
X144448889Y-80216027D02*
X144353651Y-80168408D01*
X144353651Y-80168408D02*
X144306032Y-80120788D01*
X144306032Y-80120788D02*
X144210794Y-79977931D01*
X144210794Y-79977931D02*
X144163175Y-79787455D01*
X144163175Y-79787455D02*
X144163175Y-79406503D01*
X144163175Y-79406503D02*
X144210794Y-79311265D01*
X144210794Y-79311265D02*
X144258413Y-79263646D01*
X144258413Y-79263646D02*
X144353651Y-79216027D01*
X144353651Y-79216027D02*
X144544127Y-79216027D01*
X144544127Y-79216027D02*
X144639365Y-79263646D01*
X144639365Y-79263646D02*
X144686984Y-79311265D01*
X144686984Y-79311265D02*
X144734603Y-79406503D01*
X144734603Y-79406503D02*
X144734603Y-79644598D01*
X144734603Y-79644598D02*
X144686984Y-79739836D01*
X144686984Y-79739836D02*
X144639365Y-79787455D01*
X144639365Y-79787455D02*
X144544127Y-79835074D01*
X144544127Y-79835074D02*
X144353651Y-79835074D01*
X144353651Y-79835074D02*
X144258413Y-79787455D01*
X144258413Y-79787455D02*
X144210794Y-79739836D01*
X144210794Y-79739836D02*
X144163175Y-79644598D01*
X151741747Y-73566027D02*
X152075080Y-73089836D01*
X152313175Y-73566027D02*
X152313175Y-72566027D01*
X152313175Y-72566027D02*
X151932223Y-72566027D01*
X151932223Y-72566027D02*
X151836985Y-72613646D01*
X151836985Y-72613646D02*
X151789366Y-72661265D01*
X151789366Y-72661265D02*
X151741747Y-72756503D01*
X151741747Y-72756503D02*
X151741747Y-72899360D01*
X151741747Y-72899360D02*
X151789366Y-72994598D01*
X151789366Y-72994598D02*
X151836985Y-73042217D01*
X151836985Y-73042217D02*
X151932223Y-73089836D01*
X151932223Y-73089836D02*
X152313175Y-73089836D01*
X150789366Y-73566027D02*
X151360794Y-73566027D01*
X151075080Y-73566027D02*
X151075080Y-72566027D01*
X151075080Y-72566027D02*
X151170318Y-72708884D01*
X151170318Y-72708884D02*
X151265556Y-72804122D01*
X151265556Y-72804122D02*
X151360794Y-72851741D01*
X149884604Y-72566027D02*
X150360794Y-72566027D01*
X150360794Y-72566027D02*
X150408413Y-73042217D01*
X150408413Y-73042217D02*
X150360794Y-72994598D01*
X150360794Y-72994598D02*
X150265556Y-72946979D01*
X150265556Y-72946979D02*
X150027461Y-72946979D01*
X150027461Y-72946979D02*
X149932223Y-72994598D01*
X149932223Y-72994598D02*
X149884604Y-73042217D01*
X149884604Y-73042217D02*
X149836985Y-73137455D01*
X149836985Y-73137455D02*
X149836985Y-73375550D01*
X149836985Y-73375550D02*
X149884604Y-73470788D01*
X149884604Y-73470788D02*
X149932223Y-73518408D01*
X149932223Y-73518408D02*
X150027461Y-73566027D01*
X150027461Y-73566027D02*
X150265556Y-73566027D01*
X150265556Y-73566027D02*
X150360794Y-73518408D01*
X150360794Y-73518408D02*
X150408413Y-73470788D01*
X116511209Y-111284422D02*
X115511209Y-111284422D01*
X115511209Y-111284422D02*
X115511209Y-111522517D01*
X115511209Y-111522517D02*
X115558828Y-111665374D01*
X115558828Y-111665374D02*
X115654066Y-111760612D01*
X115654066Y-111760612D02*
X115749304Y-111808231D01*
X115749304Y-111808231D02*
X115939780Y-111855850D01*
X115939780Y-111855850D02*
X116082637Y-111855850D01*
X116082637Y-111855850D02*
X116273113Y-111808231D01*
X116273113Y-111808231D02*
X116368351Y-111760612D01*
X116368351Y-111760612D02*
X116463590Y-111665374D01*
X116463590Y-111665374D02*
X116511209Y-111522517D01*
X116511209Y-111522517D02*
X116511209Y-111284422D01*
X115511209Y-112189184D02*
X115511209Y-112808231D01*
X115511209Y-112808231D02*
X115892161Y-112474898D01*
X115892161Y-112474898D02*
X115892161Y-112617755D01*
X115892161Y-112617755D02*
X115939780Y-112712993D01*
X115939780Y-112712993D02*
X115987399Y-112760612D01*
X115987399Y-112760612D02*
X116082637Y-112808231D01*
X116082637Y-112808231D02*
X116320732Y-112808231D01*
X116320732Y-112808231D02*
X116415970Y-112760612D01*
X116415970Y-112760612D02*
X116463590Y-112712993D01*
X116463590Y-112712993D02*
X116511209Y-112617755D01*
X116511209Y-112617755D02*
X116511209Y-112332041D01*
X116511209Y-112332041D02*
X116463590Y-112236803D01*
X116463590Y-112236803D02*
X116415970Y-112189184D01*
X115511209Y-113712993D02*
X115511209Y-113236803D01*
X115511209Y-113236803D02*
X115987399Y-113189184D01*
X115987399Y-113189184D02*
X115939780Y-113236803D01*
X115939780Y-113236803D02*
X115892161Y-113332041D01*
X115892161Y-113332041D02*
X115892161Y-113570136D01*
X115892161Y-113570136D02*
X115939780Y-113665374D01*
X115939780Y-113665374D02*
X115987399Y-113712993D01*
X115987399Y-113712993D02*
X116082637Y-113760612D01*
X116082637Y-113760612D02*
X116320732Y-113760612D01*
X116320732Y-113760612D02*
X116415970Y-113712993D01*
X116415970Y-113712993D02*
X116463590Y-113665374D01*
X116463590Y-113665374D02*
X116511209Y-113570136D01*
X116511209Y-113570136D02*
X116511209Y-113332041D01*
X116511209Y-113332041D02*
X116463590Y-113236803D01*
X116463590Y-113236803D02*
X116415970Y-113189184D01*
X153811209Y-111109422D02*
X152811209Y-111109422D01*
X152811209Y-111109422D02*
X152811209Y-111347517D01*
X152811209Y-111347517D02*
X152858828Y-111490374D01*
X152858828Y-111490374D02*
X152954066Y-111585612D01*
X152954066Y-111585612D02*
X153049304Y-111633231D01*
X153049304Y-111633231D02*
X153239780Y-111680850D01*
X153239780Y-111680850D02*
X153382637Y-111680850D01*
X153382637Y-111680850D02*
X153573113Y-111633231D01*
X153573113Y-111633231D02*
X153668351Y-111585612D01*
X153668351Y-111585612D02*
X153763590Y-111490374D01*
X153763590Y-111490374D02*
X153811209Y-111347517D01*
X153811209Y-111347517D02*
X153811209Y-111109422D01*
X152811209Y-112014184D02*
X152811209Y-112633231D01*
X152811209Y-112633231D02*
X153192161Y-112299898D01*
X153192161Y-112299898D02*
X153192161Y-112442755D01*
X153192161Y-112442755D02*
X153239780Y-112537993D01*
X153239780Y-112537993D02*
X153287399Y-112585612D01*
X153287399Y-112585612D02*
X153382637Y-112633231D01*
X153382637Y-112633231D02*
X153620732Y-112633231D01*
X153620732Y-112633231D02*
X153715970Y-112585612D01*
X153715970Y-112585612D02*
X153763590Y-112537993D01*
X153763590Y-112537993D02*
X153811209Y-112442755D01*
X153811209Y-112442755D02*
X153811209Y-112157041D01*
X153811209Y-112157041D02*
X153763590Y-112061803D01*
X153763590Y-112061803D02*
X153715970Y-112014184D01*
X152811209Y-113490374D02*
X152811209Y-113299898D01*
X152811209Y-113299898D02*
X152858828Y-113204660D01*
X152858828Y-113204660D02*
X152906447Y-113157041D01*
X152906447Y-113157041D02*
X153049304Y-113061803D01*
X153049304Y-113061803D02*
X153239780Y-113014184D01*
X153239780Y-113014184D02*
X153620732Y-113014184D01*
X153620732Y-113014184D02*
X153715970Y-113061803D01*
X153715970Y-113061803D02*
X153763590Y-113109422D01*
X153763590Y-113109422D02*
X153811209Y-113204660D01*
X153811209Y-113204660D02*
X153811209Y-113395136D01*
X153811209Y-113395136D02*
X153763590Y-113490374D01*
X153763590Y-113490374D02*
X153715970Y-113537993D01*
X153715970Y-113537993D02*
X153620732Y-113585612D01*
X153620732Y-113585612D02*
X153382637Y-113585612D01*
X153382637Y-113585612D02*
X153287399Y-113537993D01*
X153287399Y-113537993D02*
X153239780Y-113490374D01*
X153239780Y-113490374D02*
X153192161Y-113395136D01*
X153192161Y-113395136D02*
X153192161Y-113204660D01*
X153192161Y-113204660D02*
X153239780Y-113109422D01*
X153239780Y-113109422D02*
X153287399Y-113061803D01*
X153287399Y-113061803D02*
X153382637Y-113014184D01*
X144161209Y-62805850D02*
X143685018Y-62472517D01*
X144161209Y-62234422D02*
X143161209Y-62234422D01*
X143161209Y-62234422D02*
X143161209Y-62615374D01*
X143161209Y-62615374D02*
X143208828Y-62710612D01*
X143208828Y-62710612D02*
X143256447Y-62758231D01*
X143256447Y-62758231D02*
X143351685Y-62805850D01*
X143351685Y-62805850D02*
X143494542Y-62805850D01*
X143494542Y-62805850D02*
X143589780Y-62758231D01*
X143589780Y-62758231D02*
X143637399Y-62710612D01*
X143637399Y-62710612D02*
X143685018Y-62615374D01*
X143685018Y-62615374D02*
X143685018Y-62234422D01*
X144161209Y-63758231D02*
X144161209Y-63186803D01*
X144161209Y-63472517D02*
X143161209Y-63472517D01*
X143161209Y-63472517D02*
X143304066Y-63377279D01*
X143304066Y-63377279D02*
X143399304Y-63282041D01*
X143399304Y-63282041D02*
X143446923Y-63186803D01*
X143161209Y-64377279D02*
X143161209Y-64472517D01*
X143161209Y-64472517D02*
X143208828Y-64567755D01*
X143208828Y-64567755D02*
X143256447Y-64615374D01*
X143256447Y-64615374D02*
X143351685Y-64662993D01*
X143351685Y-64662993D02*
X143542161Y-64710612D01*
X143542161Y-64710612D02*
X143780256Y-64710612D01*
X143780256Y-64710612D02*
X143970732Y-64662993D01*
X143970732Y-64662993D02*
X144065970Y-64615374D01*
X144065970Y-64615374D02*
X144113590Y-64567755D01*
X144113590Y-64567755D02*
X144161209Y-64472517D01*
X144161209Y-64472517D02*
X144161209Y-64377279D01*
X144161209Y-64377279D02*
X144113590Y-64282041D01*
X144113590Y-64282041D02*
X144065970Y-64234422D01*
X144065970Y-64234422D02*
X143970732Y-64186803D01*
X143970732Y-64186803D02*
X143780256Y-64139184D01*
X143780256Y-64139184D02*
X143542161Y-64139184D01*
X143542161Y-64139184D02*
X143351685Y-64186803D01*
X143351685Y-64186803D02*
X143256447Y-64234422D01*
X143256447Y-64234422D02*
X143208828Y-64282041D01*
X143208828Y-64282041D02*
X143161209Y-64377279D01*
X151253056Y-58500788D02*
X151300675Y-58548408D01*
X151300675Y-58548408D02*
X151443532Y-58596027D01*
X151443532Y-58596027D02*
X151538770Y-58596027D01*
X151538770Y-58596027D02*
X151681627Y-58548408D01*
X151681627Y-58548408D02*
X151776865Y-58453169D01*
X151776865Y-58453169D02*
X151824484Y-58357931D01*
X151824484Y-58357931D02*
X151872103Y-58167455D01*
X151872103Y-58167455D02*
X151872103Y-58024598D01*
X151872103Y-58024598D02*
X151824484Y-57834122D01*
X151824484Y-57834122D02*
X151776865Y-57738884D01*
X151776865Y-57738884D02*
X151681627Y-57643646D01*
X151681627Y-57643646D02*
X151538770Y-57596027D01*
X151538770Y-57596027D02*
X151443532Y-57596027D01*
X151443532Y-57596027D02*
X151300675Y-57643646D01*
X151300675Y-57643646D02*
X151253056Y-57691265D01*
X150395913Y-57929360D02*
X150395913Y-58596027D01*
X150634008Y-57548408D02*
X150872103Y-58262693D01*
X150872103Y-58262693D02*
X150253056Y-58262693D01*
X187288375Y-86757827D02*
X187288375Y-85757827D01*
X187288375Y-85757827D02*
X187050280Y-85757827D01*
X187050280Y-85757827D02*
X186907423Y-85805446D01*
X186907423Y-85805446D02*
X186812185Y-85900684D01*
X186812185Y-85900684D02*
X186764566Y-85995922D01*
X186764566Y-85995922D02*
X186716947Y-86186398D01*
X186716947Y-86186398D02*
X186716947Y-86329255D01*
X186716947Y-86329255D02*
X186764566Y-86519731D01*
X186764566Y-86519731D02*
X186812185Y-86614969D01*
X186812185Y-86614969D02*
X186907423Y-86710208D01*
X186907423Y-86710208D02*
X187050280Y-86757827D01*
X187050280Y-86757827D02*
X187288375Y-86757827D01*
X186335994Y-85853065D02*
X186288375Y-85805446D01*
X186288375Y-85805446D02*
X186193137Y-85757827D01*
X186193137Y-85757827D02*
X185955042Y-85757827D01*
X185955042Y-85757827D02*
X185859804Y-85805446D01*
X185859804Y-85805446D02*
X185812185Y-85853065D01*
X185812185Y-85853065D02*
X185764566Y-85948303D01*
X185764566Y-85948303D02*
X185764566Y-86043541D01*
X185764566Y-86043541D02*
X185812185Y-86186398D01*
X185812185Y-86186398D02*
X186383613Y-86757827D01*
X186383613Y-86757827D02*
X185764566Y-86757827D01*
X185431232Y-85757827D02*
X184812185Y-85757827D01*
X184812185Y-85757827D02*
X185145518Y-86138779D01*
X185145518Y-86138779D02*
X185002661Y-86138779D01*
X185002661Y-86138779D02*
X184907423Y-86186398D01*
X184907423Y-86186398D02*
X184859804Y-86234017D01*
X184859804Y-86234017D02*
X184812185Y-86329255D01*
X184812185Y-86329255D02*
X184812185Y-86567350D01*
X184812185Y-86567350D02*
X184859804Y-86662588D01*
X184859804Y-86662588D02*
X184907423Y-86710208D01*
X184907423Y-86710208D02*
X185002661Y-86757827D01*
X185002661Y-86757827D02*
X185288375Y-86757827D01*
X185288375Y-86757827D02*
X185383613Y-86710208D01*
X185383613Y-86710208D02*
X185431232Y-86662588D01*
X189288375Y-88632827D02*
X189859803Y-88632827D01*
X189574089Y-88632827D02*
X189574089Y-87632827D01*
X189574089Y-87632827D02*
X189669327Y-87775684D01*
X189669327Y-87775684D02*
X189764565Y-87870922D01*
X189764565Y-87870922D02*
X189859803Y-87918541D01*
X140971478Y-67461264D02*
X141066716Y-67413645D01*
X141066716Y-67413645D02*
X141161954Y-67318407D01*
X141161954Y-67318407D02*
X141304811Y-67175549D01*
X141304811Y-67175549D02*
X141400049Y-67127930D01*
X141400049Y-67127930D02*
X141495287Y-67127930D01*
X141447668Y-67366026D02*
X141542906Y-67318407D01*
X141542906Y-67318407D02*
X141638144Y-67223168D01*
X141638144Y-67223168D02*
X141685763Y-67032692D01*
X141685763Y-67032692D02*
X141685763Y-66699359D01*
X141685763Y-66699359D02*
X141638144Y-66508883D01*
X141638144Y-66508883D02*
X141542906Y-66413645D01*
X141542906Y-66413645D02*
X141447668Y-66366026D01*
X141447668Y-66366026D02*
X141257192Y-66366026D01*
X141257192Y-66366026D02*
X141161954Y-66413645D01*
X141161954Y-66413645D02*
X141066716Y-66508883D01*
X141066716Y-66508883D02*
X141019097Y-66699359D01*
X141019097Y-66699359D02*
X141019097Y-67032692D01*
X141019097Y-67032692D02*
X141066716Y-67223168D01*
X141066716Y-67223168D02*
X141161954Y-67318407D01*
X141161954Y-67318407D02*
X141257192Y-67366026D01*
X141257192Y-67366026D02*
X141447668Y-67366026D01*
X140066716Y-67366026D02*
X140638144Y-67366026D01*
X140352430Y-67366026D02*
X140352430Y-66366026D01*
X140352430Y-66366026D02*
X140447668Y-66508883D01*
X140447668Y-66508883D02*
X140542906Y-66604121D01*
X140542906Y-66604121D02*
X140638144Y-66651740D01*
X142470089Y-63714226D02*
X142470089Y-63952321D01*
X142708184Y-63857083D02*
X142470089Y-63952321D01*
X142470089Y-63952321D02*
X142231994Y-63857083D01*
X142612946Y-64142797D02*
X142470089Y-63952321D01*
X142470089Y-63952321D02*
X142327232Y-64142797D01*
X142470089Y-63714226D02*
X142470089Y-63952321D01*
X142708184Y-63857083D02*
X142470089Y-63952321D01*
X142470089Y-63952321D02*
X142231994Y-63857083D01*
X142612946Y-64142797D02*
X142470089Y-63952321D01*
X142470089Y-63952321D02*
X142327232Y-64142797D01*
X135910794Y-63966027D02*
X135910794Y-64775550D01*
X135910794Y-64775550D02*
X135863175Y-64870788D01*
X135863175Y-64870788D02*
X135815556Y-64918408D01*
X135815556Y-64918408D02*
X135720318Y-64966027D01*
X135720318Y-64966027D02*
X135529842Y-64966027D01*
X135529842Y-64966027D02*
X135434604Y-64918408D01*
X135434604Y-64918408D02*
X135386985Y-64870788D01*
X135386985Y-64870788D02*
X135339366Y-64775550D01*
X135339366Y-64775550D02*
X135339366Y-63966027D01*
X134434604Y-63966027D02*
X134625080Y-63966027D01*
X134625080Y-63966027D02*
X134720318Y-64013646D01*
X134720318Y-64013646D02*
X134767937Y-64061265D01*
X134767937Y-64061265D02*
X134863175Y-64204122D01*
X134863175Y-64204122D02*
X134910794Y-64394598D01*
X134910794Y-64394598D02*
X134910794Y-64775550D01*
X134910794Y-64775550D02*
X134863175Y-64870788D01*
X134863175Y-64870788D02*
X134815556Y-64918408D01*
X134815556Y-64918408D02*
X134720318Y-64966027D01*
X134720318Y-64966027D02*
X134529842Y-64966027D01*
X134529842Y-64966027D02*
X134434604Y-64918408D01*
X134434604Y-64918408D02*
X134386985Y-64870788D01*
X134386985Y-64870788D02*
X134339366Y-64775550D01*
X134339366Y-64775550D02*
X134339366Y-64537455D01*
X134339366Y-64537455D02*
X134386985Y-64442217D01*
X134386985Y-64442217D02*
X134434604Y-64394598D01*
X134434604Y-64394598D02*
X134529842Y-64346979D01*
X134529842Y-64346979D02*
X134720318Y-64346979D01*
X134720318Y-64346979D02*
X134815556Y-64394598D01*
X134815556Y-64394598D02*
X134863175Y-64442217D01*
X134863175Y-64442217D02*
X134910794Y-64537455D01*
X116561209Y-92596922D02*
X115561209Y-92596922D01*
X115561209Y-92596922D02*
X115561209Y-92835017D01*
X115561209Y-92835017D02*
X115608828Y-92977874D01*
X115608828Y-92977874D02*
X115704066Y-93073112D01*
X115704066Y-93073112D02*
X115799304Y-93120731D01*
X115799304Y-93120731D02*
X115989780Y-93168350D01*
X115989780Y-93168350D02*
X116132637Y-93168350D01*
X116132637Y-93168350D02*
X116323113Y-93120731D01*
X116323113Y-93120731D02*
X116418351Y-93073112D01*
X116418351Y-93073112D02*
X116513590Y-92977874D01*
X116513590Y-92977874D02*
X116561209Y-92835017D01*
X116561209Y-92835017D02*
X116561209Y-92596922D01*
X115561209Y-93501684D02*
X115561209Y-94120731D01*
X115561209Y-94120731D02*
X115942161Y-93787398D01*
X115942161Y-93787398D02*
X115942161Y-93930255D01*
X115942161Y-93930255D02*
X115989780Y-94025493D01*
X115989780Y-94025493D02*
X116037399Y-94073112D01*
X116037399Y-94073112D02*
X116132637Y-94120731D01*
X116132637Y-94120731D02*
X116370732Y-94120731D01*
X116370732Y-94120731D02*
X116465970Y-94073112D01*
X116465970Y-94073112D02*
X116513590Y-94025493D01*
X116513590Y-94025493D02*
X116561209Y-93930255D01*
X116561209Y-93930255D02*
X116561209Y-93644541D01*
X116561209Y-93644541D02*
X116513590Y-93549303D01*
X116513590Y-93549303D02*
X116465970Y-93501684D01*
X115561209Y-94454065D02*
X115561209Y-95120731D01*
X115561209Y-95120731D02*
X116561209Y-94692160D01*
X141003056Y-61866027D02*
X141336389Y-61389836D01*
X141574484Y-61866027D02*
X141574484Y-60866027D01*
X141574484Y-60866027D02*
X141193532Y-60866027D01*
X141193532Y-60866027D02*
X141098294Y-60913646D01*
X141098294Y-60913646D02*
X141050675Y-60961265D01*
X141050675Y-60961265D02*
X141003056Y-61056503D01*
X141003056Y-61056503D02*
X141003056Y-61199360D01*
X141003056Y-61199360D02*
X141050675Y-61294598D01*
X141050675Y-61294598D02*
X141098294Y-61342217D01*
X141098294Y-61342217D02*
X141193532Y-61389836D01*
X141193532Y-61389836D02*
X141574484Y-61389836D01*
X140431627Y-61294598D02*
X140526865Y-61246979D01*
X140526865Y-61246979D02*
X140574484Y-61199360D01*
X140574484Y-61199360D02*
X140622103Y-61104122D01*
X140622103Y-61104122D02*
X140622103Y-61056503D01*
X140622103Y-61056503D02*
X140574484Y-60961265D01*
X140574484Y-60961265D02*
X140526865Y-60913646D01*
X140526865Y-60913646D02*
X140431627Y-60866027D01*
X140431627Y-60866027D02*
X140241151Y-60866027D01*
X140241151Y-60866027D02*
X140145913Y-60913646D01*
X140145913Y-60913646D02*
X140098294Y-60961265D01*
X140098294Y-60961265D02*
X140050675Y-61056503D01*
X140050675Y-61056503D02*
X140050675Y-61104122D01*
X140050675Y-61104122D02*
X140098294Y-61199360D01*
X140098294Y-61199360D02*
X140145913Y-61246979D01*
X140145913Y-61246979D02*
X140241151Y-61294598D01*
X140241151Y-61294598D02*
X140431627Y-61294598D01*
X140431627Y-61294598D02*
X140526865Y-61342217D01*
X140526865Y-61342217D02*
X140574484Y-61389836D01*
X140574484Y-61389836D02*
X140622103Y-61485074D01*
X140622103Y-61485074D02*
X140622103Y-61675550D01*
X140622103Y-61675550D02*
X140574484Y-61770788D01*
X140574484Y-61770788D02*
X140526865Y-61818408D01*
X140526865Y-61818408D02*
X140431627Y-61866027D01*
X140431627Y-61866027D02*
X140241151Y-61866027D01*
X140241151Y-61866027D02*
X140145913Y-61818408D01*
X140145913Y-61818408D02*
X140098294Y-61770788D01*
X140098294Y-61770788D02*
X140050675Y-61675550D01*
X140050675Y-61675550D02*
X140050675Y-61485074D01*
X140050675Y-61485074D02*
X140098294Y-61389836D01*
X140098294Y-61389836D02*
X140145913Y-61342217D01*
X140145913Y-61342217D02*
X140241151Y-61294598D01*
X153711209Y-130434422D02*
X152711209Y-130434422D01*
X152711209Y-130434422D02*
X152711209Y-130672517D01*
X152711209Y-130672517D02*
X152758828Y-130815374D01*
X152758828Y-130815374D02*
X152854066Y-130910612D01*
X152854066Y-130910612D02*
X152949304Y-130958231D01*
X152949304Y-130958231D02*
X153139780Y-131005850D01*
X153139780Y-131005850D02*
X153282637Y-131005850D01*
X153282637Y-131005850D02*
X153473113Y-130958231D01*
X153473113Y-130958231D02*
X153568351Y-130910612D01*
X153568351Y-130910612D02*
X153663590Y-130815374D01*
X153663590Y-130815374D02*
X153711209Y-130672517D01*
X153711209Y-130672517D02*
X153711209Y-130434422D01*
X152711209Y-131339184D02*
X152711209Y-131958231D01*
X152711209Y-131958231D02*
X153092161Y-131624898D01*
X153092161Y-131624898D02*
X153092161Y-131767755D01*
X153092161Y-131767755D02*
X153139780Y-131862993D01*
X153139780Y-131862993D02*
X153187399Y-131910612D01*
X153187399Y-131910612D02*
X153282637Y-131958231D01*
X153282637Y-131958231D02*
X153520732Y-131958231D01*
X153520732Y-131958231D02*
X153615970Y-131910612D01*
X153615970Y-131910612D02*
X153663590Y-131862993D01*
X153663590Y-131862993D02*
X153711209Y-131767755D01*
X153711209Y-131767755D02*
X153711209Y-131482041D01*
X153711209Y-131482041D02*
X153663590Y-131386803D01*
X153663590Y-131386803D02*
X153615970Y-131339184D01*
X153711209Y-132910612D02*
X153711209Y-132339184D01*
X153711209Y-132624898D02*
X152711209Y-132624898D01*
X152711209Y-132624898D02*
X152854066Y-132529660D01*
X152854066Y-132529660D02*
X152949304Y-132434422D01*
X152949304Y-132434422D02*
X152996923Y-132339184D01*
X191121209Y-74259422D02*
X190121209Y-74259422D01*
X190121209Y-74259422D02*
X190121209Y-74497517D01*
X190121209Y-74497517D02*
X190168828Y-74640374D01*
X190168828Y-74640374D02*
X190264066Y-74735612D01*
X190264066Y-74735612D02*
X190359304Y-74783231D01*
X190359304Y-74783231D02*
X190549780Y-74830850D01*
X190549780Y-74830850D02*
X190692637Y-74830850D01*
X190692637Y-74830850D02*
X190883113Y-74783231D01*
X190883113Y-74783231D02*
X190978351Y-74735612D01*
X190978351Y-74735612D02*
X191073590Y-74640374D01*
X191073590Y-74640374D02*
X191121209Y-74497517D01*
X191121209Y-74497517D02*
X191121209Y-74259422D01*
X190454542Y-75687993D02*
X191121209Y-75687993D01*
X190073590Y-75449898D02*
X190787875Y-75211803D01*
X190787875Y-75211803D02*
X190787875Y-75830850D01*
X191121209Y-76735612D02*
X191121209Y-76164184D01*
X191121209Y-76449898D02*
X190121209Y-76449898D01*
X190121209Y-76449898D02*
X190264066Y-76354660D01*
X190264066Y-76354660D02*
X190359304Y-76259422D01*
X190359304Y-76259422D02*
X190406923Y-76164184D01*
X112840875Y-110862827D02*
X112840875Y-109862827D01*
X112840875Y-109862827D02*
X112602780Y-109862827D01*
X112602780Y-109862827D02*
X112459923Y-109910446D01*
X112459923Y-109910446D02*
X112364685Y-110005684D01*
X112364685Y-110005684D02*
X112317066Y-110100922D01*
X112317066Y-110100922D02*
X112269447Y-110291398D01*
X112269447Y-110291398D02*
X112269447Y-110434255D01*
X112269447Y-110434255D02*
X112317066Y-110624731D01*
X112317066Y-110624731D02*
X112364685Y-110719969D01*
X112364685Y-110719969D02*
X112459923Y-110815208D01*
X112459923Y-110815208D02*
X112602780Y-110862827D01*
X112602780Y-110862827D02*
X112840875Y-110862827D01*
X111317066Y-110862827D02*
X111888494Y-110862827D01*
X111602780Y-110862827D02*
X111602780Y-109862827D01*
X111602780Y-109862827D02*
X111698018Y-110005684D01*
X111698018Y-110005684D02*
X111793256Y-110100922D01*
X111793256Y-110100922D02*
X111888494Y-110148541D01*
X110459923Y-109862827D02*
X110650399Y-109862827D01*
X110650399Y-109862827D02*
X110745637Y-109910446D01*
X110745637Y-109910446D02*
X110793256Y-109958065D01*
X110793256Y-109958065D02*
X110888494Y-110100922D01*
X110888494Y-110100922D02*
X110936113Y-110291398D01*
X110936113Y-110291398D02*
X110936113Y-110672350D01*
X110936113Y-110672350D02*
X110888494Y-110767588D01*
X110888494Y-110767588D02*
X110840875Y-110815208D01*
X110840875Y-110815208D02*
X110745637Y-110862827D01*
X110745637Y-110862827D02*
X110555161Y-110862827D01*
X110555161Y-110862827D02*
X110459923Y-110815208D01*
X110459923Y-110815208D02*
X110412304Y-110767588D01*
X110412304Y-110767588D02*
X110364685Y-110672350D01*
X110364685Y-110672350D02*
X110364685Y-110434255D01*
X110364685Y-110434255D02*
X110412304Y-110339017D01*
X110412304Y-110339017D02*
X110459923Y-110291398D01*
X110459923Y-110291398D02*
X110555161Y-110243779D01*
X110555161Y-110243779D02*
X110745637Y-110243779D01*
X110745637Y-110243779D02*
X110840875Y-110291398D01*
X110840875Y-110291398D02*
X110888494Y-110339017D01*
X110888494Y-110339017D02*
X110936113Y-110434255D01*
X107840875Y-108987827D02*
X108412303Y-108987827D01*
X108126589Y-108987827D02*
X108126589Y-107987827D01*
X108126589Y-107987827D02*
X108221827Y-108130684D01*
X108221827Y-108130684D02*
X108317065Y-108225922D01*
X108317065Y-108225922D02*
X108412303Y-108273541D01*
X168640875Y-110862827D02*
X168640875Y-109862827D01*
X168640875Y-109862827D02*
X168402780Y-109862827D01*
X168402780Y-109862827D02*
X168259923Y-109910446D01*
X168259923Y-109910446D02*
X168164685Y-110005684D01*
X168164685Y-110005684D02*
X168117066Y-110100922D01*
X168117066Y-110100922D02*
X168069447Y-110291398D01*
X168069447Y-110291398D02*
X168069447Y-110434255D01*
X168069447Y-110434255D02*
X168117066Y-110624731D01*
X168117066Y-110624731D02*
X168164685Y-110719969D01*
X168164685Y-110719969D02*
X168259923Y-110815208D01*
X168259923Y-110815208D02*
X168402780Y-110862827D01*
X168402780Y-110862827D02*
X168640875Y-110862827D01*
X167117066Y-110862827D02*
X167688494Y-110862827D01*
X167402780Y-110862827D02*
X167402780Y-109862827D01*
X167402780Y-109862827D02*
X167498018Y-110005684D01*
X167498018Y-110005684D02*
X167593256Y-110100922D01*
X167593256Y-110100922D02*
X167688494Y-110148541D01*
X166783732Y-109862827D02*
X166164685Y-109862827D01*
X166164685Y-109862827D02*
X166498018Y-110243779D01*
X166498018Y-110243779D02*
X166355161Y-110243779D01*
X166355161Y-110243779D02*
X166259923Y-110291398D01*
X166259923Y-110291398D02*
X166212304Y-110339017D01*
X166212304Y-110339017D02*
X166164685Y-110434255D01*
X166164685Y-110434255D02*
X166164685Y-110672350D01*
X166164685Y-110672350D02*
X166212304Y-110767588D01*
X166212304Y-110767588D02*
X166259923Y-110815208D01*
X166259923Y-110815208D02*
X166355161Y-110862827D01*
X166355161Y-110862827D02*
X166640875Y-110862827D01*
X166640875Y-110862827D02*
X166736113Y-110815208D01*
X166736113Y-110815208D02*
X166783732Y-110767588D01*
X163640875Y-108987827D02*
X164212303Y-108987827D01*
X163926589Y-108987827D02*
X163926589Y-107987827D01*
X163926589Y-107987827D02*
X164021827Y-108130684D01*
X164021827Y-108130684D02*
X164117065Y-108225922D01*
X164117065Y-108225922D02*
X164212303Y-108273541D01*
X190961209Y-130246922D02*
X189961209Y-130246922D01*
X189961209Y-130246922D02*
X189961209Y-130485017D01*
X189961209Y-130485017D02*
X190008828Y-130627874D01*
X190008828Y-130627874D02*
X190104066Y-130723112D01*
X190104066Y-130723112D02*
X190199304Y-130770731D01*
X190199304Y-130770731D02*
X190389780Y-130818350D01*
X190389780Y-130818350D02*
X190532637Y-130818350D01*
X190532637Y-130818350D02*
X190723113Y-130770731D01*
X190723113Y-130770731D02*
X190818351Y-130723112D01*
X190818351Y-130723112D02*
X190913590Y-130627874D01*
X190913590Y-130627874D02*
X190961209Y-130485017D01*
X190961209Y-130485017D02*
X190961209Y-130246922D01*
X190056447Y-131199303D02*
X190008828Y-131246922D01*
X190008828Y-131246922D02*
X189961209Y-131342160D01*
X189961209Y-131342160D02*
X189961209Y-131580255D01*
X189961209Y-131580255D02*
X190008828Y-131675493D01*
X190008828Y-131675493D02*
X190056447Y-131723112D01*
X190056447Y-131723112D02*
X190151685Y-131770731D01*
X190151685Y-131770731D02*
X190246923Y-131770731D01*
X190246923Y-131770731D02*
X190389780Y-131723112D01*
X190389780Y-131723112D02*
X190961209Y-131151684D01*
X190961209Y-131151684D02*
X190961209Y-131770731D01*
X190389780Y-132342160D02*
X190342161Y-132246922D01*
X190342161Y-132246922D02*
X190294542Y-132199303D01*
X190294542Y-132199303D02*
X190199304Y-132151684D01*
X190199304Y-132151684D02*
X190151685Y-132151684D01*
X190151685Y-132151684D02*
X190056447Y-132199303D01*
X190056447Y-132199303D02*
X190008828Y-132246922D01*
X190008828Y-132246922D02*
X189961209Y-132342160D01*
X189961209Y-132342160D02*
X189961209Y-132532636D01*
X189961209Y-132532636D02*
X190008828Y-132627874D01*
X190008828Y-132627874D02*
X190056447Y-132675493D01*
X190056447Y-132675493D02*
X190151685Y-132723112D01*
X190151685Y-132723112D02*
X190199304Y-132723112D01*
X190199304Y-132723112D02*
X190294542Y-132675493D01*
X190294542Y-132675493D02*
X190342161Y-132627874D01*
X190342161Y-132627874D02*
X190389780Y-132532636D01*
X190389780Y-132532636D02*
X190389780Y-132342160D01*
X190389780Y-132342160D02*
X190437399Y-132246922D01*
X190437399Y-132246922D02*
X190485018Y-132199303D01*
X190485018Y-132199303D02*
X190580256Y-132151684D01*
X190580256Y-132151684D02*
X190770732Y-132151684D01*
X190770732Y-132151684D02*
X190865970Y-132199303D01*
X190865970Y-132199303D02*
X190913590Y-132246922D01*
X190913590Y-132246922D02*
X190961209Y-132342160D01*
X190961209Y-132342160D02*
X190961209Y-132532636D01*
X190961209Y-132532636D02*
X190913590Y-132627874D01*
X190913590Y-132627874D02*
X190865970Y-132675493D01*
X190865970Y-132675493D02*
X190770732Y-132723112D01*
X190770732Y-132723112D02*
X190580256Y-132723112D01*
X190580256Y-132723112D02*
X190485018Y-132675493D01*
X190485018Y-132675493D02*
X190437399Y-132627874D01*
X190437399Y-132627874D02*
X190389780Y-132532636D01*
X149593056Y-62416027D02*
X149926389Y-61939836D01*
X150164484Y-62416027D02*
X150164484Y-61416027D01*
X150164484Y-61416027D02*
X149783532Y-61416027D01*
X149783532Y-61416027D02*
X149688294Y-61463646D01*
X149688294Y-61463646D02*
X149640675Y-61511265D01*
X149640675Y-61511265D02*
X149593056Y-61606503D01*
X149593056Y-61606503D02*
X149593056Y-61749360D01*
X149593056Y-61749360D02*
X149640675Y-61844598D01*
X149640675Y-61844598D02*
X149688294Y-61892217D01*
X149688294Y-61892217D02*
X149783532Y-61939836D01*
X149783532Y-61939836D02*
X150164484Y-61939836D01*
X148688294Y-61416027D02*
X149164484Y-61416027D01*
X149164484Y-61416027D02*
X149212103Y-61892217D01*
X149212103Y-61892217D02*
X149164484Y-61844598D01*
X149164484Y-61844598D02*
X149069246Y-61796979D01*
X149069246Y-61796979D02*
X148831151Y-61796979D01*
X148831151Y-61796979D02*
X148735913Y-61844598D01*
X148735913Y-61844598D02*
X148688294Y-61892217D01*
X148688294Y-61892217D02*
X148640675Y-61987455D01*
X148640675Y-61987455D02*
X148640675Y-62225550D01*
X148640675Y-62225550D02*
X148688294Y-62320788D01*
X148688294Y-62320788D02*
X148735913Y-62368408D01*
X148735913Y-62368408D02*
X148831151Y-62416027D01*
X148831151Y-62416027D02*
X149069246Y-62416027D01*
X149069246Y-62416027D02*
X149164484Y-62368408D01*
X149164484Y-62368408D02*
X149212103Y-62320788D01*
X134303056Y-76170788D02*
X134350675Y-76218408D01*
X134350675Y-76218408D02*
X134493532Y-76266027D01*
X134493532Y-76266027D02*
X134588770Y-76266027D01*
X134588770Y-76266027D02*
X134731627Y-76218408D01*
X134731627Y-76218408D02*
X134826865Y-76123169D01*
X134826865Y-76123169D02*
X134874484Y-76027931D01*
X134874484Y-76027931D02*
X134922103Y-75837455D01*
X134922103Y-75837455D02*
X134922103Y-75694598D01*
X134922103Y-75694598D02*
X134874484Y-75504122D01*
X134874484Y-75504122D02*
X134826865Y-75408884D01*
X134826865Y-75408884D02*
X134731627Y-75313646D01*
X134731627Y-75313646D02*
X134588770Y-75266027D01*
X134588770Y-75266027D02*
X134493532Y-75266027D01*
X134493532Y-75266027D02*
X134350675Y-75313646D01*
X134350675Y-75313646D02*
X134303056Y-75361265D01*
X133445913Y-75266027D02*
X133636389Y-75266027D01*
X133636389Y-75266027D02*
X133731627Y-75313646D01*
X133731627Y-75313646D02*
X133779246Y-75361265D01*
X133779246Y-75361265D02*
X133874484Y-75504122D01*
X133874484Y-75504122D02*
X133922103Y-75694598D01*
X133922103Y-75694598D02*
X133922103Y-76075550D01*
X133922103Y-76075550D02*
X133874484Y-76170788D01*
X133874484Y-76170788D02*
X133826865Y-76218408D01*
X133826865Y-76218408D02*
X133731627Y-76266027D01*
X133731627Y-76266027D02*
X133541151Y-76266027D01*
X133541151Y-76266027D02*
X133445913Y-76218408D01*
X133445913Y-76218408D02*
X133398294Y-76170788D01*
X133398294Y-76170788D02*
X133350675Y-76075550D01*
X133350675Y-76075550D02*
X133350675Y-75837455D01*
X133350675Y-75837455D02*
X133398294Y-75742217D01*
X133398294Y-75742217D02*
X133445913Y-75694598D01*
X133445913Y-75694598D02*
X133541151Y-75646979D01*
X133541151Y-75646979D02*
X133731627Y-75646979D01*
X133731627Y-75646979D02*
X133826865Y-75694598D01*
X133826865Y-75694598D02*
X133874484Y-75742217D01*
X133874484Y-75742217D02*
X133922103Y-75837455D01*
X172361209Y-111196922D02*
X171361209Y-111196922D01*
X171361209Y-111196922D02*
X171361209Y-111435017D01*
X171361209Y-111435017D02*
X171408828Y-111577874D01*
X171408828Y-111577874D02*
X171504066Y-111673112D01*
X171504066Y-111673112D02*
X171599304Y-111720731D01*
X171599304Y-111720731D02*
X171789780Y-111768350D01*
X171789780Y-111768350D02*
X171932637Y-111768350D01*
X171932637Y-111768350D02*
X172123113Y-111720731D01*
X172123113Y-111720731D02*
X172218351Y-111673112D01*
X172218351Y-111673112D02*
X172313590Y-111577874D01*
X172313590Y-111577874D02*
X172361209Y-111435017D01*
X172361209Y-111435017D02*
X172361209Y-111196922D01*
X171456447Y-112149303D02*
X171408828Y-112196922D01*
X171408828Y-112196922D02*
X171361209Y-112292160D01*
X171361209Y-112292160D02*
X171361209Y-112530255D01*
X171361209Y-112530255D02*
X171408828Y-112625493D01*
X171408828Y-112625493D02*
X171456447Y-112673112D01*
X171456447Y-112673112D02*
X171551685Y-112720731D01*
X171551685Y-112720731D02*
X171646923Y-112720731D01*
X171646923Y-112720731D02*
X171789780Y-112673112D01*
X171789780Y-112673112D02*
X172361209Y-112101684D01*
X172361209Y-112101684D02*
X172361209Y-112720731D01*
X171361209Y-113577874D02*
X171361209Y-113387398D01*
X171361209Y-113387398D02*
X171408828Y-113292160D01*
X171408828Y-113292160D02*
X171456447Y-113244541D01*
X171456447Y-113244541D02*
X171599304Y-113149303D01*
X171599304Y-113149303D02*
X171789780Y-113101684D01*
X171789780Y-113101684D02*
X172170732Y-113101684D01*
X172170732Y-113101684D02*
X172265970Y-113149303D01*
X172265970Y-113149303D02*
X172313590Y-113196922D01*
X172313590Y-113196922D02*
X172361209Y-113292160D01*
X172361209Y-113292160D02*
X172361209Y-113482636D01*
X172361209Y-113482636D02*
X172313590Y-113577874D01*
X172313590Y-113577874D02*
X172265970Y-113625493D01*
X172265970Y-113625493D02*
X172170732Y-113673112D01*
X172170732Y-113673112D02*
X171932637Y-113673112D01*
X171932637Y-113673112D02*
X171837399Y-113625493D01*
X171837399Y-113625493D02*
X171789780Y-113577874D01*
X171789780Y-113577874D02*
X171742161Y-113482636D01*
X171742161Y-113482636D02*
X171742161Y-113292160D01*
X171742161Y-113292160D02*
X171789780Y-113196922D01*
X171789780Y-113196922D02*
X171837399Y-113149303D01*
X171837399Y-113149303D02*
X171932637Y-113101684D01*
X190921209Y-55446922D02*
X189921209Y-55446922D01*
X189921209Y-55446922D02*
X189921209Y-55685017D01*
X189921209Y-55685017D02*
X189968828Y-55827874D01*
X189968828Y-55827874D02*
X190064066Y-55923112D01*
X190064066Y-55923112D02*
X190159304Y-55970731D01*
X190159304Y-55970731D02*
X190349780Y-56018350D01*
X190349780Y-56018350D02*
X190492637Y-56018350D01*
X190492637Y-56018350D02*
X190683113Y-55970731D01*
X190683113Y-55970731D02*
X190778351Y-55923112D01*
X190778351Y-55923112D02*
X190873590Y-55827874D01*
X190873590Y-55827874D02*
X190921209Y-55685017D01*
X190921209Y-55685017D02*
X190921209Y-55446922D01*
X190254542Y-56875493D02*
X190921209Y-56875493D01*
X189873590Y-56637398D02*
X190587875Y-56399303D01*
X190587875Y-56399303D02*
X190587875Y-57018350D01*
X189921209Y-57589779D02*
X189921209Y-57685017D01*
X189921209Y-57685017D02*
X189968828Y-57780255D01*
X189968828Y-57780255D02*
X190016447Y-57827874D01*
X190016447Y-57827874D02*
X190111685Y-57875493D01*
X190111685Y-57875493D02*
X190302161Y-57923112D01*
X190302161Y-57923112D02*
X190540256Y-57923112D01*
X190540256Y-57923112D02*
X190730732Y-57875493D01*
X190730732Y-57875493D02*
X190825970Y-57827874D01*
X190825970Y-57827874D02*
X190873590Y-57780255D01*
X190873590Y-57780255D02*
X190921209Y-57685017D01*
X190921209Y-57685017D02*
X190921209Y-57589779D01*
X190921209Y-57589779D02*
X190873590Y-57494541D01*
X190873590Y-57494541D02*
X190825970Y-57446922D01*
X190825970Y-57446922D02*
X190730732Y-57399303D01*
X190730732Y-57399303D02*
X190540256Y-57351684D01*
X190540256Y-57351684D02*
X190302161Y-57351684D01*
X190302161Y-57351684D02*
X190111685Y-57399303D01*
X190111685Y-57399303D02*
X190016447Y-57446922D01*
X190016447Y-57446922D02*
X189968828Y-57494541D01*
X189968828Y-57494541D02*
X189921209Y-57589779D01*
X154224484Y-74616027D02*
X154224484Y-73616027D01*
X154224484Y-73616027D02*
X153986389Y-73616027D01*
X153986389Y-73616027D02*
X153843532Y-73663646D01*
X153843532Y-73663646D02*
X153748294Y-73758884D01*
X153748294Y-73758884D02*
X153700675Y-73854122D01*
X153700675Y-73854122D02*
X153653056Y-74044598D01*
X153653056Y-74044598D02*
X153653056Y-74187455D01*
X153653056Y-74187455D02*
X153700675Y-74377931D01*
X153700675Y-74377931D02*
X153748294Y-74473169D01*
X153748294Y-74473169D02*
X153843532Y-74568408D01*
X153843532Y-74568408D02*
X153986389Y-74616027D01*
X153986389Y-74616027D02*
X154224484Y-74616027D01*
X152700675Y-74616027D02*
X153272103Y-74616027D01*
X152986389Y-74616027D02*
X152986389Y-73616027D01*
X152986389Y-73616027D02*
X153081627Y-73758884D01*
X153081627Y-73758884D02*
X153176865Y-73854122D01*
X153176865Y-73854122D02*
X153272103Y-73901741D01*
X112840875Y-123962827D02*
X112840875Y-122962827D01*
X112840875Y-122962827D02*
X112602780Y-122962827D01*
X112602780Y-122962827D02*
X112459923Y-123010446D01*
X112459923Y-123010446D02*
X112364685Y-123105684D01*
X112364685Y-123105684D02*
X112317066Y-123200922D01*
X112317066Y-123200922D02*
X112269447Y-123391398D01*
X112269447Y-123391398D02*
X112269447Y-123534255D01*
X112269447Y-123534255D02*
X112317066Y-123724731D01*
X112317066Y-123724731D02*
X112364685Y-123819969D01*
X112364685Y-123819969D02*
X112459923Y-123915208D01*
X112459923Y-123915208D02*
X112602780Y-123962827D01*
X112602780Y-123962827D02*
X112840875Y-123962827D01*
X111888494Y-123058065D02*
X111840875Y-123010446D01*
X111840875Y-123010446D02*
X111745637Y-122962827D01*
X111745637Y-122962827D02*
X111507542Y-122962827D01*
X111507542Y-122962827D02*
X111412304Y-123010446D01*
X111412304Y-123010446D02*
X111364685Y-123058065D01*
X111364685Y-123058065D02*
X111317066Y-123153303D01*
X111317066Y-123153303D02*
X111317066Y-123248541D01*
X111317066Y-123248541D02*
X111364685Y-123391398D01*
X111364685Y-123391398D02*
X111936113Y-123962827D01*
X111936113Y-123962827D02*
X111317066Y-123962827D01*
X110364685Y-123962827D02*
X110936113Y-123962827D01*
X110650399Y-123962827D02*
X110650399Y-122962827D01*
X110650399Y-122962827D02*
X110745637Y-123105684D01*
X110745637Y-123105684D02*
X110840875Y-123200922D01*
X110840875Y-123200922D02*
X110936113Y-123248541D01*
X114840875Y-125837827D02*
X115412303Y-125837827D01*
X115126589Y-125837827D02*
X115126589Y-124837827D01*
X115126589Y-124837827D02*
X115221827Y-124980684D01*
X115221827Y-124980684D02*
X115317065Y-125075922D01*
X115317065Y-125075922D02*
X115412303Y-125123541D01*
X168640875Y-123962827D02*
X168640875Y-122962827D01*
X168640875Y-122962827D02*
X168402780Y-122962827D01*
X168402780Y-122962827D02*
X168259923Y-123010446D01*
X168259923Y-123010446D02*
X168164685Y-123105684D01*
X168164685Y-123105684D02*
X168117066Y-123200922D01*
X168117066Y-123200922D02*
X168069447Y-123391398D01*
X168069447Y-123391398D02*
X168069447Y-123534255D01*
X168069447Y-123534255D02*
X168117066Y-123724731D01*
X168117066Y-123724731D02*
X168164685Y-123819969D01*
X168164685Y-123819969D02*
X168259923Y-123915208D01*
X168259923Y-123915208D02*
X168402780Y-123962827D01*
X168402780Y-123962827D02*
X168640875Y-123962827D01*
X167117066Y-123962827D02*
X167688494Y-123962827D01*
X167402780Y-123962827D02*
X167402780Y-122962827D01*
X167402780Y-122962827D02*
X167498018Y-123105684D01*
X167498018Y-123105684D02*
X167593256Y-123200922D01*
X167593256Y-123200922D02*
X167688494Y-123248541D01*
X166545637Y-123391398D02*
X166640875Y-123343779D01*
X166640875Y-123343779D02*
X166688494Y-123296160D01*
X166688494Y-123296160D02*
X166736113Y-123200922D01*
X166736113Y-123200922D02*
X166736113Y-123153303D01*
X166736113Y-123153303D02*
X166688494Y-123058065D01*
X166688494Y-123058065D02*
X166640875Y-123010446D01*
X166640875Y-123010446D02*
X166545637Y-122962827D01*
X166545637Y-122962827D02*
X166355161Y-122962827D01*
X166355161Y-122962827D02*
X166259923Y-123010446D01*
X166259923Y-123010446D02*
X166212304Y-123058065D01*
X166212304Y-123058065D02*
X166164685Y-123153303D01*
X166164685Y-123153303D02*
X166164685Y-123200922D01*
X166164685Y-123200922D02*
X166212304Y-123296160D01*
X166212304Y-123296160D02*
X166259923Y-123343779D01*
X166259923Y-123343779D02*
X166355161Y-123391398D01*
X166355161Y-123391398D02*
X166545637Y-123391398D01*
X166545637Y-123391398D02*
X166640875Y-123439017D01*
X166640875Y-123439017D02*
X166688494Y-123486636D01*
X166688494Y-123486636D02*
X166736113Y-123581874D01*
X166736113Y-123581874D02*
X166736113Y-123772350D01*
X166736113Y-123772350D02*
X166688494Y-123867588D01*
X166688494Y-123867588D02*
X166640875Y-123915208D01*
X166640875Y-123915208D02*
X166545637Y-123962827D01*
X166545637Y-123962827D02*
X166355161Y-123962827D01*
X166355161Y-123962827D02*
X166259923Y-123915208D01*
X166259923Y-123915208D02*
X166212304Y-123867588D01*
X166212304Y-123867588D02*
X166164685Y-123772350D01*
X166164685Y-123772350D02*
X166164685Y-123581874D01*
X166164685Y-123581874D02*
X166212304Y-123486636D01*
X166212304Y-123486636D02*
X166259923Y-123439017D01*
X166259923Y-123439017D02*
X166355161Y-123391398D01*
X170640875Y-125837827D02*
X171212303Y-125837827D01*
X170926589Y-125837827D02*
X170926589Y-124837827D01*
X170926589Y-124837827D02*
X171021827Y-124980684D01*
X171021827Y-124980684D02*
X171117065Y-125075922D01*
X171117065Y-125075922D02*
X171212303Y-125123541D01*
X145941747Y-82216027D02*
X146275080Y-81739836D01*
X146513175Y-82216027D02*
X146513175Y-81216027D01*
X146513175Y-81216027D02*
X146132223Y-81216027D01*
X146132223Y-81216027D02*
X146036985Y-81263646D01*
X146036985Y-81263646D02*
X145989366Y-81311265D01*
X145989366Y-81311265D02*
X145941747Y-81406503D01*
X145941747Y-81406503D02*
X145941747Y-81549360D01*
X145941747Y-81549360D02*
X145989366Y-81644598D01*
X145989366Y-81644598D02*
X146036985Y-81692217D01*
X146036985Y-81692217D02*
X146132223Y-81739836D01*
X146132223Y-81739836D02*
X146513175Y-81739836D01*
X144989366Y-82216027D02*
X145560794Y-82216027D01*
X145275080Y-82216027D02*
X145275080Y-81216027D01*
X145275080Y-81216027D02*
X145370318Y-81358884D01*
X145370318Y-81358884D02*
X145465556Y-81454122D01*
X145465556Y-81454122D02*
X145560794Y-81501741D01*
X144132223Y-81549360D02*
X144132223Y-82216027D01*
X144370318Y-81168408D02*
X144608413Y-81882693D01*
X144608413Y-81882693D02*
X143989366Y-81882693D01*
X172361209Y-92996922D02*
X171361209Y-92996922D01*
X171361209Y-92996922D02*
X171361209Y-93235017D01*
X171361209Y-93235017D02*
X171408828Y-93377874D01*
X171408828Y-93377874D02*
X171504066Y-93473112D01*
X171504066Y-93473112D02*
X171599304Y-93520731D01*
X171599304Y-93520731D02*
X171789780Y-93568350D01*
X171789780Y-93568350D02*
X171932637Y-93568350D01*
X171932637Y-93568350D02*
X172123113Y-93520731D01*
X172123113Y-93520731D02*
X172218351Y-93473112D01*
X172218351Y-93473112D02*
X172313590Y-93377874D01*
X172313590Y-93377874D02*
X172361209Y-93235017D01*
X172361209Y-93235017D02*
X172361209Y-92996922D01*
X171456447Y-93949303D02*
X171408828Y-93996922D01*
X171408828Y-93996922D02*
X171361209Y-94092160D01*
X171361209Y-94092160D02*
X171361209Y-94330255D01*
X171361209Y-94330255D02*
X171408828Y-94425493D01*
X171408828Y-94425493D02*
X171456447Y-94473112D01*
X171456447Y-94473112D02*
X171551685Y-94520731D01*
X171551685Y-94520731D02*
X171646923Y-94520731D01*
X171646923Y-94520731D02*
X171789780Y-94473112D01*
X171789780Y-94473112D02*
X172361209Y-93901684D01*
X172361209Y-93901684D02*
X172361209Y-94520731D01*
X171361209Y-95425493D02*
X171361209Y-94949303D01*
X171361209Y-94949303D02*
X171837399Y-94901684D01*
X171837399Y-94901684D02*
X171789780Y-94949303D01*
X171789780Y-94949303D02*
X171742161Y-95044541D01*
X171742161Y-95044541D02*
X171742161Y-95282636D01*
X171742161Y-95282636D02*
X171789780Y-95377874D01*
X171789780Y-95377874D02*
X171837399Y-95425493D01*
X171837399Y-95425493D02*
X171932637Y-95473112D01*
X171932637Y-95473112D02*
X172170732Y-95473112D01*
X172170732Y-95473112D02*
X172265970Y-95425493D01*
X172265970Y-95425493D02*
X172313590Y-95377874D01*
X172313590Y-95377874D02*
X172361209Y-95282636D01*
X172361209Y-95282636D02*
X172361209Y-95044541D01*
X172361209Y-95044541D02*
X172313590Y-94949303D01*
X172313590Y-94949303D02*
X172265970Y-94901684D01*
X168688375Y-86757827D02*
X168688375Y-85757827D01*
X168688375Y-85757827D02*
X168450280Y-85757827D01*
X168450280Y-85757827D02*
X168307423Y-85805446D01*
X168307423Y-85805446D02*
X168212185Y-85900684D01*
X168212185Y-85900684D02*
X168164566Y-85995922D01*
X168164566Y-85995922D02*
X168116947Y-86186398D01*
X168116947Y-86186398D02*
X168116947Y-86329255D01*
X168116947Y-86329255D02*
X168164566Y-86519731D01*
X168164566Y-86519731D02*
X168212185Y-86614969D01*
X168212185Y-86614969D02*
X168307423Y-86710208D01*
X168307423Y-86710208D02*
X168450280Y-86757827D01*
X168450280Y-86757827D02*
X168688375Y-86757827D01*
X167735994Y-85853065D02*
X167688375Y-85805446D01*
X167688375Y-85805446D02*
X167593137Y-85757827D01*
X167593137Y-85757827D02*
X167355042Y-85757827D01*
X167355042Y-85757827D02*
X167259804Y-85805446D01*
X167259804Y-85805446D02*
X167212185Y-85853065D01*
X167212185Y-85853065D02*
X167164566Y-85948303D01*
X167164566Y-85948303D02*
X167164566Y-86043541D01*
X167164566Y-86043541D02*
X167212185Y-86186398D01*
X167212185Y-86186398D02*
X167783613Y-86757827D01*
X167783613Y-86757827D02*
X167164566Y-86757827D01*
X166783613Y-85853065D02*
X166735994Y-85805446D01*
X166735994Y-85805446D02*
X166640756Y-85757827D01*
X166640756Y-85757827D02*
X166402661Y-85757827D01*
X166402661Y-85757827D02*
X166307423Y-85805446D01*
X166307423Y-85805446D02*
X166259804Y-85853065D01*
X166259804Y-85853065D02*
X166212185Y-85948303D01*
X166212185Y-85948303D02*
X166212185Y-86043541D01*
X166212185Y-86043541D02*
X166259804Y-86186398D01*
X166259804Y-86186398D02*
X166831232Y-86757827D01*
X166831232Y-86757827D02*
X166212185Y-86757827D01*
X170688375Y-88632827D02*
X171259803Y-88632827D01*
X170974089Y-88632827D02*
X170974089Y-87632827D01*
X170974089Y-87632827D02*
X171069327Y-87775684D01*
X171069327Y-87775684D02*
X171164565Y-87870922D01*
X171164565Y-87870922D02*
X171259803Y-87918541D01*
X172361209Y-56035613D02*
X171361209Y-56035613D01*
X171361209Y-56035613D02*
X171361209Y-56273708D01*
X171361209Y-56273708D02*
X171408828Y-56416565D01*
X171408828Y-56416565D02*
X171504066Y-56511803D01*
X171504066Y-56511803D02*
X171599304Y-56559422D01*
X171599304Y-56559422D02*
X171789780Y-56607041D01*
X171789780Y-56607041D02*
X171932637Y-56607041D01*
X171932637Y-56607041D02*
X172123113Y-56559422D01*
X172123113Y-56559422D02*
X172218351Y-56511803D01*
X172218351Y-56511803D02*
X172313590Y-56416565D01*
X172313590Y-56416565D02*
X172361209Y-56273708D01*
X172361209Y-56273708D02*
X172361209Y-56035613D01*
X171361209Y-57464184D02*
X171361209Y-57273708D01*
X171361209Y-57273708D02*
X171408828Y-57178470D01*
X171408828Y-57178470D02*
X171456447Y-57130851D01*
X171456447Y-57130851D02*
X171599304Y-57035613D01*
X171599304Y-57035613D02*
X171789780Y-56987994D01*
X171789780Y-56987994D02*
X172170732Y-56987994D01*
X172170732Y-56987994D02*
X172265970Y-57035613D01*
X172265970Y-57035613D02*
X172313590Y-57083232D01*
X172313590Y-57083232D02*
X172361209Y-57178470D01*
X172361209Y-57178470D02*
X172361209Y-57368946D01*
X172361209Y-57368946D02*
X172313590Y-57464184D01*
X172313590Y-57464184D02*
X172265970Y-57511803D01*
X172265970Y-57511803D02*
X172170732Y-57559422D01*
X172170732Y-57559422D02*
X171932637Y-57559422D01*
X171932637Y-57559422D02*
X171837399Y-57511803D01*
X171837399Y-57511803D02*
X171789780Y-57464184D01*
X171789780Y-57464184D02*
X171742161Y-57368946D01*
X171742161Y-57368946D02*
X171742161Y-57178470D01*
X171742161Y-57178470D02*
X171789780Y-57083232D01*
X171789780Y-57083232D02*
X171837399Y-57035613D01*
X171837399Y-57035613D02*
X171932637Y-56987994D01*
X150040875Y-110862827D02*
X150040875Y-109862827D01*
X150040875Y-109862827D02*
X149802780Y-109862827D01*
X149802780Y-109862827D02*
X149659923Y-109910446D01*
X149659923Y-109910446D02*
X149564685Y-110005684D01*
X149564685Y-110005684D02*
X149517066Y-110100922D01*
X149517066Y-110100922D02*
X149469447Y-110291398D01*
X149469447Y-110291398D02*
X149469447Y-110434255D01*
X149469447Y-110434255D02*
X149517066Y-110624731D01*
X149517066Y-110624731D02*
X149564685Y-110719969D01*
X149564685Y-110719969D02*
X149659923Y-110815208D01*
X149659923Y-110815208D02*
X149802780Y-110862827D01*
X149802780Y-110862827D02*
X150040875Y-110862827D01*
X148517066Y-110862827D02*
X149088494Y-110862827D01*
X148802780Y-110862827D02*
X148802780Y-109862827D01*
X148802780Y-109862827D02*
X148898018Y-110005684D01*
X148898018Y-110005684D02*
X148993256Y-110100922D01*
X148993256Y-110100922D02*
X149088494Y-110148541D01*
X147659923Y-110196160D02*
X147659923Y-110862827D01*
X147898018Y-109815208D02*
X148136113Y-110529493D01*
X148136113Y-110529493D02*
X147517066Y-110529493D01*
X145040875Y-108987827D02*
X145612303Y-108987827D01*
X145326589Y-108987827D02*
X145326589Y-107987827D01*
X145326589Y-107987827D02*
X145421827Y-108130684D01*
X145421827Y-108130684D02*
X145517065Y-108225922D01*
X145517065Y-108225922D02*
X145612303Y-108273541D01*
X172361209Y-130396922D02*
X171361209Y-130396922D01*
X171361209Y-130396922D02*
X171361209Y-130635017D01*
X171361209Y-130635017D02*
X171408828Y-130777874D01*
X171408828Y-130777874D02*
X171504066Y-130873112D01*
X171504066Y-130873112D02*
X171599304Y-130920731D01*
X171599304Y-130920731D02*
X171789780Y-130968350D01*
X171789780Y-130968350D02*
X171932637Y-130968350D01*
X171932637Y-130968350D02*
X172123113Y-130920731D01*
X172123113Y-130920731D02*
X172218351Y-130873112D01*
X172218351Y-130873112D02*
X172313590Y-130777874D01*
X172313590Y-130777874D02*
X172361209Y-130635017D01*
X172361209Y-130635017D02*
X172361209Y-130396922D01*
X171456447Y-131349303D02*
X171408828Y-131396922D01*
X171408828Y-131396922D02*
X171361209Y-131492160D01*
X171361209Y-131492160D02*
X171361209Y-131730255D01*
X171361209Y-131730255D02*
X171408828Y-131825493D01*
X171408828Y-131825493D02*
X171456447Y-131873112D01*
X171456447Y-131873112D02*
X171551685Y-131920731D01*
X171551685Y-131920731D02*
X171646923Y-131920731D01*
X171646923Y-131920731D02*
X171789780Y-131873112D01*
X171789780Y-131873112D02*
X172361209Y-131301684D01*
X172361209Y-131301684D02*
X172361209Y-131920731D01*
X171361209Y-132254065D02*
X171361209Y-132920731D01*
X171361209Y-132920731D02*
X172361209Y-132492160D01*
X162799484Y-67866027D02*
X162799484Y-66866027D01*
X162799484Y-66866027D02*
X162561389Y-66866027D01*
X162561389Y-66866027D02*
X162418532Y-66913646D01*
X162418532Y-66913646D02*
X162323294Y-67008884D01*
X162323294Y-67008884D02*
X162275675Y-67104122D01*
X162275675Y-67104122D02*
X162228056Y-67294598D01*
X162228056Y-67294598D02*
X162228056Y-67437455D01*
X162228056Y-67437455D02*
X162275675Y-67627931D01*
X162275675Y-67627931D02*
X162323294Y-67723169D01*
X162323294Y-67723169D02*
X162418532Y-67818408D01*
X162418532Y-67818408D02*
X162561389Y-67866027D01*
X162561389Y-67866027D02*
X162799484Y-67866027D01*
X161847103Y-66961265D02*
X161799484Y-66913646D01*
X161799484Y-66913646D02*
X161704246Y-66866027D01*
X161704246Y-66866027D02*
X161466151Y-66866027D01*
X161466151Y-66866027D02*
X161370913Y-66913646D01*
X161370913Y-66913646D02*
X161323294Y-66961265D01*
X161323294Y-66961265D02*
X161275675Y-67056503D01*
X161275675Y-67056503D02*
X161275675Y-67151741D01*
X161275675Y-67151741D02*
X161323294Y-67294598D01*
X161323294Y-67294598D02*
X161894722Y-67866027D01*
X161894722Y-67866027D02*
X161275675Y-67866027D01*
X116611209Y-130234422D02*
X115611209Y-130234422D01*
X115611209Y-130234422D02*
X115611209Y-130472517D01*
X115611209Y-130472517D02*
X115658828Y-130615374D01*
X115658828Y-130615374D02*
X115754066Y-130710612D01*
X115754066Y-130710612D02*
X115849304Y-130758231D01*
X115849304Y-130758231D02*
X116039780Y-130805850D01*
X116039780Y-130805850D02*
X116182637Y-130805850D01*
X116182637Y-130805850D02*
X116373113Y-130758231D01*
X116373113Y-130758231D02*
X116468351Y-130710612D01*
X116468351Y-130710612D02*
X116563590Y-130615374D01*
X116563590Y-130615374D02*
X116611209Y-130472517D01*
X116611209Y-130472517D02*
X116611209Y-130234422D01*
X115611209Y-131139184D02*
X115611209Y-131758231D01*
X115611209Y-131758231D02*
X115992161Y-131424898D01*
X115992161Y-131424898D02*
X115992161Y-131567755D01*
X115992161Y-131567755D02*
X116039780Y-131662993D01*
X116039780Y-131662993D02*
X116087399Y-131710612D01*
X116087399Y-131710612D02*
X116182637Y-131758231D01*
X116182637Y-131758231D02*
X116420732Y-131758231D01*
X116420732Y-131758231D02*
X116515970Y-131710612D01*
X116515970Y-131710612D02*
X116563590Y-131662993D01*
X116563590Y-131662993D02*
X116611209Y-131567755D01*
X116611209Y-131567755D02*
X116611209Y-131282041D01*
X116611209Y-131282041D02*
X116563590Y-131186803D01*
X116563590Y-131186803D02*
X116515970Y-131139184D01*
X115611209Y-132091565D02*
X115611209Y-132710612D01*
X115611209Y-132710612D02*
X115992161Y-132377279D01*
X115992161Y-132377279D02*
X115992161Y-132520136D01*
X115992161Y-132520136D02*
X116039780Y-132615374D01*
X116039780Y-132615374D02*
X116087399Y-132662993D01*
X116087399Y-132662993D02*
X116182637Y-132710612D01*
X116182637Y-132710612D02*
X116420732Y-132710612D01*
X116420732Y-132710612D02*
X116515970Y-132662993D01*
X116515970Y-132662993D02*
X116563590Y-132615374D01*
X116563590Y-132615374D02*
X116611209Y-132520136D01*
X116611209Y-132520136D02*
X116611209Y-132234422D01*
X116611209Y-132234422D02*
X116563590Y-132139184D01*
X116563590Y-132139184D02*
X116515970Y-132091565D01*
X187240875Y-110862827D02*
X187240875Y-109862827D01*
X187240875Y-109862827D02*
X187002780Y-109862827D01*
X187002780Y-109862827D02*
X186859923Y-109910446D01*
X186859923Y-109910446D02*
X186764685Y-110005684D01*
X186764685Y-110005684D02*
X186717066Y-110100922D01*
X186717066Y-110100922D02*
X186669447Y-110291398D01*
X186669447Y-110291398D02*
X186669447Y-110434255D01*
X186669447Y-110434255D02*
X186717066Y-110624731D01*
X186717066Y-110624731D02*
X186764685Y-110719969D01*
X186764685Y-110719969D02*
X186859923Y-110815208D01*
X186859923Y-110815208D02*
X187002780Y-110862827D01*
X187002780Y-110862827D02*
X187240875Y-110862827D01*
X185717066Y-110862827D02*
X186288494Y-110862827D01*
X186002780Y-110862827D02*
X186002780Y-109862827D01*
X186002780Y-109862827D02*
X186098018Y-110005684D01*
X186098018Y-110005684D02*
X186193256Y-110100922D01*
X186193256Y-110100922D02*
X186288494Y-110148541D01*
X185336113Y-109958065D02*
X185288494Y-109910446D01*
X185288494Y-109910446D02*
X185193256Y-109862827D01*
X185193256Y-109862827D02*
X184955161Y-109862827D01*
X184955161Y-109862827D02*
X184859923Y-109910446D01*
X184859923Y-109910446D02*
X184812304Y-109958065D01*
X184812304Y-109958065D02*
X184764685Y-110053303D01*
X184764685Y-110053303D02*
X184764685Y-110148541D01*
X184764685Y-110148541D02*
X184812304Y-110291398D01*
X184812304Y-110291398D02*
X185383732Y-110862827D01*
X185383732Y-110862827D02*
X184764685Y-110862827D01*
X182240875Y-108987827D02*
X182812303Y-108987827D01*
X182526589Y-108987827D02*
X182526589Y-107987827D01*
X182526589Y-107987827D02*
X182621827Y-108130684D01*
X182621827Y-108130684D02*
X182717065Y-108225922D01*
X182717065Y-108225922D02*
X182812303Y-108273541D01*
X168688375Y-49607827D02*
X168688375Y-48607827D01*
X168688375Y-48607827D02*
X168450280Y-48607827D01*
X168450280Y-48607827D02*
X168307423Y-48655446D01*
X168307423Y-48655446D02*
X168212185Y-48750684D01*
X168212185Y-48750684D02*
X168164566Y-48845922D01*
X168164566Y-48845922D02*
X168116947Y-49036398D01*
X168116947Y-49036398D02*
X168116947Y-49179255D01*
X168116947Y-49179255D02*
X168164566Y-49369731D01*
X168164566Y-49369731D02*
X168212185Y-49464969D01*
X168212185Y-49464969D02*
X168307423Y-49560208D01*
X168307423Y-49560208D02*
X168450280Y-49607827D01*
X168450280Y-49607827D02*
X168688375Y-49607827D01*
X167735994Y-48703065D02*
X167688375Y-48655446D01*
X167688375Y-48655446D02*
X167593137Y-48607827D01*
X167593137Y-48607827D02*
X167355042Y-48607827D01*
X167355042Y-48607827D02*
X167259804Y-48655446D01*
X167259804Y-48655446D02*
X167212185Y-48703065D01*
X167212185Y-48703065D02*
X167164566Y-48798303D01*
X167164566Y-48798303D02*
X167164566Y-48893541D01*
X167164566Y-48893541D02*
X167212185Y-49036398D01*
X167212185Y-49036398D02*
X167783613Y-49607827D01*
X167783613Y-49607827D02*
X167164566Y-49607827D01*
X166307423Y-48941160D02*
X166307423Y-49607827D01*
X166545518Y-48560208D02*
X166783613Y-49274493D01*
X166783613Y-49274493D02*
X166164566Y-49274493D01*
X170688375Y-51482827D02*
X171259803Y-51482827D01*
X170974089Y-51482827D02*
X170974089Y-50482827D01*
X170974089Y-50482827D02*
X171069327Y-50625684D01*
X171069327Y-50625684D02*
X171164565Y-50720922D01*
X171164565Y-50720922D02*
X171259803Y-50768541D01*
X151741747Y-75366027D02*
X152075080Y-74889836D01*
X152313175Y-75366027D02*
X152313175Y-74366027D01*
X152313175Y-74366027D02*
X151932223Y-74366027D01*
X151932223Y-74366027D02*
X151836985Y-74413646D01*
X151836985Y-74413646D02*
X151789366Y-74461265D01*
X151789366Y-74461265D02*
X151741747Y-74556503D01*
X151741747Y-74556503D02*
X151741747Y-74699360D01*
X151741747Y-74699360D02*
X151789366Y-74794598D01*
X151789366Y-74794598D02*
X151836985Y-74842217D01*
X151836985Y-74842217D02*
X151932223Y-74889836D01*
X151932223Y-74889836D02*
X152313175Y-74889836D01*
X150789366Y-75366027D02*
X151360794Y-75366027D01*
X151075080Y-75366027D02*
X151075080Y-74366027D01*
X151075080Y-74366027D02*
X151170318Y-74508884D01*
X151170318Y-74508884D02*
X151265556Y-74604122D01*
X151265556Y-74604122D02*
X151360794Y-74651741D01*
X149932223Y-74366027D02*
X150122699Y-74366027D01*
X150122699Y-74366027D02*
X150217937Y-74413646D01*
X150217937Y-74413646D02*
X150265556Y-74461265D01*
X150265556Y-74461265D02*
X150360794Y-74604122D01*
X150360794Y-74604122D02*
X150408413Y-74794598D01*
X150408413Y-74794598D02*
X150408413Y-75175550D01*
X150408413Y-75175550D02*
X150360794Y-75270788D01*
X150360794Y-75270788D02*
X150313175Y-75318408D01*
X150313175Y-75318408D02*
X150217937Y-75366027D01*
X150217937Y-75366027D02*
X150027461Y-75366027D01*
X150027461Y-75366027D02*
X149932223Y-75318408D01*
X149932223Y-75318408D02*
X149884604Y-75270788D01*
X149884604Y-75270788D02*
X149836985Y-75175550D01*
X149836985Y-75175550D02*
X149836985Y-74937455D01*
X149836985Y-74937455D02*
X149884604Y-74842217D01*
X149884604Y-74842217D02*
X149932223Y-74794598D01*
X149932223Y-74794598D02*
X150027461Y-74746979D01*
X150027461Y-74746979D02*
X150217937Y-74746979D01*
X150217937Y-74746979D02*
X150313175Y-74794598D01*
X150313175Y-74794598D02*
X150360794Y-74842217D01*
X150360794Y-74842217D02*
X150408413Y-74937455D01*
X119831570Y-78077374D02*
X119831570Y-78553564D01*
X119831570Y-78553564D02*
X120831570Y-78553564D01*
X119831570Y-77220231D02*
X119831570Y-77791659D01*
X119831570Y-77505945D02*
X120831570Y-77505945D01*
X120831570Y-77505945D02*
X120688713Y-77601183D01*
X120688713Y-77601183D02*
X120593475Y-77696421D01*
X120593475Y-77696421D02*
X120545856Y-77791659D01*
X190961209Y-111234422D02*
X189961209Y-111234422D01*
X189961209Y-111234422D02*
X189961209Y-111472517D01*
X189961209Y-111472517D02*
X190008828Y-111615374D01*
X190008828Y-111615374D02*
X190104066Y-111710612D01*
X190104066Y-111710612D02*
X190199304Y-111758231D01*
X190199304Y-111758231D02*
X190389780Y-111805850D01*
X190389780Y-111805850D02*
X190532637Y-111805850D01*
X190532637Y-111805850D02*
X190723113Y-111758231D01*
X190723113Y-111758231D02*
X190818351Y-111710612D01*
X190818351Y-111710612D02*
X190913590Y-111615374D01*
X190913590Y-111615374D02*
X190961209Y-111472517D01*
X190961209Y-111472517D02*
X190961209Y-111234422D01*
X190056447Y-112186803D02*
X190008828Y-112234422D01*
X190008828Y-112234422D02*
X189961209Y-112329660D01*
X189961209Y-112329660D02*
X189961209Y-112567755D01*
X189961209Y-112567755D02*
X190008828Y-112662993D01*
X190008828Y-112662993D02*
X190056447Y-112710612D01*
X190056447Y-112710612D02*
X190151685Y-112758231D01*
X190151685Y-112758231D02*
X190246923Y-112758231D01*
X190246923Y-112758231D02*
X190389780Y-112710612D01*
X190389780Y-112710612D02*
X190961209Y-112139184D01*
X190961209Y-112139184D02*
X190961209Y-112758231D01*
X190961209Y-113234422D02*
X190961209Y-113424898D01*
X190961209Y-113424898D02*
X190913590Y-113520136D01*
X190913590Y-113520136D02*
X190865970Y-113567755D01*
X190865970Y-113567755D02*
X190723113Y-113662993D01*
X190723113Y-113662993D02*
X190532637Y-113710612D01*
X190532637Y-113710612D02*
X190151685Y-113710612D01*
X190151685Y-113710612D02*
X190056447Y-113662993D01*
X190056447Y-113662993D02*
X190008828Y-113615374D01*
X190008828Y-113615374D02*
X189961209Y-113520136D01*
X189961209Y-113520136D02*
X189961209Y-113329660D01*
X189961209Y-113329660D02*
X190008828Y-113234422D01*
X190008828Y-113234422D02*
X190056447Y-113186803D01*
X190056447Y-113186803D02*
X190151685Y-113139184D01*
X190151685Y-113139184D02*
X190389780Y-113139184D01*
X190389780Y-113139184D02*
X190485018Y-113186803D01*
X190485018Y-113186803D02*
X190532637Y-113234422D01*
X190532637Y-113234422D02*
X190580256Y-113329660D01*
X190580256Y-113329660D02*
X190580256Y-113520136D01*
X190580256Y-113520136D02*
X190532637Y-113615374D01*
X190532637Y-113615374D02*
X190485018Y-113662993D01*
X190485018Y-113662993D02*
X190389780Y-113710612D01*
X149564684Y-86762827D02*
X149564684Y-85762827D01*
X149564684Y-85762827D02*
X149326589Y-85762827D01*
X149326589Y-85762827D02*
X149183732Y-85810446D01*
X149183732Y-85810446D02*
X149088494Y-85905684D01*
X149088494Y-85905684D02*
X149040875Y-86000922D01*
X149040875Y-86000922D02*
X148993256Y-86191398D01*
X148993256Y-86191398D02*
X148993256Y-86334255D01*
X148993256Y-86334255D02*
X149040875Y-86524731D01*
X149040875Y-86524731D02*
X149088494Y-86619969D01*
X149088494Y-86619969D02*
X149183732Y-86715208D01*
X149183732Y-86715208D02*
X149326589Y-86762827D01*
X149326589Y-86762827D02*
X149564684Y-86762827D01*
X148517065Y-86762827D02*
X148326589Y-86762827D01*
X148326589Y-86762827D02*
X148231351Y-86715208D01*
X148231351Y-86715208D02*
X148183732Y-86667588D01*
X148183732Y-86667588D02*
X148088494Y-86524731D01*
X148088494Y-86524731D02*
X148040875Y-86334255D01*
X148040875Y-86334255D02*
X148040875Y-85953303D01*
X148040875Y-85953303D02*
X148088494Y-85858065D01*
X148088494Y-85858065D02*
X148136113Y-85810446D01*
X148136113Y-85810446D02*
X148231351Y-85762827D01*
X148231351Y-85762827D02*
X148421827Y-85762827D01*
X148421827Y-85762827D02*
X148517065Y-85810446D01*
X148517065Y-85810446D02*
X148564684Y-85858065D01*
X148564684Y-85858065D02*
X148612303Y-85953303D01*
X148612303Y-85953303D02*
X148612303Y-86191398D01*
X148612303Y-86191398D02*
X148564684Y-86286636D01*
X148564684Y-86286636D02*
X148517065Y-86334255D01*
X148517065Y-86334255D02*
X148421827Y-86381874D01*
X148421827Y-86381874D02*
X148231351Y-86381874D01*
X148231351Y-86381874D02*
X148136113Y-86334255D01*
X148136113Y-86334255D02*
X148088494Y-86286636D01*
X148088494Y-86286636D02*
X148040875Y-86191398D01*
X152040875Y-88637827D02*
X152612303Y-88637827D01*
X152326589Y-88637827D02*
X152326589Y-87637827D01*
X152326589Y-87637827D02*
X152421827Y-87780684D01*
X152421827Y-87780684D02*
X152517065Y-87875922D01*
X152517065Y-87875922D02*
X152612303Y-87923541D01*
X145991747Y-71416027D02*
X146325080Y-70939836D01*
X146563175Y-71416027D02*
X146563175Y-70416027D01*
X146563175Y-70416027D02*
X146182223Y-70416027D01*
X146182223Y-70416027D02*
X146086985Y-70463646D01*
X146086985Y-70463646D02*
X146039366Y-70511265D01*
X146039366Y-70511265D02*
X145991747Y-70606503D01*
X145991747Y-70606503D02*
X145991747Y-70749360D01*
X145991747Y-70749360D02*
X146039366Y-70844598D01*
X146039366Y-70844598D02*
X146086985Y-70892217D01*
X146086985Y-70892217D02*
X146182223Y-70939836D01*
X146182223Y-70939836D02*
X146563175Y-70939836D01*
X145039366Y-71416027D02*
X145610794Y-71416027D01*
X145325080Y-71416027D02*
X145325080Y-70416027D01*
X145325080Y-70416027D02*
X145420318Y-70558884D01*
X145420318Y-70558884D02*
X145515556Y-70654122D01*
X145515556Y-70654122D02*
X145610794Y-70701741D01*
X144706032Y-70416027D02*
X144039366Y-70416027D01*
X144039366Y-70416027D02*
X144467937Y-71416027D01*
X129895970Y-63068350D02*
X129943590Y-63020731D01*
X129943590Y-63020731D02*
X129991209Y-62877874D01*
X129991209Y-62877874D02*
X129991209Y-62782636D01*
X129991209Y-62782636D02*
X129943590Y-62639779D01*
X129943590Y-62639779D02*
X129848351Y-62544541D01*
X129848351Y-62544541D02*
X129753113Y-62496922D01*
X129753113Y-62496922D02*
X129562637Y-62449303D01*
X129562637Y-62449303D02*
X129419780Y-62449303D01*
X129419780Y-62449303D02*
X129229304Y-62496922D01*
X129229304Y-62496922D02*
X129134066Y-62544541D01*
X129134066Y-62544541D02*
X129038828Y-62639779D01*
X129038828Y-62639779D02*
X128991209Y-62782636D01*
X128991209Y-62782636D02*
X128991209Y-62877874D01*
X128991209Y-62877874D02*
X129038828Y-63020731D01*
X129038828Y-63020731D02*
X129086447Y-63068350D01*
X129991209Y-64020731D02*
X129991209Y-63449303D01*
X129991209Y-63735017D02*
X128991209Y-63735017D01*
X128991209Y-63735017D02*
X129134066Y-63639779D01*
X129134066Y-63639779D02*
X129229304Y-63544541D01*
X129229304Y-63544541D02*
X129276923Y-63449303D01*
X128991209Y-64639779D02*
X128991209Y-64735017D01*
X128991209Y-64735017D02*
X129038828Y-64830255D01*
X129038828Y-64830255D02*
X129086447Y-64877874D01*
X129086447Y-64877874D02*
X129181685Y-64925493D01*
X129181685Y-64925493D02*
X129372161Y-64973112D01*
X129372161Y-64973112D02*
X129610256Y-64973112D01*
X129610256Y-64973112D02*
X129800732Y-64925493D01*
X129800732Y-64925493D02*
X129895970Y-64877874D01*
X129895970Y-64877874D02*
X129943590Y-64830255D01*
X129943590Y-64830255D02*
X129991209Y-64735017D01*
X129991209Y-64735017D02*
X129991209Y-64639779D01*
X129991209Y-64639779D02*
X129943590Y-64544541D01*
X129943590Y-64544541D02*
X129895970Y-64496922D01*
X129895970Y-64496922D02*
X129800732Y-64449303D01*
X129800732Y-64449303D02*
X129610256Y-64401684D01*
X129610256Y-64401684D02*
X129372161Y-64401684D01*
X129372161Y-64401684D02*
X129181685Y-64449303D01*
X129181685Y-64449303D02*
X129086447Y-64496922D01*
X129086447Y-64496922D02*
X129038828Y-64544541D01*
X129038828Y-64544541D02*
X128991209Y-64639779D01*
X162115556Y-65866027D02*
X162448889Y-65389836D01*
X162686984Y-65866027D02*
X162686984Y-64866027D01*
X162686984Y-64866027D02*
X162306032Y-64866027D01*
X162306032Y-64866027D02*
X162210794Y-64913646D01*
X162210794Y-64913646D02*
X162163175Y-64961265D01*
X162163175Y-64961265D02*
X162115556Y-65056503D01*
X162115556Y-65056503D02*
X162115556Y-65199360D01*
X162115556Y-65199360D02*
X162163175Y-65294598D01*
X162163175Y-65294598D02*
X162210794Y-65342217D01*
X162210794Y-65342217D02*
X162306032Y-65389836D01*
X162306032Y-65389836D02*
X162686984Y-65389836D01*
X161639365Y-65866027D02*
X161448889Y-65866027D01*
X161448889Y-65866027D02*
X161353651Y-65818408D01*
X161353651Y-65818408D02*
X161306032Y-65770788D01*
X161306032Y-65770788D02*
X161210794Y-65627931D01*
X161210794Y-65627931D02*
X161163175Y-65437455D01*
X161163175Y-65437455D02*
X161163175Y-65056503D01*
X161163175Y-65056503D02*
X161210794Y-64961265D01*
X161210794Y-64961265D02*
X161258413Y-64913646D01*
X161258413Y-64913646D02*
X161353651Y-64866027D01*
X161353651Y-64866027D02*
X161544127Y-64866027D01*
X161544127Y-64866027D02*
X161639365Y-64913646D01*
X161639365Y-64913646D02*
X161686984Y-64961265D01*
X161686984Y-64961265D02*
X161734603Y-65056503D01*
X161734603Y-65056503D02*
X161734603Y-65294598D01*
X161734603Y-65294598D02*
X161686984Y-65389836D01*
X161686984Y-65389836D02*
X161639365Y-65437455D01*
X161639365Y-65437455D02*
X161544127Y-65485074D01*
X161544127Y-65485074D02*
X161353651Y-65485074D01*
X161353651Y-65485074D02*
X161258413Y-65437455D01*
X161258413Y-65437455D02*
X161210794Y-65389836D01*
X161210794Y-65389836D02*
X161163175Y-65294598D01*
X143445970Y-56444541D02*
X143493590Y-56396922D01*
X143493590Y-56396922D02*
X143541209Y-56254065D01*
X143541209Y-56254065D02*
X143541209Y-56158827D01*
X143541209Y-56158827D02*
X143493590Y-56015970D01*
X143493590Y-56015970D02*
X143398351Y-55920732D01*
X143398351Y-55920732D02*
X143303113Y-55873113D01*
X143303113Y-55873113D02*
X143112637Y-55825494D01*
X143112637Y-55825494D02*
X142969780Y-55825494D01*
X142969780Y-55825494D02*
X142779304Y-55873113D01*
X142779304Y-55873113D02*
X142684066Y-55920732D01*
X142684066Y-55920732D02*
X142588828Y-56015970D01*
X142588828Y-56015970D02*
X142541209Y-56158827D01*
X142541209Y-56158827D02*
X142541209Y-56254065D01*
X142541209Y-56254065D02*
X142588828Y-56396922D01*
X142588828Y-56396922D02*
X142636447Y-56444541D01*
X142541209Y-57349303D02*
X142541209Y-56873113D01*
X142541209Y-56873113D02*
X143017399Y-56825494D01*
X143017399Y-56825494D02*
X142969780Y-56873113D01*
X142969780Y-56873113D02*
X142922161Y-56968351D01*
X142922161Y-56968351D02*
X142922161Y-57206446D01*
X142922161Y-57206446D02*
X142969780Y-57301684D01*
X142969780Y-57301684D02*
X143017399Y-57349303D01*
X143017399Y-57349303D02*
X143112637Y-57396922D01*
X143112637Y-57396922D02*
X143350732Y-57396922D01*
X143350732Y-57396922D02*
X143445970Y-57349303D01*
X143445970Y-57349303D02*
X143493590Y-57301684D01*
X143493590Y-57301684D02*
X143541209Y-57206446D01*
X143541209Y-57206446D02*
X143541209Y-56968351D01*
X143541209Y-56968351D02*
X143493590Y-56873113D01*
X143493590Y-56873113D02*
X143445970Y-56825494D01*
X135111209Y-130196922D02*
X134111209Y-130196922D01*
X134111209Y-130196922D02*
X134111209Y-130435017D01*
X134111209Y-130435017D02*
X134158828Y-130577874D01*
X134158828Y-130577874D02*
X134254066Y-130673112D01*
X134254066Y-130673112D02*
X134349304Y-130720731D01*
X134349304Y-130720731D02*
X134539780Y-130768350D01*
X134539780Y-130768350D02*
X134682637Y-130768350D01*
X134682637Y-130768350D02*
X134873113Y-130720731D01*
X134873113Y-130720731D02*
X134968351Y-130673112D01*
X134968351Y-130673112D02*
X135063590Y-130577874D01*
X135063590Y-130577874D02*
X135111209Y-130435017D01*
X135111209Y-130435017D02*
X135111209Y-130196922D01*
X134111209Y-131101684D02*
X134111209Y-131720731D01*
X134111209Y-131720731D02*
X134492161Y-131387398D01*
X134492161Y-131387398D02*
X134492161Y-131530255D01*
X134492161Y-131530255D02*
X134539780Y-131625493D01*
X134539780Y-131625493D02*
X134587399Y-131673112D01*
X134587399Y-131673112D02*
X134682637Y-131720731D01*
X134682637Y-131720731D02*
X134920732Y-131720731D01*
X134920732Y-131720731D02*
X135015970Y-131673112D01*
X135015970Y-131673112D02*
X135063590Y-131625493D01*
X135063590Y-131625493D02*
X135111209Y-131530255D01*
X135111209Y-131530255D02*
X135111209Y-131244541D01*
X135111209Y-131244541D02*
X135063590Y-131149303D01*
X135063590Y-131149303D02*
X135015970Y-131101684D01*
X134206447Y-132101684D02*
X134158828Y-132149303D01*
X134158828Y-132149303D02*
X134111209Y-132244541D01*
X134111209Y-132244541D02*
X134111209Y-132482636D01*
X134111209Y-132482636D02*
X134158828Y-132577874D01*
X134158828Y-132577874D02*
X134206447Y-132625493D01*
X134206447Y-132625493D02*
X134301685Y-132673112D01*
X134301685Y-132673112D02*
X134396923Y-132673112D01*
X134396923Y-132673112D02*
X134539780Y-132625493D01*
X134539780Y-132625493D02*
X135111209Y-132054065D01*
X135111209Y-132054065D02*
X135111209Y-132673112D01*
X133758335Y-76430788D02*
X133758335Y-75621265D01*
X133758335Y-75621265D02*
X133805954Y-75526027D01*
X133805954Y-75526027D02*
X133853573Y-75478408D01*
X133853573Y-75478408D02*
X133948811Y-75430788D01*
X133948811Y-75430788D02*
X134139287Y-75430788D01*
X134139287Y-75430788D02*
X134234525Y-75478408D01*
X134234525Y-75478408D02*
X134282144Y-75526027D01*
X134282144Y-75526027D02*
X134329763Y-75621265D01*
X134329763Y-75621265D02*
X134329763Y-76430788D01*
X134710716Y-76430788D02*
X135377382Y-76430788D01*
X135377382Y-76430788D02*
X134948811Y-75430788D01*
X132050090Y-79631188D02*
X132050090Y-79393093D01*
X131811995Y-79488331D02*
X132050090Y-79393093D01*
X132050090Y-79393093D02*
X132288185Y-79488331D01*
X131907233Y-79202617D02*
X132050090Y-79393093D01*
X132050090Y-79393093D02*
X132192947Y-79202617D01*
X132050090Y-79631188D02*
X132050090Y-79393093D01*
X131811995Y-79488331D02*
X132050090Y-79393093D01*
X132050090Y-79393093D02*
X132288185Y-79488331D01*
X131907233Y-79202617D02*
X132050090Y-79393093D01*
X132050090Y-79393093D02*
X132192947Y-79202617D01*
X187240875Y-123962827D02*
X187240875Y-122962827D01*
X187240875Y-122962827D02*
X187002780Y-122962827D01*
X187002780Y-122962827D02*
X186859923Y-123010446D01*
X186859923Y-123010446D02*
X186764685Y-123105684D01*
X186764685Y-123105684D02*
X186717066Y-123200922D01*
X186717066Y-123200922D02*
X186669447Y-123391398D01*
X186669447Y-123391398D02*
X186669447Y-123534255D01*
X186669447Y-123534255D02*
X186717066Y-123724731D01*
X186717066Y-123724731D02*
X186764685Y-123819969D01*
X186764685Y-123819969D02*
X186859923Y-123915208D01*
X186859923Y-123915208D02*
X187002780Y-123962827D01*
X187002780Y-123962827D02*
X187240875Y-123962827D01*
X185717066Y-123962827D02*
X186288494Y-123962827D01*
X186002780Y-123962827D02*
X186002780Y-122962827D01*
X186002780Y-122962827D02*
X186098018Y-123105684D01*
X186098018Y-123105684D02*
X186193256Y-123200922D01*
X186193256Y-123200922D02*
X186288494Y-123248541D01*
X185383732Y-122962827D02*
X184717066Y-122962827D01*
X184717066Y-122962827D02*
X185145637Y-123962827D01*
X189240875Y-125837827D02*
X189812303Y-125837827D01*
X189526589Y-125837827D02*
X189526589Y-124837827D01*
X189526589Y-124837827D02*
X189621827Y-124980684D01*
X189621827Y-124980684D02*
X189717065Y-125075922D01*
X189717065Y-125075922D02*
X189812303Y-125123541D01*
X131440875Y-86762827D02*
X131440875Y-85762827D01*
X131440875Y-85762827D02*
X131202780Y-85762827D01*
X131202780Y-85762827D02*
X131059923Y-85810446D01*
X131059923Y-85810446D02*
X130964685Y-85905684D01*
X130964685Y-85905684D02*
X130917066Y-86000922D01*
X130917066Y-86000922D02*
X130869447Y-86191398D01*
X130869447Y-86191398D02*
X130869447Y-86334255D01*
X130869447Y-86334255D02*
X130917066Y-86524731D01*
X130917066Y-86524731D02*
X130964685Y-86619969D01*
X130964685Y-86619969D02*
X131059923Y-86715208D01*
X131059923Y-86715208D02*
X131202780Y-86762827D01*
X131202780Y-86762827D02*
X131440875Y-86762827D01*
X129917066Y-86762827D02*
X130488494Y-86762827D01*
X130202780Y-86762827D02*
X130202780Y-85762827D01*
X130202780Y-85762827D02*
X130298018Y-85905684D01*
X130298018Y-85905684D02*
X130393256Y-86000922D01*
X130393256Y-86000922D02*
X130488494Y-86048541D01*
X129298018Y-85762827D02*
X129202780Y-85762827D01*
X129202780Y-85762827D02*
X129107542Y-85810446D01*
X129107542Y-85810446D02*
X129059923Y-85858065D01*
X129059923Y-85858065D02*
X129012304Y-85953303D01*
X129012304Y-85953303D02*
X128964685Y-86143779D01*
X128964685Y-86143779D02*
X128964685Y-86381874D01*
X128964685Y-86381874D02*
X129012304Y-86572350D01*
X129012304Y-86572350D02*
X129059923Y-86667588D01*
X129059923Y-86667588D02*
X129107542Y-86715208D01*
X129107542Y-86715208D02*
X129202780Y-86762827D01*
X129202780Y-86762827D02*
X129298018Y-86762827D01*
X129298018Y-86762827D02*
X129393256Y-86715208D01*
X129393256Y-86715208D02*
X129440875Y-86667588D01*
X129440875Y-86667588D02*
X129488494Y-86572350D01*
X129488494Y-86572350D02*
X129536113Y-86381874D01*
X129536113Y-86381874D02*
X129536113Y-86143779D01*
X129536113Y-86143779D02*
X129488494Y-85953303D01*
X129488494Y-85953303D02*
X129440875Y-85858065D01*
X129440875Y-85858065D02*
X129393256Y-85810446D01*
X129393256Y-85810446D02*
X129298018Y-85762827D01*
X133440875Y-88637827D02*
X134012303Y-88637827D01*
X133726589Y-88637827D02*
X133726589Y-87637827D01*
X133726589Y-87637827D02*
X133821827Y-87780684D01*
X133821827Y-87780684D02*
X133917065Y-87875922D01*
X133917065Y-87875922D02*
X134012303Y-87923541D01*
X172361209Y-74773113D02*
X171361209Y-74773113D01*
X171361209Y-74773113D02*
X171361209Y-75011208D01*
X171361209Y-75011208D02*
X171408828Y-75154065D01*
X171408828Y-75154065D02*
X171504066Y-75249303D01*
X171504066Y-75249303D02*
X171599304Y-75296922D01*
X171599304Y-75296922D02*
X171789780Y-75344541D01*
X171789780Y-75344541D02*
X171932637Y-75344541D01*
X171932637Y-75344541D02*
X172123113Y-75296922D01*
X172123113Y-75296922D02*
X172218351Y-75249303D01*
X172218351Y-75249303D02*
X172313590Y-75154065D01*
X172313590Y-75154065D02*
X172361209Y-75011208D01*
X172361209Y-75011208D02*
X172361209Y-74773113D01*
X171789780Y-75915970D02*
X171742161Y-75820732D01*
X171742161Y-75820732D02*
X171694542Y-75773113D01*
X171694542Y-75773113D02*
X171599304Y-75725494D01*
X171599304Y-75725494D02*
X171551685Y-75725494D01*
X171551685Y-75725494D02*
X171456447Y-75773113D01*
X171456447Y-75773113D02*
X171408828Y-75820732D01*
X171408828Y-75820732D02*
X171361209Y-75915970D01*
X171361209Y-75915970D02*
X171361209Y-76106446D01*
X171361209Y-76106446D02*
X171408828Y-76201684D01*
X171408828Y-76201684D02*
X171456447Y-76249303D01*
X171456447Y-76249303D02*
X171551685Y-76296922D01*
X171551685Y-76296922D02*
X171599304Y-76296922D01*
X171599304Y-76296922D02*
X171694542Y-76249303D01*
X171694542Y-76249303D02*
X171742161Y-76201684D01*
X171742161Y-76201684D02*
X171789780Y-76106446D01*
X171789780Y-76106446D02*
X171789780Y-75915970D01*
X171789780Y-75915970D02*
X171837399Y-75820732D01*
X171837399Y-75820732D02*
X171885018Y-75773113D01*
X171885018Y-75773113D02*
X171980256Y-75725494D01*
X171980256Y-75725494D02*
X172170732Y-75725494D01*
X172170732Y-75725494D02*
X172265970Y-75773113D01*
X172265970Y-75773113D02*
X172313590Y-75820732D01*
X172313590Y-75820732D02*
X172361209Y-75915970D01*
X172361209Y-75915970D02*
X172361209Y-76106446D01*
X172361209Y-76106446D02*
X172313590Y-76201684D01*
X172313590Y-76201684D02*
X172265970Y-76249303D01*
X172265970Y-76249303D02*
X172170732Y-76296922D01*
X172170732Y-76296922D02*
X171980256Y-76296922D01*
X171980256Y-76296922D02*
X171885018Y-76249303D01*
X171885018Y-76249303D02*
X171837399Y-76201684D01*
X171837399Y-76201684D02*
X171789780Y-76106446D01*
X151274485Y-66006388D02*
X151274485Y-65196865D01*
X151274485Y-65196865D02*
X151322104Y-65101627D01*
X151322104Y-65101627D02*
X151369723Y-65054008D01*
X151369723Y-65054008D02*
X151464961Y-65006388D01*
X151464961Y-65006388D02*
X151655437Y-65006388D01*
X151655437Y-65006388D02*
X151750675Y-65054008D01*
X151750675Y-65054008D02*
X151798294Y-65101627D01*
X151798294Y-65101627D02*
X151845913Y-65196865D01*
X151845913Y-65196865D02*
X151845913Y-66006388D01*
X152226866Y-66006388D02*
X152845913Y-66006388D01*
X152845913Y-66006388D02*
X152512580Y-65625436D01*
X152512580Y-65625436D02*
X152655437Y-65625436D01*
X152655437Y-65625436D02*
X152750675Y-65577817D01*
X152750675Y-65577817D02*
X152798294Y-65530198D01*
X152798294Y-65530198D02*
X152845913Y-65434960D01*
X152845913Y-65434960D02*
X152845913Y-65196865D01*
X152845913Y-65196865D02*
X152798294Y-65101627D01*
X152798294Y-65101627D02*
X152750675Y-65054008D01*
X152750675Y-65054008D02*
X152655437Y-65006388D01*
X152655437Y-65006388D02*
X152369723Y-65006388D01*
X152369723Y-65006388D02*
X152274485Y-65054008D01*
X152274485Y-65054008D02*
X152226866Y-65101627D01*
X150520740Y-69613188D02*
X150520740Y-69375093D01*
X150282645Y-69470331D02*
X150520740Y-69375093D01*
X150520740Y-69375093D02*
X150758835Y-69470331D01*
X150377883Y-69184617D02*
X150520740Y-69375093D01*
X150520740Y-69375093D02*
X150663597Y-69184617D01*
X149058239Y-68522827D02*
X149058239Y-68760922D01*
X149296334Y-68665684D02*
X149058239Y-68760922D01*
X149058239Y-68760922D02*
X148820144Y-68665684D01*
X149201096Y-68951398D02*
X149058239Y-68760922D01*
X149058239Y-68760922D02*
X148915382Y-68951398D01*
X145165556Y-77020788D02*
X145213175Y-77068408D01*
X145213175Y-77068408D02*
X145356032Y-77116027D01*
X145356032Y-77116027D02*
X145451270Y-77116027D01*
X145451270Y-77116027D02*
X145594127Y-77068408D01*
X145594127Y-77068408D02*
X145689365Y-76973169D01*
X145689365Y-76973169D02*
X145736984Y-76877931D01*
X145736984Y-76877931D02*
X145784603Y-76687455D01*
X145784603Y-76687455D02*
X145784603Y-76544598D01*
X145784603Y-76544598D02*
X145736984Y-76354122D01*
X145736984Y-76354122D02*
X145689365Y-76258884D01*
X145689365Y-76258884D02*
X145594127Y-76163646D01*
X145594127Y-76163646D02*
X145451270Y-76116027D01*
X145451270Y-76116027D02*
X145356032Y-76116027D01*
X145356032Y-76116027D02*
X145213175Y-76163646D01*
X145213175Y-76163646D02*
X145165556Y-76211265D01*
X144832222Y-76116027D02*
X144165556Y-76116027D01*
X144165556Y-76116027D02*
X144594127Y-77116027D01*
X107069723Y-82566027D02*
X107069723Y-83280312D01*
X107069723Y-83280312D02*
X107117342Y-83423169D01*
X107117342Y-83423169D02*
X107212580Y-83518408D01*
X107212580Y-83518408D02*
X107355437Y-83566027D01*
X107355437Y-83566027D02*
X107450675Y-83566027D01*
X106117342Y-82566027D02*
X106593532Y-82566027D01*
X106593532Y-82566027D02*
X106641151Y-83042217D01*
X106641151Y-83042217D02*
X106593532Y-82994598D01*
X106593532Y-82994598D02*
X106498294Y-82946979D01*
X106498294Y-82946979D02*
X106260199Y-82946979D01*
X106260199Y-82946979D02*
X106164961Y-82994598D01*
X106164961Y-82994598D02*
X106117342Y-83042217D01*
X106117342Y-83042217D02*
X106069723Y-83137455D01*
X106069723Y-83137455D02*
X106069723Y-83375550D01*
X106069723Y-83375550D02*
X106117342Y-83470788D01*
X106117342Y-83470788D02*
X106164961Y-83518408D01*
X106164961Y-83518408D02*
X106260199Y-83566027D01*
X106260199Y-83566027D02*
X106498294Y-83566027D01*
X106498294Y-83566027D02*
X106593532Y-83518408D01*
X106593532Y-83518408D02*
X106641151Y-83470788D01*
X131440875Y-110862827D02*
X131440875Y-109862827D01*
X131440875Y-109862827D02*
X131202780Y-109862827D01*
X131202780Y-109862827D02*
X131059923Y-109910446D01*
X131059923Y-109910446D02*
X130964685Y-110005684D01*
X130964685Y-110005684D02*
X130917066Y-110100922D01*
X130917066Y-110100922D02*
X130869447Y-110291398D01*
X130869447Y-110291398D02*
X130869447Y-110434255D01*
X130869447Y-110434255D02*
X130917066Y-110624731D01*
X130917066Y-110624731D02*
X130964685Y-110719969D01*
X130964685Y-110719969D02*
X131059923Y-110815208D01*
X131059923Y-110815208D02*
X131202780Y-110862827D01*
X131202780Y-110862827D02*
X131440875Y-110862827D01*
X129917066Y-110862827D02*
X130488494Y-110862827D01*
X130202780Y-110862827D02*
X130202780Y-109862827D01*
X130202780Y-109862827D02*
X130298018Y-110005684D01*
X130298018Y-110005684D02*
X130393256Y-110100922D01*
X130393256Y-110100922D02*
X130488494Y-110148541D01*
X129012304Y-109862827D02*
X129488494Y-109862827D01*
X129488494Y-109862827D02*
X129536113Y-110339017D01*
X129536113Y-110339017D02*
X129488494Y-110291398D01*
X129488494Y-110291398D02*
X129393256Y-110243779D01*
X129393256Y-110243779D02*
X129155161Y-110243779D01*
X129155161Y-110243779D02*
X129059923Y-110291398D01*
X129059923Y-110291398D02*
X129012304Y-110339017D01*
X129012304Y-110339017D02*
X128964685Y-110434255D01*
X128964685Y-110434255D02*
X128964685Y-110672350D01*
X128964685Y-110672350D02*
X129012304Y-110767588D01*
X129012304Y-110767588D02*
X129059923Y-110815208D01*
X129059923Y-110815208D02*
X129155161Y-110862827D01*
X129155161Y-110862827D02*
X129393256Y-110862827D01*
X129393256Y-110862827D02*
X129488494Y-110815208D01*
X129488494Y-110815208D02*
X129536113Y-110767588D01*
X126440875Y-108987827D02*
X127012303Y-108987827D01*
X126726589Y-108987827D02*
X126726589Y-107987827D01*
X126726589Y-107987827D02*
X126821827Y-108130684D01*
X126821827Y-108130684D02*
X126917065Y-108225922D01*
X126917065Y-108225922D02*
X127012303Y-108273541D01*
X112840875Y-86762827D02*
X112840875Y-85762827D01*
X112840875Y-85762827D02*
X112602780Y-85762827D01*
X112602780Y-85762827D02*
X112459923Y-85810446D01*
X112459923Y-85810446D02*
X112364685Y-85905684D01*
X112364685Y-85905684D02*
X112317066Y-86000922D01*
X112317066Y-86000922D02*
X112269447Y-86191398D01*
X112269447Y-86191398D02*
X112269447Y-86334255D01*
X112269447Y-86334255D02*
X112317066Y-86524731D01*
X112317066Y-86524731D02*
X112364685Y-86619969D01*
X112364685Y-86619969D02*
X112459923Y-86715208D01*
X112459923Y-86715208D02*
X112602780Y-86762827D01*
X112602780Y-86762827D02*
X112840875Y-86762827D01*
X111317066Y-86762827D02*
X111888494Y-86762827D01*
X111602780Y-86762827D02*
X111602780Y-85762827D01*
X111602780Y-85762827D02*
X111698018Y-85905684D01*
X111698018Y-85905684D02*
X111793256Y-86000922D01*
X111793256Y-86000922D02*
X111888494Y-86048541D01*
X110364685Y-86762827D02*
X110936113Y-86762827D01*
X110650399Y-86762827D02*
X110650399Y-85762827D01*
X110650399Y-85762827D02*
X110745637Y-85905684D01*
X110745637Y-85905684D02*
X110840875Y-86000922D01*
X110840875Y-86000922D02*
X110936113Y-86048541D01*
X114840875Y-88637827D02*
X115412303Y-88637827D01*
X115126589Y-88637827D02*
X115126589Y-87637827D01*
X115126589Y-87637827D02*
X115221827Y-87780684D01*
X115221827Y-87780684D02*
X115317065Y-87875922D01*
X115317065Y-87875922D02*
X115412303Y-87923541D01*
X131440875Y-123962827D02*
X131440875Y-122962827D01*
X131440875Y-122962827D02*
X131202780Y-122962827D01*
X131202780Y-122962827D02*
X131059923Y-123010446D01*
X131059923Y-123010446D02*
X130964685Y-123105684D01*
X130964685Y-123105684D02*
X130917066Y-123200922D01*
X130917066Y-123200922D02*
X130869447Y-123391398D01*
X130869447Y-123391398D02*
X130869447Y-123534255D01*
X130869447Y-123534255D02*
X130917066Y-123724731D01*
X130917066Y-123724731D02*
X130964685Y-123819969D01*
X130964685Y-123819969D02*
X131059923Y-123915208D01*
X131059923Y-123915208D02*
X131202780Y-123962827D01*
X131202780Y-123962827D02*
X131440875Y-123962827D01*
X130488494Y-123058065D02*
X130440875Y-123010446D01*
X130440875Y-123010446D02*
X130345637Y-122962827D01*
X130345637Y-122962827D02*
X130107542Y-122962827D01*
X130107542Y-122962827D02*
X130012304Y-123010446D01*
X130012304Y-123010446D02*
X129964685Y-123058065D01*
X129964685Y-123058065D02*
X129917066Y-123153303D01*
X129917066Y-123153303D02*
X129917066Y-123248541D01*
X129917066Y-123248541D02*
X129964685Y-123391398D01*
X129964685Y-123391398D02*
X130536113Y-123962827D01*
X130536113Y-123962827D02*
X129917066Y-123962827D01*
X129298018Y-122962827D02*
X129202780Y-122962827D01*
X129202780Y-122962827D02*
X129107542Y-123010446D01*
X129107542Y-123010446D02*
X129059923Y-123058065D01*
X129059923Y-123058065D02*
X129012304Y-123153303D01*
X129012304Y-123153303D02*
X128964685Y-123343779D01*
X128964685Y-123343779D02*
X128964685Y-123581874D01*
X128964685Y-123581874D02*
X129012304Y-123772350D01*
X129012304Y-123772350D02*
X129059923Y-123867588D01*
X129059923Y-123867588D02*
X129107542Y-123915208D01*
X129107542Y-123915208D02*
X129202780Y-123962827D01*
X129202780Y-123962827D02*
X129298018Y-123962827D01*
X129298018Y-123962827D02*
X129393256Y-123915208D01*
X129393256Y-123915208D02*
X129440875Y-123867588D01*
X129440875Y-123867588D02*
X129488494Y-123772350D01*
X129488494Y-123772350D02*
X129536113Y-123581874D01*
X129536113Y-123581874D02*
X129536113Y-123343779D01*
X129536113Y-123343779D02*
X129488494Y-123153303D01*
X129488494Y-123153303D02*
X129440875Y-123058065D01*
X129440875Y-123058065D02*
X129393256Y-123010446D01*
X129393256Y-123010446D02*
X129298018Y-122962827D01*
X133440875Y-125837827D02*
X134012303Y-125837827D01*
X133726589Y-125837827D02*
X133726589Y-124837827D01*
X133726589Y-124837827D02*
X133821827Y-124980684D01*
X133821827Y-124980684D02*
X133917065Y-125075922D01*
X133917065Y-125075922D02*
X134012303Y-125123541D01*
X147743056Y-62466027D02*
X148076389Y-61989836D01*
X148314484Y-62466027D02*
X148314484Y-61466027D01*
X148314484Y-61466027D02*
X147933532Y-61466027D01*
X147933532Y-61466027D02*
X147838294Y-61513646D01*
X147838294Y-61513646D02*
X147790675Y-61561265D01*
X147790675Y-61561265D02*
X147743056Y-61656503D01*
X147743056Y-61656503D02*
X147743056Y-61799360D01*
X147743056Y-61799360D02*
X147790675Y-61894598D01*
X147790675Y-61894598D02*
X147838294Y-61942217D01*
X147838294Y-61942217D02*
X147933532Y-61989836D01*
X147933532Y-61989836D02*
X148314484Y-61989836D01*
X146885913Y-61799360D02*
X146885913Y-62466027D01*
X147124008Y-61418408D02*
X147362103Y-62132693D01*
X147362103Y-62132693D02*
X146743056Y-62132693D01*
X168212184Y-68157827D02*
X168212184Y-67157827D01*
X168212184Y-67157827D02*
X167974089Y-67157827D01*
X167974089Y-67157827D02*
X167831232Y-67205446D01*
X167831232Y-67205446D02*
X167735994Y-67300684D01*
X167735994Y-67300684D02*
X167688375Y-67395922D01*
X167688375Y-67395922D02*
X167640756Y-67586398D01*
X167640756Y-67586398D02*
X167640756Y-67729255D01*
X167640756Y-67729255D02*
X167688375Y-67919731D01*
X167688375Y-67919731D02*
X167735994Y-68014969D01*
X167735994Y-68014969D02*
X167831232Y-68110208D01*
X167831232Y-68110208D02*
X167974089Y-68157827D01*
X167974089Y-68157827D02*
X168212184Y-68157827D01*
X167307422Y-67157827D02*
X166640756Y-67157827D01*
X166640756Y-67157827D02*
X167069327Y-68157827D01*
X170688375Y-70032827D02*
X171259803Y-70032827D01*
X170974089Y-70032827D02*
X170974089Y-69032827D01*
X170974089Y-69032827D02*
X171069327Y-69175684D01*
X171069327Y-69175684D02*
X171164565Y-69270922D01*
X171164565Y-69270922D02*
X171259803Y-69318541D01*
X145941747Y-75316027D02*
X146275080Y-74839836D01*
X146513175Y-75316027D02*
X146513175Y-74316027D01*
X146513175Y-74316027D02*
X146132223Y-74316027D01*
X146132223Y-74316027D02*
X146036985Y-74363646D01*
X146036985Y-74363646D02*
X145989366Y-74411265D01*
X145989366Y-74411265D02*
X145941747Y-74506503D01*
X145941747Y-74506503D02*
X145941747Y-74649360D01*
X145941747Y-74649360D02*
X145989366Y-74744598D01*
X145989366Y-74744598D02*
X146036985Y-74792217D01*
X146036985Y-74792217D02*
X146132223Y-74839836D01*
X146132223Y-74839836D02*
X146513175Y-74839836D01*
X144989366Y-75316027D02*
X145560794Y-75316027D01*
X145275080Y-75316027D02*
X145275080Y-74316027D01*
X145275080Y-74316027D02*
X145370318Y-74458884D01*
X145370318Y-74458884D02*
X145465556Y-74554122D01*
X145465556Y-74554122D02*
X145560794Y-74601741D01*
X144036985Y-75316027D02*
X144608413Y-75316027D01*
X144322699Y-75316027D02*
X144322699Y-74316027D01*
X144322699Y-74316027D02*
X144417937Y-74458884D01*
X144417937Y-74458884D02*
X144513175Y-74554122D01*
X144513175Y-74554122D02*
X144608413Y-74601741D01*
X150040875Y-123962827D02*
X150040875Y-122962827D01*
X150040875Y-122962827D02*
X149802780Y-122962827D01*
X149802780Y-122962827D02*
X149659923Y-123010446D01*
X149659923Y-123010446D02*
X149564685Y-123105684D01*
X149564685Y-123105684D02*
X149517066Y-123200922D01*
X149517066Y-123200922D02*
X149469447Y-123391398D01*
X149469447Y-123391398D02*
X149469447Y-123534255D01*
X149469447Y-123534255D02*
X149517066Y-123724731D01*
X149517066Y-123724731D02*
X149564685Y-123819969D01*
X149564685Y-123819969D02*
X149659923Y-123915208D01*
X149659923Y-123915208D02*
X149802780Y-123962827D01*
X149802780Y-123962827D02*
X150040875Y-123962827D01*
X148517066Y-123962827D02*
X149088494Y-123962827D01*
X148802780Y-123962827D02*
X148802780Y-122962827D01*
X148802780Y-122962827D02*
X148898018Y-123105684D01*
X148898018Y-123105684D02*
X148993256Y-123200922D01*
X148993256Y-123200922D02*
X149088494Y-123248541D01*
X148040875Y-123962827D02*
X147850399Y-123962827D01*
X147850399Y-123962827D02*
X147755161Y-123915208D01*
X147755161Y-123915208D02*
X147707542Y-123867588D01*
X147707542Y-123867588D02*
X147612304Y-123724731D01*
X147612304Y-123724731D02*
X147564685Y-123534255D01*
X147564685Y-123534255D02*
X147564685Y-123153303D01*
X147564685Y-123153303D02*
X147612304Y-123058065D01*
X147612304Y-123058065D02*
X147659923Y-123010446D01*
X147659923Y-123010446D02*
X147755161Y-122962827D01*
X147755161Y-122962827D02*
X147945637Y-122962827D01*
X147945637Y-122962827D02*
X148040875Y-123010446D01*
X148040875Y-123010446D02*
X148088494Y-123058065D01*
X148088494Y-123058065D02*
X148136113Y-123153303D01*
X148136113Y-123153303D02*
X148136113Y-123391398D01*
X148136113Y-123391398D02*
X148088494Y-123486636D01*
X148088494Y-123486636D02*
X148040875Y-123534255D01*
X148040875Y-123534255D02*
X147945637Y-123581874D01*
X147945637Y-123581874D02*
X147755161Y-123581874D01*
X147755161Y-123581874D02*
X147659923Y-123534255D01*
X147659923Y-123534255D02*
X147612304Y-123486636D01*
X147612304Y-123486636D02*
X147564685Y-123391398D01*
X152040875Y-125837827D02*
X152612303Y-125837827D01*
X152326589Y-125837827D02*
X152326589Y-124837827D01*
X152326589Y-124837827D02*
X152421827Y-124980684D01*
X152421827Y-124980684D02*
X152517065Y-125075922D01*
X152517065Y-125075922D02*
X152612303Y-125123541D01*
X186775122Y-103990808D02*
X186632265Y-104038427D01*
X186632265Y-104038427D02*
X186394170Y-104038427D01*
X186394170Y-104038427D02*
X186298932Y-103990808D01*
X186298932Y-103990808D02*
X186251313Y-103943188D01*
X186251313Y-103943188D02*
X186203694Y-103847950D01*
X186203694Y-103847950D02*
X186203694Y-103752712D01*
X186203694Y-103752712D02*
X186251313Y-103657474D01*
X186251313Y-103657474D02*
X186298932Y-103609855D01*
X186298932Y-103609855D02*
X186394170Y-103562236D01*
X186394170Y-103562236D02*
X186584646Y-103514617D01*
X186584646Y-103514617D02*
X186679884Y-103466998D01*
X186679884Y-103466998D02*
X186727503Y-103419379D01*
X186727503Y-103419379D02*
X186775122Y-103324141D01*
X186775122Y-103324141D02*
X186775122Y-103228903D01*
X186775122Y-103228903D02*
X186727503Y-103133665D01*
X186727503Y-103133665D02*
X186679884Y-103086046D01*
X186679884Y-103086046D02*
X186584646Y-103038427D01*
X186584646Y-103038427D02*
X186346551Y-103038427D01*
X186346551Y-103038427D02*
X186203694Y-103086046D01*
X185870360Y-103038427D02*
X185632265Y-104038427D01*
X185632265Y-104038427D02*
X185441789Y-103324141D01*
X185441789Y-103324141D02*
X185251313Y-104038427D01*
X185251313Y-104038427D02*
X185013218Y-103038427D01*
X184489408Y-103466998D02*
X184584646Y-103419379D01*
X184584646Y-103419379D02*
X184632265Y-103371760D01*
X184632265Y-103371760D02*
X184679884Y-103276522D01*
X184679884Y-103276522D02*
X184679884Y-103228903D01*
X184679884Y-103228903D02*
X184632265Y-103133665D01*
X184632265Y-103133665D02*
X184584646Y-103086046D01*
X184584646Y-103086046D02*
X184489408Y-103038427D01*
X184489408Y-103038427D02*
X184298932Y-103038427D01*
X184298932Y-103038427D02*
X184203694Y-103086046D01*
X184203694Y-103086046D02*
X184156075Y-103133665D01*
X184156075Y-103133665D02*
X184108456Y-103228903D01*
X184108456Y-103228903D02*
X184108456Y-103276522D01*
X184108456Y-103276522D02*
X184156075Y-103371760D01*
X184156075Y-103371760D02*
X184203694Y-103419379D01*
X184203694Y-103419379D02*
X184298932Y-103466998D01*
X184298932Y-103466998D02*
X184489408Y-103466998D01*
X184489408Y-103466998D02*
X184584646Y-103514617D01*
X184584646Y-103514617D02*
X184632265Y-103562236D01*
X184632265Y-103562236D02*
X184679884Y-103657474D01*
X184679884Y-103657474D02*
X184679884Y-103847950D01*
X184679884Y-103847950D02*
X184632265Y-103943188D01*
X184632265Y-103943188D02*
X184584646Y-103990808D01*
X184584646Y-103990808D02*
X184489408Y-104038427D01*
X184489408Y-104038427D02*
X184298932Y-104038427D01*
X184298932Y-104038427D02*
X184203694Y-103990808D01*
X184203694Y-103990808D02*
X184156075Y-103943188D01*
X184156075Y-103943188D02*
X184108456Y-103847950D01*
X184108456Y-103847950D02*
X184108456Y-103657474D01*
X184108456Y-103657474D02*
X184156075Y-103562236D01*
X184156075Y-103562236D02*
X184203694Y-103514617D01*
X184203694Y-103514617D02*
X184298932Y-103466998D01*
%TO.C,SW6*%
X153441790Y-102003608D02*
X153441790Y-101503608D01*
X153441790Y-97663608D02*
X153441790Y-98163608D01*
X146741790Y-97663608D02*
X153441790Y-97663608D01*
X146741790Y-97663608D02*
X145241790Y-96613608D01*
X146241790Y-102003608D02*
X153441790Y-102003608D01*
X146241790Y-102003608D02*
X144741790Y-100953608D01*
X141241790Y-100953608D02*
X144741790Y-100953608D01*
X141241790Y-100453608D02*
X141241790Y-100953608D01*
X141241790Y-96613608D02*
X145241790Y-96613608D01*
X141241790Y-96613608D02*
X141241790Y-97113608D01*
%TO.C,SW13*%
X190641790Y-120603608D02*
X190641790Y-120103608D01*
X190641790Y-116263608D02*
X190641790Y-116763608D01*
X183941790Y-116263608D02*
X190641790Y-116263608D01*
X183941790Y-116263608D02*
X182441790Y-115213608D01*
X183441790Y-120603608D02*
X190641790Y-120603608D01*
X183441790Y-120603608D02*
X181941790Y-119553608D01*
X178441790Y-119553608D02*
X181941790Y-119553608D01*
X178441790Y-119053608D02*
X178441790Y-119553608D01*
X178441790Y-115213608D02*
X182441790Y-115213608D01*
X178441790Y-115213608D02*
X178441790Y-115713608D01*
%TO.C,SW12*%
X172041790Y-120603608D02*
X172041790Y-120103608D01*
X172041790Y-116263608D02*
X172041790Y-116763608D01*
X165341790Y-116263608D02*
X172041790Y-116263608D01*
X165341790Y-116263608D02*
X163841790Y-115213608D01*
X164841790Y-120603608D02*
X172041790Y-120603608D01*
X164841790Y-120603608D02*
X163341790Y-119553608D01*
X159841790Y-119553608D02*
X163341790Y-119553608D01*
X159841790Y-119053608D02*
X159841790Y-119553608D01*
X159841790Y-115213608D02*
X163841790Y-115213608D01*
X159841790Y-115213608D02*
X159841790Y-115713608D01*
%TO.C,SW9*%
X116241790Y-120603608D02*
X116241790Y-120103608D01*
X116241790Y-116263608D02*
X116241790Y-116763608D01*
X109541790Y-116263608D02*
X116241790Y-116263608D01*
X109541790Y-116263608D02*
X108041790Y-115213608D01*
X109041790Y-120603608D02*
X116241790Y-120603608D01*
X109041790Y-120603608D02*
X107541790Y-119553608D01*
X104041790Y-119553608D02*
X107541790Y-119553608D01*
X104041790Y-119053608D02*
X104041790Y-119553608D01*
X104041790Y-115213608D02*
X108041790Y-115213608D01*
X104041790Y-115213608D02*
X104041790Y-115713608D01*
%TO.C,SW5*%
X134841790Y-102003608D02*
X134841790Y-101503608D01*
X134841790Y-97663608D02*
X134841790Y-98163608D01*
X128141790Y-97663608D02*
X134841790Y-97663608D01*
X128141790Y-97663608D02*
X126641790Y-96613608D01*
X127641790Y-102003608D02*
X134841790Y-102003608D01*
X127641790Y-102003608D02*
X126141790Y-100953608D01*
X122641790Y-100953608D02*
X126141790Y-100953608D01*
X122641790Y-100453608D02*
X122641790Y-100953608D01*
X122641790Y-96613608D02*
X126641790Y-96613608D01*
X122641790Y-96613608D02*
X122641790Y-97113608D01*
%TO.C,SW11*%
X153441790Y-120603608D02*
X153441790Y-120103608D01*
X153441790Y-116263608D02*
X153441790Y-116763608D01*
X146741790Y-116263608D02*
X153441790Y-116263608D01*
X146741790Y-116263608D02*
X145241790Y-115213608D01*
X146241790Y-120603608D02*
X153441790Y-120603608D01*
X146241790Y-120603608D02*
X144741790Y-119553608D01*
X141241790Y-119553608D02*
X144741790Y-119553608D01*
X141241790Y-119053608D02*
X141241790Y-119553608D01*
X141241790Y-115213608D02*
X145241790Y-115213608D01*
X141241790Y-115213608D02*
X141241790Y-115713608D01*
%TO.C,SW10*%
X134841790Y-120603608D02*
X134841790Y-120103608D01*
X134841790Y-116263608D02*
X134841790Y-116763608D01*
X128141790Y-116263608D02*
X134841790Y-116263608D01*
X128141790Y-116263608D02*
X126641790Y-115213608D01*
X127641790Y-120603608D02*
X134841790Y-120603608D01*
X127641790Y-120603608D02*
X126141790Y-119553608D01*
X122641790Y-119553608D02*
X126141790Y-119553608D01*
X122641790Y-119053608D02*
X122641790Y-119553608D01*
X122641790Y-115213608D02*
X126641790Y-115213608D01*
X122641790Y-115213608D02*
X122641790Y-115713608D01*
%TO.C,SW14*%
X116241790Y-139203608D02*
X116241790Y-138703608D01*
X116241790Y-134863608D02*
X116241790Y-135363608D01*
X109541790Y-134863608D02*
X116241790Y-134863608D01*
X109541790Y-134863608D02*
X108041790Y-133813608D01*
X109041790Y-139203608D02*
X116241790Y-139203608D01*
X109041790Y-139203608D02*
X107541790Y-138153608D01*
X104041790Y-138153608D02*
X107541790Y-138153608D01*
X104041790Y-137653608D02*
X104041790Y-138153608D01*
X104041790Y-133813608D02*
X108041790Y-133813608D01*
X104041790Y-133813608D02*
X104041790Y-134313608D01*
%TO.C,SW18*%
X190641790Y-139203608D02*
X190641790Y-138703608D01*
X190641790Y-134863608D02*
X190641790Y-135363608D01*
X183941790Y-134863608D02*
X190641790Y-134863608D01*
X183941790Y-134863608D02*
X182441790Y-133813608D01*
X183441790Y-139203608D02*
X190641790Y-139203608D01*
X183441790Y-139203608D02*
X181941790Y-138153608D01*
X178441790Y-138153608D02*
X181941790Y-138153608D01*
X178441790Y-137653608D02*
X178441790Y-138153608D01*
X178441790Y-133813608D02*
X182441790Y-133813608D01*
X178441790Y-133813608D02*
X178441790Y-134313608D01*
%TO.C,SW4*%
X116241790Y-102003608D02*
X116241790Y-101503608D01*
X116241790Y-97663608D02*
X116241790Y-98163608D01*
X109541790Y-97663608D02*
X116241790Y-97663608D01*
X109541790Y-97663608D02*
X108041790Y-96613608D01*
X109041790Y-102003608D02*
X116241790Y-102003608D01*
X109041790Y-102003608D02*
X107541790Y-100953608D01*
X104041790Y-100953608D02*
X107541790Y-100953608D01*
X104041790Y-100453608D02*
X104041790Y-100953608D01*
X104041790Y-96613608D02*
X108041790Y-96613608D01*
X104041790Y-96613608D02*
X104041790Y-97113608D01*
%TO.C,SW15*%
X134841790Y-139203608D02*
X134841790Y-138703608D01*
X134841790Y-134863608D02*
X134841790Y-135363608D01*
X128141790Y-134863608D02*
X134841790Y-134863608D01*
X128141790Y-134863608D02*
X126641790Y-133813608D01*
X127641790Y-139203608D02*
X134841790Y-139203608D01*
X127641790Y-139203608D02*
X126141790Y-138153608D01*
X122641790Y-138153608D02*
X126141790Y-138153608D01*
X122641790Y-137653608D02*
X122641790Y-138153608D01*
X122641790Y-133813608D02*
X126641790Y-133813608D01*
X122641790Y-133813608D02*
X122641790Y-134313608D01*
%TO.C,SW7*%
X172041790Y-102003608D02*
X172041790Y-101503608D01*
X172041790Y-97663608D02*
X172041790Y-98163608D01*
X165341790Y-97663608D02*
X172041790Y-97663608D01*
X165341790Y-97663608D02*
X163841790Y-96613608D01*
X164841790Y-102003608D02*
X172041790Y-102003608D01*
X164841790Y-102003608D02*
X163341790Y-100953608D01*
X159841790Y-100953608D02*
X163341790Y-100953608D01*
X159841790Y-100453608D02*
X159841790Y-100953608D01*
X159841790Y-96613608D02*
X163841790Y-96613608D01*
X159841790Y-96613608D02*
X159841790Y-97113608D01*
%TO.C,SW3*%
X172045590Y-83458989D02*
X172045590Y-82958989D01*
X172045590Y-79118989D02*
X172045590Y-79618989D01*
X165345590Y-79118989D02*
X172045590Y-79118989D01*
X165345590Y-79118989D02*
X163845590Y-78068989D01*
X164845590Y-83458989D02*
X172045590Y-83458989D01*
X164845590Y-83458989D02*
X163345590Y-82408989D01*
X159845590Y-82408989D02*
X163345590Y-82408989D01*
X159845590Y-81908989D02*
X159845590Y-82408989D01*
X159845590Y-78068989D02*
X163845590Y-78068989D01*
X159845590Y-78068989D02*
X159845590Y-78568989D01*
%TO.C,SW17*%
X172041790Y-139203608D02*
X172041790Y-138703608D01*
X172041790Y-134863608D02*
X172041790Y-135363608D01*
X165341790Y-134863608D02*
X172041790Y-134863608D01*
X165341790Y-134863608D02*
X163841790Y-133813608D01*
X164841790Y-139203608D02*
X172041790Y-139203608D01*
X164841790Y-139203608D02*
X163341790Y-138153608D01*
X159841790Y-138153608D02*
X163341790Y-138153608D01*
X159841790Y-137653608D02*
X159841790Y-138153608D01*
X159841790Y-133813608D02*
X163841790Y-133813608D01*
X159841790Y-133813608D02*
X159841790Y-134313608D01*
%TO.C,SW16*%
X153441790Y-139203608D02*
X153441790Y-138703608D01*
X153441790Y-134863608D02*
X153441790Y-135363608D01*
X146741790Y-134863608D02*
X153441790Y-134863608D01*
X146741790Y-134863608D02*
X145241790Y-133813608D01*
X146241790Y-139203608D02*
X153441790Y-139203608D01*
X146241790Y-139203608D02*
X144741790Y-138153608D01*
X141241790Y-138153608D02*
X144741790Y-138153608D01*
X141241790Y-137653608D02*
X141241790Y-138153608D01*
X141241790Y-133813608D02*
X145241790Y-133813608D01*
X141241790Y-133813608D02*
X141241790Y-134313608D01*
%TO.C,SW1*%
X159845590Y-59450789D02*
X159845590Y-59950789D01*
X159845590Y-59450789D02*
X163845590Y-59450789D01*
X159845590Y-63290789D02*
X159845590Y-63790789D01*
X159845590Y-63790789D02*
X163345590Y-63790789D01*
X164845590Y-64840789D02*
X163345590Y-63790789D01*
X164845590Y-64840789D02*
X172045590Y-64840789D01*
X165345590Y-60500789D02*
X163845590Y-59450789D01*
X165345590Y-60500789D02*
X172045590Y-60500789D01*
X172045590Y-60500789D02*
X172045590Y-61000789D01*
X172045590Y-64840789D02*
X172045590Y-64340789D01*
D11*
%TO.C,R12*%
X145658890Y-66756484D02*
X145658890Y-67265932D01*
X144613890Y-66756484D02*
X144613890Y-67265932D01*
%TO.C,D38*%
X136721390Y-94911208D02*
X136721390Y-92626208D01*
X136721390Y-92626208D02*
X135251390Y-92626208D01*
X135251390Y-92626208D02*
X135251390Y-94911208D01*
%TO.C,D34*%
X136821390Y-113298708D02*
X136821390Y-111013708D01*
X136821390Y-111013708D02*
X135351390Y-111013708D01*
X135351390Y-111013708D02*
X135351390Y-113298708D01*
%TO.C,R13*%
X134791114Y-81233708D02*
X134281666Y-81233708D01*
X134791114Y-80188708D02*
X134281666Y-80188708D01*
%TO.C,D39*%
X155471390Y-95098708D02*
X155471390Y-92813708D01*
X155471390Y-92813708D02*
X154001390Y-92813708D01*
X154001390Y-92813708D02*
X154001390Y-95098708D01*
%TO.C,D30*%
X192671390Y-95111208D02*
X192671390Y-92826208D01*
X192671390Y-92826208D02*
X191201390Y-92826208D01*
X191201390Y-92826208D02*
X191201390Y-95111208D01*
%TO.C,C8*%
X141902623Y-73521208D02*
X142195157Y-73521208D01*
X141902623Y-72501208D02*
X142195157Y-72501208D01*
%TO.C,J1*%
X152908390Y-52211208D02*
X152908390Y-50511208D01*
X143568390Y-52211208D02*
X143568390Y-50511208D01*
%TO.C,C9*%
X141952623Y-80221208D02*
X142245157Y-80221208D01*
X141952623Y-79201208D02*
X142245157Y-79201208D01*
%TO.C,R15*%
X147694166Y-73583708D02*
X148203614Y-73583708D01*
X147694166Y-72538708D02*
X148203614Y-72538708D01*
%TO.C,D35*%
X118221390Y-113298708D02*
X118221390Y-111013708D01*
X118221390Y-111013708D02*
X116751390Y-111013708D01*
X116751390Y-111013708D02*
X116751390Y-113298708D01*
%TO.C,D36*%
X155521390Y-113123708D02*
X155521390Y-110838708D01*
X155521390Y-110838708D02*
X154051390Y-110838708D01*
X154051390Y-110838708D02*
X154051390Y-113123708D01*
%TO.C,R10*%
X145658890Y-63703432D02*
X145658890Y-63193984D01*
X144613890Y-63703432D02*
X144613890Y-63193984D01*
%TO.C,C4*%
X151232657Y-57221208D02*
X150940123Y-57221208D01*
X151232657Y-56201208D02*
X150940123Y-56201208D01*
%TO.C,D23*%
X183124090Y-91003008D02*
X189024090Y-91003008D01*
X183124090Y-89928008D02*
X183124090Y-91003008D01*
X183124090Y-87103008D02*
X189024090Y-87103008D01*
D12*
%TO.C,Q1*%
X141854140Y-65272907D02*
X139898340Y-65272907D01*
X139898340Y-68549507D02*
X141854140Y-68549507D01*
D11*
%TO.C,U6*%
X136448890Y-65401208D02*
X136208890Y-65071208D01*
X136688890Y-65071208D01*
X136448890Y-65401208D01*
G36*
X136448890Y-65401208D02*
G01*
X136208890Y-65071208D01*
X136688890Y-65071208D01*
X136448890Y-65401208D01*
G37*
X135948890Y-68471208D02*
X135148890Y-68471208D01*
X135948890Y-65351208D02*
X135148890Y-65351208D01*
X134348890Y-68471208D02*
X135148890Y-68471208D01*
X134348890Y-65351208D02*
X135148890Y-65351208D01*
%TO.C,D37*%
X118271390Y-94611208D02*
X118271390Y-92326208D01*
X118271390Y-92326208D02*
X116801390Y-92326208D01*
X116801390Y-92326208D02*
X116801390Y-94611208D01*
%TO.C,R8*%
X141358890Y-59115932D02*
X141358890Y-58606484D01*
X140313890Y-59115932D02*
X140313890Y-58606484D01*
%TO.C,D31*%
X155421390Y-132448708D02*
X155421390Y-130163708D01*
X155421390Y-130163708D02*
X153951390Y-130163708D01*
X153951390Y-130163708D02*
X153951390Y-132448708D01*
%TO.C,D41*%
X189971390Y-76958708D02*
X189971390Y-74673708D01*
X188501390Y-76958708D02*
X189971390Y-76958708D01*
X188501390Y-74673708D02*
X188501390Y-76958708D01*
%TO.C,D16*%
X114576590Y-109608008D02*
X108676590Y-109608008D01*
X114576590Y-106783008D02*
X114576590Y-105708008D01*
X114576590Y-105708008D02*
X108676590Y-105708008D01*
%TO.C,D13*%
X170376590Y-109608008D02*
X164476590Y-109608008D01*
X170376590Y-106783008D02*
X170376590Y-105708008D01*
X170376590Y-105708008D02*
X164476590Y-105708008D01*
%TO.C,D28*%
X192671390Y-132261208D02*
X192671390Y-129976208D01*
X192671390Y-129976208D02*
X191201390Y-129976208D01*
X191201390Y-129976208D02*
X191201390Y-132261208D01*
%TO.C,R5*%
X150058890Y-59373950D02*
X150058890Y-59848466D01*
X149013890Y-59373950D02*
X149013890Y-59848466D01*
%TO.C,C6*%
X131946390Y-67057475D02*
X131946390Y-66764941D01*
X130926390Y-67057475D02*
X130926390Y-66764941D01*
%TO.C,D26*%
X174071390Y-113211208D02*
X174071390Y-110926208D01*
X174071390Y-110926208D02*
X172601390Y-110926208D01*
X172601390Y-110926208D02*
X172601390Y-113211208D01*
%TO.C,D40*%
X189771390Y-58146208D02*
X189771390Y-55861208D01*
X188301390Y-58146208D02*
X189771390Y-58146208D01*
X188301390Y-55861208D02*
X188301390Y-58146208D01*
%TO.C,D1*%
X157896390Y-74846208D02*
X157896390Y-73376208D01*
X157896390Y-73376208D02*
X155436390Y-73376208D01*
X155436390Y-74846208D02*
X157896390Y-74846208D01*
%TO.C,D21*%
X108676590Y-128208008D02*
X114576590Y-128208008D01*
X108676590Y-127133008D02*
X108676590Y-128208008D01*
X108676590Y-124308008D02*
X114576590Y-124308008D01*
%TO.C,D18*%
X164476590Y-128208008D02*
X170376590Y-128208008D01*
X164476590Y-127133008D02*
X164476590Y-128208008D01*
X164476590Y-124308008D02*
X170376590Y-124308008D01*
%TO.C,R14*%
X141844166Y-82333708D02*
X142353614Y-82333708D01*
X141844166Y-81288708D02*
X142353614Y-81288708D01*
%TO.C,D25*%
X174071390Y-95011208D02*
X174071390Y-92726208D01*
X174071390Y-92726208D02*
X172601390Y-92726208D01*
X172601390Y-92726208D02*
X172601390Y-95011208D01*
%TO.C,D22*%
X164524090Y-91003008D02*
X170424090Y-91003008D01*
X164524090Y-89928008D02*
X164524090Y-91003008D01*
X164524090Y-87103008D02*
X170424090Y-87103008D01*
%TO.C,D6*%
X174071390Y-57573708D02*
X174071390Y-55288708D01*
X174071390Y-55288708D02*
X172601390Y-55288708D01*
X172601390Y-55288708D02*
X172601390Y-57573708D01*
%TO.C,D14*%
X151776590Y-109608008D02*
X145876590Y-109608008D01*
X151776590Y-106783008D02*
X151776590Y-105708008D01*
X151776590Y-105708008D02*
X145876590Y-105708008D01*
%TO.C,D27*%
X174071390Y-132411208D02*
X174071390Y-130126208D01*
X174071390Y-130126208D02*
X172601390Y-130126208D01*
X172601390Y-130126208D02*
X172601390Y-132411208D01*
%TO.C,D2*%
X160136390Y-66726208D02*
X157676390Y-66726208D01*
X157676390Y-68196208D02*
X160136390Y-68196208D01*
X157676390Y-66726208D02*
X157676390Y-68196208D01*
%TO.C,D33*%
X118321390Y-132248708D02*
X118321390Y-129963708D01*
X118321390Y-129963708D02*
X116851390Y-129963708D01*
X116851390Y-129963708D02*
X116851390Y-132248708D01*
%TO.C,D12*%
X188976590Y-109608008D02*
X183076590Y-109608008D01*
X188976590Y-106783008D02*
X188976590Y-105708008D01*
X188976590Y-105708008D02*
X183076590Y-105708008D01*
%TO.C,D24*%
X164524090Y-53853008D02*
X170424090Y-53853008D01*
X164524090Y-52778008D02*
X164524090Y-53853008D01*
X164524090Y-49953008D02*
X170424090Y-49953008D01*
%TO.C,R16*%
X148203614Y-75383708D02*
X147694166Y-75383708D01*
X148203614Y-74338708D02*
X147694166Y-74338708D01*
D12*
%TO.C,L1*%
X120362590Y-81822308D02*
G75*
G02*
X120210190Y-81822308I-76200J0D01*
G01*
X120210190Y-81822308D02*
G75*
G02*
X120362590Y-81822308I76200J0D01*
G01*
X123512190Y-81136508D02*
X123512190Y-74684908D01*
X117060590Y-74684908D02*
X117060590Y-81136508D01*
D11*
%TO.C,D29*%
X192671390Y-113248708D02*
X192671390Y-110963708D01*
X192671390Y-110963708D02*
X191201390Y-110963708D01*
X191201390Y-110963708D02*
X191201390Y-113248708D01*
%TO.C,D9*%
X145876590Y-91008008D02*
X151776590Y-91008008D01*
X145876590Y-89933008D02*
X145876590Y-91008008D01*
X145876590Y-87108008D02*
X151776590Y-87108008D01*
%TO.C,R17*%
X142403614Y-71433708D02*
X141894166Y-71433708D01*
X142403614Y-70388708D02*
X141894166Y-70388708D01*
%TO.C,C10*%
X130046390Y-66764941D02*
X130046390Y-67057475D01*
X129026390Y-66764941D02*
X129026390Y-67057475D01*
%TO.C,R9*%
X159553614Y-66033708D02*
X159044166Y-66033708D01*
X159553614Y-64988708D02*
X159044166Y-64988708D01*
%TO.C,C5*%
X145290123Y-57171208D02*
X145582657Y-57171208D01*
X145290123Y-56151208D02*
X145582657Y-56151208D01*
%TO.C,D32*%
X136821390Y-132211208D02*
X136821390Y-129926208D01*
X136821390Y-129926208D02*
X135351390Y-129926208D01*
X135351390Y-129926208D02*
X135351390Y-132211208D01*
D13*
%TO.C,U7*%
G36*
X137911140Y-76401228D02*
G01*
X137657140Y-76401228D01*
X137657140Y-76020228D01*
X137911140Y-76020228D01*
X137911140Y-76401228D01*
G37*
D12*
X136196640Y-73688508D02*
X132843840Y-73688508D01*
X132843840Y-78082708D02*
X136196640Y-78082708D01*
D11*
%TO.C,D17*%
X183076590Y-128208008D02*
X188976590Y-128208008D01*
X183076590Y-127133008D02*
X183076590Y-128208008D01*
X183076590Y-124308008D02*
X188976590Y-124308008D01*
%TO.C,D10*%
X127276590Y-91008008D02*
X133176590Y-91008008D01*
X127276590Y-89933008D02*
X127276590Y-91008008D01*
X127276590Y-87108008D02*
X133176590Y-87108008D01*
%TO.C,D8*%
X174071390Y-76311208D02*
X174071390Y-74026208D01*
X174071390Y-74026208D02*
X172601390Y-74026208D01*
X172601390Y-74026208D02*
X172601390Y-76311208D01*
D12*
%TO.C,U3*%
X154157290Y-62794208D02*
X149915490Y-62794208D01*
X149915490Y-68128208D02*
X154157290Y-68128208D01*
D11*
%TO.C,C7*%
X142245157Y-77171208D02*
X141952623Y-77171208D01*
X142245157Y-76151208D02*
X141952623Y-76151208D01*
%TO.C,J5*%
X110546390Y-82021208D02*
X110546390Y-70301208D01*
X110546390Y-70301208D02*
X106736390Y-70301208D01*
X109126390Y-82021208D02*
X110546390Y-82021208D01*
X109126390Y-77521208D02*
X109126390Y-82021208D01*
X108236390Y-76411208D02*
X108236390Y-70911208D01*
X108236390Y-70911208D02*
X107736390Y-70911208D01*
X107736390Y-76411208D02*
X108236390Y-76411208D01*
X107736390Y-70911208D02*
X107736390Y-76411208D01*
X106736390Y-77521208D02*
X109126390Y-77521208D01*
X106736390Y-77521208D02*
X104346390Y-77521208D01*
X105786390Y-81711208D02*
X105186390Y-81711208D01*
X105736390Y-76411208D02*
X105736390Y-70911208D01*
X105736390Y-70911208D02*
X105236390Y-70911208D01*
X105486390Y-81111208D02*
X105786390Y-81711208D01*
X105236390Y-76411208D02*
X105736390Y-76411208D01*
X105236390Y-70911208D02*
X105236390Y-76411208D01*
X105186390Y-81711208D02*
X105486390Y-81111208D01*
X104346390Y-82021208D02*
X102926390Y-82021208D01*
X104346390Y-77521208D02*
X104346390Y-82021208D01*
X102926390Y-82021208D02*
X102926390Y-70301208D01*
X102926390Y-70301208D02*
X106736390Y-70301208D01*
%TO.C,D15*%
X133176590Y-109608008D02*
X127276590Y-109608008D01*
X133176590Y-106783008D02*
X133176590Y-105708008D01*
X133176590Y-105708008D02*
X127276590Y-105708008D01*
%TO.C,D11*%
X108676590Y-91008008D02*
X114576590Y-91008008D01*
X108676590Y-89933008D02*
X108676590Y-91008008D01*
X108676590Y-87108008D02*
X114576590Y-87108008D01*
%TO.C,D20*%
X127276590Y-128208008D02*
X133176590Y-128208008D01*
X127276590Y-127133008D02*
X127276590Y-128208008D01*
X127276590Y-124308008D02*
X133176590Y-124308008D01*
%TO.C,R4*%
X148158890Y-59423950D02*
X148158890Y-59898466D01*
X147113890Y-59423950D02*
X147113890Y-59898466D01*
%TO.C,D7*%
X164524090Y-72403008D02*
X170424090Y-72403008D01*
X164524090Y-71328008D02*
X164524090Y-72403008D01*
X164524090Y-68503008D02*
X170424090Y-68503008D01*
%TO.C,R11*%
X142316114Y-75383708D02*
X141806666Y-75383708D01*
X142316114Y-74338708D02*
X141806666Y-74338708D01*
%TO.C,D19*%
X145876590Y-128208008D02*
X151776590Y-128208008D01*
X145876590Y-127133008D02*
X145876590Y-128208008D01*
X145876590Y-124308008D02*
X151776590Y-124308008D01*
D10*
%TO.C,SW8*%
X190641790Y-102003608D02*
X190641790Y-101503608D01*
X190641790Y-97663608D02*
X190641790Y-98163608D01*
X183941790Y-97663608D02*
X190641790Y-97663608D01*
X183941790Y-97663608D02*
X182441790Y-96613608D01*
X183441790Y-102003608D02*
X190641790Y-102003608D01*
X183441790Y-102003608D02*
X181941790Y-100953608D01*
X178441790Y-100953608D02*
X181941790Y-100953608D01*
X178441790Y-100453608D02*
X178441790Y-100953608D01*
X178441790Y-96613608D02*
X182441790Y-96613608D01*
X178441790Y-96613608D02*
X178441790Y-97113608D01*
%TD*%
M02*
