0
SECTION
2
HEADER
9
$INSUNITS
70
4
9
$ACADVER
1
AC1014
9
$HANDSEED
5
FFFF
0
ENDSEC
0
SECTION
2
TABLES
0
TABLE
2
VPORT
5
8
100
AcDbSymbolTable
0
ENDTAB
0
TABLE
2
LTYPE
5
5
100
AcDbSymbolTable
0
LTYPE
5
14
100
AcDbSymbolTableRecord
100
AcDbLinetypeTableRecord
2
BYBLOCK
70
0
0
LTYPE
5
15
100
AcDbSymbolTableRecord
100
AcDbLinetypeTableRecord
2
BYLAYER
70
0
0
LTYPE
5
16
100
AcDbSymbolTableRecord
100
AcDbLinetypeTableRecord
2
DASHED
70
0
3
Dashed __ __ __ __ __ __ __ __ __ __ __ __ __ _
72
65
73
2
40
0.75
49
0.5
74
0
49
-0.25
74
0
0
ENDTAB
0
TABLE
2
LAYER
5
2
100
AcDbSymbolTable
70
3
0
LAYER
5
50
100
AcDbSymbolTableRecord
100
AcDbLayerTableRecord
2
1
70
0
62
7
6
DASHED
0
LAYER
5
51
100
AcDbSymbolTableRecord
100
AcDbLayerTableRecord
2
0
70
0
62
7
6
CONTINUOUS
0
ENDTAB
0
TABLE
2
STYLE
5
3
100
AcDbSymbolTable
70
1
0
STYLE
5
11
100
AcDbSymbolTableRecord
100
AcDbTextStyleTableRecord
2
STANDARD
70
0
0
ENDTAB
0
TABLE
2
VIEW
5
6
100
AcDbSymbolTable
70
0
0
ENDTAB
0
TABLE
2
UCS
5
7
100
AcDbSymbolTable
70
0
0
ENDTAB
0
TABLE
2
APPID
5
9
100
AcDbSymbolTable
70
2
0
APPID
5
12
100
AcDbSymbolTableRecord
100
AcDbRegAppTableRecord
2
ACAD
70
0
0
ENDTAB
0
TABLE
2
DIMSTYLE
5
A
100
AcDbSymbolTable
70
1
0
ENDTAB
0
TABLE
2
BLOCK_RECORD
5
1
100
AcDbSymbolTable
70
1
0
BLOCK_RECORD
5
1F
100
AcDbSymbolTableRecord
100
AcDbBlockTableRecord
2
*MODEL_SPACE
0
BLOCK_RECORD
5
1B
100
AcDbSymbolTableRecord
100
AcDbBlockTableRecord
2
*PAPER_SPACE
0
ENDTAB
0
ENDSEC
0
SECTION
2
BLOCKS
0
BLOCK
5
20
100
AcDbEntity
100
AcDbBlockBegin
2
*MODEL_SPACE
0
ENDBLK
5
21
100
AcDbEntity
100
AcDbBlockEnd
0
BLOCK
5
1C
100
AcDbEntity
100
AcDbBlockBegin
2
*PAPER_SPACE
0
ENDBLK
5
1D
100
AcDbEntity
100
AcDbBlockEnd
0
ENDSEC
0
SECTION
2
ENTITIES
0
POINT
5
100
100
AcDbEntity
8
0
100
AcDbPoint
10
116.99999903030304
20
-47
30
0
0
POINT
5
101
100
AcDbEntity
8
0
100
AcDbPoint
10
164.99999903030306
20
-47
30
0
0
POINT
5
102
100
AcDbEntity
8
0
100
AcDbPoint
10
116.99999903030304
20
-143
30
0
0
POINT
5
103
100
AcDbEntity
8
0
100
AcDbPoint
10
116.99999903030302
20
-95.000564054955078
30
0
0
LINE
5
104
100
AcDbEntity
8
0
100
AcDbLine
10
128.5
20
-47
30
0
11
153.5
21
-47
31
0
0
LWPOLYLINE
5
105
100
AcDbEntity
8
0
100
AcDbPolyline
90
26
70
1
43
0.0
10
150.49999700000001
20
-146
10
131.500001
20
-145.9999999999998
42
-0.41421352859471089
10
129.99999999999025
20
-144.5
42
0.41421305718978096
10
128.49999800000001
20
-142.99999999999804
10
120.99999903030373
20
-142.99999999999932
42
-0.41421356237314705
10
116.99999903030304
20
-138.99999999999932
10
116.99999903030304
20
-109.69674403672302
42
0.26796140985436084
10
115.49988056710748
20
-107.09859943421327
42
-0.2679645906988572
10
113.99976210412355
20
-104.5004192187286
10
113.99999720107296
20
-84.696096517935075
42
-0.26794610594965829
10
115.49999811557552
20
-82.098055391435807
42
0.2679492867696161
10
116.99999903030303
20
-79.499978651980769
10
116.99999903030303
20
-51.000000000000028
42
-0.41421356237309698
10
120.99999903030303
20
-47
10
160.99999918818966
20
-47.000000000000043
42
-0.41421355081211958
10
164.99999918818961
20
-50.999999842113446
10
165.0000003131305
20
-79.499979136829722
42
0.26794928676124641
10
166.50000117528072
20
-82.098055906557747
42
-0.26794610595326873
10
168.00000203731497
20
-84.696097063390454
10
168.00023673425096
20
-104.50041976418876
42
-0.26796459069886852
10
166.50011821877871
20
-107.09859994936765
42
0.26796140985433947
10
164.99999970309608
20
-109.6967445215722
10
164.99999911111118
20
-139.00000008077572
42
-0.41421355645842572
10
160.99999911107886
20
-142.99999999996768
10
153.500001
20
-142.99999999990706
42
0.41421352861423882
10
152.00000000000185
20
-144.5
42
-0.41421391911693245
0
LWPOLYLINE
5
106
100
AcDbEntity
8
0
100
AcDbPolyline
90
4
70
1
43
0.0
10
124.50000092931984
20
-77.999999999998025
10
133.50000092931984
20
-77.999999999998025
10
133.50000092931984
20
-137.99999999999801
10
124.50000092931984
20
-137.99999999999801
0
LWPOLYLINE
5
107
100
AcDbEntity
8
0
100
AcDbPolyline
90
4
70
1
43
0.0
10
135.25000092999994
20
-65.39999988383839
10
135.25000092965291
20
-51.999999870683851
10
122.75000092898652
20
-51.999999618795144
10
122.75000092863951
20
-65.399999631313165
0
LINE
5
108
100
AcDbEntity
8
0
100
AcDbLine
10
140.99999910924635
20
-47
30
0
11
140.999999
21
-145.99999999999648
31
0
0
LINE
5
109
100
AcDbEntity
8
0
100
AcDbLine
10
141.00000210106373
20
-70.000001043081284
30
0
11
116.99999903030304
21
-70.000001043081255
31
0
0
LINE
5
110
100
AcDbEntity
8
0
100
AcDbLine
10
129.00000056568337
20
-70.000001043081269
30
0
11
129.00000065861269
21
-65.399999757575785
31
0
0
LINE
5
111
100
AcDbEntity
8
0
100
AcDbLine
10
129.00000092931973
20
-51.999999744739512
30
0
11
129.00000092931973
21
-65.399999757575785
31
0
0
LINE
5
112
100
AcDbEntity
8
0
100
AcDbLine
10
129.00000092931981
20
-77.999999999998025
30
0
11
129.00000092931981
21
-137.99999999999801
31
0
0
LWPOLYLINE
5
113
100
AcDbEntity
8
0
100
AcDbPolyline
90
4
70
1
43
0.0
10
146.74999727780479
20
-51.999999883374088
10
159.24999727847117
20
-51.999999659072827
10
159.24999724924442
20
-65.399999671590848
10
146.74999724788398
20
-65.399999896528612
0
LWPOLYLINE
5
114
100
AcDbEntity
8
0
100
AcDbPolyline
90
4
70
1
43
0.0
10
148.49999708833616
20
-138.0000000165505
10
157.49999708833616
20
-138.00000003641347
10
157.49999722075594
20
-78.000000036413468
10
148.49999722075594
20
-78.000000016550501
0
ENDSEC
0
SECTION
2
OBJECTS
0
DICTIONARY
5
C
100
AcDbDictionary
3
ACAD_GROUP
350
D
3
ACAD_MLINESTYLE
350
17
0
DICTIONARY
5
D
100
AcDbDictionary
0
DICTIONARY
5
1A
330
C
100
AcDbDictionary
0
DICTIONARY
5
17
100
AcDbDictionary
0
ENDSEC
0
EOF
