0
SECTION
2
HEADER
9
$INSUNITS
70
4
9
$ACADVER
1
AC1014
9
$HANDSEED
5
FFFF
0
ENDSEC
0
SECTION
2
TABLES
0
TABLE
2
VPORT
5
8
100
AcDbSymbolTable
0
ENDTAB
0
TABLE
2
LTYPE
5
5
100
AcDbSymbolTable
0
LTYPE
5
14
100
AcDbSymbolTableRecord
100
AcDbLinetypeTableRecord
2
BYBLOCK
70
0
0
LTYPE
5
15
100
AcDbSymbolTableRecord
100
AcDbLinetypeTableRecord
2
BYLAYER
70
0
0
LTYPE
5
16
100
AcDbSymbolTableRecord
100
AcDbLinetypeTableRecord
2
DASHED
70
0
3
Dashed __ __ __ __ __ __ __ __ __ __ __ __ __ _
72
65
73
2
40
0.75
49
0.5
74
0
49
-0.25
74
0
0
ENDTAB
0
TABLE
2
LAYER
5
2
100
AcDbSymbolTable
70
3
0
LAYER
5
50
100
AcDbSymbolTableRecord
100
AcDbLayerTableRecord
2
1
70
0
62
7
6
DASHED
0
LAYER
5
51
100
AcDbSymbolTableRecord
100
AcDbLayerTableRecord
2
0
70
0
62
7
6
CONTINUOUS
0
ENDTAB
0
TABLE
2
STYLE
5
3
100
AcDbSymbolTable
70
1
0
STYLE
5
11
100
AcDbSymbolTableRecord
100
AcDbTextStyleTableRecord
2
STANDARD
70
0
0
ENDTAB
0
TABLE
2
VIEW
5
6
100
AcDbSymbolTable
70
0
0
ENDTAB
0
TABLE
2
UCS
5
7
100
AcDbSymbolTable
70
0
0
ENDTAB
0
TABLE
2
APPID
5
9
100
AcDbSymbolTable
70
2
0
APPID
5
12
100
AcDbSymbolTableRecord
100
AcDbRegAppTableRecord
2
ACAD
70
0
0
ENDTAB
0
TABLE
2
DIMSTYLE
5
A
100
AcDbSymbolTable
70
1
0
ENDTAB
0
TABLE
2
BLOCK_RECORD
5
1
100
AcDbSymbolTable
70
1
0
BLOCK_RECORD
5
1F
100
AcDbSymbolTableRecord
100
AcDbBlockTableRecord
2
*MODEL_SPACE
0
BLOCK_RECORD
5
1B
100
AcDbSymbolTableRecord
100
AcDbBlockTableRecord
2
*PAPER_SPACE
0
ENDTAB
0
ENDSEC
0
SECTION
2
BLOCKS
0
BLOCK
5
20
100
AcDbEntity
100
AcDbBlockBegin
2
*MODEL_SPACE
0
ENDBLK
5
21
100
AcDbEntity
100
AcDbBlockEnd
0
BLOCK
5
1C
100
AcDbEntity
100
AcDbBlockBegin
2
*PAPER_SPACE
0
ENDBLK
5
1D
100
AcDbEntity
100
AcDbBlockEnd
0
ENDSEC
0
SECTION
2
ENTITIES
0
LWPOLYLINE
5
100
100
AcDbEntity
8
0
100
AcDbPolyline
90
28
70
1
43
0.0
10
153.5
20
-47
10
185.00000000000003
20
-46.99999999999978
42
-0.41421342677672968
10
189.00000000000003
20
-50.999999000000003
10
188.99999999999301
20
-82.500000999999997
42
0.41421380473853348
10
190.5
20
-83.999999999991687
42
-0.41421305718979834
10
192.00000000000003
20
-85.500001999999995
10
191.9999999999053
20
-104.49999699999999
42
-0.41421391911694627
10
190.5
20
-105.99999999990713
42
0.41421352861423538
10
188.99999999999707
20
-107.50000100000001
10
189.00000000009001
20
-139
42
-0.41421349999344076
10
185
20
-143
10
153.500001
20
-142.99999999990706
42
0.41421352861423882
10
152.00000000000185
20
-144.5
42
-0.41421391911693245
10
150.49999700000001
20
-146
10
131.500001
20
-145.9999999999998
42
-0.41421352859471089
10
129.99999999999025
20
-144.5
42
0.41421305718978096
10
128.49999800000001
20
-142.99999999999804
10
96.999999000000017
20
-142.99999999991098
42
-0.41421335354679034
10
93
20
-139.000001
10
92.999999999999972
20
-107.50000200000001
42
0.41421305719134177
10
91.5
20
-105.9999999999866
42
-0.41421380473521408
10
90
20
-104.500001
10
89.999999999997854
20
-85.500000999999997
42
-0.41421352859606708
10
91.5
20
-83.999999999994913
42
0.41421391911830946
10
93.000000000000057
20
-82.499997000000008
10
92.999999999999986
20
-51.000000000000007
42
-0.41421350000002755
10
97.000000000000014
20
-47
10
128.5
20
-47
0
LWPOLYLINE
5
101
100
AcDbEntity
8
0
100
AcDbPolyline
90
4
70
1
43
0.0
10
107.00000000000001
20
-137.9999999999263
10
98
20
-137.9999999999263
10
98
20
-77.999999999926303
10
107.00000000000001
20
-77.999999999926303
0
LWPOLYLINE
5
102
100
AcDbEntity
8
0
100
AcDbPolyline
90
4
70
1
43
0.0
10
126.25000000000001
20
-137.9999999999263
10
117.25000000000001
20
-137.9999999999263
10
117.25000000000001
20
-77.999999999926303
10
126.25000000000001
20
-77.999999999926303
0
LWPOLYLINE
5
103
100
AcDbEntity
8
0
100
AcDbPolyline
90
4
70
1
43
0.0
10
145.5
20
-137.9999999999263
10
136.50000000000003
20
-137.9999999999263
10
136.50000000000003
20
-77.999999999926303
10
145.5
20
-77.999999999926303
0
LWPOLYLINE
5
104
100
AcDbEntity
8
0
100
AcDbPolyline
90
4
70
1
43
0.0
10
164.75
20
-137.9999999999263
10
155.75
20
-137.9999999999263
10
155.75
20
-77.999999999926303
10
164.75
20
-77.999999999926303
0
LWPOLYLINE
5
105
100
AcDbEntity
8
0
100
AcDbPolyline
90
4
70
1
43
0.0
10
184.00000000000003
20
-137.9999999999263
10
175
20
-137.9999999999263
10
175
20
-77.999999999926303
10
184.00000000000003
20
-77.999999999926303
0
LWPOLYLINE
5
106
100
AcDbEntity
8
0
100
AcDbPolyline
90
4
70
1
43
0.0
10
158.75
20
-81.999999999926303
10
158.75
20
-133.9999999999263
10
161.75
20
-133.9999999999263
10
161.75
20
-81.999999999926303
0
LWPOLYLINE
5
107
100
AcDbEntity
8
0
100
AcDbPolyline
90
4
70
1
43
0.0
10
181
20
-133.9999999999263
10
181
20
-81.999999999926303
10
178
20
-81.999999999926303
10
178
20
-133.9999999999263
0
LWPOLYLINE
5
108
100
AcDbEntity
8
0
100
AcDbPolyline
90
4
70
1
43
0.0
10
139.5
20
-81.999999999926303
10
139.5
20
-133.9999999999263
10
142.5
20
-133.9999999999263
10
142.5
20
-81.999999999926303
0
LWPOLYLINE
5
109
100
AcDbEntity
8
0
100
AcDbPolyline
90
4
70
1
43
0.0
10
120.25
20
-81.999999999926303
10
120.25
20
-133.9999999999263
10
123.25000000000001
20
-133.9999999999263
10
123.25000000000001
20
-81.999999999926303
0
LWPOLYLINE
5
110
100
AcDbEntity
8
0
100
AcDbPolyline
90
4
70
1
43
0.0
10
101
20
-81.999999999926303
10
101
20
-133.9999999999263
10
104
20
-133.9999999999263
10
104
20
-81.999999999926303
0
LWPOLYLINE
5
111
100
AcDbEntity
8
0
100
AcDbPolyline
90
4
70
1
43
0.0
10
98
20
-52
10
110.5
20
-52
10
110.5
20
-65.400000000000006
10
98
20
-65.400000000000006
0
LWPOLYLINE
5
112
100
AcDbEntity
8
0
100
AcDbPolyline
90
4
70
1
43
0.0
10
135.00000000000003
20
-65.400000000000006
10
122.50000000000001
20
-65.400000000000006
10
122.50000000000001
20
-52
10
135.00000000000003
20
-52
0
LWPOLYLINE
5
113
100
AcDbEntity
8
0
100
AcDbPolyline
90
4
70
1
43
0.0
10
159.5
20
-65.400000000000006
10
147
20
-65.400000000000006
10
147
20
-52
10
159.5
20
-52
0
LWPOLYLINE
5
114
100
AcDbEntity
8
0
100
AcDbPolyline
90
4
70
1
43
0.0
10
184
20
-65.400000000000006
10
171.5
20
-65.400000000000006
10
171.5
20
-52
10
184
20
-52
0
ENDSEC
0
SECTION
2
OBJECTS
0
DICTIONARY
5
C
100
AcDbDictionary
3
ACAD_GROUP
350
D
3
ACAD_MLINESTYLE
350
17
0
DICTIONARY
5
D
100
AcDbDictionary
0
DICTIONARY
5
1A
330
C
100
AcDbDictionary
0
DICTIONARY
5
17
100
AcDbDictionary
0
ENDSEC
0
EOF
