%TF.GenerationSoftware,KiCad,Pcbnew,8.0.6*%
%TF.CreationDate,2025-02-02T15:37:03-07:00*%
%TF.ProjectId,Modular MacroPad,4d6f6475-6c61-4722-904d-6163726f5061,rev?*%
%TF.SameCoordinates,Original*%
%TF.FileFunction,Copper,L4,Bot*%
%TF.FilePolarity,Positive*%
%FSLAX46Y46*%
G04 Gerber Fmt 4.6, Leading zero omitted, Abs format (unit mm)*
G04 Created by KiCad (PCBNEW 8.0.6) date 2025-02-02 15:37:03*
%MOMM*%
%LPD*%
G01*
G04 APERTURE LIST*
G04 Aperture macros list*
%AMRoundRect*
0 Rectangle with rounded corners*
0 $1 Rounding radius*
0 $2 $3 $4 $5 $6 $7 $8 $9 X,Y pos of 4 corners*
0 Add a 4 corners polygon primitive as box body*
4,1,4,$2,$3,$4,$5,$6,$7,$8,$9,$2,$3,0*
0 Add four circle primitives for the rounded corners*
1,1,$1+$1,$2,$3*
1,1,$1+$1,$4,$5*
1,1,$1+$1,$6,$7*
1,1,$1+$1,$8,$9*
0 Add four rect primitives between the rounded corners*
20,1,$1+$1,$2,$3,$4,$5,0*
20,1,$1+$1,$4,$5,$6,$7,0*
20,1,$1+$1,$6,$7,$8,$9,0*
20,1,$1+$1,$8,$9,$2,$3,0*%
G04 Aperture macros list end*
%TA.AperFunction,ComponentPad*%
%ADD10C,1.800000*%
%TD*%
%TA.AperFunction,SMDPad,CuDef*%
%ADD11R,2.550000X2.550000*%
%TD*%
%TA.AperFunction,ComponentPad*%
%ADD12C,1.550000*%
%TD*%
%TA.AperFunction,ComponentPad*%
%ADD13R,1.550000X1.550000*%
%TD*%
%TA.AperFunction,ComponentPad*%
%ADD14RoundRect,1.200000X-1.300000X0.000010X-1.300000X-0.000010X1.300000X-0.000010X1.300000X0.000010X0*%
%TD*%
%TA.AperFunction,SMDPad,CuDef*%
%ADD15RoundRect,0.237500X0.237500X-0.250000X0.237500X0.250000X-0.237500X0.250000X-0.237500X-0.250000X0*%
%TD*%
%TA.AperFunction,SMDPad,CuDef*%
%ADD16RoundRect,0.218750X-0.256250X0.218750X-0.256250X-0.218750X0.256250X-0.218750X0.256250X0.218750X0*%
%TD*%
%TA.AperFunction,SMDPad,CuDef*%
%ADD17RoundRect,0.237500X-0.250000X-0.237500X0.250000X-0.237500X0.250000X0.237500X-0.250000X0.237500X0*%
%TD*%
%TA.AperFunction,SMDPad,CuDef*%
%ADD18RoundRect,0.237500X0.300000X0.237500X-0.300000X0.237500X-0.300000X-0.237500X0.300000X-0.237500X0*%
%TD*%
%TA.AperFunction,ComponentPad*%
%ADD19O,1.000000X2.100000*%
%TD*%
%TA.AperFunction,ComponentPad*%
%ADD20O,1.000000X1.800000*%
%TD*%
%TA.AperFunction,SMDPad,CuDef*%
%ADD21RoundRect,0.150000X-0.150000X-0.227500X0.150000X-0.227500X0.150000X0.227500X-0.150000X0.227500X0*%
%TD*%
%TA.AperFunction,SMDPad,CuDef*%
%ADD22RoundRect,0.075000X-0.075000X-0.500000X0.075000X-0.500000X0.075000X0.500000X-0.075000X0.500000X0*%
%TD*%
%TA.AperFunction,SMDPad,CuDef*%
%ADD23RoundRect,0.237500X0.250000X0.237500X-0.250000X0.237500X-0.250000X-0.237500X0.250000X-0.237500X0*%
%TD*%
%TA.AperFunction,SMDPad,CuDef*%
%ADD24RoundRect,0.237500X-0.237500X0.250000X-0.237500X-0.250000X0.237500X-0.250000X0.237500X0.250000X0*%
%TD*%
%TA.AperFunction,SMDPad,CuDef*%
%ADD25RoundRect,0.237500X-0.300000X-0.237500X0.300000X-0.237500X0.300000X0.237500X-0.300000X0.237500X0*%
%TD*%
%TA.AperFunction,SMDPad,CuDef*%
%ADD26R,1.600000X0.850000*%
%TD*%
%TA.AperFunction,SMDPad,CuDef*%
%ADD27R,0.977900X0.558800*%
%TD*%
%TA.AperFunction,SMDPad,CuDef*%
%ADD28RoundRect,0.150000X0.512500X0.150000X-0.512500X0.150000X-0.512500X-0.150000X0.512500X-0.150000X0*%
%TD*%
%TA.AperFunction,SMDPad,CuDef*%
%ADD29RoundRect,0.218750X0.256250X-0.218750X0.256250X0.218750X-0.256250X0.218750X-0.256250X-0.218750X0*%
%TD*%
%TA.AperFunction,SMDPad,CuDef*%
%ADD30RoundRect,0.200000X0.275000X-0.200000X0.275000X0.200000X-0.275000X0.200000X-0.275000X-0.200000X0*%
%TD*%
%TA.AperFunction,SMDPad,CuDef*%
%ADD31RoundRect,0.237500X-0.237500X0.300000X-0.237500X-0.300000X0.237500X-0.300000X0.237500X0.300000X0*%
%TD*%
%TA.AperFunction,SMDPad,CuDef*%
%ADD32RoundRect,0.237500X0.287500X0.237500X-0.287500X0.237500X-0.287500X-0.237500X0.287500X-0.237500X0*%
%TD*%
%TA.AperFunction,SMDPad,CuDef*%
%ADD33RoundRect,0.237500X-0.287500X-0.237500X0.287500X-0.237500X0.287500X0.237500X-0.287500X0.237500X0*%
%TD*%
%TA.AperFunction,SMDPad,CuDef*%
%ADD34R,5.689600X1.600200*%
%TD*%
%TA.AperFunction,SMDPad,CuDef*%
%ADD35RoundRect,0.237500X0.237500X-0.300000X0.237500X0.300000X-0.237500X0.300000X-0.237500X-0.300000X0*%
%TD*%
%TA.AperFunction,SMDPad,CuDef*%
%ADD36R,1.752600X2.946400*%
%TD*%
%TA.AperFunction,SMDPad,CuDef*%
%ADD37R,1.333500X0.431800*%
%TD*%
%TA.AperFunction,SMDPad,CuDef*%
%ADD38R,2.514600X3.403600*%
%TD*%
%TA.AperFunction,SMDPad,CuDef*%
%ADD39R,1.460500X0.558800*%
%TD*%
%TA.AperFunction,ComponentPad*%
%ADD40O,1.700000X2.000000*%
%TD*%
%TA.AperFunction,ComponentPad*%
%ADD41RoundRect,0.250000X-0.600000X-0.750000X0.600000X-0.750000X0.600000X0.750000X-0.600000X0.750000X0*%
%TD*%
%TA.AperFunction,ViaPad*%
%ADD42C,0.700000*%
%TD*%
%TA.AperFunction,ViaPad*%
%ADD43C,0.650000*%
%TD*%
%TA.AperFunction,Conductor*%
%ADD44C,0.300000*%
%TD*%
%TA.AperFunction,Conductor*%
%ADD45C,0.200000*%
%TD*%
%TA.AperFunction,Conductor*%
%ADD46C,0.500000*%
%TD*%
G04 APERTURE END LIST*
D10*
%TO.P,J4,5,Pin_5*%
%TO.N,unconnected-(J4-Pin_5-Pad5)*%
X153311608Y-142096589D03*
%TO.P,J4,4,Pin_4*%
%TO.N,unconnected-(J4-Pin_4-Pad4)*%
X150771608Y-142096589D03*
%TO.P,J4,3,Pin_3*%
%TO.N,unconnected-(J4-Pin_3-Pad3)*%
X148231608Y-142096589D03*
%TO.P,J4,2,Pin_2*%
%TO.N,unconnected-(J4-Pin_2-Pad2)*%
X145691608Y-142096589D03*
%TO.P,J4,1,Pin_1*%
%TO.N,unconnected-(J4-Pin_1-Pad1)*%
X143151608Y-142096589D03*
%TD*%
%TO.P,J3,1,Pin_1*%
%TO.N,unconnected-(J3-Pin_1-Pad1)*%
X100225608Y-89010589D03*
%TO.P,J3,2,Pin_2*%
%TO.N,unconnected-(J3-Pin_2-Pad2)*%
X100225608Y-91550589D03*
%TO.P,J3,3,Pin_3*%
%TO.N,unconnected-(J3-Pin_3-Pad3)*%
X100225608Y-94090589D03*
%TO.P,J3,4,Pin_4*%
%TO.N,unconnected-(J3-Pin_4-Pad4)*%
X100225608Y-96630589D03*
%TO.P,J3,5,Pin_5*%
%TO.N,unconnected-(J3-Pin_5-Pad5)*%
X100225608Y-99170589D03*
%TD*%
%TO.P,J2,5,Pin_5*%
%TO.N,unconnected-(J2-Pin_5-Pad5)*%
X196237608Y-99170589D03*
%TO.P,J2,4,Pin_4*%
%TO.N,unconnected-(J2-Pin_4-Pad4)*%
X196237608Y-96630589D03*
%TO.P,J2,3,Pin_3*%
%TO.N,unconnected-(J2-Pin_3-Pad3)*%
X196237608Y-94090589D03*
%TO.P,J2,2,Pin_2*%
%TO.N,unconnected-(J2-Pin_2-Pad2)*%
X196237608Y-91550589D03*
%TO.P,J2,1,Pin_1*%
%TO.N,unconnected-(J2-Pin_1-Pad1)*%
X196237608Y-89010589D03*
%TD*%
D11*
%TO.P,SW6,2,2*%
%TO.N,Net-(D39-A)*%
X154716790Y-99833608D03*
%TO.P,SW6,1,1*%
%TO.N,Col2*%
X139966790Y-98783608D03*
%TD*%
%TO.P,SW13,2,2*%
%TO.N,Net-(D29-A)*%
X191916790Y-118433608D03*
%TO.P,SW13,1,1*%
%TO.N,Col4*%
X177166790Y-117383608D03*
%TD*%
%TO.P,SW12,2,2*%
%TO.N,Net-(D26-A)*%
X173316790Y-118433608D03*
%TO.P,SW12,1,1*%
%TO.N,Col3*%
X158566790Y-117383608D03*
%TD*%
%TO.P,SW9,2,2*%
%TO.N,Net-(D35-A)*%
X117516790Y-118433608D03*
%TO.P,SW9,1,1*%
%TO.N,Col0*%
X102766790Y-117383608D03*
%TD*%
%TO.P,SW5,2,2*%
%TO.N,Net-(D38-A)*%
X136116790Y-99833608D03*
%TO.P,SW5,1,1*%
%TO.N,Col1*%
X121366790Y-98783608D03*
%TD*%
%TO.P,SW11,2,2*%
%TO.N,Net-(D36-A)*%
X154716790Y-118433608D03*
%TO.P,SW11,1,1*%
%TO.N,Col2*%
X139966790Y-117383608D03*
%TD*%
%TO.P,SW10,2,2*%
%TO.N,Net-(D34-A)*%
X136116790Y-118433608D03*
%TO.P,SW10,1,1*%
%TO.N,Col1*%
X121366790Y-117383608D03*
%TD*%
D12*
%TO.P,SW20,S2,S2*%
%TO.N,Col4*%
X192486390Y-78061208D03*
%TO.P,SW20,S1,S1*%
%TO.N,Net-(D41-A)*%
X192486390Y-73061208D03*
%TO.P,SW20,C,C*%
%TO.N,GND*%
X177986390Y-75561208D03*
%TO.P,SW20,B,B*%
%TO.N,Rotary2B*%
X177986390Y-78061208D03*
D13*
%TO.P,SW20,A,A*%
%TO.N,Rotary2A*%
X177986390Y-73061208D03*
D14*
%TO.P,SW20,4*%
%TO.N,N/C*%
X185486390Y-81261208D03*
%TO.P,SW20,3*%
X185486390Y-69861208D03*
%TD*%
D11*
%TO.P,SW14,2,2*%
%TO.N,Net-(D33-A)*%
X117516790Y-137033608D03*
%TO.P,SW14,1,1*%
%TO.N,Col0*%
X102766790Y-135983608D03*
%TD*%
D12*
%TO.P,SW21,S2,S2*%
%TO.N,Col4*%
X192236390Y-59311208D03*
%TO.P,SW21,S1,S1*%
%TO.N,Net-(D40-A)*%
X192236390Y-54311208D03*
%TO.P,SW21,C,C*%
%TO.N,GND*%
X177736390Y-56811208D03*
%TO.P,SW21,B,B*%
%TO.N,Rotary1B*%
X177736390Y-59311208D03*
D13*
%TO.P,SW21,A,A*%
%TO.N,Rotary1A*%
X177736390Y-54311208D03*
D14*
%TO.P,SW21,4*%
%TO.N,N/C*%
X185236390Y-62511208D03*
%TO.P,SW21,3*%
X185236390Y-51111208D03*
%TD*%
D11*
%TO.P,SW18,2,2*%
%TO.N,Net-(D28-A)*%
X191916790Y-137033608D03*
%TO.P,SW18,1,1*%
%TO.N,Col4*%
X177166790Y-135983608D03*
%TD*%
%TO.P,SW4,2,2*%
%TO.N,Net-(D37-A)*%
X117516790Y-99833608D03*
%TO.P,SW4,1,1*%
%TO.N,Col0*%
X102766790Y-98783608D03*
%TD*%
%TO.P,SW15,2,2*%
%TO.N,Net-(D32-A)*%
X136116790Y-137033608D03*
%TO.P,SW15,1,1*%
%TO.N,Col1*%
X121366790Y-135983608D03*
%TD*%
%TO.P,SW7,2,2*%
%TO.N,Net-(D25-A)*%
X173316790Y-99833608D03*
%TO.P,SW7,1,1*%
%TO.N,Col3*%
X158566790Y-98783608D03*
%TD*%
%TO.P,SW3,2,2*%
%TO.N,Net-(D8-A)*%
X173320590Y-81288989D03*
%TO.P,SW3,1,1*%
%TO.N,Col3*%
X158570590Y-80238989D03*
%TD*%
%TO.P,SW17,2,2*%
%TO.N,Net-(D27-A)*%
X173316790Y-137033608D03*
%TO.P,SW17,1,1*%
%TO.N,Col3*%
X158566790Y-135983608D03*
%TD*%
%TO.P,SW16,2,2*%
%TO.N,Net-(D31-A)*%
X154716790Y-137033608D03*
%TO.P,SW16,1,1*%
%TO.N,Col2*%
X139966790Y-135983608D03*
%TD*%
%TO.P,SW1,1,1*%
%TO.N,Col3*%
X158570590Y-61620789D03*
%TO.P,SW1,2,2*%
%TO.N,Net-(D6-A)*%
X173320590Y-62670789D03*
%TD*%
D15*
%TO.P,R12,2*%
%TO.N,VBUS*%
X145136390Y-66098708D03*
%TO.P,R12,1*%
%TO.N,BAT+*%
X145136390Y-67923708D03*
%TD*%
D16*
%TO.P,D38,2,A*%
%TO.N,Net-(D38-A)*%
X135986390Y-94898708D03*
%TO.P,D38,1,K*%
%TO.N,Row2*%
X135986390Y-93323708D03*
%TD*%
%TO.P,D34,2,A*%
%TO.N,Net-(D34-A)*%
X136086390Y-113286208D03*
%TO.P,D34,1,K*%
%TO.N,Row3*%
X136086390Y-111711208D03*
%TD*%
D17*
%TO.P,R13,2*%
%TO.N,Net-(U7-RT)*%
X135448890Y-80711208D03*
%TO.P,R13,1*%
%TO.N,GND*%
X133623890Y-80711208D03*
%TD*%
D16*
%TO.P,D39,2,A*%
%TO.N,Net-(D39-A)*%
X154736390Y-95086208D03*
%TO.P,D39,1,K*%
%TO.N,Row2*%
X154736390Y-93511208D03*
%TD*%
%TO.P,D30,2,A*%
%TO.N,Net-(D30-A)*%
X191936390Y-95098708D03*
%TO.P,D30,1,K*%
%TO.N,Row2*%
X191936390Y-93523708D03*
%TD*%
D18*
%TO.P,C8,2*%
%TO.N,GPIO16*%
X141186390Y-73011208D03*
%TO.P,C8,1*%
%TO.N,Net-(C8-Pad1)*%
X142911390Y-73011208D03*
%TD*%
D19*
%TO.P,J1,S1,SHIELD*%
%TO.N,GND*%
X152558390Y-53516208D03*
D20*
X152558390Y-49336208D03*
D19*
X143918390Y-53516208D03*
D20*
X143918390Y-49336208D03*
D21*
%TO.P,J1,B12,GND*%
X145038390Y-54288708D03*
%TO.P,J1,B9,VBUS*%
%TO.N,VBUS*%
X145838390Y-54288708D03*
D22*
%TO.P,J1,B8,SBU2*%
%TO.N,unconnected-(J1-SBU2-PadB8)*%
X146488390Y-54091208D03*
%TO.P,J1,B7,D-*%
%TO.N,USB_N*%
X147488390Y-54091208D03*
%TO.P,J1,B6,D+*%
%TO.N,USB_P*%
X148988390Y-54091208D03*
%TO.P,J1,B5,CC2*%
%TO.N,Net-(J1-CC2)*%
X149988390Y-54091208D03*
D21*
%TO.P,J1,B4,VBUS*%
%TO.N,VBUS*%
X150638390Y-54288708D03*
%TO.P,J1,B1,GND*%
%TO.N,GND*%
X151438390Y-54288708D03*
%TO.P,J1,A12,GND*%
X151438390Y-54288708D03*
%TO.P,J1,A9,VBUS*%
%TO.N,VBUS*%
X150638390Y-54288708D03*
D22*
%TO.P,J1,A8,SBU1*%
%TO.N,unconnected-(J1-SBU1-PadA8)*%
X149488390Y-54091208D03*
%TO.P,J1,A7,D-*%
%TO.N,USB_N*%
X148488390Y-54091208D03*
%TO.P,J1,A6,D+*%
%TO.N,USB_P*%
X147988390Y-54091208D03*
%TO.P,J1,A5,CC1*%
%TO.N,Net-(J1-CC1)*%
X146988390Y-54091208D03*
D21*
%TO.P,J1,A4,VBUS*%
%TO.N,VBUS*%
X145838390Y-54288708D03*
%TO.P,J1,A1,GND*%
%TO.N,GND*%
X145038390Y-54288708D03*
%TD*%
D18*
%TO.P,C9,2*%
%TO.N,Net-(U7-FB)*%
X141236390Y-79711208D03*
%TO.P,C9,1*%
%TO.N,Net-(C9-Pad1)*%
X142961390Y-79711208D03*
%TD*%
D23*
%TO.P,R15,2*%
%TO.N,Net-(C8-Pad1)*%
X147036390Y-73061208D03*
%TO.P,R15,1*%
%TO.N,Net-(U7-FB)*%
X148861390Y-73061208D03*
%TD*%
D16*
%TO.P,D35,2,A*%
%TO.N,Net-(D35-A)*%
X117486390Y-113286208D03*
%TO.P,D35,1,K*%
%TO.N,Row3*%
X117486390Y-111711208D03*
%TD*%
%TO.P,D36,2,A*%
%TO.N,Net-(D36-A)*%
X154786390Y-113111208D03*
%TO.P,D36,1,K*%
%TO.N,Row3*%
X154786390Y-111536208D03*
%TD*%
D24*
%TO.P,R10,2*%
%TO.N,Net-(U3-PROG)*%
X145136390Y-64361208D03*
%TO.P,R10,1*%
%TO.N,GND*%
X145136390Y-62536208D03*
%TD*%
D25*
%TO.P,C4,2*%
%TO.N,GND*%
X151948890Y-56711208D03*
%TO.P,C4,1*%
%TO.N,VBUS*%
X150223890Y-56711208D03*
%TD*%
D26*
%TO.P,D23,4,VDD*%
%TO.N,VBUS*%
X182924090Y-88178008D03*
%TO.P,D23,3,DIN*%
%TO.N,Net-(D22-DOUT)*%
X182924090Y-89928008D03*
%TO.P,D23,2,VSS*%
%TO.N,GND*%
X189224090Y-89928008D03*
%TO.P,D23,1,DOUT*%
%TO.N,Net-(D12-DIN)*%
X189224090Y-88178008D03*
%TD*%
D27*
%TO.P,Q1,6,G1*%
%TO.N,Net-(Q1-G1)*%
X139536390Y-65961206D03*
%TO.P,Q1,5,D12*%
%TO.N,GND*%
X139536390Y-66911207D03*
%TO.P,Q1,4,G2*%
%TO.N,Net-(Q1-G2)*%
X139536390Y-67861208D03*
%TO.P,Q1,3,S2*%
%TO.N,Net-(Q1-S2)*%
X142216090Y-67861208D03*
%TO.P,Q1,2,D12*%
%TO.N,GND*%
X142216090Y-66911207D03*
%TO.P,Q1,1,S1*%
X142216090Y-65961206D03*
%TD*%
D28*
%TO.P,U6,6,GND*%
%TO.N,GND*%
X134011390Y-65961208D03*
%TO.P,U6,5,VCC*%
%TO.N,VBUS*%
X134011390Y-66911208D03*
%TO.P,U6,4,TD*%
%TO.N,unconnected-(U6-TD-Pad4)*%
X134011390Y-67861208D03*
%TO.P,U6,3,OC*%
%TO.N,Net-(Q1-G2)*%
X136286390Y-67861208D03*
%TO.P,U6,2,CS*%
%TO.N,Net-(U6-CS)*%
X136286390Y-66911208D03*
%TO.P,U6,1,OD*%
%TO.N,Net-(Q1-G1)*%
X136286390Y-65961208D03*
%TD*%
D16*
%TO.P,D37,2,A*%
%TO.N,Net-(D37-A)*%
X117536390Y-94598708D03*
%TO.P,D37,1,K*%
%TO.N,Row2*%
X117536390Y-93023708D03*
%TD*%
D24*
%TO.P,R8,2*%
%TO.N,Net-(D1-A)*%
X140836390Y-59773708D03*
%TO.P,R8,1*%
%TO.N,VBUS*%
X140836390Y-57948708D03*
%TD*%
D16*
%TO.P,D31,2,A*%
%TO.N,Net-(D31-A)*%
X154686390Y-132436208D03*
%TO.P,D31,1,K*%
%TO.N,Row4*%
X154686390Y-130861208D03*
%TD*%
D29*
%TO.P,D41,2,A*%
%TO.N,Net-(D41-A)*%
X189236390Y-74686208D03*
%TO.P,D41,1,K*%
%TO.N,Row1*%
X189236390Y-76261208D03*
%TD*%
D26*
%TO.P,D16,4,VDD*%
%TO.N,VBUS*%
X114776590Y-108533008D03*
%TO.P,D16,3,DIN*%
%TO.N,Net-(D15-DOUT)*%
X114776590Y-106783008D03*
%TO.P,D16,2,VSS*%
%TO.N,GND*%
X108476590Y-106783008D03*
%TO.P,D16,1,DOUT*%
%TO.N,Net-(D16-DOUT)*%
X108476590Y-108533008D03*
%TD*%
%TO.P,D13,4,VDD*%
%TO.N,VBUS*%
X170576590Y-108533008D03*
%TO.P,D13,3,DIN*%
%TO.N,Net-(D12-DOUT)*%
X170576590Y-106783008D03*
%TO.P,D13,2,VSS*%
%TO.N,GND*%
X164276590Y-106783008D03*
%TO.P,D13,1,DOUT*%
%TO.N,Net-(D13-DOUT)*%
X164276590Y-108533008D03*
%TD*%
D16*
%TO.P,D28,2,A*%
%TO.N,Net-(D28-A)*%
X191936390Y-132248708D03*
%TO.P,D28,1,K*%
%TO.N,Row4*%
X191936390Y-130673708D03*
%TD*%
D30*
%TO.P,R5,2*%
%TO.N,Net-(J1-CC2)*%
X149536390Y-58786208D03*
%TO.P,R5,1*%
%TO.N,GND*%
X149536390Y-60436208D03*
%TD*%
D31*
%TO.P,C6,2*%
%TO.N,VBUS*%
X131436390Y-67773708D03*
%TO.P,C6,1*%
%TO.N,GND*%
X131436390Y-66048708D03*
%TD*%
D16*
%TO.P,D26,2,A*%
%TO.N,Net-(D26-A)*%
X173336390Y-113198708D03*
%TO.P,D26,1,K*%
%TO.N,Row3*%
X173336390Y-111623708D03*
%TD*%
D29*
%TO.P,D40,2,A*%
%TO.N,Net-(D40-A)*%
X189036390Y-55873708D03*
%TO.P,D40,1,K*%
%TO.N,Row0*%
X189036390Y-57448708D03*
%TD*%
D32*
%TO.P,D1,2,A*%
%TO.N,Net-(D1-A)*%
X155361390Y-74111208D03*
%TO.P,D1,1,K*%
%TO.N,Net-(D1-K)*%
X157111390Y-74111208D03*
%TD*%
D26*
%TO.P,D21,4,VDD*%
%TO.N,VBUS*%
X108476590Y-125383008D03*
%TO.P,D21,3,DIN*%
%TO.N,Net-(D16-DOUT)*%
X108476590Y-127133008D03*
%TO.P,D21,2,VSS*%
%TO.N,GND*%
X114776590Y-127133008D03*
%TO.P,D21,1,DOUT*%
%TO.N,Net-(D20-DIN)*%
X114776590Y-125383008D03*
%TD*%
%TO.P,D18,4,VDD*%
%TO.N,VBUS*%
X164276590Y-125383008D03*
%TO.P,D18,3,DIN*%
%TO.N,Net-(D18-DIN)*%
X164276590Y-127133008D03*
%TO.P,D18,2,VSS*%
%TO.N,GND*%
X170576590Y-127133008D03*
%TO.P,D18,1,DOUT*%
%TO.N,Net-(D17-DIN)*%
X170576590Y-125383008D03*
%TD*%
D23*
%TO.P,R14,2*%
%TO.N,Net-(C9-Pad1)*%
X141186390Y-81811208D03*
%TO.P,R14,1*%
%TO.N,Net-(U7-VC)*%
X143011390Y-81811208D03*
%TD*%
D16*
%TO.P,D25,2,A*%
%TO.N,Net-(D25-A)*%
X173336390Y-94998708D03*
%TO.P,D25,1,K*%
%TO.N,Row2*%
X173336390Y-93423708D03*
%TD*%
D26*
%TO.P,D22,4,VDD*%
%TO.N,VBUS*%
X164324090Y-88178008D03*
%TO.P,D22,3,DIN*%
%TO.N,Net-(D22-DIN)*%
X164324090Y-89928008D03*
%TO.P,D22,2,VSS*%
%TO.N,GND*%
X170624090Y-89928008D03*
%TO.P,D22,1,DOUT*%
%TO.N,Net-(D22-DOUT)*%
X170624090Y-88178008D03*
%TD*%
D16*
%TO.P,D6,2,A*%
%TO.N,Net-(D6-A)*%
X173336390Y-57561208D03*
%TO.P,D6,1,K*%
%TO.N,Row0*%
X173336390Y-55986208D03*
%TD*%
D26*
%TO.P,D14,4,VDD*%
%TO.N,VBUS*%
X151976590Y-108533008D03*
%TO.P,D14,3,DIN*%
%TO.N,Net-(D13-DOUT)*%
X151976590Y-106783008D03*
%TO.P,D14,2,VSS*%
%TO.N,GND*%
X145676590Y-106783008D03*
%TO.P,D14,1,DOUT*%
%TO.N,Net-(D14-DOUT)*%
X145676590Y-108533008D03*
%TD*%
D16*
%TO.P,D27,2,A*%
%TO.N,Net-(D27-A)*%
X173336390Y-132398708D03*
%TO.P,D27,1,K*%
%TO.N,Row4*%
X173336390Y-130823708D03*
%TD*%
D33*
%TO.P,D2,2,A*%
%TO.N,Net-(D2-A)*%
X160211390Y-67461208D03*
%TO.P,D2,1,K*%
%TO.N,Net-(D2-K)*%
X158461390Y-67461208D03*
%TD*%
D16*
%TO.P,D33,2,A*%
%TO.N,Net-(D33-A)*%
X117586390Y-132236208D03*
%TO.P,D33,1,K*%
%TO.N,Row4*%
X117586390Y-130661208D03*
%TD*%
D26*
%TO.P,D12,4,VDD*%
%TO.N,VBUS*%
X189176590Y-108533008D03*
%TO.P,D12,3,DIN*%
%TO.N,Net-(D12-DIN)*%
X189176590Y-106783008D03*
%TO.P,D12,2,VSS*%
%TO.N,GND*%
X182876590Y-106783008D03*
%TO.P,D12,1,DOUT*%
%TO.N,Net-(D12-DOUT)*%
X182876590Y-108533008D03*
%TD*%
%TO.P,D24,4,VDD*%
%TO.N,VBUS*%
X164324090Y-51028008D03*
%TO.P,D24,3,DIN*%
%TO.N,LED_GPIO*%
X164324090Y-52778008D03*
%TO.P,D24,2,VSS*%
%TO.N,GND*%
X170624090Y-52778008D03*
%TO.P,D24,1,DOUT*%
%TO.N,Net-(D24-DOUT)*%
X170624090Y-51028008D03*
%TD*%
D17*
%TO.P,R16,2*%
%TO.N,Net-(U7-FB)*%
X148861390Y-74861208D03*
%TO.P,R16,1*%
%TO.N,GND*%
X147036390Y-74861208D03*
%TD*%
D34*
%TO.P,L1,2,2*%
%TO.N,Net-(U7-SW2)*%
X120286390Y-75561208D03*
%TO.P,L1,1,1*%
%TO.N,Net-(U7-SW1)*%
X120286390Y-80260208D03*
%TD*%
D16*
%TO.P,D29,2,A*%
%TO.N,Net-(D29-A)*%
X191936390Y-113236208D03*
%TO.P,D29,1,K*%
%TO.N,Row3*%
X191936390Y-111661208D03*
%TD*%
D26*
%TO.P,D9,4,VDD*%
%TO.N,VBUS*%
X145676590Y-88183008D03*
%TO.P,D9,3,DIN*%
%TO.N,Net-(D10-DOUT)*%
X145676590Y-89933008D03*
%TO.P,D9,2,VSS*%
%TO.N,GND*%
X151976590Y-89933008D03*
%TO.P,D9,1,DOUT*%
%TO.N,Net-(D22-DIN)*%
X151976590Y-88183008D03*
%TD*%
D17*
%TO.P,R17,2*%
%TO.N,Net-(U7-FB)*%
X143061390Y-70911208D03*
%TO.P,R17,1*%
%TO.N,GPIO16*%
X141236390Y-70911208D03*
%TD*%
D35*
%TO.P,C10,2*%
%TO.N,GND*%
X129536390Y-66048708D03*
%TO.P,C10,1*%
%TO.N,GPIO16*%
X129536390Y-67773708D03*
%TD*%
D17*
%TO.P,R9,2*%
%TO.N,Net-(D2-A)*%
X160211390Y-65511208D03*
%TO.P,R9,1*%
%TO.N,VBUS*%
X158386390Y-65511208D03*
%TD*%
D18*
%TO.P,C5,2*%
%TO.N,GND*%
X144573890Y-56661208D03*
%TO.P,C5,1*%
%TO.N,VBUS*%
X146298890Y-56661208D03*
%TD*%
D16*
%TO.P,D32,2,A*%
%TO.N,Net-(D32-A)*%
X136086390Y-132198708D03*
%TO.P,D32,1,K*%
%TO.N,Row4*%
X136086390Y-130623708D03*
%TD*%
D36*
%TO.P,U7,13,EPAD*%
%TO.N,GND*%
X134520240Y-75885608D03*
D37*
%TO.P,U7,12,VC*%
%TO.N,Net-(U7-VC)*%
X136736390Y-77511208D03*
%TO.P,U7,11,FB*%
%TO.N,Net-(U7-FB)*%
X136736390Y-76860968D03*
%TO.P,U7,10,\u002ASHDN*%
%TO.N,BAT+*%
X136736390Y-76210728D03*
%TO.P,U7,9,VIN*%
X136736390Y-75560488D03*
%TO.P,U7,8,VIN*%
X136736390Y-74910248D03*
%TO.P,U7,7,VOUT*%
%TO.N,GPIO16*%
X136736390Y-74260008D03*
%TO.P,U7,6,SW2*%
%TO.N,Net-(U7-SW2)*%
X132304090Y-74260008D03*
%TO.P,U7,5,PGND*%
%TO.N,GND*%
X132304090Y-74910248D03*
%TO.P,U7,4,SW1*%
%TO.N,Net-(U7-SW1)*%
X132304090Y-75560488D03*
%TO.P,U7,3,MODE/SYNC*%
%TO.N,BAT+*%
X132304090Y-76210728D03*
%TO.P,U7,2,SGND*%
%TO.N,GND*%
X132304090Y-76860968D03*
%TO.P,U7,1,RT*%
%TO.N,Net-(U7-RT)*%
X132304090Y-77511208D03*
%TD*%
D26*
%TO.P,D17,4,VDD*%
%TO.N,VBUS*%
X182876590Y-125383008D03*
%TO.P,D17,3,DIN*%
%TO.N,Net-(D17-DIN)*%
X182876590Y-127133008D03*
%TO.P,D17,2,VSS*%
%TO.N,GND*%
X189176590Y-127133008D03*
%TO.P,D17,1,DOUT*%
%TO.N,unconnected-(D17-DOUT-Pad1)*%
X189176590Y-125383008D03*
%TD*%
%TO.P,D10,4,VDD*%
%TO.N,VBUS*%
X127076590Y-88183008D03*
%TO.P,D10,3,DIN*%
%TO.N,Net-(D10-DIN)*%
X127076590Y-89933008D03*
%TO.P,D10,2,VSS*%
%TO.N,GND*%
X133376590Y-89933008D03*
%TO.P,D10,1,DOUT*%
%TO.N,Net-(D10-DOUT)*%
X133376590Y-88183008D03*
%TD*%
D16*
%TO.P,D8,2,A*%
%TO.N,Net-(D8-A)*%
X173336390Y-76298708D03*
%TO.P,D8,1,K*%
%TO.N,Row1*%
X173336390Y-74723708D03*
%TD*%
D38*
%TO.P,U3,9,GND*%
%TO.N,GND*%
X152036390Y-65461208D03*
D39*
%TO.P,U3,8,CE*%
%TO.N,VBUS*%
X154760540Y-67366208D03*
%TO.P,U3,7,\u002ACHRG*%
%TO.N,Net-(D1-K)*%
X154760540Y-66096208D03*
%TO.P,U3,6,\u002ASTDBY*%
%TO.N,Net-(D2-K)*%
X154760540Y-64826208D03*
%TO.P,U3,5,BAT*%
%TO.N,VBUS*%
X154760540Y-63556208D03*
%TO.P,U3,4,VCC*%
X149312240Y-63556208D03*
%TO.P,U3,3,GND*%
%TO.N,GND*%
X149312240Y-64826208D03*
%TO.P,U3,2,PROG*%
%TO.N,Net-(U3-PROG)*%
X149312240Y-66096208D03*
%TO.P,U3,1,TEMP*%
%TO.N,GND*%
X149312240Y-67366208D03*
%TD*%
D25*
%TO.P,C7,2*%
%TO.N,GND*%
X142961390Y-76661208D03*
%TO.P,C7,1*%
%TO.N,BAT+*%
X141236390Y-76661208D03*
%TD*%
D40*
%TO.P,J5,2,Pin_2*%
%TO.N,GND*%
X107986390Y-79611208D03*
D41*
%TO.P,J5,1,Pin_1*%
%TO.N,BAT+*%
X105486390Y-79611208D03*
%TD*%
D26*
%TO.P,D15,4,VDD*%
%TO.N,VBUS*%
X133376590Y-108533008D03*
%TO.P,D15,3,DIN*%
%TO.N,Net-(D14-DOUT)*%
X133376590Y-106783008D03*
%TO.P,D15,2,VSS*%
%TO.N,GND*%
X127076590Y-106783008D03*
%TO.P,D15,1,DOUT*%
%TO.N,Net-(D15-DOUT)*%
X127076590Y-108533008D03*
%TD*%
%TO.P,D11,4,VDD*%
%TO.N,VBUS*%
X108476590Y-88183008D03*
%TO.P,D11,3,DIN*%
%TO.N,Net-(D11-DIN)*%
X108476590Y-89933008D03*
%TO.P,D11,2,VSS*%
%TO.N,GND*%
X114776590Y-89933008D03*
%TO.P,D11,1,DOUT*%
%TO.N,Net-(D10-DIN)*%
X114776590Y-88183008D03*
%TD*%
%TO.P,D20,4,VDD*%
%TO.N,VBUS*%
X127076590Y-125383008D03*
%TO.P,D20,3,DIN*%
%TO.N,Net-(D20-DIN)*%
X127076590Y-127133008D03*
%TO.P,D20,2,VSS*%
%TO.N,GND*%
X133376590Y-127133008D03*
%TO.P,D20,1,DOUT*%
%TO.N,Net-(D19-DIN)*%
X133376590Y-125383008D03*
%TD*%
D30*
%TO.P,R4,2*%
%TO.N,Net-(J1-CC1)*%
X147636390Y-58836208D03*
%TO.P,R4,1*%
%TO.N,GND*%
X147636390Y-60486208D03*
%TD*%
D26*
%TO.P,D7,4,VDD*%
%TO.N,VBUS*%
X164324090Y-69578008D03*
%TO.P,D7,3,DIN*%
%TO.N,Net-(D24-DOUT)*%
X164324090Y-71328008D03*
%TO.P,D7,2,VSS*%
%TO.N,GND*%
X170624090Y-71328008D03*
%TO.P,D7,1,DOUT*%
%TO.N,Net-(D11-DIN)*%
X170624090Y-69578008D03*
%TD*%
D17*
%TO.P,R11,2*%
%TO.N,Net-(Q1-S2)*%
X142973890Y-74861208D03*
%TO.P,R11,1*%
%TO.N,Net-(U6-CS)*%
X141148890Y-74861208D03*
%TD*%
D26*
%TO.P,D19,4,VDD*%
%TO.N,VBUS*%
X145676590Y-125383008D03*
%TO.P,D19,3,DIN*%
%TO.N,Net-(D19-DIN)*%
X145676590Y-127133008D03*
%TO.P,D19,2,VSS*%
%TO.N,GND*%
X151976590Y-127133008D03*
%TO.P,D19,1,DOUT*%
%TO.N,Net-(D18-DIN)*%
X151976590Y-125383008D03*
%TD*%
D11*
%TO.P,SW8,2,2*%
%TO.N,Net-(D30-A)*%
X191916790Y-99833608D03*
%TO.P,SW8,1,1*%
%TO.N,Col4*%
X177166790Y-98783608D03*
%TD*%
D42*
%TO.N,GND*%
X152036390Y-65461208D03*
D43*
X111636390Y-50761208D03*
D42*
X152086390Y-51761208D03*
D43*
X120336390Y-55861208D03*
D42*
X153554408Y-89943189D03*
D43*
X113286390Y-49911208D03*
X116586390Y-49911208D03*
X111586390Y-49961208D03*
D42*
X190904408Y-89893189D03*
X109936390Y-79461208D03*
D43*
X136536390Y-53661208D03*
X124436390Y-64111208D03*
X115836390Y-58711208D03*
X118286390Y-49911208D03*
D42*
X170704408Y-72493189D03*
X132436390Y-80661208D03*
D43*
X123386390Y-49861208D03*
X114436390Y-57461208D03*
D42*
X170704408Y-128543189D03*
D43*
X115686390Y-49911208D03*
D42*
X176286390Y-56761208D03*
X147586390Y-64761208D03*
X106654408Y-106843189D03*
X146948890Y-76011208D03*
D43*
X112486390Y-49911208D03*
X119186390Y-58761208D03*
D42*
X133836390Y-73061208D03*
X133786390Y-64761208D03*
X150786390Y-60461208D03*
D43*
X110436390Y-64111208D03*
D42*
X129586390Y-64761208D03*
D43*
X119986390Y-49911208D03*
X121686390Y-49911208D03*
X122536390Y-49861208D03*
D42*
X125554408Y-106843189D03*
D43*
X144736390Y-54911208D03*
D42*
X134804408Y-127143189D03*
X134804408Y-89943189D03*
D43*
X115836390Y-52811208D03*
D42*
X162604408Y-106793189D03*
X145286390Y-49861208D03*
D43*
X114886390Y-49911208D03*
D42*
X144248890Y-76711208D03*
D43*
X136536390Y-52061208D03*
X119086390Y-52811208D03*
D42*
X107986390Y-81411208D03*
D43*
X114036390Y-49911208D03*
D42*
X144486390Y-51961208D03*
X172204408Y-89943189D03*
D43*
X108186390Y-54111208D03*
D42*
X181354408Y-106793189D03*
X130636390Y-77161208D03*
D43*
X119136390Y-49911208D03*
X114436390Y-55861208D03*
X151586390Y-54761208D03*
D42*
X146196390Y-60486208D03*
X138286390Y-66861208D03*
D43*
X118036390Y-55811208D03*
D42*
X107986390Y-77911208D03*
X109886390Y-80511208D03*
D43*
X117486390Y-58761208D03*
X117436390Y-52711208D03*
D42*
X135136390Y-73061208D03*
D43*
X117436390Y-49911208D03*
D42*
X145236390Y-48911208D03*
D43*
X120836390Y-49911208D03*
D42*
X131486390Y-64611208D03*
X153236390Y-56711208D03*
X141886390Y-64811208D03*
X116504408Y-127143189D03*
D43*
X114486390Y-54261208D03*
D42*
X179386390Y-56761208D03*
D43*
X120386390Y-54211208D03*
X127173890Y-51811208D03*
D42*
X147636390Y-67411208D03*
D43*
X120436390Y-57461208D03*
D42*
X143736390Y-62461208D03*
X116354408Y-89993189D03*
X153454408Y-127143189D03*
X144104408Y-106793189D03*
X151336390Y-49961208D03*
X190754408Y-127093189D03*
X143486390Y-66911208D03*
D43*
X123436390Y-52411208D03*
D42*
X151336390Y-48961208D03*
D43*
X123436390Y-51611208D03*
D42*
X176486390Y-75511208D03*
X130636390Y-74911208D03*
X170654408Y-53993189D03*
X179586390Y-75511208D03*
%TO.N,VBUS*%
X181804408Y-123943189D03*
X107804408Y-123393189D03*
X179654408Y-89093189D03*
X154954408Y-69743189D03*
X161654408Y-89193189D03*
X153604408Y-110443189D03*
X171704408Y-110193189D03*
X143304408Y-90393189D03*
X161004408Y-123393189D03*
X164154408Y-67893189D03*
X134554408Y-110243189D03*
X109654408Y-86143189D03*
X143254408Y-124543189D03*
X124904408Y-124443189D03*
X124904408Y-86943189D03*
X191254408Y-109443189D03*
X162129408Y-50968189D03*
X115954408Y-110193189D03*
%TO.N,BAT+*%
X139504408Y-78493189D03*
X129504408Y-77943189D03*
D43*
%TO.N,USB_N*%
X148036390Y-52561208D03*
X117388042Y-65008186D03*
%TO.N,USB_P*%
X118286390Y-65011208D03*
X148936390Y-52611208D03*
%TO.N,Col3*%
X158511390Y-94986208D03*
X158536390Y-113661208D03*
X158536390Y-128711208D03*
X158586390Y-132411208D03*
X158536390Y-109861208D03*
X158570590Y-88193189D03*
X156136390Y-60261208D03*
X127086390Y-57961208D03*
%TO.N,Col0*%
X107436390Y-57011208D03*
%TO.N,Col1*%
X121366790Y-109543189D03*
X121386390Y-94261208D03*
X109286390Y-65711208D03*
X121386390Y-113261208D03*
X121336390Y-91811208D03*
X119104408Y-87443189D03*
X121366790Y-126993189D03*
X117936390Y-82661208D03*
X121386390Y-132011208D03*
%TO.N,Col2*%
X125986390Y-83311208D03*
X125636390Y-70961208D03*
X139986390Y-94661208D03*
X139966790Y-132191608D03*
X140086390Y-109761208D03*
X140086390Y-113761208D03*
X139704408Y-90193189D03*
X139966790Y-127143189D03*
X119136390Y-64311208D03*
%TO.N,Col4*%
X177036390Y-91761208D03*
X177086390Y-132411208D03*
X160636390Y-86061208D03*
X126936390Y-70911208D03*
X156736390Y-86061208D03*
X177166790Y-113191608D03*
X177086390Y-94761208D03*
X119986390Y-64311208D03*
X177136390Y-110211208D03*
X177166790Y-127293189D03*
X127636390Y-82361208D03*
%TO.N,Rotary1B*%
X161010764Y-57586834D03*
X141586390Y-52111208D03*
X126836390Y-55411208D03*
%TO.N,Rotary1A*%
X126236390Y-50661208D03*
X155086390Y-49611208D03*
X141911390Y-48936208D03*
%TO.N,Rotary2B*%
X128886390Y-81261208D03*
X128086390Y-70861208D03*
X120836390Y-64311208D03*
X160636390Y-84961208D03*
X156736390Y-84961208D03*
%TO.N,Rotary2A*%
X129686390Y-71211208D03*
X156986390Y-77761208D03*
X121786390Y-64311208D03*
X160036390Y-77761208D03*
X130061390Y-79736208D03*
%TO.N,Row0*%
X156286390Y-50811208D03*
X141786390Y-50211208D03*
X126486390Y-52861208D03*
%TO.N,Row1*%
X173386390Y-73611208D03*
X161036390Y-58661208D03*
X138436390Y-56611208D03*
X127036390Y-56511208D03*
X173386390Y-70561208D03*
%TO.N,Row2*%
X107386390Y-59761208D03*
X117536390Y-87393189D03*
X114386390Y-82161208D03*
%TO.N,Row3*%
X107386390Y-58861208D03*
%TO.N,Row4*%
X107386390Y-57961208D03*
D42*
%TO.N,GPIO16*%
X136104408Y-70943189D03*
%TO.N,LED_GPIO*%
X160104408Y-55343189D03*
X125904408Y-58793189D03*
%TO.N,Net-(D15-DOUT)*%
X116554408Y-107393189D03*
X118854408Y-108843189D03*
%TO.N,Net-(U7-FB)*%
X146554408Y-79143189D03*
X144854408Y-71593189D03*
%TD*%
D44*
%TO.N,Row4*%
X107386390Y-57961208D02*
X106136390Y-57961208D01*
X106136390Y-57961208D02*
X103536390Y-60561208D01*
X103536390Y-60561208D02*
X103536390Y-81523948D01*
X104186390Y-82173948D02*
X104186390Y-94694426D01*
X103536390Y-81523948D02*
X104186390Y-82173948D01*
X104186390Y-94694426D02*
X104731790Y-95239826D01*
%TO.N,Row1*%
X173386390Y-70561208D02*
X168636390Y-65811208D01*
X168636390Y-65811208D02*
X166986390Y-65811208D01*
X166986390Y-63461208D02*
X165436390Y-61911208D01*
X166986390Y-65811208D02*
X166986390Y-63461208D01*
X162459227Y-58661208D02*
X161036390Y-58661208D01*
X165436390Y-61911208D02*
X165436390Y-61638371D01*
X165436390Y-61638371D02*
X162459227Y-58661208D01*
%TO.N,Rotary1B*%
X177736390Y-59311208D02*
X177736390Y-61607008D01*
X162096053Y-57586834D02*
X161010764Y-57586834D01*
X177736390Y-61607008D02*
X174382190Y-64961208D01*
X174382190Y-64961208D02*
X168932842Y-64961208D01*
X168932842Y-64961208D02*
X167535590Y-63563956D01*
X167535590Y-63026371D02*
X162096053Y-57586834D01*
X167535590Y-63563956D02*
X167535590Y-63026371D01*
D45*
%TO.N,Net-(D24-DOUT)*%
X164324090Y-71328008D02*
X162254408Y-69258326D01*
X162254408Y-69258326D02*
X162254408Y-64162063D01*
X160254408Y-62162063D02*
X160254408Y-57459306D01*
X162254408Y-64162063D02*
X160254408Y-62162063D01*
X160254408Y-57459306D02*
X160751880Y-56961834D01*
X171724090Y-56423507D02*
X171724090Y-52128008D01*
X160751880Y-56961834D02*
X162233053Y-56961834D01*
X162233053Y-56961834D02*
X165635675Y-60364456D01*
X165635675Y-60364456D02*
X167783141Y-60364456D01*
X167783141Y-60364456D02*
X171724090Y-56423507D01*
X171724090Y-52128008D02*
X170624090Y-51028008D01*
D46*
%TO.N,Col4*%
X194454408Y-71443189D02*
X194454408Y-71893189D01*
X192236390Y-70455171D02*
X192774408Y-70993189D01*
X192236390Y-59311208D02*
X192236390Y-70455171D01*
X192774408Y-70993189D02*
X194004408Y-70993189D01*
X194004408Y-70993189D02*
X194454408Y-71443189D01*
X194554408Y-71993189D02*
X194554408Y-75993190D01*
X194454408Y-71893189D02*
X194554408Y-71993189D01*
X194554408Y-75993190D02*
X192486390Y-78061208D01*
%TO.N,GND*%
X142216090Y-65140908D02*
X142216090Y-65961206D01*
X131436390Y-64661208D02*
X131436390Y-66048708D01*
X170624090Y-52778008D02*
X170624090Y-53962871D01*
X189216409Y-127093189D02*
X189176590Y-127133008D01*
X151986771Y-127143189D02*
X151976590Y-127133008D01*
X145061390Y-62461208D02*
X145136390Y-62536208D01*
X134794227Y-89933008D02*
X134804408Y-89943189D01*
X106654408Y-106843189D02*
X108416409Y-106843189D01*
X151438390Y-54288708D02*
X151438390Y-55063208D01*
X108416409Y-106843189D02*
X108476590Y-106783008D01*
D44*
X130636390Y-77161208D02*
X130936630Y-76860968D01*
D46*
X147036390Y-74861208D02*
X147036390Y-75923708D01*
X149312240Y-67366208D02*
X147681390Y-67366208D01*
X127076590Y-106783008D02*
X125614589Y-106783008D01*
X170624090Y-71328008D02*
X170624090Y-72412871D01*
X147681390Y-67366208D02*
X147636390Y-67411208D01*
X150786390Y-60461208D02*
X149561390Y-60461208D01*
X172189227Y-89928008D02*
X172204408Y-89943189D01*
X147036390Y-75923708D02*
X146948890Y-76011208D01*
X170624090Y-72412871D02*
X170704408Y-72493189D01*
X181354408Y-106793189D02*
X182866409Y-106793189D01*
D44*
X134520240Y-75885608D02*
X134520240Y-73677358D01*
D46*
X189224090Y-89928008D02*
X190869589Y-89928008D01*
X139486391Y-66861208D02*
X139536390Y-66911207D01*
X145666409Y-106793189D02*
X145676590Y-106783008D01*
D44*
X134520240Y-73677358D02*
X135136390Y-73061208D01*
D46*
X132486390Y-80711208D02*
X132436390Y-80661208D01*
X129586390Y-65998708D02*
X129536390Y-66048708D01*
X170704408Y-128543189D02*
X170704408Y-127260826D01*
X146196390Y-60486208D02*
X147636390Y-60486208D01*
X170624090Y-53962871D02*
X170654408Y-53993189D01*
X133623890Y-80711208D02*
X132486390Y-80711208D01*
D44*
X130636390Y-74911208D02*
X132303130Y-74911208D01*
D46*
X153236390Y-56711208D02*
X151948890Y-56711208D01*
D44*
X132303130Y-74911208D02*
X132304090Y-74910248D01*
D46*
X151986771Y-89943189D02*
X151976590Y-89933008D01*
X116294227Y-89933008D02*
X116354408Y-89993189D01*
X143736390Y-62461208D02*
X145061390Y-62461208D01*
X151948890Y-56711208D02*
X151948890Y-55573708D01*
X147586390Y-64761208D02*
X149247240Y-64761208D01*
X134011390Y-65961208D02*
X134011390Y-64986208D01*
X153454408Y-127143189D02*
X151986771Y-127143189D01*
X182866409Y-106793189D02*
X182876590Y-106783008D01*
X190754408Y-127093189D02*
X189216409Y-127093189D01*
X114786771Y-127143189D02*
X114776590Y-127133008D01*
X151948890Y-55573708D02*
X151438390Y-55063208D01*
X138286390Y-66861208D02*
X139486391Y-66861208D01*
X134011390Y-64986208D02*
X133786390Y-64761208D01*
X134794227Y-127133008D02*
X134804408Y-127143189D01*
X125614589Y-106783008D02*
X125554408Y-106843189D01*
X114776590Y-89933008D02*
X116294227Y-89933008D01*
X162614589Y-106783008D02*
X162604408Y-106793189D01*
X116504408Y-127143189D02*
X114786771Y-127143189D01*
X142961390Y-76661208D02*
X144198890Y-76661208D01*
X133376590Y-127133008D02*
X134794227Y-127133008D01*
X141886390Y-64811208D02*
X142216090Y-65140908D01*
X164276590Y-106783008D02*
X162614589Y-106783008D01*
X170624090Y-89928008D02*
X172189227Y-89928008D01*
X170704408Y-127260826D02*
X170576590Y-127133008D01*
X144198890Y-76661208D02*
X144248890Y-76711208D01*
X133376590Y-89933008D02*
X134794227Y-89933008D01*
X190869589Y-89928008D02*
X190904408Y-89893189D01*
X149561390Y-60461208D02*
X149536390Y-60436208D01*
X149247240Y-64761208D02*
X149312240Y-64826208D01*
D44*
X134520240Y-75885608D02*
X134520240Y-73745058D01*
D46*
X143486390Y-66911208D02*
X142216091Y-66911208D01*
X153554408Y-89943189D02*
X151986771Y-89943189D01*
X131486390Y-64611208D02*
X131436390Y-64661208D01*
X145038390Y-56196708D02*
X144573890Y-56661208D01*
X142216091Y-66911208D02*
X142216090Y-66911207D01*
X129586390Y-64761208D02*
X129586390Y-65998708D01*
X144104408Y-106793189D02*
X145666409Y-106793189D01*
D44*
X130936630Y-76860968D02*
X132304090Y-76860968D01*
D46*
X145038390Y-54288708D02*
X145038390Y-56196708D01*
D44*
X134520240Y-73745058D02*
X133836390Y-73061208D01*
D46*
%TO.N,VBUS*%
X149312240Y-63556208D02*
X148081990Y-63556208D01*
X161004408Y-123393189D02*
X161704408Y-124093189D01*
X170576590Y-109665371D02*
X170576590Y-108533008D01*
X131436390Y-67773708D02*
X132298890Y-66911208D01*
X150223890Y-56711208D02*
X154760540Y-61247858D01*
X156431390Y-63556208D02*
X158386390Y-65511208D01*
X107804408Y-124710826D02*
X108476590Y-125383008D01*
X154954408Y-69461208D02*
X153704408Y-68211208D01*
X154760540Y-63556208D02*
X156431390Y-63556208D01*
X153915540Y-68211208D02*
X153704408Y-68211208D01*
X142474490Y-57948708D02*
X140836390Y-57948708D01*
X153704408Y-68211208D02*
X147248890Y-68211208D01*
X171404408Y-109893189D02*
X170804408Y-109893189D01*
X148081990Y-63556208D02*
X146786690Y-62260907D01*
X154954408Y-69743189D02*
X154954408Y-69461208D01*
X164324090Y-69578008D02*
X164324090Y-68062871D01*
X133376590Y-109515371D02*
X133376590Y-108533008D01*
X164324090Y-51028008D02*
X162189227Y-51028008D01*
X133754408Y-110243189D02*
X133604408Y-110093189D01*
X144286390Y-65579837D02*
X144617519Y-65579837D01*
X146786690Y-62260907D02*
X153747491Y-62260907D01*
X162129408Y-50968189D02*
X162104408Y-50943189D01*
X145838390Y-56200708D02*
X146298890Y-56661208D01*
X150638390Y-56296708D02*
X150223890Y-56711208D01*
X141717761Y-62429837D02*
X144336690Y-59810908D01*
X144336690Y-59810908D02*
X142474490Y-57948708D01*
X152554408Y-110443189D02*
X151976590Y-109865371D01*
X180569589Y-88178008D02*
X182924090Y-88178008D01*
X170804408Y-109893189D02*
X170576590Y-109665371D01*
X115954408Y-110193189D02*
X115954408Y-109710826D01*
X162544227Y-125383008D02*
X164276590Y-125383008D01*
X164324090Y-88178008D02*
X162669589Y-88178008D01*
X133136390Y-63011208D02*
X132686390Y-63461208D01*
X140836390Y-57948708D02*
X145011390Y-57948708D01*
X144836771Y-124543189D02*
X145676590Y-125383008D01*
X125804408Y-125343189D02*
X127036771Y-125343189D01*
X124904408Y-124443189D02*
X125804408Y-125343189D01*
X145064589Y-88183008D02*
X143304408Y-89943189D01*
X132986390Y-66911208D02*
X134011390Y-66911208D01*
X153604408Y-110443189D02*
X152554408Y-110443189D01*
X133604408Y-109743189D02*
X133376590Y-109515371D01*
X132298890Y-66911208D02*
X132986390Y-66911208D01*
X133604408Y-110093189D02*
X133604408Y-109743189D01*
X154760540Y-61247858D02*
X154760540Y-63556208D01*
X145011390Y-57948708D02*
X146298890Y-56661208D01*
X151976590Y-109865371D02*
X151976590Y-108533008D01*
X162189227Y-51028008D02*
X162129408Y-50968189D01*
X141717761Y-63011208D02*
X133136390Y-63011208D01*
X126504408Y-86943189D02*
X124904408Y-86943189D01*
X154760540Y-67366208D02*
X153915540Y-68211208D01*
X132686390Y-66611208D02*
X132986390Y-66911208D01*
X171704408Y-110193189D02*
X171404408Y-109893189D01*
X161704408Y-124543189D02*
X162544227Y-125383008D01*
X143304408Y-89943189D02*
X143304408Y-90393189D01*
X161704408Y-124093189D02*
X161704408Y-124543189D01*
X134554408Y-110243189D02*
X133754408Y-110243189D01*
X107804408Y-123393189D02*
X107804408Y-124710826D01*
X164324090Y-68062871D02*
X164154408Y-67893189D01*
X108476590Y-87321007D02*
X108476590Y-88183008D01*
X179654408Y-89093189D02*
X180569589Y-88178008D01*
X145838390Y-54288708D02*
X145838390Y-56200708D01*
X190086771Y-109443189D02*
X189176590Y-108533008D01*
X132686390Y-63461208D02*
X132686390Y-66611208D01*
X127036771Y-125343189D02*
X127076590Y-125383008D01*
X146786690Y-62260907D02*
X144336690Y-59810908D01*
X181804408Y-124310826D02*
X182876590Y-125383008D01*
X143254408Y-124543189D02*
X144836771Y-124543189D01*
X191254408Y-109443189D02*
X190086771Y-109443189D01*
X162669589Y-88178008D02*
X161654408Y-89193189D01*
X147248890Y-68211208D02*
X145136390Y-66098708D01*
X115954408Y-109710826D02*
X114776590Y-108533008D01*
X144286390Y-65579837D02*
X141717761Y-63011208D01*
X127076590Y-88183008D02*
X127076590Y-87515371D01*
X181804408Y-123943189D02*
X181804408Y-124310826D01*
X109654408Y-86143189D02*
X108476590Y-87321007D01*
X153747491Y-62260907D02*
X154760540Y-61247858D01*
X150638390Y-54288708D02*
X150638390Y-56296708D01*
X127076590Y-87515371D02*
X126504408Y-86943189D01*
X144617519Y-65579837D02*
X145136390Y-66098708D01*
X141717761Y-63011208D02*
X141717761Y-62429837D01*
X145676590Y-88183008D02*
X145064589Y-88183008D01*
%TO.N,BAT+*%
X140686390Y-76661208D02*
X140236390Y-76211207D01*
X151536390Y-75811208D02*
X151536390Y-72211208D01*
X136736390Y-75560488D02*
X139585670Y-75560488D01*
X147508941Y-69461208D02*
X146858941Y-68811208D01*
X141236390Y-76661208D02*
X140686390Y-76661208D01*
X128554409Y-77393189D02*
X128954408Y-77393189D01*
X141754408Y-77993189D02*
X149354409Y-77993189D01*
X139585670Y-75560488D02*
X139711390Y-75686208D01*
X127854408Y-78093190D02*
X128554409Y-77393189D01*
X139504408Y-78193189D02*
X140154408Y-77543189D01*
X129336390Y-76611208D02*
X129536390Y-76611208D01*
X128954408Y-77393189D02*
X129504408Y-77943189D01*
X139711390Y-75686208D02*
X138951090Y-74925908D01*
D44*
X129936870Y-76210728D02*
X132304090Y-76210728D01*
X138054408Y-76210728D02*
X136736390Y-76210728D01*
D46*
X123236390Y-83911208D02*
X127854408Y-79293190D01*
X146858941Y-68811208D02*
X146023890Y-68811208D01*
X149354409Y-77993189D02*
X151536390Y-75811208D01*
X151536390Y-72211208D02*
X148786390Y-69461208D01*
X105486390Y-81211208D02*
X108186390Y-83911208D01*
X141204408Y-78043189D02*
X141704408Y-78043189D01*
X127854408Y-79293190D02*
X127854408Y-78093190D01*
X139504408Y-78493189D02*
X139504408Y-78193189D01*
X128554409Y-77393189D02*
X129336390Y-76611208D01*
D44*
X129536390Y-76611208D02*
X129936870Y-76210728D01*
D46*
X148786390Y-69461208D02*
X147508941Y-69461208D01*
X105486390Y-79611208D02*
X105486390Y-81211208D01*
X140704408Y-77543189D02*
X141204408Y-78043189D01*
X140154408Y-77543189D02*
X140236390Y-77461207D01*
X141704408Y-78043189D02*
X141754408Y-77993189D01*
X146023890Y-68811208D02*
X145136390Y-67923708D01*
X140154408Y-77543189D02*
X140704408Y-77543189D01*
X138821947Y-76210728D02*
X140154408Y-77543189D01*
X108186390Y-83911208D02*
X123236390Y-83911208D01*
X140236390Y-77461207D02*
X140236390Y-76211207D01*
X140236390Y-76211207D02*
X139711390Y-75686208D01*
X138054408Y-76210728D02*
X138821947Y-76210728D01*
X138951090Y-74925908D02*
X136736390Y-74925908D01*
D44*
%TO.N,Net-(C9-Pad1)*%
X142961390Y-80036208D02*
X141186390Y-81811208D01*
X142961390Y-79711208D02*
X142961390Y-80036208D01*
%TO.N,Net-(J1-CC1)*%
X146988390Y-55975776D02*
X147636390Y-56623776D01*
X146988390Y-54091208D02*
X146988390Y-55975776D01*
X147636390Y-56623776D02*
X147636390Y-58836208D01*
%TO.N,Net-(J1-CC2)*%
X149236390Y-56323776D02*
X149236390Y-58486208D01*
X149236390Y-58486208D02*
X149536390Y-58786208D01*
X149988390Y-55571776D02*
X149236390Y-56323776D01*
X149988390Y-54091208D02*
X149988390Y-55571776D01*
%TO.N,Net-(Q1-G2)*%
X140375340Y-65500158D02*
X140375340Y-67811208D01*
X140186390Y-65311208D02*
X140375340Y-65500158D01*
X135273890Y-65573708D02*
X135536390Y-65311208D01*
X140325340Y-67861208D02*
X139536390Y-67861208D01*
X136286390Y-67861208D02*
X135623891Y-67861208D01*
X135623891Y-67861208D02*
X135273890Y-67511207D01*
X135536390Y-65311208D02*
X140186390Y-65311208D01*
X135273890Y-67511207D02*
X135273890Y-65573708D01*
X140375340Y-67811208D02*
X140325340Y-67861208D01*
%TO.N,Net-(Q1-G1)*%
X136286392Y-65961206D02*
X136286390Y-65961208D01*
X139536390Y-65961206D02*
X136286392Y-65961206D01*
%TO.N,Net-(Q1-S2)*%
X142973890Y-74861208D02*
X144808940Y-74861208D01*
X149748890Y-72623776D02*
X146836322Y-69711208D01*
X143678590Y-69323708D02*
X142216090Y-67861208D01*
X146836322Y-69711208D02*
X143748890Y-69711208D01*
X148336322Y-76711208D02*
X149748890Y-75298640D01*
X146658940Y-76711208D02*
X148336322Y-76711208D01*
X144808940Y-74861208D02*
X146658940Y-76711208D01*
X143748890Y-69711208D02*
X143678590Y-69640908D01*
X143678590Y-69640908D02*
X143678590Y-69323708D01*
X149748890Y-75298640D02*
X149748890Y-72623776D01*
%TO.N,Net-(U3-PROG)*%
X147171390Y-66096208D02*
X149312240Y-66096208D01*
X145236390Y-64161208D02*
X147171390Y-66096208D01*
D45*
%TO.N,USB_N*%
X147755980Y-53216208D02*
X147886390Y-53216208D01*
X147488390Y-53483798D02*
X147755980Y-53216208D01*
X147488390Y-54091208D02*
X147488390Y-53483798D01*
X147886390Y-53216208D02*
X148220800Y-53216208D01*
X148488390Y-53483798D02*
X148488390Y-54091208D01*
X148220800Y-53216208D02*
X148488390Y-53483798D01*
X147886390Y-52711208D02*
X148036390Y-52561208D01*
X147886390Y-53216208D02*
X147886390Y-52711208D01*
%TO.N,USB_P*%
X148720800Y-54966208D02*
X148988390Y-54698618D01*
X148988390Y-54091208D02*
X148988390Y-52663208D01*
X148988390Y-52663208D02*
X148936390Y-52611208D01*
X148255980Y-54966208D02*
X148720800Y-54966208D01*
X148988390Y-54698618D02*
X148988390Y-54091208D01*
X147988390Y-54091208D02*
X147988390Y-54698618D01*
X147988390Y-54698618D02*
X148255980Y-54966208D01*
D44*
%TO.N,Net-(D6-A)*%
X173336390Y-57561208D02*
X173336390Y-62757008D01*
X173336390Y-62757008D02*
X173320590Y-62772808D01*
D45*
%TO.N,Col3*%
X157597990Y-61722808D02*
X156136390Y-60261208D01*
D44*
X158566790Y-95041608D02*
X158511390Y-94986208D01*
X158570590Y-75827008D02*
X161804408Y-72593190D01*
X158566790Y-132430808D02*
X158586390Y-132411208D01*
X158511390Y-94986208D02*
X158486390Y-94961208D01*
X158536390Y-109861208D02*
X158566790Y-109830808D01*
X158536390Y-128711208D02*
X158536390Y-128561208D01*
X158570590Y-88193189D02*
X158570590Y-80322808D01*
X160696422Y-63848640D02*
X158570590Y-61722808D01*
X158566790Y-98783608D02*
X158566790Y-95041608D01*
X161804408Y-72593190D02*
X161804408Y-64843189D01*
X158570590Y-80322808D02*
X158570590Y-75827008D01*
X158536390Y-128561208D02*
X158566790Y-128530808D01*
X158566790Y-109830808D02*
X158566790Y-98783608D01*
D45*
X158570590Y-61722808D02*
X157597990Y-61722808D01*
D44*
X160809859Y-63848640D02*
X160696422Y-63848640D01*
X158566790Y-135983608D02*
X158566790Y-132430808D01*
X161804408Y-64843189D02*
X160809859Y-63848640D01*
X158566790Y-117383608D02*
X158566790Y-113691608D01*
X158566790Y-113691608D02*
X158536390Y-113661208D01*
X158566790Y-128530808D02*
X158566790Y-117383608D01*
%TO.N,Net-(D8-A)*%
X173336390Y-76298708D02*
X173336390Y-81357008D01*
X173336390Y-81357008D02*
X173320590Y-81372808D01*
%TO.N,Col0*%
X102986390Y-81681054D02*
X103336390Y-82031054D01*
X105986390Y-57011208D02*
X102986390Y-60011208D01*
X102986390Y-60011208D02*
X102986390Y-81681054D01*
X102766790Y-135983608D02*
X102766790Y-117383608D01*
X103336390Y-98214008D02*
X102766790Y-98783608D01*
X107436390Y-57011208D02*
X105986390Y-57011208D01*
X103336390Y-82031054D02*
X103336390Y-98214008D01*
X102766790Y-117383608D02*
X102766790Y-98783608D01*
%TO.N,Col1*%
X121366790Y-126993189D02*
X121366790Y-117383608D01*
X116786390Y-82661208D02*
X115786390Y-81661208D01*
X121366790Y-98783608D02*
X121366790Y-96568712D01*
X115786390Y-81061208D02*
X109336390Y-74611208D01*
X121366790Y-132030808D02*
X121386390Y-132011208D01*
X115786390Y-81661208D02*
X115786390Y-81061208D01*
X119104408Y-88129226D02*
X121336390Y-90361208D01*
X121336390Y-90361208D02*
X121336390Y-91811208D01*
X119104408Y-87443189D02*
X119104408Y-88129226D01*
X109336390Y-74611208D02*
X109336390Y-65761208D01*
X117936390Y-82661208D02*
X116786390Y-82661208D01*
X121366790Y-117383608D02*
X121366790Y-113280808D01*
X121366790Y-109543189D02*
X121366790Y-98783608D01*
X121366790Y-113280808D02*
X121386390Y-113261208D01*
X109336390Y-65761208D02*
X109286390Y-65711208D01*
X121366790Y-96568712D02*
X121386390Y-96549112D01*
X121366790Y-135983608D02*
X121366790Y-132030808D01*
X121386390Y-96549112D02*
X121386390Y-94261208D01*
%TO.N,Col2*%
X119136390Y-64311208D02*
X119136390Y-64261208D01*
X139966790Y-98783608D02*
X139966790Y-94680808D01*
X139704408Y-90193189D02*
X139454408Y-90193189D01*
X121686390Y-70661208D02*
X119886390Y-68861208D01*
X119886390Y-65761208D02*
X119136390Y-65011208D01*
X139966790Y-113880808D02*
X140086390Y-113761208D01*
X139966790Y-135983608D02*
X139966790Y-132191608D01*
X140086390Y-109761208D02*
X139966790Y-109641608D01*
X135822427Y-86561208D02*
X135072427Y-86561208D01*
X119136390Y-65011208D02*
X119136390Y-64311208D01*
X119886390Y-68861208D02*
X119886390Y-65761208D01*
X139454408Y-90193189D02*
X135822427Y-86561208D01*
X139966790Y-109641608D02*
X139966790Y-98783608D01*
X125636390Y-70961208D02*
X125336390Y-70661208D01*
X126318371Y-83643189D02*
X125986390Y-83311208D01*
X139966790Y-94680808D02*
X139986390Y-94661208D01*
X125336390Y-70661208D02*
X121686390Y-70661208D01*
X139966790Y-117383608D02*
X139966790Y-113880808D01*
X132154408Y-83643189D02*
X126318371Y-83643189D01*
X135072427Y-86561208D02*
X132154408Y-83643189D01*
X139966790Y-127143189D02*
X139966790Y-117383608D01*
%TO.N,Col4*%
X177036390Y-91761208D02*
X177036390Y-91811208D01*
X123940985Y-70011208D02*
X126036390Y-70011208D01*
D46*
X192486390Y-81161207D02*
X188604408Y-85043189D01*
D44*
X177166790Y-132491608D02*
X177086390Y-132411208D01*
X173986390Y-89011208D02*
X177036390Y-89011208D01*
X177166790Y-94841608D02*
X177166790Y-98783608D01*
X121636390Y-69661208D02*
X122136390Y-70161208D01*
X135743496Y-86061208D02*
X156736390Y-86061208D01*
X128486390Y-82911208D02*
X132593496Y-82911208D01*
D46*
X192486390Y-78061208D02*
X192486390Y-81161207D01*
X188604408Y-85043189D02*
X188104408Y-85043189D01*
D44*
X170936390Y-86461208D02*
X171436390Y-86461208D01*
X177166790Y-110180808D02*
X177166790Y-98783608D01*
X170536390Y-86061208D02*
X170936390Y-86461208D01*
D46*
X187204408Y-85943189D02*
X180504408Y-85943189D01*
D44*
X171436390Y-86461208D02*
X173986390Y-89011208D01*
X177086390Y-94761208D02*
X177166790Y-94841608D01*
X177166790Y-127293189D02*
X177166790Y-117383608D01*
D46*
X180504408Y-85943189D02*
X177436389Y-89011208D01*
D44*
X177166790Y-117383608D02*
X177166790Y-113191608D01*
X127636390Y-82361208D02*
X127936390Y-82361208D01*
X177166790Y-113191608D02*
X177136390Y-113161208D01*
X126036390Y-70011208D02*
X126936390Y-70911208D01*
X119986390Y-65061208D02*
X121636390Y-66711208D01*
X119986390Y-64311208D02*
X119986390Y-65061208D01*
X160636390Y-86061208D02*
X170536390Y-86061208D01*
X121636390Y-66711208D02*
X121636390Y-69661208D01*
D46*
X177436389Y-89011208D02*
X177036390Y-89011208D01*
X188104408Y-85043189D02*
X187204408Y-85943189D01*
D44*
X123790985Y-70161208D02*
X123940985Y-70011208D01*
X132593496Y-82911208D02*
X135743496Y-86061208D01*
X122136390Y-70161208D02*
X123790985Y-70161208D01*
X127936390Y-82361208D02*
X128486390Y-82911208D01*
X177036390Y-89011208D02*
X177036390Y-91761208D01*
X177136390Y-110211208D02*
X177166790Y-110180808D01*
X177166790Y-135983608D02*
X177166790Y-132491608D01*
%TO.N,Net-(D28-A)*%
X191936390Y-132248708D02*
X191936390Y-137014008D01*
X191936390Y-137014008D02*
X191916790Y-137033608D01*
%TO.N,Rotary1B*%
X161010764Y-57586834D02*
X160986390Y-57562460D01*
X140586390Y-51111208D02*
X141586390Y-52111208D01*
X127186390Y-55411208D02*
X131486390Y-51111208D01*
X126836390Y-55411208D02*
X127186390Y-55411208D01*
X131486390Y-51111208D02*
X140586390Y-51111208D01*
%TO.N,Rotary1A*%
X173936390Y-48811208D02*
X177736390Y-52611208D01*
X177736390Y-52611208D02*
X177736390Y-54311208D01*
X141911390Y-48936208D02*
X127711390Y-48936208D01*
X155886390Y-48811208D02*
X173936390Y-48811208D01*
X126686390Y-49961208D02*
X126686390Y-50211208D01*
X155086390Y-49611208D02*
X155886390Y-48811208D01*
X126686390Y-50211208D02*
X126236390Y-50661208D01*
X127711390Y-48936208D02*
X126686390Y-49961208D01*
%TO.N,Rotary2B*%
X128086390Y-70861208D02*
X126236390Y-69011208D01*
X133779284Y-83261208D02*
X134086390Y-83261208D01*
X129036390Y-82011208D02*
X132529284Y-82011208D01*
X170336390Y-84961208D02*
X160636390Y-84961208D01*
X124836390Y-69011208D02*
X124586390Y-68761208D01*
X124586390Y-68411208D02*
X120836390Y-64661208D01*
X135786390Y-84961208D02*
X156736390Y-84961208D01*
X126236390Y-69011208D02*
X124836390Y-69011208D01*
X134086390Y-83261208D02*
X135786390Y-84961208D01*
X128886390Y-81861208D02*
X129036390Y-82011208D01*
X177986390Y-78061208D02*
X177986390Y-79957008D01*
X128886390Y-81261208D02*
X128886390Y-81861208D01*
X120836390Y-64661208D02*
X120836390Y-64311208D01*
X177986390Y-79957008D02*
X172982190Y-84961208D01*
X172982190Y-84961208D02*
X170336390Y-84961208D01*
X132529284Y-82011208D02*
X133779284Y-83261208D01*
X124586390Y-68761208D02*
X124586390Y-68411208D01*
%TO.N,Rotary2A*%
X133136390Y-81911208D02*
X135586390Y-81911208D01*
X126636390Y-67311208D02*
X124436390Y-67311208D01*
X164704408Y-79343189D02*
X168754408Y-79343189D01*
X132736390Y-81511208D02*
X133136390Y-81911208D01*
X127736390Y-68661208D02*
X127486390Y-68661208D01*
X172511390Y-73531613D02*
X173681795Y-72361208D01*
X121786390Y-64661208D02*
X121786390Y-64311208D01*
X127486390Y-68661208D02*
X126636390Y-67811208D01*
X173681795Y-72361208D02*
X175236390Y-72361208D01*
X169955590Y-78292007D02*
X172511390Y-75736207D01*
X175936390Y-73061208D02*
X177986390Y-73061208D01*
X124436390Y-67311208D02*
X121786390Y-64661208D01*
X168754408Y-79343189D02*
X169805590Y-78292007D01*
X126636390Y-67811208D02*
X126636390Y-67311208D01*
X135586390Y-81911208D02*
X137636390Y-83961208D01*
X160036390Y-77761208D02*
X163122427Y-77761208D01*
X130061390Y-79736208D02*
X131836390Y-81511208D01*
X137636390Y-83961208D02*
X145686390Y-83961208D01*
X129686390Y-71211208D02*
X129686390Y-70611208D01*
X169805590Y-78292007D02*
X169955590Y-78292007D01*
X131836390Y-81511208D02*
X132736390Y-81511208D01*
X129686390Y-70611208D02*
X127736390Y-68661208D01*
X151886390Y-77761208D02*
X156986390Y-77761208D01*
X175236390Y-72361208D02*
X175936390Y-73061208D01*
X163122427Y-77761208D02*
X164704408Y-79343189D01*
X172511390Y-75736207D02*
X172511390Y-73531613D01*
X145686390Y-83961208D02*
X151886390Y-77761208D01*
%TO.N,Row0*%
X157636390Y-49461208D02*
X171936390Y-49461208D01*
X156286390Y-50811208D02*
X157636390Y-49461208D01*
X127078485Y-52861208D02*
X129536390Y-50403303D01*
X173336390Y-50861208D02*
X173336390Y-55986208D01*
X187623890Y-57448708D02*
X189036390Y-57448708D01*
X126486390Y-52861208D02*
X127078485Y-52861208D01*
X173636390Y-55686208D02*
X185861390Y-55686208D01*
X173336390Y-55986208D02*
X173636390Y-55686208D01*
X129536390Y-50403303D02*
X129536390Y-50211208D01*
X185861390Y-55686208D02*
X187623890Y-57448708D01*
X171936390Y-49461208D02*
X173336390Y-50861208D01*
X129536390Y-50211208D02*
X141786390Y-50211208D01*
%TO.N,Row1*%
X128536390Y-55011208D02*
X130186390Y-55011208D01*
X173336390Y-74628608D02*
X173336390Y-74723708D01*
X173336390Y-73661208D02*
X173386390Y-73611208D01*
X131786390Y-56611208D02*
X138436390Y-56611208D01*
X187411390Y-74436208D02*
X177520399Y-74436208D01*
X127036390Y-56511208D02*
X128536390Y-55011208D01*
X177520399Y-74436208D02*
X177395399Y-74561208D01*
X189236390Y-76261208D02*
X187411390Y-74436208D01*
X173498890Y-74561208D02*
X173336390Y-74723708D01*
X189286390Y-76261208D02*
X189236390Y-76261208D01*
X173336390Y-74723708D02*
X173336390Y-73661208D01*
X177395399Y-74561208D02*
X173498890Y-74561208D01*
X130186390Y-55011208D02*
X131786390Y-56611208D01*
%TO.N,Row2*%
X108186390Y-60961208D02*
X108186390Y-75961208D01*
X131786390Y-97061208D02*
X135523890Y-93323708D01*
X146636390Y-97211208D02*
X150486390Y-97211208D01*
X154186390Y-93511208D02*
X154736390Y-93511208D01*
X183886390Y-97061208D02*
X187786390Y-97061208D01*
X154736390Y-93511208D02*
X161736390Y-93511208D01*
X169586390Y-97161208D02*
X173323890Y-93423708D01*
X161736390Y-93511208D02*
X165236390Y-97011208D01*
X165236390Y-97011208D02*
X165736390Y-97011208D01*
X150486390Y-97211208D02*
X154186390Y-93511208D01*
X135986390Y-93323708D02*
X142748890Y-93323708D01*
X187786390Y-97061208D02*
X191323890Y-93523708D01*
X135523890Y-93323708D02*
X135986390Y-93323708D01*
X123998890Y-93023708D02*
X128036390Y-97061208D01*
X180248890Y-93423708D02*
X183886390Y-97061208D01*
X117536390Y-93023708D02*
X123998890Y-93023708D01*
X165886390Y-97161208D02*
X169586390Y-97161208D01*
X173336390Y-93423708D02*
X180248890Y-93423708D01*
X165736390Y-97011208D02*
X165886390Y-97161208D01*
X108186390Y-75961208D02*
X114386390Y-82161208D01*
X191323890Y-93523708D02*
X191936390Y-93523708D01*
X117536390Y-87393189D02*
X117536390Y-93023708D01*
X107386390Y-60161208D02*
X108186390Y-60961208D01*
X173323890Y-93423708D02*
X173336390Y-93423708D01*
X107386390Y-59761208D02*
X107386390Y-60161208D01*
X128036390Y-97061208D02*
X131786390Y-97061208D01*
X142748890Y-93323708D02*
X146636390Y-97211208D01*
%TO.N,Row3*%
X188336390Y-115811208D02*
X188336390Y-115261208D01*
X104086390Y-61161208D02*
X104086390Y-81366842D01*
X106386390Y-58861208D02*
X104086390Y-61161208D01*
X183736390Y-115811208D02*
X188336390Y-115811208D01*
X135736390Y-111711208D02*
X136086390Y-111711208D01*
X146936390Y-115811208D02*
X150336390Y-115811208D01*
X188336390Y-115261208D02*
X191936390Y-111661208D01*
X117486390Y-106411208D02*
X117486390Y-111711208D01*
X142536390Y-111711208D02*
X146436390Y-115611208D01*
X107386390Y-58861208D02*
X106386390Y-58861208D01*
X117486390Y-111711208D02*
X123836390Y-111711208D01*
X146736390Y-115611208D02*
X146936390Y-115811208D01*
X123836390Y-111711208D02*
X127986390Y-115861208D01*
X154611390Y-111536208D02*
X154786390Y-111536208D01*
X105386390Y-82666842D02*
X105386390Y-94311208D01*
X168536390Y-115811208D02*
X172723890Y-111623708D01*
X136086390Y-111711208D02*
X142536390Y-111711208D01*
X179548890Y-111623708D02*
X183736390Y-115811208D01*
X104086390Y-81366842D02*
X105386390Y-82666842D01*
X172723890Y-111623708D02*
X173336390Y-111623708D01*
X161011390Y-111536208D02*
X165286390Y-115811208D01*
X131586390Y-115861208D02*
X135736390Y-111711208D01*
X127986390Y-115861208D02*
X131586390Y-115861208D01*
X165286390Y-115811208D02*
X168536390Y-115811208D01*
X146436390Y-115611208D02*
X146736390Y-115611208D01*
X150336390Y-115811208D02*
X154611390Y-111536208D01*
X154786390Y-111536208D02*
X161011390Y-111536208D01*
X105386390Y-94311208D02*
X117486390Y-106411208D01*
X173336390Y-111623708D02*
X179548890Y-111623708D01*
D46*
%TO.N,Net-(D40-A)*%
X190673890Y-55873708D02*
X192236390Y-54311208D01*
X189036390Y-55873708D02*
X190673890Y-55873708D01*
D44*
%TO.N,Net-(D41-A)*%
X189236390Y-74686208D02*
X188901340Y-74351158D01*
D46*
X189236390Y-74686208D02*
X190861390Y-74686208D01*
X190861390Y-74686208D02*
X192486390Y-73061208D01*
D44*
%TO.N,Row4*%
X146686390Y-134361208D02*
X150436390Y-134361208D01*
X191123890Y-130673708D02*
X191936390Y-130673708D01*
X190936390Y-131761208D02*
X190936390Y-130861208D01*
X109815718Y-134243608D02*
X104731790Y-129159680D01*
X150436390Y-134361208D02*
X153936390Y-130861208D01*
X188436390Y-134261208D02*
X190936390Y-131761208D01*
X173336390Y-130823708D02*
X180298890Y-130823708D01*
X154686390Y-130861208D02*
X161586390Y-130861208D01*
X117586390Y-130661208D02*
X114003990Y-134243608D01*
X136086390Y-130623708D02*
X142948890Y-130623708D01*
X131736390Y-134361208D02*
X135473890Y-130623708D01*
X164968790Y-134243608D02*
X168803990Y-134243608D01*
X135473890Y-130623708D02*
X136086390Y-130623708D01*
X190936390Y-130861208D02*
X191123890Y-130673708D01*
X168803990Y-134243608D02*
X172223890Y-130823708D01*
X114003990Y-134243608D02*
X109815718Y-134243608D01*
X183736390Y-134261208D02*
X188436390Y-134261208D01*
X142948890Y-130623708D02*
X146686390Y-134361208D01*
X124236390Y-130661208D02*
X127936390Y-134361208D01*
X117586390Y-130661208D02*
X124236390Y-130661208D01*
X180298890Y-130823708D02*
X183736390Y-134261208D01*
X161586390Y-130861208D02*
X164968790Y-134243608D01*
X172223890Y-130823708D02*
X173336390Y-130823708D01*
X153936390Y-130861208D02*
X154686390Y-130861208D01*
X127936390Y-134361208D02*
X131736390Y-134361208D01*
%TO.N,GPIO16*%
X141186390Y-73011208D02*
X142136390Y-73961208D01*
X129536390Y-68661208D02*
X132636390Y-71761208D01*
X140673958Y-75711208D02*
X140248890Y-75286140D01*
X141236390Y-70911208D02*
X140986390Y-70661208D01*
X135186390Y-71761208D02*
X136736390Y-73311208D01*
X142136390Y-75411208D02*
X141836390Y-75711208D01*
X135286389Y-71761208D02*
X136104408Y-70943189D01*
X142136390Y-73961208D02*
X142136390Y-75411208D01*
X141186390Y-73011208D02*
X141186390Y-70961208D01*
X129536390Y-67773708D02*
X129536390Y-68661208D01*
X141836390Y-75711208D02*
X140673958Y-75711208D01*
X132636390Y-71761208D02*
X135186390Y-71761208D01*
X140248890Y-74611208D02*
X140248890Y-75286140D01*
X136736390Y-73311208D02*
X136736390Y-74260008D01*
X139897690Y-74260008D02*
X140248890Y-74611208D01*
X136736390Y-74260008D02*
X139897690Y-74260008D01*
X135186390Y-71761208D02*
X135286389Y-71761208D01*
X141186390Y-70961208D02*
X141236390Y-70911208D01*
D45*
%TO.N,Net-(D11-DIN)*%
X159604408Y-89543189D02*
X156404408Y-89543189D01*
X163347427Y-77136208D02*
X159777506Y-77136208D01*
X167904408Y-78743189D02*
X164954408Y-78743189D01*
X160154408Y-78843189D02*
X160154408Y-84559306D01*
X108354408Y-84993189D02*
X106754408Y-86593189D01*
X132320094Y-84993189D02*
X108354408Y-84993189D01*
X108216409Y-90193189D02*
X108476590Y-89933008D01*
X106754408Y-89743189D02*
X107204408Y-90193189D01*
X141004408Y-91293189D02*
X138620094Y-91293189D01*
X171724090Y-70678008D02*
X171724090Y-74923507D01*
X159411390Y-77502324D02*
X159411390Y-78100171D01*
X159411390Y-78100171D02*
X160154408Y-78843189D01*
X164954408Y-78743189D02*
X163347427Y-77136208D01*
X159777506Y-77136208D02*
X159411390Y-77502324D01*
X106754408Y-86593189D02*
X106754408Y-89743189D01*
X107204408Y-90193189D02*
X108216409Y-90193189D01*
X141004408Y-90743189D02*
X141004408Y-91293189D01*
X160154408Y-84559306D02*
X159604408Y-85109306D01*
X156404408Y-89543189D02*
X153694827Y-86833608D01*
X170624090Y-69578008D02*
X171724090Y-70678008D01*
X144913989Y-86833608D02*
X141004408Y-90743189D01*
X171724090Y-74923507D02*
X167904408Y-78743189D01*
X138620094Y-91293189D02*
X132320094Y-84993189D01*
X153694827Y-86833608D02*
X144913989Y-86833608D01*
X159604408Y-85109306D02*
X159604408Y-89543189D01*
%TO.N,Net-(D10-DOUT)*%
X134944227Y-88183008D02*
X139154408Y-92393189D01*
X139154408Y-92393189D02*
X143216409Y-92393189D01*
X143216409Y-92393189D02*
X145676590Y-89933008D01*
X133376590Y-88183008D02*
X134944227Y-88183008D01*
%TO.N,Net-(D22-DIN)*%
X151976590Y-88183008D02*
X153394227Y-88183008D01*
X153394227Y-88183008D02*
X157754408Y-92543189D01*
X161708909Y-92543189D02*
X164324090Y-89928008D01*
X157754408Y-92543189D02*
X161708909Y-92543189D01*
%TO.N,Net-(D10-DIN)*%
X116266409Y-86693189D02*
X121954408Y-86693189D01*
X127016409Y-89993189D02*
X127076590Y-89933008D01*
X125254408Y-89993189D02*
X127016409Y-89993189D01*
X121954408Y-86693189D02*
X125254408Y-89993189D01*
X114776590Y-88183008D02*
X116266409Y-86693189D01*
%TO.N,Net-(D12-DOUT)*%
X171694227Y-106783008D02*
X170576590Y-106783008D01*
X175104408Y-110843189D02*
X172354408Y-108093189D01*
X172354408Y-107493189D02*
X171804408Y-106943189D01*
X172354408Y-108093189D02*
X172354408Y-107493189D01*
X180464589Y-108533008D02*
X178154408Y-110843189D01*
X182876590Y-108533008D02*
X180464589Y-108533008D01*
X171804408Y-106943189D02*
X171804408Y-106893189D01*
X171804408Y-106893189D02*
X171694227Y-106783008D01*
X178154408Y-110843189D02*
X175104408Y-110843189D01*
%TO.N,Net-(D17-DIN)*%
X175136771Y-129943189D02*
X179954408Y-129943189D01*
X170576590Y-125383008D02*
X175136771Y-129943189D01*
X179954408Y-129943189D02*
X182764589Y-127133008D01*
X182764589Y-127133008D02*
X182876590Y-127133008D01*
%TO.N,Net-(D18-DIN)*%
X158054408Y-130243189D02*
X162304408Y-130243189D01*
X162304408Y-130243189D02*
X164276590Y-128271007D01*
X164276590Y-128271007D02*
X164276590Y-127133008D01*
X153194227Y-125383008D02*
X158054408Y-130243189D01*
X151976590Y-125383008D02*
X153194227Y-125383008D01*
%TO.N,Net-(D19-DIN)*%
X134744227Y-125383008D02*
X139254408Y-129893189D01*
X145014589Y-127133008D02*
X145676590Y-127133008D01*
X139254408Y-129893189D02*
X142254408Y-129893189D01*
X133376590Y-125383008D02*
X134744227Y-125383008D01*
X142254408Y-129893189D02*
X145014589Y-127133008D01*
%TO.N,Net-(D20-DIN)*%
X116194227Y-125383008D02*
X120254408Y-129443189D01*
X124766409Y-129443189D02*
X127076590Y-127133008D01*
X120254408Y-129443189D02*
X124766409Y-129443189D01*
X114776590Y-125383008D02*
X116194227Y-125383008D01*
%TO.N,Net-(D22-DOUT)*%
X181769589Y-89928008D02*
X182924090Y-89928008D01*
X176354408Y-92393189D02*
X179304408Y-92393189D01*
X179304408Y-92393189D02*
X181769589Y-89928008D01*
X170624090Y-88178008D02*
X172139227Y-88178008D01*
X172139227Y-88178008D02*
X176354408Y-92393189D01*
%TO.N,LED_GPIO*%
X164324090Y-52778008D02*
X160469589Y-52778008D01*
X160469589Y-52778008D02*
X160104408Y-53143189D01*
X160104408Y-53143189D02*
X160104408Y-55343189D01*
%TO.N,Net-(D13-DOUT)*%
X153044227Y-106783008D02*
X151976590Y-106783008D01*
X164276590Y-108533008D02*
X161514589Y-108533008D01*
X161514589Y-108533008D02*
X159404408Y-110643189D01*
X156904408Y-110643189D02*
X153044227Y-106783008D01*
X159404408Y-110643189D02*
X156904408Y-110643189D01*
%TO.N,Net-(D14-DOUT)*%
X141704408Y-110843189D02*
X138304408Y-110843189D01*
X138304408Y-110843189D02*
X134244227Y-106783008D01*
X144014589Y-108533008D02*
X141704408Y-110843189D01*
X134244227Y-106783008D02*
X133376590Y-106783008D01*
X145676590Y-108533008D02*
X144014589Y-108533008D01*
%TO.N,Net-(D15-DOUT)*%
X125214589Y-108533008D02*
X122604408Y-111143189D01*
X116554408Y-107393189D02*
X115944227Y-106783008D01*
X119504408Y-111143189D02*
X119454408Y-111093189D01*
X119454408Y-109443189D02*
X118854408Y-108843189D01*
X119454408Y-111093189D02*
X119454408Y-109443189D01*
X127076590Y-108533008D02*
X125214589Y-108533008D01*
X122604408Y-111143189D02*
X119504408Y-111143189D01*
X115944227Y-106783008D02*
X114776590Y-106783008D01*
%TO.N,Net-(D16-DOUT)*%
X108131790Y-114970571D02*
X109804408Y-116643189D01*
X108476590Y-108533008D02*
X108131790Y-108877808D01*
X109804408Y-119293189D02*
X105754408Y-123343189D01*
X106294227Y-127133008D02*
X108476590Y-127133008D01*
X108131790Y-108877808D02*
X108131790Y-114970571D01*
X105754408Y-126593189D02*
X106294227Y-127133008D01*
X105754408Y-123343189D02*
X105754408Y-126593189D01*
X109804408Y-116643189D02*
X109804408Y-119293189D01*
D44*
%TO.N,Net-(D27-A)*%
X173336390Y-132398708D02*
X173336390Y-137014008D01*
X173336390Y-137014008D02*
X173316790Y-137033608D01*
%TO.N,Net-(D31-A)*%
X154686390Y-137003208D02*
X154716790Y-137033608D01*
X154686390Y-132436208D02*
X154686390Y-137003208D01*
%TO.N,Net-(D32-A)*%
X136086390Y-137003208D02*
X136116790Y-137033608D01*
X136086390Y-132198708D02*
X136086390Y-137003208D01*
%TO.N,Net-(D33-A)*%
X117586390Y-136964008D02*
X117516790Y-137033608D01*
X117586390Y-132236208D02*
X117586390Y-136964008D01*
%TO.N,Net-(D26-A)*%
X173336390Y-118414008D02*
X173316790Y-118433608D01*
X173336390Y-113198708D02*
X173336390Y-118414008D01*
%TO.N,Net-(D29-A)*%
X191936390Y-113236208D02*
X191936390Y-118414008D01*
X191936390Y-118414008D02*
X191916790Y-118433608D01*
%TO.N,Net-(D36-A)*%
X154786390Y-113111208D02*
X154786390Y-118364008D01*
X154786390Y-118364008D02*
X154716790Y-118433608D01*
%TO.N,Net-(D34-A)*%
X136086390Y-113286208D02*
X136086390Y-118403208D01*
X136086390Y-118403208D02*
X136116790Y-118433608D01*
%TO.N,Net-(D35-A)*%
X117486390Y-113286208D02*
X117486390Y-118403208D01*
X117486390Y-118403208D02*
X117516790Y-118433608D01*
%TO.N,Net-(D30-A)*%
X191936390Y-99814008D02*
X191916790Y-99833608D01*
%TO.N,Net-(D25-A)*%
X173336390Y-99814008D02*
X173316790Y-99833608D01*
X173336390Y-94998708D02*
X173336390Y-99814008D01*
%TO.N,Net-(D39-A)*%
X154736390Y-99814008D02*
X154716790Y-99833608D01*
X154736390Y-95086208D02*
X154736390Y-99814008D01*
%TO.N,Net-(D38-A)*%
X135986390Y-94898708D02*
X135986390Y-99703208D01*
X135986390Y-99703208D02*
X136116790Y-99833608D01*
%TO.N,Net-(D37-A)*%
X117536390Y-99814008D02*
X117516790Y-99833608D01*
X117536390Y-94598708D02*
X117536390Y-99814008D01*
%TO.N,Net-(U7-VC)*%
X138036390Y-79061208D02*
X136736390Y-77761208D01*
X143011390Y-82136208D02*
X141886390Y-83261208D01*
X141886390Y-83261208D02*
X140036390Y-83261208D01*
X138036390Y-81261208D02*
X138036390Y-79061208D01*
X143011390Y-81811208D02*
X143011390Y-82136208D01*
X140036390Y-83261208D02*
X138036390Y-81261208D01*
X136736390Y-77761208D02*
X136736390Y-77511208D01*
%TO.N,Net-(U7-RT)*%
X132304090Y-78528908D02*
X132836390Y-79061208D01*
X132836390Y-79061208D02*
X134686390Y-79061208D01*
X135448890Y-79823708D02*
X135448890Y-80711208D01*
X132304090Y-77511208D02*
X132304090Y-78528908D01*
X134686390Y-79061208D02*
X135448890Y-79823708D01*
%TO.N,Net-(U6-CS)*%
X139698890Y-69899946D02*
X136710152Y-66911208D01*
X136710152Y-66911208D02*
X136286390Y-66911208D01*
X141148890Y-74861208D02*
X141148890Y-74573708D01*
X139698890Y-73123708D02*
X139698890Y-69899946D01*
X141148890Y-74573708D02*
X139698890Y-73123708D01*
D46*
%TO.N,Net-(U7-SW2)*%
X120286390Y-75561208D02*
X123486390Y-72361208D01*
X123486390Y-72361208D02*
X130736390Y-72361208D01*
X132304090Y-73928908D02*
X132304090Y-74244348D01*
X130736390Y-72361208D02*
X132304090Y-73928908D01*
D44*
%TO.N,Net-(U7-SW1)*%
X132253370Y-75611208D02*
X132304090Y-75560488D01*
D46*
X120286390Y-80260208D02*
X123787390Y-80260208D01*
X128805019Y-75611208D02*
X129636390Y-75611208D01*
X128155019Y-76261208D02*
X128805019Y-75611208D01*
X127786390Y-76261208D02*
X128155019Y-76261208D01*
X123787390Y-80260208D02*
X127786390Y-76261208D01*
D44*
X129636390Y-75611208D02*
X132253370Y-75611208D01*
%TO.N,Net-(D2-K)*%
X156051390Y-64826208D02*
X154760540Y-64826208D01*
X158461390Y-67461208D02*
X158136390Y-67461208D01*
X157086390Y-66411208D02*
X157086390Y-66211208D01*
X158136390Y-67461208D02*
X157086390Y-66411208D01*
X156636390Y-65761208D02*
X156636390Y-65411208D01*
X156636390Y-65411208D02*
X156051390Y-64826208D01*
X157086390Y-66211208D02*
X156636390Y-65761208D01*
%TO.N,Net-(D2-A)*%
X160211390Y-67461208D02*
X160211390Y-65511208D01*
%TO.N,Net-(D1-K)*%
X156286390Y-66461208D02*
X155921390Y-66096208D01*
X155921390Y-66096208D02*
X154760540Y-66096208D01*
X157111390Y-74111208D02*
X157111390Y-67996208D01*
X157111390Y-67996208D02*
X156286390Y-67171208D01*
X156286390Y-67171208D02*
X156286390Y-66461208D01*
%TO.N,Net-(D1-A)*%
X161254408Y-71343190D02*
X161254408Y-65043189D01*
X160559859Y-64348640D02*
X158072350Y-64348640D01*
X144336390Y-51061208D02*
X139736390Y-55661208D01*
X152376340Y-51061208D02*
X144336390Y-51061208D01*
X139736390Y-55661208D02*
X139736390Y-59211208D01*
X161254408Y-65043189D02*
X160559859Y-64348640D01*
X154486390Y-53171258D02*
X152376340Y-51061208D01*
X155361390Y-74111208D02*
X156186390Y-74936208D01*
X154486390Y-60125180D02*
X154486390Y-53171258D01*
X140298890Y-59773708D02*
X140836390Y-59773708D01*
X156186390Y-74936208D02*
X157661390Y-74936208D01*
X155360540Y-60999330D02*
X154486390Y-60125180D01*
X155360540Y-61636830D02*
X155360540Y-60999330D01*
X157661390Y-74936208D02*
X161254408Y-71343190D01*
X158072350Y-64348640D02*
X155360540Y-61636830D01*
X139736390Y-59211208D02*
X140298890Y-59773708D01*
%TO.N,Net-(U7-FB)*%
X148861390Y-74861208D02*
X148861390Y-73061208D01*
X143654408Y-70911208D02*
X146711390Y-70911208D01*
X142061390Y-78886208D02*
X146297427Y-78886208D01*
X144854408Y-71593189D02*
X144336389Y-71593189D01*
X146711390Y-70911208D02*
X148861390Y-73061208D01*
X137753140Y-77941921D02*
X137753140Y-76945308D01*
X143061390Y-70911208D02*
X143654408Y-70911208D01*
X141236390Y-79711208D02*
X139522427Y-79711208D01*
X139522427Y-79711208D02*
X137753140Y-77941921D01*
X144336389Y-71593189D02*
X143654408Y-70911208D01*
X137668800Y-76860968D02*
X136736390Y-76860968D01*
X146297427Y-78886208D02*
X146554408Y-79143189D01*
X141236390Y-79711208D02*
X142061390Y-78886208D01*
X137753140Y-76945308D02*
X137668800Y-76860968D01*
%TO.N,Net-(C8-Pad1)*%
X147036390Y-73061208D02*
X142961390Y-73061208D01*
X142961390Y-73061208D02*
X142911390Y-73011208D01*
%TO.N,Net-(D30-A)*%
X191936390Y-95098708D02*
X191936390Y-99814008D01*
D45*
%TO.N,Net-(D12-DIN)*%
X189176590Y-106121007D02*
X189176590Y-106783008D01*
X193491790Y-101805807D02*
X189176590Y-106121007D01*
X193491790Y-90330571D02*
X193491790Y-101805807D01*
X191339227Y-88178008D02*
X193491790Y-90330571D01*
X189224090Y-88178008D02*
X191339227Y-88178008D01*
D44*
%TO.N,Row4*%
X104731790Y-95239826D02*
X104731790Y-129159680D01*
%TD*%
M02*
