%TF.GenerationSoftware,KiCad,Pcbnew,8.0.6*%
%TF.CreationDate,2025-02-04T14:09:59-07:00*%
%TF.ProjectId,Modular MacroPad,4d6f6475-6c61-4722-904d-6163726f5061,rev?*%
%TF.SameCoordinates,Original*%
%TF.FileFunction,Paste,Top*%
%TF.FilePolarity,Positive*%
%FSLAX46Y46*%
G04 Gerber Fmt 4.6, Leading zero omitted, Abs format (unit mm)*
G04 Created by KiCad (PCBNEW 8.0.6) date 2025-02-04 14:09:59*
%MOMM*%
%LPD*%
G01*
G04 APERTURE LIST*
G04 Aperture macros list*
%AMRoundRect*
0 Rectangle with rounded corners*
0 $1 Rounding radius*
0 $2 $3 $4 $5 $6 $7 $8 $9 X,Y pos of 4 corners*
0 Add a 4 corners polygon primitive as box body*
4,1,4,$2,$3,$4,$5,$6,$7,$8,$9,$2,$3,0*
0 Add four circle primitives for the rounded corners*
1,1,$1+$1,$2,$3*
1,1,$1+$1,$4,$5*
1,1,$1+$1,$6,$7*
1,1,$1+$1,$8,$9*
0 Add four rect primitives between the rounded corners*
20,1,$1+$1,$2,$3,$4,$5,0*
20,1,$1+$1,$4,$5,$6,$7,0*
20,1,$1+$1,$6,$7,$8,$9,0*
20,1,$1+$1,$8,$9,$2,$3,0*%
%AMOutline5P*
0 Free polygon, 5 corners , with rotation*
0 The origin of the aperture is its center*
0 number of corners: always 5*
0 $1 to $10 corner X, Y*
0 $11 Rotation angle, in degrees counterclockwise*
0 create outline with 5 corners*
4,1,5,$1,$2,$3,$4,$5,$6,$7,$8,$9,$10,$1,$2,$11*%
%AMOutline6P*
0 Free polygon, 6 corners , with rotation*
0 The origin of the aperture is its center*
0 number of corners: always 6*
0 $1 to $12 corner X, Y*
0 $13 Rotation angle, in degrees counterclockwise*
0 create outline with 6 corners*
4,1,6,$1,$2,$3,$4,$5,$6,$7,$8,$9,$10,$11,$12,$1,$2,$13*%
%AMOutline7P*
0 Free polygon, 7 corners , with rotation*
0 The origin of the aperture is its center*
0 number of corners: always 7*
0 $1 to $14 corner X, Y*
0 $15 Rotation angle, in degrees counterclockwise*
0 create outline with 7 corners*
4,1,7,$1,$2,$3,$4,$5,$6,$7,$8,$9,$10,$11,$12,$13,$14,$1,$2,$15*%
%AMOutline8P*
0 Free polygon, 8 corners , with rotation*
0 The origin of the aperture is its center*
0 number of corners: always 8*
0 $1 to $16 corner X, Y*
0 $17 Rotation angle, in degrees counterclockwise*
0 create outline with 8 corners*
4,1,8,$1,$2,$3,$4,$5,$6,$7,$8,$9,$10,$11,$12,$13,$14,$15,$16,$1,$2,$17*%
G04 Aperture macros list end*
%ADD10R,1.300000X0.300000*%
%ADD11R,2.200000X1.900000*%
%ADD12RoundRect,0.237500X-0.250000X-0.237500X0.250000X-0.237500X0.250000X0.237500X-0.250000X0.237500X0*%
%ADD13RoundRect,0.237500X-0.237500X0.300000X-0.237500X-0.300000X0.237500X-0.300000X0.237500X0.300000X0*%
%ADD14RoundRect,0.237500X0.250000X0.237500X-0.250000X0.237500X-0.250000X-0.237500X0.250000X-0.237500X0*%
%ADD15R,0.800000X0.400000*%
%ADD16R,0.400000X0.800000*%
%ADD17Outline5P,-0.600000X0.204000X-0.204000X0.600000X0.600000X0.600000X0.600000X-0.600000X-0.600000X-0.600000X0.000000*%
%ADD18R,1.200000X1.200000*%
%ADD19R,0.800000X0.800000*%
%ADD20RoundRect,0.237500X-0.300000X-0.237500X0.300000X-0.237500X0.300000X0.237500X-0.300000X0.237500X0*%
%ADD21RoundRect,0.237500X0.237500X-0.250000X0.237500X0.250000X-0.237500X0.250000X-0.237500X-0.250000X0*%
G04 APERTURE END LIST*
D10*
%TO.C,J7*%
X152224180Y-70095216D03*
X152224180Y-69595216D03*
X152224180Y-69095216D03*
X152224180Y-68595216D03*
X152224180Y-68095216D03*
X152224180Y-67595216D03*
X152224180Y-67095216D03*
X152224180Y-66595216D03*
X152224180Y-66095216D03*
X152224180Y-65595216D03*
X152224180Y-65095216D03*
X152224180Y-64595216D03*
X152224180Y-64095216D03*
X152224180Y-63595216D03*
X152224180Y-63095216D03*
X152224180Y-62595216D03*
X152224180Y-62095216D03*
X152224180Y-61595216D03*
D11*
X148974180Y-59645216D03*
X148974180Y-72045216D03*
%TD*%
D12*
%TO.C,R19*%
X130623890Y-69111208D03*
X132448890Y-69111208D03*
%TD*%
D13*
%TO.C,C11*%
X128173890Y-49998708D03*
X128173890Y-51723708D03*
%TD*%
D14*
%TO.C,R21*%
X130161390Y-61161208D03*
X128336390Y-61161208D03*
%TD*%
D12*
%TO.C,R18*%
X136131866Y-59109608D03*
X137956866Y-59109608D03*
%TD*%
D15*
%TO.C,U4*%
X110436390Y-49861208D03*
X110436390Y-50711208D03*
X110436390Y-51561208D03*
X110436390Y-52411208D03*
X110436390Y-53261208D03*
X110436390Y-54111208D03*
X110436390Y-54961208D03*
X110436390Y-55811208D03*
X110436390Y-56661208D03*
X110436390Y-57511208D03*
X110436390Y-58361208D03*
X110436390Y-59211208D03*
X110436390Y-60061208D03*
X110436390Y-60911208D03*
X110436390Y-61761208D03*
D16*
X111486390Y-62811208D03*
X112336390Y-62811208D03*
X113186390Y-62811208D03*
X114036390Y-62811208D03*
X114886390Y-62811208D03*
X115736390Y-62811208D03*
X116586390Y-62811208D03*
X117436390Y-62811208D03*
X118286390Y-62811208D03*
X119136390Y-62811208D03*
X119986390Y-62811208D03*
X120836390Y-62811208D03*
X121686390Y-62811208D03*
X122536390Y-62811208D03*
X123386390Y-62811208D03*
D15*
X124436390Y-61761208D03*
X124436390Y-60911208D03*
X124436390Y-60061208D03*
X124436390Y-59211208D03*
X124436390Y-58361208D03*
X124436390Y-57511208D03*
X124436390Y-56661208D03*
X124436390Y-55811208D03*
X124436390Y-54961208D03*
X124436390Y-54111208D03*
X124436390Y-53261208D03*
X124436390Y-52411208D03*
X124436390Y-51561208D03*
X124436390Y-50711208D03*
X124436390Y-49861208D03*
D16*
X123386390Y-48811208D03*
X122536390Y-48811208D03*
X121686390Y-48811208D03*
X120836390Y-48811208D03*
X119986390Y-48811208D03*
X119136390Y-48811208D03*
X118286390Y-48811208D03*
X117436390Y-48811208D03*
X116586390Y-48811208D03*
X115736390Y-48811208D03*
X114886390Y-48811208D03*
X114036390Y-48811208D03*
X113186390Y-48811208D03*
X112336390Y-48811208D03*
X111486390Y-48811208D03*
D17*
X115786390Y-54161208D03*
D18*
X115786390Y-55811208D03*
X115786390Y-57461208D03*
X117436390Y-54161208D03*
X117436390Y-55811208D03*
X117436390Y-57461208D03*
X119086390Y-54161208D03*
X119086390Y-55811208D03*
X119086390Y-57461208D03*
D19*
X110436390Y-48811208D03*
X110436390Y-62811208D03*
X124436390Y-62811208D03*
X124436390Y-48811208D03*
%TD*%
D20*
%TO.C,C13*%
X133411290Y-53664208D03*
X135136290Y-53664208D03*
%TD*%
D13*
%TO.C,C14*%
X107036390Y-52448708D03*
X107036390Y-54173708D03*
%TD*%
D20*
%TO.C,C12*%
X133486390Y-51987808D03*
X135211390Y-51987808D03*
%TD*%
D21*
%TO.C,R1*%
X114480980Y-68161208D03*
X114480980Y-66336208D03*
%TD*%
D12*
%TO.C,R20*%
X130673890Y-66611208D03*
X132498890Y-66611208D03*
%TD*%
D14*
%TO.C,R23*%
X130148890Y-59411208D03*
X128323890Y-59411208D03*
%TD*%
M02*
