M48
; DRILL file {KiCad 8.0.6} date 2025-02-04T14:10:03-0700
; FORMAT={-:-/ absolute / metric / decimal}
; #@! TF.CreationDate,2025-02-04T14:10:03-07:00
; #@! TF.GenerationSoftware,Kicad,Pcbnew,8.0.6
; #@! TF.FileFunction,Plated,1,4,PTH
FMAT,2
METRIC
; #@! TA.AperFunction,Plated,PTH,ViaDrill
T1C0.250
; #@! TA.AperFunction,Plated,PTH,ViaDrill
T2C0.300
; #@! TA.AperFunction,Plated,PTH,ComponentDrill
T3C0.600
; #@! TA.AperFunction,Plated,PTH,ComponentDrill
T4C0.800
; #@! TA.AperFunction,Plated,PTH,ComponentDrill
T5C1.000
; #@! TA.AperFunction,Plated,PTH,ComponentDrill
T6C2.000
%
G90
G05
T1
X105.961Y-65.949
X106.632Y-67.219
X106.632Y-70.216
X107.386Y-57.961
X107.386Y-58.861
X107.386Y-59.761
X107.436Y-57.011
X107.506Y-67.229
X107.506Y-70.181
X108.186Y-54.111
X108.41Y-67.219
X108.41Y-70.14
X109.35Y-67.194
X109.35Y-70.115
X110.239Y-67.194
X110.239Y-70.089
X110.436Y-64.111
X111.204Y-67.194
X111.204Y-70.089
X111.586Y-49.961
X111.636Y-50.761
X112.054Y-67.194
X112.068Y-70.064
X112.486Y-49.911
X112.932Y-67.194
X112.957Y-70.039
X113.286Y-49.911
X114.036Y-49.911
X114.386Y-82.161
X114.436Y-55.861
X114.436Y-57.461
X114.486Y-54.261
X114.886Y-49.911
X115.686Y-49.911
X115.836Y-52.811
X115.836Y-58.711
X116.586Y-49.911
X117.388Y-65.008
X117.436Y-49.911
X117.436Y-52.711
X117.486Y-58.761
X117.536Y-87.393
X117.936Y-82.661
X118.036Y-55.811
X118.286Y-49.911
X118.286Y-65.011
X119.086Y-52.811
X119.104Y-87.443
X119.136Y-49.911
X119.136Y-64.311
X119.186Y-58.761
X119.986Y-49.911
X119.986Y-64.311
X120.336Y-55.861
X120.386Y-54.211
X120.436Y-57.461
X120.836Y-49.911
X120.836Y-64.311
X121.336Y-91.811
X121.367Y-109.543
X121.367Y-126.993
X121.386Y-94.261
X121.386Y-113.261
X121.386Y-132.011
X121.686Y-49.911
X121.786Y-64.311
X122.536Y-49.861
X123.386Y-49.861
X123.436Y-51.611
X123.436Y-52.411
X124.436Y-64.111
X125.636Y-70.961
X125.986Y-83.311
X126.236Y-50.661
X126.486Y-52.861
X126.836Y-55.411
X126.936Y-70.911
X127.036Y-56.511
X127.086Y-57.961
X127.174Y-51.811
X127.636Y-82.361
X128.086Y-70.861
X128.886Y-81.261
X129.686Y-71.211
X130.061Y-79.736
X136.536Y-52.061
X136.536Y-53.661
X138.436Y-56.611
X139.704Y-90.193
X139.967Y-127.143
X139.967Y-132.192
X139.986Y-94.661
X140.086Y-109.761
X140.086Y-113.761
X141.586Y-52.111
X141.786Y-50.211
X141.911Y-48.936
X144.736Y-54.911
X148.036Y-52.561
X148.936Y-52.611
X150.701Y-69.251
X151.586Y-54.761
X155.086Y-49.611
X156.136Y-60.261
X156.286Y-50.811
X156.736Y-84.961
X156.736Y-86.061
X156.986Y-77.761
X158.511Y-94.986
X158.536Y-109.861
X158.536Y-113.661
X158.536Y-128.711
X158.571Y-88.193
X158.586Y-132.411
X160.036Y-77.761
X160.636Y-84.961
X160.636Y-86.061
X161.011Y-57.587
X161.036Y-58.661
X173.386Y-70.561
X173.386Y-73.611
X177.036Y-91.761
X177.086Y-94.761
X177.086Y-132.411
X177.136Y-110.211
X177.167Y-113.192
X177.167Y-127.293
T2
X106.654Y-106.843
X107.804Y-123.393
X107.986Y-77.911
X107.986Y-81.411
X109.654Y-86.143
X109.886Y-80.511
X109.936Y-79.461
X115.954Y-110.193
X116.354Y-89.993
X116.504Y-127.143
X116.554Y-107.393
X118.854Y-108.843
X124.904Y-86.943
X124.904Y-124.443
X125.554Y-106.843
X125.904Y-58.793
X129.504Y-77.943
X129.586Y-64.761
X130.636Y-74.911
X130.636Y-77.161
X131.486Y-64.611
X132.436Y-80.661
X133.786Y-64.761
X133.836Y-73.061
X134.554Y-110.243
X134.804Y-89.943
X134.804Y-127.143
X135.136Y-73.061
X136.104Y-70.943
X138.286Y-66.861
X139.504Y-78.493
X141.886Y-64.811
X143.254Y-124.543
X143.304Y-90.393
X143.486Y-66.911
X143.736Y-62.461
X144.104Y-106.793
X144.249Y-76.711
X144.486Y-51.961
X144.854Y-71.593
X145.236Y-48.911
X145.286Y-49.861
X146.196Y-60.486
X146.554Y-79.143
X146.949Y-76.011
X147.586Y-64.761
X147.636Y-67.411
X150.786Y-60.461
X151.336Y-48.961
X151.336Y-49.961
X152.086Y-51.761
X153.236Y-56.711
X153.454Y-127.143
X153.554Y-89.943
X153.604Y-110.443
X154.954Y-69.743
X160.104Y-55.343
X161.004Y-123.393
X161.654Y-89.193
X162.129Y-50.968
X162.604Y-106.793
X164.154Y-67.893
X170.654Y-53.993
X170.704Y-72.493
X170.704Y-128.543
X171.704Y-110.193
X172.204Y-89.943
X176.286Y-56.761
X176.486Y-75.511
X179.386Y-56.761
X179.586Y-75.511
X179.654Y-89.093
X181.354Y-106.793
X181.804Y-123.943
X190.754Y-127.093
X190.904Y-89.893
X191.254Y-109.443
T4
X100.226Y-89.011
X100.226Y-91.551
X100.226Y-94.091
X100.226Y-96.631
X100.226Y-99.171
X143.152Y-142.097
X145.692Y-142.097
X148.232Y-142.097
X150.772Y-142.097
X153.312Y-142.097
X196.238Y-89.011
X196.238Y-91.551
X196.238Y-94.091
X196.238Y-96.631
X196.238Y-99.171
T5
X105.486Y-79.611
X107.986Y-79.611
X177.736Y-54.311
X177.736Y-56.811
X177.736Y-59.311
X177.986Y-73.061
X177.986Y-75.561
X177.986Y-78.061
X192.236Y-54.311
X192.236Y-59.311
X192.486Y-73.061
X192.486Y-78.061
T3
G00X143.918Y-48.936
M15
G01X143.918Y-49.736
M16
G05
G00X143.918Y-52.966
M15
G01X143.918Y-54.066
M16
G05
G00X152.558Y-48.936
M15
G01X152.558Y-49.736
M16
G05
G00X152.558Y-52.966
M15
G01X152.558Y-54.066
M16
G05
T6
G00X186.436Y-51.111
M15
G01X184.036Y-51.111
M16
G05
G00X186.436Y-62.511
M15
G01X184.036Y-62.511
M16
G05
G00X186.686Y-69.861
M15
G01X184.286Y-69.861
M16
G05
G00X186.686Y-81.261
M15
G01X184.286Y-81.261
M16
G05
M30
