%TF.GenerationSoftware,KiCad,Pcbnew,8.0.6*%
%TF.CreationDate,2025-02-04T14:10:00-07:00*%
%TF.ProjectId,Modular MacroPad,4d6f6475-6c61-4722-904d-6163726f5061,rev?*%
%TF.SameCoordinates,Original*%
%TF.FileFunction,Other,ECO2*%
%FSLAX46Y46*%
G04 Gerber Fmt 4.6, Leading zero omitted, Abs format (unit mm)*
G04 Created by KiCad (PCBNEW 8.0.6) date 2025-02-04 14:10:00*
%MOMM*%
%LPD*%
G01*
G04 APERTURE LIST*
%ADD10C,0.120000*%
G04 APERTURE END LIST*
%TO.C,SW6*%
D10*
X141241790Y-87083608D02*
X155241790Y-87083608D01*
X155241790Y-101083608D01*
X141241790Y-101083608D01*
X141241790Y-87083608D01*
%TO.C,SW13*%
X178441790Y-105683608D02*
X192441790Y-105683608D01*
X192441790Y-119683608D01*
X178441790Y-119683608D01*
X178441790Y-105683608D01*
%TO.C,SW12*%
X159841790Y-105683608D02*
X173841790Y-105683608D01*
X173841790Y-119683608D01*
X159841790Y-119683608D01*
X159841790Y-105683608D01*
%TO.C,SW9*%
X104041790Y-105683608D02*
X118041790Y-105683608D01*
X118041790Y-119683608D01*
X104041790Y-119683608D01*
X104041790Y-105683608D01*
%TO.C,SW5*%
X122641790Y-87083608D02*
X136641790Y-87083608D01*
X136641790Y-101083608D01*
X122641790Y-101083608D01*
X122641790Y-87083608D01*
%TO.C,SW11*%
X141241790Y-105683608D02*
X155241790Y-105683608D01*
X155241790Y-119683608D01*
X141241790Y-119683608D01*
X141241790Y-105683608D01*
%TO.C,SW10*%
X122641790Y-105683608D02*
X136641790Y-105683608D01*
X136641790Y-119683608D01*
X122641790Y-119683608D01*
X122641790Y-105683608D01*
%TO.C,SW14*%
X104041790Y-124283608D02*
X118041790Y-124283608D01*
X118041790Y-138283608D01*
X104041790Y-138283608D01*
X104041790Y-124283608D01*
%TO.C,SW18*%
X178441790Y-124283608D02*
X192441790Y-124283608D01*
X192441790Y-138283608D01*
X178441790Y-138283608D01*
X178441790Y-124283608D01*
%TO.C,SW4*%
X104041790Y-87083608D02*
X118041790Y-87083608D01*
X118041790Y-101083608D01*
X104041790Y-101083608D01*
X104041790Y-87083608D01*
%TO.C,SW15*%
X122641790Y-124283608D02*
X136641790Y-124283608D01*
X136641790Y-138283608D01*
X122641790Y-138283608D01*
X122641790Y-124283608D01*
%TO.C,SW8*%
X178441790Y-87083608D02*
X192441790Y-87083608D01*
X192441790Y-101083608D01*
X178441790Y-101083608D01*
X178441790Y-87083608D01*
%TO.C,SW7*%
X159841790Y-87083608D02*
X173841790Y-87083608D01*
X173841790Y-101083608D01*
X159841790Y-101083608D01*
X159841790Y-87083608D01*
%TO.C,SW3*%
X159845590Y-68538989D02*
X173845590Y-68538989D01*
X173845590Y-82538989D01*
X159845590Y-82538989D01*
X159845590Y-68538989D01*
%TO.C,SW17*%
X159841790Y-124283608D02*
X173841790Y-124283608D01*
X173841790Y-138283608D01*
X159841790Y-138283608D01*
X159841790Y-124283608D01*
%TO.C,SW16*%
X141241790Y-124283608D02*
X155241790Y-124283608D01*
X155241790Y-138283608D01*
X141241790Y-138283608D01*
X141241790Y-124283608D01*
%TO.C,SW1*%
X159845590Y-49920789D02*
X173845590Y-49920789D01*
X173845590Y-63920789D01*
X159845590Y-63920789D01*
X159845590Y-49920789D01*
%TD*%
M02*
