M48
; DRILL file {KiCad 8.0.6} date 2025-02-04T14:10:03-0700
; FORMAT={-:-/ absolute / metric / decimal}
; #@! TF.CreationDate,2025-02-04T14:10:03-07:00
; #@! TF.GenerationSoftware,Kicad,Pcbnew,8.0.6
; #@! TF.FileFunction,NonPlated,1,4,NPTH
FMAT,2
METRIC
; #@! TA.AperFunction,NonPlated,NPTH,ComponentDrill
T1C0.650
; #@! TA.AperFunction,NonPlated,NPTH,ComponentDrill
T2C3.000
; #@! TA.AperFunction,NonPlated,NPTH,ComponentDrill
T3C5.100
%
G90
G05
T1
X145.348Y-53.016
X151.128Y-53.016
T2
X106.642Y-98.784
X106.642Y-117.384
X106.642Y-135.984
X113.642Y-99.834
X113.642Y-118.434
X113.642Y-137.034
X125.242Y-98.784
X125.242Y-117.384
X125.242Y-135.984
X132.242Y-99.834
X132.242Y-118.434
X132.242Y-137.034
X143.842Y-98.784
X143.842Y-117.384
X143.842Y-135.984
X150.842Y-99.834
X150.842Y-118.434
X150.842Y-137.034
X162.442Y-98.784
X162.442Y-117.384
X162.442Y-135.984
X162.446Y-61.621
X162.446Y-80.239
X169.442Y-99.834
X169.442Y-118.434
X169.442Y-137.034
X169.446Y-62.671
X169.446Y-81.289
X181.042Y-98.784
X181.042Y-117.384
X181.042Y-135.984
X188.042Y-99.834
X188.042Y-118.434
X188.042Y-137.034
T3
X111.042Y-94.084
X111.042Y-112.684
X111.042Y-131.284
X129.642Y-94.084
X129.642Y-112.684
X129.642Y-131.284
X148.242Y-94.084
X148.242Y-112.684
X148.242Y-131.284
X166.842Y-94.084
X166.842Y-112.684
X166.842Y-131.284
X166.846Y-56.921
X166.846Y-75.539
X185.442Y-94.084
X185.442Y-112.684
X185.442Y-131.284
M30
