%TF.GenerationSoftware,KiCad,Pcbnew,8.0.6*%
%TF.CreationDate,2025-02-04T14:09:59-07:00*%
%TF.ProjectId,Modular MacroPad,4d6f6475-6c61-4722-904d-6163726f5061,rev?*%
%TF.SameCoordinates,Original*%
%TF.FileFunction,Legend,Top*%
%TF.FilePolarity,Positive*%
%FSLAX46Y46*%
G04 Gerber Fmt 4.6, Leading zero omitted, Abs format (unit mm)*
G04 Created by KiCad (PCBNEW 8.0.6) date 2025-02-04 14:09:59*
%MOMM*%
%LPD*%
G01*
G04 APERTURE LIST*
%ADD10C,0.200000*%
%ADD11C,0.010050*%
%ADD12C,0.000100*%
%ADD13C,0.150000*%
%ADD14C,0.120000*%
%ADD15C,0.127000*%
%ADD16C,0.250000*%
G04 APERTURE END LIST*
D10*
X178428408Y-124301589D02*
X178428408Y-138301589D01*
X178428408Y-138301589D02*
X192428408Y-138301589D01*
X122628408Y-101101589D02*
X136628408Y-101101589D01*
X141228408Y-101101589D02*
X155228408Y-101101589D01*
X155228408Y-119701589D02*
X155228408Y-105701589D01*
X141228408Y-124301589D02*
X141228408Y-138301589D01*
X173828408Y-49901589D02*
X159828408Y-49901589D01*
X197128408Y-89021589D02*
G75*
G02*
X195328408Y-89021589I-900000J0D01*
G01*
X195328408Y-89021589D02*
G75*
G02*
X197128408Y-89021589I900000J0D01*
G01*
X173828408Y-119701589D02*
X173828408Y-105701589D01*
X197128408Y-91561589D02*
G75*
G02*
X195328408Y-91561589I-900000J0D01*
G01*
X195328408Y-91561589D02*
G75*
G02*
X197128408Y-91561589I900000J0D01*
G01*
X173828408Y-124301589D02*
X159828408Y-124301589D01*
X178428408Y-87101589D02*
X178428408Y-101101589D01*
X104028408Y-105701589D02*
X104028408Y-119701589D01*
X118028408Y-87101589D02*
X104028408Y-87101589D01*
X101128408Y-96641589D02*
G75*
G02*
X99328408Y-96641589I-900000J0D01*
G01*
X99328408Y-96641589D02*
G75*
G02*
X101128408Y-96641589I900000J0D01*
G01*
X147328408Y-142101589D02*
X147828408Y-142101589D01*
X192428408Y-124301589D02*
X178428408Y-124301589D01*
X141228408Y-138301589D02*
X155228408Y-138301589D01*
X178428408Y-119701589D02*
X192428408Y-119701589D01*
X192428408Y-82501589D02*
X192428408Y-68501589D01*
X173828408Y-63901589D02*
X173828408Y-49901589D01*
X136628408Y-138301589D02*
X136628408Y-124301589D01*
X196628408Y-94101589D02*
G75*
G02*
X195828408Y-94101589I-400000J0D01*
G01*
X195828408Y-94101589D02*
G75*
G02*
X196628408Y-94101589I400000J0D01*
G01*
X173828408Y-105701589D02*
X159828408Y-105701589D01*
X122628408Y-87101589D02*
X122628408Y-101101589D01*
X101128408Y-99181589D02*
G75*
G02*
X99328408Y-99181589I-900000J0D01*
G01*
X99328408Y-99181589D02*
G75*
G02*
X101128408Y-99181589I900000J0D01*
G01*
X155228408Y-124301589D02*
X141228408Y-124301589D01*
X100628408Y-89021589D02*
G75*
G02*
X99828408Y-89021589I-400000J0D01*
G01*
X99828408Y-89021589D02*
G75*
G02*
X100628408Y-89021589I400000J0D01*
G01*
X196628408Y-99181589D02*
G75*
G02*
X195828408Y-99181589I-400000J0D01*
G01*
X195828408Y-99181589D02*
G75*
G02*
X196628408Y-99181589I400000J0D01*
G01*
X159828408Y-119701589D02*
X173828408Y-119701589D01*
X173828408Y-87101589D02*
X159828408Y-87101589D01*
X178428408Y-105701589D02*
X178428408Y-119701589D01*
X136628408Y-87101589D02*
X122628408Y-87101589D01*
X101128408Y-89021589D02*
G75*
G02*
X99328408Y-89021589I-900000J0D01*
G01*
X99328408Y-89021589D02*
G75*
G02*
X101128408Y-89021589I900000J0D01*
G01*
X122628408Y-105701589D02*
X122628408Y-119701589D01*
X104028408Y-87101589D02*
X104028408Y-101101589D01*
X196628408Y-96641589D02*
G75*
G02*
X195828408Y-96641589I-400000J0D01*
G01*
X195828408Y-96641589D02*
G75*
G02*
X196628408Y-96641589I400000J0D01*
G01*
X100628408Y-91561589D02*
G75*
G02*
X99828408Y-91561589I-400000J0D01*
G01*
X99828408Y-91561589D02*
G75*
G02*
X100628408Y-91561589I400000J0D01*
G01*
X192428408Y-101101589D02*
X192428408Y-87101589D01*
X159828408Y-138301589D02*
X173828408Y-138301589D01*
X192428408Y-49901589D02*
X178428408Y-49901589D01*
X192428408Y-105701589D02*
X178428408Y-105701589D01*
X197128408Y-99181589D02*
G75*
G02*
X195328408Y-99181589I-900000J0D01*
G01*
X195328408Y-99181589D02*
G75*
G02*
X197128408Y-99181589I900000J0D01*
G01*
X197128408Y-94101589D02*
G75*
G02*
X195328408Y-94101589I-900000J0D01*
G01*
X195328408Y-94101589D02*
G75*
G02*
X197128408Y-94101589I900000J0D01*
G01*
X144048408Y-142101589D02*
G75*
G02*
X142248408Y-142101589I-900000J0D01*
G01*
X142248408Y-142101589D02*
G75*
G02*
X144048408Y-142101589I900000J0D01*
G01*
X149128408Y-142101589D02*
G75*
G02*
X147328408Y-142101589I-900000J0D01*
G01*
X147328408Y-142101589D02*
G75*
G02*
X149128408Y-142101589I900000J0D01*
G01*
X146588408Y-142101589D02*
G75*
G02*
X144788408Y-142101589I-900000J0D01*
G01*
X144788408Y-142101589D02*
G75*
G02*
X146588408Y-142101589I900000J0D01*
G01*
X178428408Y-68501589D02*
X178428408Y-82501589D01*
X118028408Y-119701589D02*
X118028408Y-105701589D01*
X118028408Y-101101589D02*
X118028408Y-87101589D01*
X122628408Y-138301589D02*
X136628408Y-138301589D01*
X159828408Y-124301589D02*
X159828408Y-138301589D01*
X104028408Y-138301589D02*
X118028408Y-138301589D01*
D11*
X100233433Y-94101589D02*
G75*
G02*
X100223383Y-94101589I-5025J0D01*
G01*
X100223383Y-94101589D02*
G75*
G02*
X100233433Y-94101589I5025J0D01*
G01*
D12*
X100218408Y-94101589D02*
X100228408Y-94101589D01*
D10*
X178428408Y-49901589D02*
X178428408Y-63901589D01*
X141228408Y-87101589D02*
X141228408Y-101101589D01*
X159828408Y-82501589D02*
X173828408Y-82501589D01*
X155228408Y-101101589D02*
X155228408Y-87101589D01*
X136628408Y-119701589D02*
X136628408Y-105701589D01*
X136628408Y-101101589D02*
X136628408Y-87101589D01*
X104028408Y-124301589D02*
X104028408Y-138301589D01*
X118028408Y-105701589D02*
X104028408Y-105701589D01*
X192428408Y-119701589D02*
X192428408Y-105701589D01*
X100628408Y-96641589D02*
G75*
G02*
X99828408Y-96641589I-400000J0D01*
G01*
X99828408Y-96641589D02*
G75*
G02*
X100628408Y-96641589I400000J0D01*
G01*
X146088408Y-142101589D02*
G75*
G02*
X145288408Y-142101589I-400000J0D01*
G01*
X145288408Y-142101589D02*
G75*
G02*
X146088408Y-142101589I400000J0D01*
G01*
X192428408Y-87101589D02*
X178428408Y-87101589D01*
X100628408Y-94101589D02*
G75*
G02*
X99828408Y-94101589I-400000J0D01*
G01*
X99828408Y-94101589D02*
G75*
G02*
X100628408Y-94101589I400000J0D01*
G01*
X153708408Y-142101589D02*
G75*
G02*
X152908408Y-142101589I-400000J0D01*
G01*
X152908408Y-142101589D02*
G75*
G02*
X153708408Y-142101589I400000J0D01*
G01*
D11*
X148233433Y-94101589D02*
G75*
G02*
X148223383Y-94101589I-5025J0D01*
G01*
X148223383Y-94101589D02*
G75*
G02*
X148233433Y-94101589I5025J0D01*
G01*
D10*
X173828408Y-68501589D02*
X159828408Y-68501589D01*
X155228408Y-138301589D02*
X155228408Y-124301589D01*
X151668408Y-142101589D02*
G75*
G02*
X149868408Y-142101589I-900000J0D01*
G01*
X149868408Y-142101589D02*
G75*
G02*
X151668408Y-142101589I900000J0D01*
G01*
X101128408Y-94101589D02*
G75*
G02*
X99328408Y-94101589I-900000J0D01*
G01*
X99328408Y-94101589D02*
G75*
G02*
X101128408Y-94101589I900000J0D01*
G01*
X101128408Y-91561589D02*
G75*
G02*
X99328408Y-91561589I-900000J0D01*
G01*
X99328408Y-91561589D02*
G75*
G02*
X101128408Y-91561589I900000J0D01*
G01*
X192428408Y-68501589D02*
X178428408Y-68501589D01*
X159828408Y-68501589D02*
X159828408Y-82501589D01*
X155228408Y-105701589D02*
X141228408Y-105701589D01*
X195328408Y-94101589D02*
X195828408Y-94101589D01*
X141228408Y-105701589D02*
X141228408Y-119701589D01*
X196628408Y-89021589D02*
G75*
G02*
X195828408Y-89021589I-400000J0D01*
G01*
X195828408Y-89021589D02*
G75*
G02*
X196628408Y-89021589I400000J0D01*
G01*
X192428408Y-63901589D02*
X192428408Y-49901589D01*
X136628408Y-105701589D02*
X122628408Y-105701589D01*
X155228408Y-87101589D02*
X141228408Y-87101589D01*
X178428408Y-63901589D02*
X192428408Y-63901589D01*
X104028408Y-101101589D02*
X118028408Y-101101589D01*
X196628408Y-91561589D02*
G75*
G02*
X195828408Y-91561589I-400000J0D01*
G01*
X195828408Y-91561589D02*
G75*
G02*
X196628408Y-91561589I400000J0D01*
G01*
X192428408Y-138301589D02*
X192428408Y-124301589D01*
X122628408Y-119701589D02*
X136628408Y-119701589D01*
X159828408Y-87101589D02*
X159828408Y-101101589D01*
X118028408Y-124301589D02*
X104028408Y-124301589D01*
X178428408Y-82501589D02*
X192428408Y-82501589D01*
X136628408Y-124301589D02*
X122628408Y-124301589D01*
X178428408Y-101101589D02*
X192428408Y-101101589D01*
X141228408Y-119701589D02*
X155228408Y-119701589D01*
X197128408Y-96641589D02*
G75*
G02*
X195328408Y-96641589I-900000J0D01*
G01*
X195328408Y-96641589D02*
G75*
G02*
X197128408Y-96641589I900000J0D01*
G01*
X122628408Y-124301589D02*
X122628408Y-138301589D01*
X159828408Y-63901589D02*
X173828408Y-63901589D01*
D11*
X148233433Y-94101589D02*
G75*
G02*
X148223383Y-94101589I-5025J0D01*
G01*
X148223383Y-94101589D02*
G75*
G02*
X148233433Y-94101589I5025J0D01*
G01*
D10*
X173828408Y-82501589D02*
X173828408Y-68501589D01*
X100628408Y-99181589D02*
G75*
G02*
X99828408Y-99181589I-400000J0D01*
G01*
X99828408Y-99181589D02*
G75*
G02*
X100628408Y-99181589I400000J0D01*
G01*
X151168408Y-142101589D02*
G75*
G02*
X150368408Y-142101589I-400000J0D01*
G01*
X150368408Y-142101589D02*
G75*
G02*
X151168408Y-142101589I400000J0D01*
G01*
X159828408Y-49901589D02*
X159828408Y-63901589D01*
X159828408Y-105701589D02*
X159828408Y-119701589D01*
X118028408Y-138301589D02*
X118028408Y-124301589D01*
X104028408Y-119701589D02*
X118028408Y-119701589D01*
X173828408Y-138301589D02*
X173828408Y-124301589D01*
X148628408Y-142101589D02*
G75*
G02*
X147828408Y-142101589I-400000J0D01*
G01*
X147828408Y-142101589D02*
G75*
G02*
X148628408Y-142101589I400000J0D01*
G01*
X143548408Y-142101589D02*
G75*
G02*
X142748408Y-142101589I-400000J0D01*
G01*
X142748408Y-142101589D02*
G75*
G02*
X143548408Y-142101589I400000J0D01*
G01*
X159828408Y-101101589D02*
X173828408Y-101101589D01*
X173828408Y-101101589D02*
X173828408Y-87101589D01*
X154208408Y-142101589D02*
G75*
G02*
X152408408Y-142101589I-900000J0D01*
G01*
X152408408Y-142101589D02*
G75*
G02*
X154208408Y-142101589I900000J0D01*
G01*
D13*
X124461885Y-65136835D02*
X125033313Y-65136835D01*
X124747599Y-66136835D02*
X124747599Y-65136835D01*
X125366647Y-66136835D02*
X125366647Y-65136835D01*
X125366647Y-65136835D02*
X125747599Y-65136835D01*
X125747599Y-65136835D02*
X125842837Y-65184454D01*
X125842837Y-65184454D02*
X125890456Y-65232073D01*
X125890456Y-65232073D02*
X125938075Y-65327311D01*
X125938075Y-65327311D02*
X125938075Y-65470168D01*
X125938075Y-65470168D02*
X125890456Y-65565406D01*
X125890456Y-65565406D02*
X125842837Y-65613025D01*
X125842837Y-65613025D02*
X125747599Y-65660644D01*
X125747599Y-65660644D02*
X125366647Y-65660644D01*
X126890456Y-66136835D02*
X126319028Y-66136835D01*
X126604742Y-66136835D02*
X126604742Y-65136835D01*
X126604742Y-65136835D02*
X126509504Y-65279692D01*
X126509504Y-65279692D02*
X126414266Y-65374930D01*
X126414266Y-65374930D02*
X126319028Y-65422549D01*
X127223790Y-65136835D02*
X127842837Y-65136835D01*
X127842837Y-65136835D02*
X127509504Y-65517787D01*
X127509504Y-65517787D02*
X127652361Y-65517787D01*
X127652361Y-65517787D02*
X127747599Y-65565406D01*
X127747599Y-65565406D02*
X127795218Y-65613025D01*
X127795218Y-65613025D02*
X127842837Y-65708263D01*
X127842837Y-65708263D02*
X127842837Y-65946358D01*
X127842837Y-65946358D02*
X127795218Y-66041596D01*
X127795218Y-66041596D02*
X127747599Y-66089216D01*
X127747599Y-66089216D02*
X127652361Y-66136835D01*
X127652361Y-66136835D02*
X127366647Y-66136835D01*
X127366647Y-66136835D02*
X127271409Y-66089216D01*
X127271409Y-66089216D02*
X127223790Y-66041596D01*
X126061885Y-63136835D02*
X126633313Y-63136835D01*
X126347599Y-64136835D02*
X126347599Y-63136835D01*
X126966647Y-64136835D02*
X126966647Y-63136835D01*
X126966647Y-63136835D02*
X127347599Y-63136835D01*
X127347599Y-63136835D02*
X127442837Y-63184454D01*
X127442837Y-63184454D02*
X127490456Y-63232073D01*
X127490456Y-63232073D02*
X127538075Y-63327311D01*
X127538075Y-63327311D02*
X127538075Y-63470168D01*
X127538075Y-63470168D02*
X127490456Y-63565406D01*
X127490456Y-63565406D02*
X127442837Y-63613025D01*
X127442837Y-63613025D02*
X127347599Y-63660644D01*
X127347599Y-63660644D02*
X126966647Y-63660644D01*
X128490456Y-64136835D02*
X127919028Y-64136835D01*
X128204742Y-64136835D02*
X128204742Y-63136835D01*
X128204742Y-63136835D02*
X128109504Y-63279692D01*
X128109504Y-63279692D02*
X128014266Y-63374930D01*
X128014266Y-63374930D02*
X127919028Y-63422549D01*
X128871409Y-63232073D02*
X128919028Y-63184454D01*
X128919028Y-63184454D02*
X129014266Y-63136835D01*
X129014266Y-63136835D02*
X129252361Y-63136835D01*
X129252361Y-63136835D02*
X129347599Y-63184454D01*
X129347599Y-63184454D02*
X129395218Y-63232073D01*
X129395218Y-63232073D02*
X129442837Y-63327311D01*
X129442837Y-63327311D02*
X129442837Y-63422549D01*
X129442837Y-63422549D02*
X129395218Y-63565406D01*
X129395218Y-63565406D02*
X128823790Y-64136835D01*
X128823790Y-64136835D02*
X129442837Y-64136835D01*
X101938075Y-55236835D02*
X102509503Y-55236835D01*
X102223789Y-56236835D02*
X102223789Y-55236835D01*
X102842837Y-56236835D02*
X102842837Y-55236835D01*
X102842837Y-55236835D02*
X103223789Y-55236835D01*
X103223789Y-55236835D02*
X103319027Y-55284454D01*
X103319027Y-55284454D02*
X103366646Y-55332073D01*
X103366646Y-55332073D02*
X103414265Y-55427311D01*
X103414265Y-55427311D02*
X103414265Y-55570168D01*
X103414265Y-55570168D02*
X103366646Y-55665406D01*
X103366646Y-55665406D02*
X103319027Y-55713025D01*
X103319027Y-55713025D02*
X103223789Y-55760644D01*
X103223789Y-55760644D02*
X102842837Y-55760644D01*
X104271408Y-55570168D02*
X104271408Y-56236835D01*
X104033313Y-55189216D02*
X103795218Y-55903501D01*
X103795218Y-55903501D02*
X104414265Y-55903501D01*
X101938075Y-52186835D02*
X102509503Y-52186835D01*
X102223789Y-53186835D02*
X102223789Y-52186835D01*
X102842837Y-53186835D02*
X102842837Y-52186835D01*
X102842837Y-52186835D02*
X103223789Y-52186835D01*
X103223789Y-52186835D02*
X103319027Y-52234454D01*
X103319027Y-52234454D02*
X103366646Y-52282073D01*
X103366646Y-52282073D02*
X103414265Y-52377311D01*
X103414265Y-52377311D02*
X103414265Y-52520168D01*
X103414265Y-52520168D02*
X103366646Y-52615406D01*
X103366646Y-52615406D02*
X103319027Y-52663025D01*
X103319027Y-52663025D02*
X103223789Y-52710644D01*
X103223789Y-52710644D02*
X102842837Y-52710644D01*
X103747599Y-52186835D02*
X104366646Y-52186835D01*
X104366646Y-52186835D02*
X104033313Y-52567787D01*
X104033313Y-52567787D02*
X104176170Y-52567787D01*
X104176170Y-52567787D02*
X104271408Y-52615406D01*
X104271408Y-52615406D02*
X104319027Y-52663025D01*
X104319027Y-52663025D02*
X104366646Y-52758263D01*
X104366646Y-52758263D02*
X104366646Y-52996358D01*
X104366646Y-52996358D02*
X104319027Y-53091596D01*
X104319027Y-53091596D02*
X104271408Y-53139216D01*
X104271408Y-53139216D02*
X104176170Y-53186835D01*
X104176170Y-53186835D02*
X103890456Y-53186835D01*
X103890456Y-53186835D02*
X103795218Y-53139216D01*
X103795218Y-53139216D02*
X103747599Y-53091596D01*
X101938075Y-49136835D02*
X102509503Y-49136835D01*
X102223789Y-50136835D02*
X102223789Y-49136835D01*
X102842837Y-50136835D02*
X102842837Y-49136835D01*
X102842837Y-49136835D02*
X103223789Y-49136835D01*
X103223789Y-49136835D02*
X103319027Y-49184454D01*
X103319027Y-49184454D02*
X103366646Y-49232073D01*
X103366646Y-49232073D02*
X103414265Y-49327311D01*
X103414265Y-49327311D02*
X103414265Y-49470168D01*
X103414265Y-49470168D02*
X103366646Y-49565406D01*
X103366646Y-49565406D02*
X103319027Y-49613025D01*
X103319027Y-49613025D02*
X103223789Y-49660644D01*
X103223789Y-49660644D02*
X102842837Y-49660644D01*
X103795218Y-49232073D02*
X103842837Y-49184454D01*
X103842837Y-49184454D02*
X103938075Y-49136835D01*
X103938075Y-49136835D02*
X104176170Y-49136835D01*
X104176170Y-49136835D02*
X104271408Y-49184454D01*
X104271408Y-49184454D02*
X104319027Y-49232073D01*
X104319027Y-49232073D02*
X104366646Y-49327311D01*
X104366646Y-49327311D02*
X104366646Y-49422549D01*
X104366646Y-49422549D02*
X104319027Y-49565406D01*
X104319027Y-49565406D02*
X103747599Y-50136835D01*
X103747599Y-50136835D02*
X104366646Y-50136835D01*
X115613085Y-73912835D02*
X116184513Y-73912835D01*
X115898799Y-74912835D02*
X115898799Y-73912835D01*
X116517847Y-74912835D02*
X116517847Y-73912835D01*
X116517847Y-73912835D02*
X116898799Y-73912835D01*
X116898799Y-73912835D02*
X116994037Y-73960454D01*
X116994037Y-73960454D02*
X117041656Y-74008073D01*
X117041656Y-74008073D02*
X117089275Y-74103311D01*
X117089275Y-74103311D02*
X117089275Y-74246168D01*
X117089275Y-74246168D02*
X117041656Y-74341406D01*
X117041656Y-74341406D02*
X116994037Y-74389025D01*
X116994037Y-74389025D02*
X116898799Y-74436644D01*
X116898799Y-74436644D02*
X116517847Y-74436644D01*
X118041656Y-74912835D02*
X117470228Y-74912835D01*
X117755942Y-74912835D02*
X117755942Y-73912835D01*
X117755942Y-73912835D02*
X117660704Y-74055692D01*
X117660704Y-74055692D02*
X117565466Y-74150930D01*
X117565466Y-74150930D02*
X117470228Y-74198549D01*
X118994037Y-74912835D02*
X118422609Y-74912835D01*
X118708323Y-74912835D02*
X118708323Y-73912835D01*
X118708323Y-73912835D02*
X118613085Y-74055692D01*
X118613085Y-74055692D02*
X118517847Y-74150930D01*
X118517847Y-74150930D02*
X118422609Y-74198549D01*
X113581085Y-72515835D02*
X114152513Y-72515835D01*
X113866799Y-73515835D02*
X113866799Y-72515835D01*
X114485847Y-73515835D02*
X114485847Y-72515835D01*
X114485847Y-72515835D02*
X114866799Y-72515835D01*
X114866799Y-72515835D02*
X114962037Y-72563454D01*
X114962037Y-72563454D02*
X115009656Y-72611073D01*
X115009656Y-72611073D02*
X115057275Y-72706311D01*
X115057275Y-72706311D02*
X115057275Y-72849168D01*
X115057275Y-72849168D02*
X115009656Y-72944406D01*
X115009656Y-72944406D02*
X114962037Y-72992025D01*
X114962037Y-72992025D02*
X114866799Y-73039644D01*
X114866799Y-73039644D02*
X114485847Y-73039644D01*
X116009656Y-73515835D02*
X115438228Y-73515835D01*
X115723942Y-73515835D02*
X115723942Y-72515835D01*
X115723942Y-72515835D02*
X115628704Y-72658692D01*
X115628704Y-72658692D02*
X115533466Y-72753930D01*
X115533466Y-72753930D02*
X115438228Y-72801549D01*
X116628704Y-72515835D02*
X116723942Y-72515835D01*
X116723942Y-72515835D02*
X116819180Y-72563454D01*
X116819180Y-72563454D02*
X116866799Y-72611073D01*
X116866799Y-72611073D02*
X116914418Y-72706311D01*
X116914418Y-72706311D02*
X116962037Y-72896787D01*
X116962037Y-72896787D02*
X116962037Y-73134882D01*
X116962037Y-73134882D02*
X116914418Y-73325358D01*
X116914418Y-73325358D02*
X116866799Y-73420596D01*
X116866799Y-73420596D02*
X116819180Y-73468216D01*
X116819180Y-73468216D02*
X116723942Y-73515835D01*
X116723942Y-73515835D02*
X116628704Y-73515835D01*
X116628704Y-73515835D02*
X116533466Y-73468216D01*
X116533466Y-73468216D02*
X116485847Y-73420596D01*
X116485847Y-73420596D02*
X116438228Y-73325358D01*
X116438228Y-73325358D02*
X116390609Y-73134882D01*
X116390609Y-73134882D02*
X116390609Y-72896787D01*
X116390609Y-72896787D02*
X116438228Y-72706311D01*
X116438228Y-72706311D02*
X116485847Y-72611073D01*
X116485847Y-72611073D02*
X116533466Y-72563454D01*
X116533466Y-72563454D02*
X116628704Y-72515835D01*
X112228475Y-71042635D02*
X112799903Y-71042635D01*
X112514189Y-72042635D02*
X112514189Y-71042635D01*
X113133237Y-72042635D02*
X113133237Y-71042635D01*
X113133237Y-71042635D02*
X113514189Y-71042635D01*
X113514189Y-71042635D02*
X113609427Y-71090254D01*
X113609427Y-71090254D02*
X113657046Y-71137873D01*
X113657046Y-71137873D02*
X113704665Y-71233111D01*
X113704665Y-71233111D02*
X113704665Y-71375968D01*
X113704665Y-71375968D02*
X113657046Y-71471206D01*
X113657046Y-71471206D02*
X113609427Y-71518825D01*
X113609427Y-71518825D02*
X113514189Y-71566444D01*
X113514189Y-71566444D02*
X113133237Y-71566444D01*
X114180856Y-72042635D02*
X114371332Y-72042635D01*
X114371332Y-72042635D02*
X114466570Y-71995016D01*
X114466570Y-71995016D02*
X114514189Y-71947396D01*
X114514189Y-71947396D02*
X114609427Y-71804539D01*
X114609427Y-71804539D02*
X114657046Y-71614063D01*
X114657046Y-71614063D02*
X114657046Y-71233111D01*
X114657046Y-71233111D02*
X114609427Y-71137873D01*
X114609427Y-71137873D02*
X114561808Y-71090254D01*
X114561808Y-71090254D02*
X114466570Y-71042635D01*
X114466570Y-71042635D02*
X114276094Y-71042635D01*
X114276094Y-71042635D02*
X114180856Y-71090254D01*
X114180856Y-71090254D02*
X114133237Y-71137873D01*
X114133237Y-71137873D02*
X114085618Y-71233111D01*
X114085618Y-71233111D02*
X114085618Y-71471206D01*
X114085618Y-71471206D02*
X114133237Y-71566444D01*
X114133237Y-71566444D02*
X114180856Y-71614063D01*
X114180856Y-71614063D02*
X114276094Y-71661682D01*
X114276094Y-71661682D02*
X114466570Y-71661682D01*
X114466570Y-71661682D02*
X114561808Y-71614063D01*
X114561808Y-71614063D02*
X114609427Y-71566444D01*
X114609427Y-71566444D02*
X114657046Y-71471206D01*
X113371475Y-77621235D02*
X113942903Y-77621235D01*
X113657189Y-78621235D02*
X113657189Y-77621235D01*
X114276237Y-78621235D02*
X114276237Y-77621235D01*
X114276237Y-77621235D02*
X114657189Y-77621235D01*
X114657189Y-77621235D02*
X114752427Y-77668854D01*
X114752427Y-77668854D02*
X114800046Y-77716473D01*
X114800046Y-77716473D02*
X114847665Y-77811711D01*
X114847665Y-77811711D02*
X114847665Y-77954568D01*
X114847665Y-77954568D02*
X114800046Y-78049806D01*
X114800046Y-78049806D02*
X114752427Y-78097425D01*
X114752427Y-78097425D02*
X114657189Y-78145044D01*
X114657189Y-78145044D02*
X114276237Y-78145044D01*
X115419094Y-78049806D02*
X115323856Y-78002187D01*
X115323856Y-78002187D02*
X115276237Y-77954568D01*
X115276237Y-77954568D02*
X115228618Y-77859330D01*
X115228618Y-77859330D02*
X115228618Y-77811711D01*
X115228618Y-77811711D02*
X115276237Y-77716473D01*
X115276237Y-77716473D02*
X115323856Y-77668854D01*
X115323856Y-77668854D02*
X115419094Y-77621235D01*
X115419094Y-77621235D02*
X115609570Y-77621235D01*
X115609570Y-77621235D02*
X115704808Y-77668854D01*
X115704808Y-77668854D02*
X115752427Y-77716473D01*
X115752427Y-77716473D02*
X115800046Y-77811711D01*
X115800046Y-77811711D02*
X115800046Y-77859330D01*
X115800046Y-77859330D02*
X115752427Y-77954568D01*
X115752427Y-77954568D02*
X115704808Y-78002187D01*
X115704808Y-78002187D02*
X115609570Y-78049806D01*
X115609570Y-78049806D02*
X115419094Y-78049806D01*
X115419094Y-78049806D02*
X115323856Y-78097425D01*
X115323856Y-78097425D02*
X115276237Y-78145044D01*
X115276237Y-78145044D02*
X115228618Y-78240282D01*
X115228618Y-78240282D02*
X115228618Y-78430758D01*
X115228618Y-78430758D02*
X115276237Y-78525996D01*
X115276237Y-78525996D02*
X115323856Y-78573616D01*
X115323856Y-78573616D02*
X115419094Y-78621235D01*
X115419094Y-78621235D02*
X115609570Y-78621235D01*
X115609570Y-78621235D02*
X115704808Y-78573616D01*
X115704808Y-78573616D02*
X115752427Y-78525996D01*
X115752427Y-78525996D02*
X115800046Y-78430758D01*
X115800046Y-78430758D02*
X115800046Y-78240282D01*
X115800046Y-78240282D02*
X115752427Y-78145044D01*
X115752427Y-78145044D02*
X115704808Y-78097425D01*
X115704808Y-78097425D02*
X115609570Y-78049806D01*
X111568075Y-75970235D02*
X112139503Y-75970235D01*
X111853789Y-76970235D02*
X111853789Y-75970235D01*
X112472837Y-76970235D02*
X112472837Y-75970235D01*
X112472837Y-75970235D02*
X112853789Y-75970235D01*
X112853789Y-75970235D02*
X112949027Y-76017854D01*
X112949027Y-76017854D02*
X112996646Y-76065473D01*
X112996646Y-76065473D02*
X113044265Y-76160711D01*
X113044265Y-76160711D02*
X113044265Y-76303568D01*
X113044265Y-76303568D02*
X112996646Y-76398806D01*
X112996646Y-76398806D02*
X112949027Y-76446425D01*
X112949027Y-76446425D02*
X112853789Y-76494044D01*
X112853789Y-76494044D02*
X112472837Y-76494044D01*
X113377599Y-75970235D02*
X114044265Y-75970235D01*
X114044265Y-75970235D02*
X113615694Y-76970235D01*
X109917075Y-74268435D02*
X110488503Y-74268435D01*
X110202789Y-75268435D02*
X110202789Y-74268435D01*
X110821837Y-75268435D02*
X110821837Y-74268435D01*
X110821837Y-74268435D02*
X111202789Y-74268435D01*
X111202789Y-74268435D02*
X111298027Y-74316054D01*
X111298027Y-74316054D02*
X111345646Y-74363673D01*
X111345646Y-74363673D02*
X111393265Y-74458911D01*
X111393265Y-74458911D02*
X111393265Y-74601768D01*
X111393265Y-74601768D02*
X111345646Y-74697006D01*
X111345646Y-74697006D02*
X111298027Y-74744625D01*
X111298027Y-74744625D02*
X111202789Y-74792244D01*
X111202789Y-74792244D02*
X110821837Y-74792244D01*
X112250408Y-74268435D02*
X112059932Y-74268435D01*
X112059932Y-74268435D02*
X111964694Y-74316054D01*
X111964694Y-74316054D02*
X111917075Y-74363673D01*
X111917075Y-74363673D02*
X111821837Y-74506530D01*
X111821837Y-74506530D02*
X111774218Y-74697006D01*
X111774218Y-74697006D02*
X111774218Y-75077958D01*
X111774218Y-75077958D02*
X111821837Y-75173196D01*
X111821837Y-75173196D02*
X111869456Y-75220816D01*
X111869456Y-75220816D02*
X111964694Y-75268435D01*
X111964694Y-75268435D02*
X112155170Y-75268435D01*
X112155170Y-75268435D02*
X112250408Y-75220816D01*
X112250408Y-75220816D02*
X112298027Y-75173196D01*
X112298027Y-75173196D02*
X112345646Y-75077958D01*
X112345646Y-75077958D02*
X112345646Y-74839863D01*
X112345646Y-74839863D02*
X112298027Y-74744625D01*
X112298027Y-74744625D02*
X112250408Y-74697006D01*
X112250408Y-74697006D02*
X112155170Y-74649387D01*
X112155170Y-74649387D02*
X111964694Y-74649387D01*
X111964694Y-74649387D02*
X111869456Y-74697006D01*
X111869456Y-74697006D02*
X111821837Y-74744625D01*
X111821837Y-74744625D02*
X111774218Y-74839863D01*
X108113675Y-72668235D02*
X108685103Y-72668235D01*
X108399389Y-73668235D02*
X108399389Y-72668235D01*
X109018437Y-73668235D02*
X109018437Y-72668235D01*
X109018437Y-72668235D02*
X109399389Y-72668235D01*
X109399389Y-72668235D02*
X109494627Y-72715854D01*
X109494627Y-72715854D02*
X109542246Y-72763473D01*
X109542246Y-72763473D02*
X109589865Y-72858711D01*
X109589865Y-72858711D02*
X109589865Y-73001568D01*
X109589865Y-73001568D02*
X109542246Y-73096806D01*
X109542246Y-73096806D02*
X109494627Y-73144425D01*
X109494627Y-73144425D02*
X109399389Y-73192044D01*
X109399389Y-73192044D02*
X109018437Y-73192044D01*
X110494627Y-72668235D02*
X110018437Y-72668235D01*
X110018437Y-72668235D02*
X109970818Y-73144425D01*
X109970818Y-73144425D02*
X110018437Y-73096806D01*
X110018437Y-73096806D02*
X110113675Y-73049187D01*
X110113675Y-73049187D02*
X110351770Y-73049187D01*
X110351770Y-73049187D02*
X110447008Y-73096806D01*
X110447008Y-73096806D02*
X110494627Y-73144425D01*
X110494627Y-73144425D02*
X110542246Y-73239663D01*
X110542246Y-73239663D02*
X110542246Y-73477758D01*
X110542246Y-73477758D02*
X110494627Y-73572996D01*
X110494627Y-73572996D02*
X110447008Y-73620616D01*
X110447008Y-73620616D02*
X110351770Y-73668235D01*
X110351770Y-73668235D02*
X110113675Y-73668235D01*
X110113675Y-73668235D02*
X110018437Y-73620616D01*
X110018437Y-73620616D02*
X109970818Y-73572996D01*
X106284875Y-71068035D02*
X106856303Y-71068035D01*
X106570589Y-72068035D02*
X106570589Y-71068035D01*
X107189637Y-72068035D02*
X107189637Y-71068035D01*
X107189637Y-71068035D02*
X107570589Y-71068035D01*
X107570589Y-71068035D02*
X107665827Y-71115654D01*
X107665827Y-71115654D02*
X107713446Y-71163273D01*
X107713446Y-71163273D02*
X107761065Y-71258511D01*
X107761065Y-71258511D02*
X107761065Y-71401368D01*
X107761065Y-71401368D02*
X107713446Y-71496606D01*
X107713446Y-71496606D02*
X107665827Y-71544225D01*
X107665827Y-71544225D02*
X107570589Y-71591844D01*
X107570589Y-71591844D02*
X107189637Y-71591844D01*
X108713446Y-72068035D02*
X108142018Y-72068035D01*
X108427732Y-72068035D02*
X108427732Y-71068035D01*
X108427732Y-71068035D02*
X108332494Y-71210892D01*
X108332494Y-71210892D02*
X108237256Y-71306130D01*
X108237256Y-71306130D02*
X108142018Y-71353749D01*
X154193999Y-69933549D02*
X154908284Y-69933549D01*
X154908284Y-69933549D02*
X155051141Y-69981168D01*
X155051141Y-69981168D02*
X155146380Y-70076406D01*
X155146380Y-70076406D02*
X155193999Y-70219263D01*
X155193999Y-70219263D02*
X155193999Y-70314501D01*
X154193999Y-69552596D02*
X154193999Y-68885930D01*
X154193999Y-68885930D02*
X155193999Y-69314501D01*
X130893532Y-68136027D02*
X130560199Y-67659836D01*
X130322104Y-68136027D02*
X130322104Y-67136027D01*
X130322104Y-67136027D02*
X130703056Y-67136027D01*
X130703056Y-67136027D02*
X130798294Y-67183646D01*
X130798294Y-67183646D02*
X130845913Y-67231265D01*
X130845913Y-67231265D02*
X130893532Y-67326503D01*
X130893532Y-67326503D02*
X130893532Y-67469360D01*
X130893532Y-67469360D02*
X130845913Y-67564598D01*
X130845913Y-67564598D02*
X130798294Y-67612217D01*
X130798294Y-67612217D02*
X130703056Y-67659836D01*
X130703056Y-67659836D02*
X130322104Y-67659836D01*
X131845913Y-68136027D02*
X131274485Y-68136027D01*
X131560199Y-68136027D02*
X131560199Y-67136027D01*
X131560199Y-67136027D02*
X131464961Y-67278884D01*
X131464961Y-67278884D02*
X131369723Y-67374122D01*
X131369723Y-67374122D02*
X131274485Y-67421741D01*
X132322104Y-68136027D02*
X132512580Y-68136027D01*
X132512580Y-68136027D02*
X132607818Y-68088408D01*
X132607818Y-68088408D02*
X132655437Y-68040788D01*
X132655437Y-68040788D02*
X132750675Y-67897931D01*
X132750675Y-67897931D02*
X132798294Y-67707455D01*
X132798294Y-67707455D02*
X132798294Y-67326503D01*
X132798294Y-67326503D02*
X132750675Y-67231265D01*
X132750675Y-67231265D02*
X132703056Y-67183646D01*
X132703056Y-67183646D02*
X132607818Y-67136027D01*
X132607818Y-67136027D02*
X132417342Y-67136027D01*
X132417342Y-67136027D02*
X132322104Y-67183646D01*
X132322104Y-67183646D02*
X132274485Y-67231265D01*
X132274485Y-67231265D02*
X132226866Y-67326503D01*
X132226866Y-67326503D02*
X132226866Y-67564598D01*
X132226866Y-67564598D02*
X132274485Y-67659836D01*
X132274485Y-67659836D02*
X132322104Y-67707455D01*
X132322104Y-67707455D02*
X132417342Y-67755074D01*
X132417342Y-67755074D02*
X132607818Y-67755074D01*
X132607818Y-67755074D02*
X132703056Y-67707455D01*
X132703056Y-67707455D02*
X132750675Y-67659836D01*
X132750675Y-67659836D02*
X132798294Y-67564598D01*
X129963470Y-51504065D02*
X130011090Y-51551684D01*
X130011090Y-51551684D02*
X130058709Y-51694541D01*
X130058709Y-51694541D02*
X130058709Y-51789779D01*
X130058709Y-51789779D02*
X130011090Y-51932636D01*
X130011090Y-51932636D02*
X129915851Y-52027874D01*
X129915851Y-52027874D02*
X129820613Y-52075493D01*
X129820613Y-52075493D02*
X129630137Y-52123112D01*
X129630137Y-52123112D02*
X129487280Y-52123112D01*
X129487280Y-52123112D02*
X129296804Y-52075493D01*
X129296804Y-52075493D02*
X129201566Y-52027874D01*
X129201566Y-52027874D02*
X129106328Y-51932636D01*
X129106328Y-51932636D02*
X129058709Y-51789779D01*
X129058709Y-51789779D02*
X129058709Y-51694541D01*
X129058709Y-51694541D02*
X129106328Y-51551684D01*
X129106328Y-51551684D02*
X129153947Y-51504065D01*
X130058709Y-50551684D02*
X130058709Y-51123112D01*
X130058709Y-50837398D02*
X129058709Y-50837398D01*
X129058709Y-50837398D02*
X129201566Y-50932636D01*
X129201566Y-50932636D02*
X129296804Y-51027874D01*
X129296804Y-51027874D02*
X129344423Y-51123112D01*
X130058709Y-49599303D02*
X130058709Y-50170731D01*
X130058709Y-49885017D02*
X129058709Y-49885017D01*
X129058709Y-49885017D02*
X129201566Y-49980255D01*
X129201566Y-49980255D02*
X129296804Y-50075493D01*
X129296804Y-50075493D02*
X129344423Y-50170731D01*
X131693532Y-61616027D02*
X131360199Y-61139836D01*
X131122104Y-61616027D02*
X131122104Y-60616027D01*
X131122104Y-60616027D02*
X131503056Y-60616027D01*
X131503056Y-60616027D02*
X131598294Y-60663646D01*
X131598294Y-60663646D02*
X131645913Y-60711265D01*
X131645913Y-60711265D02*
X131693532Y-60806503D01*
X131693532Y-60806503D02*
X131693532Y-60949360D01*
X131693532Y-60949360D02*
X131645913Y-61044598D01*
X131645913Y-61044598D02*
X131598294Y-61092217D01*
X131598294Y-61092217D02*
X131503056Y-61139836D01*
X131503056Y-61139836D02*
X131122104Y-61139836D01*
X132074485Y-60711265D02*
X132122104Y-60663646D01*
X132122104Y-60663646D02*
X132217342Y-60616027D01*
X132217342Y-60616027D02*
X132455437Y-60616027D01*
X132455437Y-60616027D02*
X132550675Y-60663646D01*
X132550675Y-60663646D02*
X132598294Y-60711265D01*
X132598294Y-60711265D02*
X132645913Y-60806503D01*
X132645913Y-60806503D02*
X132645913Y-60901741D01*
X132645913Y-60901741D02*
X132598294Y-61044598D01*
X132598294Y-61044598D02*
X132026866Y-61616027D01*
X132026866Y-61616027D02*
X132645913Y-61616027D01*
X133598294Y-61616027D02*
X133026866Y-61616027D01*
X133312580Y-61616027D02*
X133312580Y-60616027D01*
X133312580Y-60616027D02*
X133217342Y-60758884D01*
X133217342Y-60758884D02*
X133122104Y-60854122D01*
X133122104Y-60854122D02*
X133026866Y-60901741D01*
X195904274Y-86135408D02*
X195904274Y-86849693D01*
X195904274Y-86849693D02*
X195856655Y-86992550D01*
X195856655Y-86992550D02*
X195761417Y-87087789D01*
X195761417Y-87087789D02*
X195618560Y-87135408D01*
X195618560Y-87135408D02*
X195523322Y-87135408D01*
X196332846Y-86230646D02*
X196380465Y-86183027D01*
X196380465Y-86183027D02*
X196475703Y-86135408D01*
X196475703Y-86135408D02*
X196713798Y-86135408D01*
X196713798Y-86135408D02*
X196809036Y-86183027D01*
X196809036Y-86183027D02*
X196856655Y-86230646D01*
X196856655Y-86230646D02*
X196904274Y-86325884D01*
X196904274Y-86325884D02*
X196904274Y-86421122D01*
X196904274Y-86421122D02*
X196856655Y-86563979D01*
X196856655Y-86563979D02*
X196285227Y-87135408D01*
X196285227Y-87135408D02*
X196904274Y-87135408D01*
X99892274Y-86135408D02*
X99892274Y-86849693D01*
X99892274Y-86849693D02*
X99844655Y-86992550D01*
X99844655Y-86992550D02*
X99749417Y-87087789D01*
X99749417Y-87087789D02*
X99606560Y-87135408D01*
X99606560Y-87135408D02*
X99511322Y-87135408D01*
X100273227Y-86135408D02*
X100892274Y-86135408D01*
X100892274Y-86135408D02*
X100558941Y-86516360D01*
X100558941Y-86516360D02*
X100701798Y-86516360D01*
X100701798Y-86516360D02*
X100797036Y-86563979D01*
X100797036Y-86563979D02*
X100844655Y-86611598D01*
X100844655Y-86611598D02*
X100892274Y-86706836D01*
X100892274Y-86706836D02*
X100892274Y-86944931D01*
X100892274Y-86944931D02*
X100844655Y-87040169D01*
X100844655Y-87040169D02*
X100797036Y-87087789D01*
X100797036Y-87087789D02*
X100701798Y-87135408D01*
X100701798Y-87135408D02*
X100416084Y-87135408D01*
X100416084Y-87135408D02*
X100320846Y-87087789D01*
X100320846Y-87087789D02*
X100273227Y-87040169D01*
X136401508Y-58134427D02*
X136068175Y-57658236D01*
X135830080Y-58134427D02*
X135830080Y-57134427D01*
X135830080Y-57134427D02*
X136211032Y-57134427D01*
X136211032Y-57134427D02*
X136306270Y-57182046D01*
X136306270Y-57182046D02*
X136353889Y-57229665D01*
X136353889Y-57229665D02*
X136401508Y-57324903D01*
X136401508Y-57324903D02*
X136401508Y-57467760D01*
X136401508Y-57467760D02*
X136353889Y-57562998D01*
X136353889Y-57562998D02*
X136306270Y-57610617D01*
X136306270Y-57610617D02*
X136211032Y-57658236D01*
X136211032Y-57658236D02*
X135830080Y-57658236D01*
X137353889Y-58134427D02*
X136782461Y-58134427D01*
X137068175Y-58134427D02*
X137068175Y-57134427D01*
X137068175Y-57134427D02*
X136972937Y-57277284D01*
X136972937Y-57277284D02*
X136877699Y-57372522D01*
X136877699Y-57372522D02*
X136782461Y-57420141D01*
X137925318Y-57562998D02*
X137830080Y-57515379D01*
X137830080Y-57515379D02*
X137782461Y-57467760D01*
X137782461Y-57467760D02*
X137734842Y-57372522D01*
X137734842Y-57372522D02*
X137734842Y-57324903D01*
X137734842Y-57324903D02*
X137782461Y-57229665D01*
X137782461Y-57229665D02*
X137830080Y-57182046D01*
X137830080Y-57182046D02*
X137925318Y-57134427D01*
X137925318Y-57134427D02*
X138115794Y-57134427D01*
X138115794Y-57134427D02*
X138211032Y-57182046D01*
X138211032Y-57182046D02*
X138258651Y-57229665D01*
X138258651Y-57229665D02*
X138306270Y-57324903D01*
X138306270Y-57324903D02*
X138306270Y-57372522D01*
X138306270Y-57372522D02*
X138258651Y-57467760D01*
X138258651Y-57467760D02*
X138211032Y-57515379D01*
X138211032Y-57515379D02*
X138115794Y-57562998D01*
X138115794Y-57562998D02*
X137925318Y-57562998D01*
X137925318Y-57562998D02*
X137830080Y-57610617D01*
X137830080Y-57610617D02*
X137782461Y-57658236D01*
X137782461Y-57658236D02*
X137734842Y-57753474D01*
X137734842Y-57753474D02*
X137734842Y-57943950D01*
X137734842Y-57943950D02*
X137782461Y-58039188D01*
X137782461Y-58039188D02*
X137830080Y-58086808D01*
X137830080Y-58086808D02*
X137925318Y-58134427D01*
X137925318Y-58134427D02*
X138115794Y-58134427D01*
X138115794Y-58134427D02*
X138211032Y-58086808D01*
X138211032Y-58086808D02*
X138258651Y-58039188D01*
X138258651Y-58039188D02*
X138306270Y-57943950D01*
X138306270Y-57943950D02*
X138306270Y-57753474D01*
X138306270Y-57753474D02*
X138258651Y-57658236D01*
X138258651Y-57658236D02*
X138211032Y-57610617D01*
X138211032Y-57610617D02*
X138115794Y-57562998D01*
X122939275Y-64566027D02*
X122939275Y-65375550D01*
X122939275Y-65375550D02*
X122986894Y-65470788D01*
X122986894Y-65470788D02*
X123034513Y-65518408D01*
X123034513Y-65518408D02*
X123129751Y-65566027D01*
X123129751Y-65566027D02*
X123320227Y-65566027D01*
X123320227Y-65566027D02*
X123415465Y-65518408D01*
X123415465Y-65518408D02*
X123463084Y-65470788D01*
X123463084Y-65470788D02*
X123510703Y-65375550D01*
X123510703Y-65375550D02*
X123510703Y-64566027D01*
X124415465Y-64899360D02*
X124415465Y-65566027D01*
X124177370Y-64518408D02*
X123939275Y-65232693D01*
X123939275Y-65232693D02*
X124558322Y-65232693D01*
X130481332Y-54099988D02*
X130433713Y-54147608D01*
X130433713Y-54147608D02*
X130290856Y-54195227D01*
X130290856Y-54195227D02*
X130195618Y-54195227D01*
X130195618Y-54195227D02*
X130052761Y-54147608D01*
X130052761Y-54147608D02*
X129957523Y-54052369D01*
X129957523Y-54052369D02*
X129909904Y-53957131D01*
X129909904Y-53957131D02*
X129862285Y-53766655D01*
X129862285Y-53766655D02*
X129862285Y-53623798D01*
X129862285Y-53623798D02*
X129909904Y-53433322D01*
X129909904Y-53433322D02*
X129957523Y-53338084D01*
X129957523Y-53338084D02*
X130052761Y-53242846D01*
X130052761Y-53242846D02*
X130195618Y-53195227D01*
X130195618Y-53195227D02*
X130290856Y-53195227D01*
X130290856Y-53195227D02*
X130433713Y-53242846D01*
X130433713Y-53242846D02*
X130481332Y-53290465D01*
X131433713Y-54195227D02*
X130862285Y-54195227D01*
X131147999Y-54195227D02*
X131147999Y-53195227D01*
X131147999Y-53195227D02*
X131052761Y-53338084D01*
X131052761Y-53338084D02*
X130957523Y-53433322D01*
X130957523Y-53433322D02*
X130862285Y-53480941D01*
X131767047Y-53195227D02*
X132386094Y-53195227D01*
X132386094Y-53195227D02*
X132052761Y-53576179D01*
X132052761Y-53576179D02*
X132195618Y-53576179D01*
X132195618Y-53576179D02*
X132290856Y-53623798D01*
X132290856Y-53623798D02*
X132338475Y-53671417D01*
X132338475Y-53671417D02*
X132386094Y-53766655D01*
X132386094Y-53766655D02*
X132386094Y-54004750D01*
X132386094Y-54004750D02*
X132338475Y-54099988D01*
X132338475Y-54099988D02*
X132290856Y-54147608D01*
X132290856Y-54147608D02*
X132195618Y-54195227D01*
X132195618Y-54195227D02*
X131909904Y-54195227D01*
X131909904Y-54195227D02*
X131814666Y-54147608D01*
X131814666Y-54147608D02*
X131767047Y-54099988D01*
X194243590Y-72969415D02*
X194291209Y-72826558D01*
X194291209Y-72826558D02*
X194291209Y-72588463D01*
X194291209Y-72588463D02*
X194243590Y-72493225D01*
X194243590Y-72493225D02*
X194195970Y-72445606D01*
X194195970Y-72445606D02*
X194100732Y-72397987D01*
X194100732Y-72397987D02*
X194005494Y-72397987D01*
X194005494Y-72397987D02*
X193910256Y-72445606D01*
X193910256Y-72445606D02*
X193862637Y-72493225D01*
X193862637Y-72493225D02*
X193815018Y-72588463D01*
X193815018Y-72588463D02*
X193767399Y-72778939D01*
X193767399Y-72778939D02*
X193719780Y-72874177D01*
X193719780Y-72874177D02*
X193672161Y-72921796D01*
X193672161Y-72921796D02*
X193576923Y-72969415D01*
X193576923Y-72969415D02*
X193481685Y-72969415D01*
X193481685Y-72969415D02*
X193386447Y-72921796D01*
X193386447Y-72921796D02*
X193338828Y-72874177D01*
X193338828Y-72874177D02*
X193291209Y-72778939D01*
X193291209Y-72778939D02*
X193291209Y-72540844D01*
X193291209Y-72540844D02*
X193338828Y-72397987D01*
X193291209Y-72064653D02*
X194291209Y-71826558D01*
X194291209Y-71826558D02*
X193576923Y-71636082D01*
X193576923Y-71636082D02*
X194291209Y-71445606D01*
X194291209Y-71445606D02*
X193291209Y-71207511D01*
X193386447Y-70874177D02*
X193338828Y-70826558D01*
X193338828Y-70826558D02*
X193291209Y-70731320D01*
X193291209Y-70731320D02*
X193291209Y-70493225D01*
X193291209Y-70493225D02*
X193338828Y-70397987D01*
X193338828Y-70397987D02*
X193386447Y-70350368D01*
X193386447Y-70350368D02*
X193481685Y-70302749D01*
X193481685Y-70302749D02*
X193576923Y-70302749D01*
X193576923Y-70302749D02*
X193719780Y-70350368D01*
X193719780Y-70350368D02*
X194291209Y-70921796D01*
X194291209Y-70921796D02*
X194291209Y-70302749D01*
X193291209Y-69683701D02*
X193291209Y-69588463D01*
X193291209Y-69588463D02*
X193338828Y-69493225D01*
X193338828Y-69493225D02*
X193386447Y-69445606D01*
X193386447Y-69445606D02*
X193481685Y-69397987D01*
X193481685Y-69397987D02*
X193672161Y-69350368D01*
X193672161Y-69350368D02*
X193910256Y-69350368D01*
X193910256Y-69350368D02*
X194100732Y-69397987D01*
X194100732Y-69397987D02*
X194195970Y-69445606D01*
X194195970Y-69445606D02*
X194243590Y-69493225D01*
X194243590Y-69493225D02*
X194291209Y-69588463D01*
X194291209Y-69588463D02*
X194291209Y-69683701D01*
X194291209Y-69683701D02*
X194243590Y-69778939D01*
X194243590Y-69778939D02*
X194195970Y-69826558D01*
X194195970Y-69826558D02*
X194100732Y-69874177D01*
X194100732Y-69874177D02*
X193910256Y-69921796D01*
X193910256Y-69921796D02*
X193672161Y-69921796D01*
X193672161Y-69921796D02*
X193481685Y-69874177D01*
X193481685Y-69874177D02*
X193386447Y-69826558D01*
X193386447Y-69826558D02*
X193338828Y-69778939D01*
X193338828Y-69778939D02*
X193291209Y-69683701D01*
X186066116Y-84874540D02*
X185461354Y-85297874D01*
X186066116Y-85600255D02*
X184796116Y-85600255D01*
X184796116Y-85600255D02*
X184796116Y-85116445D01*
X184796116Y-85116445D02*
X184856592Y-84995493D01*
X184856592Y-84995493D02*
X184917068Y-84935016D01*
X184917068Y-84935016D02*
X185038020Y-84874540D01*
X185038020Y-84874540D02*
X185219449Y-84874540D01*
X185219449Y-84874540D02*
X185340401Y-84935016D01*
X185340401Y-84935016D02*
X185400878Y-84995493D01*
X185400878Y-84995493D02*
X185461354Y-85116445D01*
X185461354Y-85116445D02*
X185461354Y-85600255D01*
X186066116Y-84148826D02*
X186005640Y-84269778D01*
X186005640Y-84269778D02*
X185945163Y-84330255D01*
X185945163Y-84330255D02*
X185824211Y-84390731D01*
X185824211Y-84390731D02*
X185461354Y-84390731D01*
X185461354Y-84390731D02*
X185340401Y-84330255D01*
X185340401Y-84330255D02*
X185279925Y-84269778D01*
X185279925Y-84269778D02*
X185219449Y-84148826D01*
X185219449Y-84148826D02*
X185219449Y-83967397D01*
X185219449Y-83967397D02*
X185279925Y-83846445D01*
X185279925Y-83846445D02*
X185340401Y-83785969D01*
X185340401Y-83785969D02*
X185461354Y-83725493D01*
X185461354Y-83725493D02*
X185824211Y-83725493D01*
X185824211Y-83725493D02*
X185945163Y-83785969D01*
X185945163Y-83785969D02*
X186005640Y-83846445D01*
X186005640Y-83846445D02*
X186066116Y-83967397D01*
X186066116Y-83967397D02*
X186066116Y-84148826D01*
X185219449Y-83362635D02*
X185219449Y-82878826D01*
X184796116Y-83181207D02*
X185884687Y-83181207D01*
X185884687Y-83181207D02*
X186005640Y-83120730D01*
X186005640Y-83120730D02*
X186066116Y-82999778D01*
X186066116Y-82999778D02*
X186066116Y-82878826D01*
X186066116Y-81911207D02*
X185400878Y-81911207D01*
X185400878Y-81911207D02*
X185279925Y-81971683D01*
X185279925Y-81971683D02*
X185219449Y-82092635D01*
X185219449Y-82092635D02*
X185219449Y-82334540D01*
X185219449Y-82334540D02*
X185279925Y-82455493D01*
X186005640Y-81911207D02*
X186066116Y-82032159D01*
X186066116Y-82032159D02*
X186066116Y-82334540D01*
X186066116Y-82334540D02*
X186005640Y-82455493D01*
X186005640Y-82455493D02*
X185884687Y-82515969D01*
X185884687Y-82515969D02*
X185763735Y-82515969D01*
X185763735Y-82515969D02*
X185642782Y-82455493D01*
X185642782Y-82455493D02*
X185582306Y-82334540D01*
X185582306Y-82334540D02*
X185582306Y-82032159D01*
X185582306Y-82032159D02*
X185521830Y-81911207D01*
X186066116Y-81306445D02*
X185219449Y-81306445D01*
X185461354Y-81306445D02*
X185340401Y-81245968D01*
X185340401Y-81245968D02*
X185279925Y-81185492D01*
X185279925Y-81185492D02*
X185219449Y-81064540D01*
X185219449Y-81064540D02*
X185219449Y-80943587D01*
X185219449Y-80641207D02*
X186066116Y-80338826D01*
X185219449Y-80036445D02*
X186066116Y-80338826D01*
X186066116Y-80338826D02*
X186368497Y-80459778D01*
X186368497Y-80459778D02*
X186428973Y-80520255D01*
X186428973Y-80520255D02*
X186489449Y-80641207D01*
X185400878Y-79552636D02*
X185400878Y-79129302D01*
X186066116Y-78947874D02*
X186066116Y-79552636D01*
X186066116Y-79552636D02*
X184796116Y-79552636D01*
X184796116Y-79552636D02*
X184796116Y-78947874D01*
X185219449Y-78403588D02*
X186066116Y-78403588D01*
X185340401Y-78403588D02*
X185279925Y-78343111D01*
X185279925Y-78343111D02*
X185219449Y-78222159D01*
X185219449Y-78222159D02*
X185219449Y-78040730D01*
X185219449Y-78040730D02*
X185279925Y-77919778D01*
X185279925Y-77919778D02*
X185400878Y-77859302D01*
X185400878Y-77859302D02*
X186066116Y-77859302D01*
X186005640Y-76710254D02*
X186066116Y-76831206D01*
X186066116Y-76831206D02*
X186066116Y-77073111D01*
X186066116Y-77073111D02*
X186005640Y-77194063D01*
X186005640Y-77194063D02*
X185945163Y-77254540D01*
X185945163Y-77254540D02*
X185824211Y-77315016D01*
X185824211Y-77315016D02*
X185461354Y-77315016D01*
X185461354Y-77315016D02*
X185340401Y-77254540D01*
X185340401Y-77254540D02*
X185279925Y-77194063D01*
X185279925Y-77194063D02*
X185219449Y-77073111D01*
X185219449Y-77073111D02*
X185219449Y-76831206D01*
X185219449Y-76831206D02*
X185279925Y-76710254D01*
X186066116Y-75984540D02*
X186005640Y-76105492D01*
X186005640Y-76105492D02*
X185945163Y-76165969D01*
X185945163Y-76165969D02*
X185824211Y-76226445D01*
X185824211Y-76226445D02*
X185461354Y-76226445D01*
X185461354Y-76226445D02*
X185340401Y-76165969D01*
X185340401Y-76165969D02*
X185279925Y-76105492D01*
X185279925Y-76105492D02*
X185219449Y-75984540D01*
X185219449Y-75984540D02*
X185219449Y-75803111D01*
X185219449Y-75803111D02*
X185279925Y-75682159D01*
X185279925Y-75682159D02*
X185340401Y-75621683D01*
X185340401Y-75621683D02*
X185461354Y-75561207D01*
X185461354Y-75561207D02*
X185824211Y-75561207D01*
X185824211Y-75561207D02*
X185945163Y-75621683D01*
X185945163Y-75621683D02*
X186005640Y-75682159D01*
X186005640Y-75682159D02*
X186066116Y-75803111D01*
X186066116Y-75803111D02*
X186066116Y-75984540D01*
X186066116Y-74472635D02*
X184796116Y-74472635D01*
X186005640Y-74472635D02*
X186066116Y-74593587D01*
X186066116Y-74593587D02*
X186066116Y-74835492D01*
X186066116Y-74835492D02*
X186005640Y-74956444D01*
X186005640Y-74956444D02*
X185945163Y-75016921D01*
X185945163Y-75016921D02*
X185824211Y-75077397D01*
X185824211Y-75077397D02*
X185461354Y-75077397D01*
X185461354Y-75077397D02*
X185340401Y-75016921D01*
X185340401Y-75016921D02*
X185279925Y-74956444D01*
X185279925Y-74956444D02*
X185219449Y-74835492D01*
X185219449Y-74835492D02*
X185219449Y-74593587D01*
X185219449Y-74593587D02*
X185279925Y-74472635D01*
X186005640Y-73384063D02*
X186066116Y-73505015D01*
X186066116Y-73505015D02*
X186066116Y-73746920D01*
X186066116Y-73746920D02*
X186005640Y-73867873D01*
X186005640Y-73867873D02*
X185884687Y-73928349D01*
X185884687Y-73928349D02*
X185400878Y-73928349D01*
X185400878Y-73928349D02*
X185279925Y-73867873D01*
X185279925Y-73867873D02*
X185219449Y-73746920D01*
X185219449Y-73746920D02*
X185219449Y-73505015D01*
X185219449Y-73505015D02*
X185279925Y-73384063D01*
X185279925Y-73384063D02*
X185400878Y-73323587D01*
X185400878Y-73323587D02*
X185521830Y-73323587D01*
X185521830Y-73323587D02*
X185642782Y-73928349D01*
X186066116Y-72779302D02*
X185219449Y-72779302D01*
X185461354Y-72779302D02*
X185340401Y-72718825D01*
X185340401Y-72718825D02*
X185279925Y-72658349D01*
X185279925Y-72658349D02*
X185219449Y-72537397D01*
X185219449Y-72537397D02*
X185219449Y-72416444D01*
X186187068Y-72295493D02*
X186187068Y-71327873D01*
X186005640Y-71085969D02*
X186066116Y-70904540D01*
X186066116Y-70904540D02*
X186066116Y-70602159D01*
X186066116Y-70602159D02*
X186005640Y-70481207D01*
X186005640Y-70481207D02*
X185945163Y-70420731D01*
X185945163Y-70420731D02*
X185824211Y-70360254D01*
X185824211Y-70360254D02*
X185703259Y-70360254D01*
X185703259Y-70360254D02*
X185582306Y-70420731D01*
X185582306Y-70420731D02*
X185521830Y-70481207D01*
X185521830Y-70481207D02*
X185461354Y-70602159D01*
X185461354Y-70602159D02*
X185400878Y-70844064D01*
X185400878Y-70844064D02*
X185340401Y-70965016D01*
X185340401Y-70965016D02*
X185279925Y-71025493D01*
X185279925Y-71025493D02*
X185158973Y-71085969D01*
X185158973Y-71085969D02*
X185038020Y-71085969D01*
X185038020Y-71085969D02*
X184917068Y-71025493D01*
X184917068Y-71025493D02*
X184856592Y-70965016D01*
X184856592Y-70965016D02*
X184796116Y-70844064D01*
X184796116Y-70844064D02*
X184796116Y-70541683D01*
X184796116Y-70541683D02*
X184856592Y-70360254D01*
X185219449Y-69936921D02*
X186066116Y-69695016D01*
X186066116Y-69695016D02*
X185461354Y-69453111D01*
X185461354Y-69453111D02*
X186066116Y-69211207D01*
X186066116Y-69211207D02*
X185219449Y-68969302D01*
X186066116Y-68485493D02*
X185219449Y-68485493D01*
X184796116Y-68485493D02*
X184856592Y-68545969D01*
X184856592Y-68545969D02*
X184917068Y-68485493D01*
X184917068Y-68485493D02*
X184856592Y-68425016D01*
X184856592Y-68425016D02*
X184796116Y-68485493D01*
X184796116Y-68485493D02*
X184917068Y-68485493D01*
X185219449Y-68062159D02*
X185219449Y-67578350D01*
X184796116Y-67880731D02*
X185884687Y-67880731D01*
X185884687Y-67880731D02*
X186005640Y-67820254D01*
X186005640Y-67820254D02*
X186066116Y-67699302D01*
X186066116Y-67699302D02*
X186066116Y-67578350D01*
X186005640Y-66610731D02*
X186066116Y-66731683D01*
X186066116Y-66731683D02*
X186066116Y-66973588D01*
X186066116Y-66973588D02*
X186005640Y-67094540D01*
X186005640Y-67094540D02*
X185945163Y-67155017D01*
X185945163Y-67155017D02*
X185824211Y-67215493D01*
X185824211Y-67215493D02*
X185461354Y-67215493D01*
X185461354Y-67215493D02*
X185340401Y-67155017D01*
X185340401Y-67155017D02*
X185279925Y-67094540D01*
X185279925Y-67094540D02*
X185219449Y-66973588D01*
X185219449Y-66973588D02*
X185219449Y-66731683D01*
X185219449Y-66731683D02*
X185279925Y-66610731D01*
X186066116Y-66066446D02*
X184796116Y-66066446D01*
X186066116Y-65522160D02*
X185400878Y-65522160D01*
X185400878Y-65522160D02*
X185279925Y-65582636D01*
X185279925Y-65582636D02*
X185219449Y-65703588D01*
X185219449Y-65703588D02*
X185219449Y-65885017D01*
X185219449Y-65885017D02*
X185279925Y-66005969D01*
X185279925Y-66005969D02*
X185340401Y-66066446D01*
X108825970Y-53954065D02*
X108873590Y-54001684D01*
X108873590Y-54001684D02*
X108921209Y-54144541D01*
X108921209Y-54144541D02*
X108921209Y-54239779D01*
X108921209Y-54239779D02*
X108873590Y-54382636D01*
X108873590Y-54382636D02*
X108778351Y-54477874D01*
X108778351Y-54477874D02*
X108683113Y-54525493D01*
X108683113Y-54525493D02*
X108492637Y-54573112D01*
X108492637Y-54573112D02*
X108349780Y-54573112D01*
X108349780Y-54573112D02*
X108159304Y-54525493D01*
X108159304Y-54525493D02*
X108064066Y-54477874D01*
X108064066Y-54477874D02*
X107968828Y-54382636D01*
X107968828Y-54382636D02*
X107921209Y-54239779D01*
X107921209Y-54239779D02*
X107921209Y-54144541D01*
X107921209Y-54144541D02*
X107968828Y-54001684D01*
X107968828Y-54001684D02*
X108016447Y-53954065D01*
X108921209Y-53001684D02*
X108921209Y-53573112D01*
X108921209Y-53287398D02*
X107921209Y-53287398D01*
X107921209Y-53287398D02*
X108064066Y-53382636D01*
X108064066Y-53382636D02*
X108159304Y-53477874D01*
X108159304Y-53477874D02*
X108206923Y-53573112D01*
X108254542Y-52144541D02*
X108921209Y-52144541D01*
X107873590Y-52382636D02*
X108587875Y-52620731D01*
X108587875Y-52620731D02*
X108587875Y-52001684D01*
X193993590Y-54219415D02*
X194041209Y-54076558D01*
X194041209Y-54076558D02*
X194041209Y-53838463D01*
X194041209Y-53838463D02*
X193993590Y-53743225D01*
X193993590Y-53743225D02*
X193945970Y-53695606D01*
X193945970Y-53695606D02*
X193850732Y-53647987D01*
X193850732Y-53647987D02*
X193755494Y-53647987D01*
X193755494Y-53647987D02*
X193660256Y-53695606D01*
X193660256Y-53695606D02*
X193612637Y-53743225D01*
X193612637Y-53743225D02*
X193565018Y-53838463D01*
X193565018Y-53838463D02*
X193517399Y-54028939D01*
X193517399Y-54028939D02*
X193469780Y-54124177D01*
X193469780Y-54124177D02*
X193422161Y-54171796D01*
X193422161Y-54171796D02*
X193326923Y-54219415D01*
X193326923Y-54219415D02*
X193231685Y-54219415D01*
X193231685Y-54219415D02*
X193136447Y-54171796D01*
X193136447Y-54171796D02*
X193088828Y-54124177D01*
X193088828Y-54124177D02*
X193041209Y-54028939D01*
X193041209Y-54028939D02*
X193041209Y-53790844D01*
X193041209Y-53790844D02*
X193088828Y-53647987D01*
X193041209Y-53314653D02*
X194041209Y-53076558D01*
X194041209Y-53076558D02*
X193326923Y-52886082D01*
X193326923Y-52886082D02*
X194041209Y-52695606D01*
X194041209Y-52695606D02*
X193041209Y-52457511D01*
X193136447Y-52124177D02*
X193088828Y-52076558D01*
X193088828Y-52076558D02*
X193041209Y-51981320D01*
X193041209Y-51981320D02*
X193041209Y-51743225D01*
X193041209Y-51743225D02*
X193088828Y-51647987D01*
X193088828Y-51647987D02*
X193136447Y-51600368D01*
X193136447Y-51600368D02*
X193231685Y-51552749D01*
X193231685Y-51552749D02*
X193326923Y-51552749D01*
X193326923Y-51552749D02*
X193469780Y-51600368D01*
X193469780Y-51600368D02*
X194041209Y-52171796D01*
X194041209Y-52171796D02*
X194041209Y-51552749D01*
X194041209Y-50600368D02*
X194041209Y-51171796D01*
X194041209Y-50886082D02*
X193041209Y-50886082D01*
X193041209Y-50886082D02*
X193184066Y-50981320D01*
X193184066Y-50981320D02*
X193279304Y-51076558D01*
X193279304Y-51076558D02*
X193326923Y-51171796D01*
X185816116Y-66124540D02*
X185211354Y-66547874D01*
X185816116Y-66850255D02*
X184546116Y-66850255D01*
X184546116Y-66850255D02*
X184546116Y-66366445D01*
X184546116Y-66366445D02*
X184606592Y-66245493D01*
X184606592Y-66245493D02*
X184667068Y-66185016D01*
X184667068Y-66185016D02*
X184788020Y-66124540D01*
X184788020Y-66124540D02*
X184969449Y-66124540D01*
X184969449Y-66124540D02*
X185090401Y-66185016D01*
X185090401Y-66185016D02*
X185150878Y-66245493D01*
X185150878Y-66245493D02*
X185211354Y-66366445D01*
X185211354Y-66366445D02*
X185211354Y-66850255D01*
X185816116Y-65398826D02*
X185755640Y-65519778D01*
X185755640Y-65519778D02*
X185695163Y-65580255D01*
X185695163Y-65580255D02*
X185574211Y-65640731D01*
X185574211Y-65640731D02*
X185211354Y-65640731D01*
X185211354Y-65640731D02*
X185090401Y-65580255D01*
X185090401Y-65580255D02*
X185029925Y-65519778D01*
X185029925Y-65519778D02*
X184969449Y-65398826D01*
X184969449Y-65398826D02*
X184969449Y-65217397D01*
X184969449Y-65217397D02*
X185029925Y-65096445D01*
X185029925Y-65096445D02*
X185090401Y-65035969D01*
X185090401Y-65035969D02*
X185211354Y-64975493D01*
X185211354Y-64975493D02*
X185574211Y-64975493D01*
X185574211Y-64975493D02*
X185695163Y-65035969D01*
X185695163Y-65035969D02*
X185755640Y-65096445D01*
X185755640Y-65096445D02*
X185816116Y-65217397D01*
X185816116Y-65217397D02*
X185816116Y-65398826D01*
X184969449Y-64612635D02*
X184969449Y-64128826D01*
X184546116Y-64431207D02*
X185634687Y-64431207D01*
X185634687Y-64431207D02*
X185755640Y-64370730D01*
X185755640Y-64370730D02*
X185816116Y-64249778D01*
X185816116Y-64249778D02*
X185816116Y-64128826D01*
X185816116Y-63161207D02*
X185150878Y-63161207D01*
X185150878Y-63161207D02*
X185029925Y-63221683D01*
X185029925Y-63221683D02*
X184969449Y-63342635D01*
X184969449Y-63342635D02*
X184969449Y-63584540D01*
X184969449Y-63584540D02*
X185029925Y-63705493D01*
X185755640Y-63161207D02*
X185816116Y-63282159D01*
X185816116Y-63282159D02*
X185816116Y-63584540D01*
X185816116Y-63584540D02*
X185755640Y-63705493D01*
X185755640Y-63705493D02*
X185634687Y-63765969D01*
X185634687Y-63765969D02*
X185513735Y-63765969D01*
X185513735Y-63765969D02*
X185392782Y-63705493D01*
X185392782Y-63705493D02*
X185332306Y-63584540D01*
X185332306Y-63584540D02*
X185332306Y-63282159D01*
X185332306Y-63282159D02*
X185271830Y-63161207D01*
X185816116Y-62556445D02*
X184969449Y-62556445D01*
X185211354Y-62556445D02*
X185090401Y-62495968D01*
X185090401Y-62495968D02*
X185029925Y-62435492D01*
X185029925Y-62435492D02*
X184969449Y-62314540D01*
X184969449Y-62314540D02*
X184969449Y-62193587D01*
X184969449Y-61891207D02*
X185816116Y-61588826D01*
X184969449Y-61286445D02*
X185816116Y-61588826D01*
X185816116Y-61588826D02*
X186118497Y-61709778D01*
X186118497Y-61709778D02*
X186178973Y-61770255D01*
X186178973Y-61770255D02*
X186239449Y-61891207D01*
X185150878Y-60802636D02*
X185150878Y-60379302D01*
X185816116Y-60197874D02*
X185816116Y-60802636D01*
X185816116Y-60802636D02*
X184546116Y-60802636D01*
X184546116Y-60802636D02*
X184546116Y-60197874D01*
X184969449Y-59653588D02*
X185816116Y-59653588D01*
X185090401Y-59653588D02*
X185029925Y-59593111D01*
X185029925Y-59593111D02*
X184969449Y-59472159D01*
X184969449Y-59472159D02*
X184969449Y-59290730D01*
X184969449Y-59290730D02*
X185029925Y-59169778D01*
X185029925Y-59169778D02*
X185150878Y-59109302D01*
X185150878Y-59109302D02*
X185816116Y-59109302D01*
X185755640Y-57960254D02*
X185816116Y-58081206D01*
X185816116Y-58081206D02*
X185816116Y-58323111D01*
X185816116Y-58323111D02*
X185755640Y-58444063D01*
X185755640Y-58444063D02*
X185695163Y-58504540D01*
X185695163Y-58504540D02*
X185574211Y-58565016D01*
X185574211Y-58565016D02*
X185211354Y-58565016D01*
X185211354Y-58565016D02*
X185090401Y-58504540D01*
X185090401Y-58504540D02*
X185029925Y-58444063D01*
X185029925Y-58444063D02*
X184969449Y-58323111D01*
X184969449Y-58323111D02*
X184969449Y-58081206D01*
X184969449Y-58081206D02*
X185029925Y-57960254D01*
X185816116Y-57234540D02*
X185755640Y-57355492D01*
X185755640Y-57355492D02*
X185695163Y-57415969D01*
X185695163Y-57415969D02*
X185574211Y-57476445D01*
X185574211Y-57476445D02*
X185211354Y-57476445D01*
X185211354Y-57476445D02*
X185090401Y-57415969D01*
X185090401Y-57415969D02*
X185029925Y-57355492D01*
X185029925Y-57355492D02*
X184969449Y-57234540D01*
X184969449Y-57234540D02*
X184969449Y-57053111D01*
X184969449Y-57053111D02*
X185029925Y-56932159D01*
X185029925Y-56932159D02*
X185090401Y-56871683D01*
X185090401Y-56871683D02*
X185211354Y-56811207D01*
X185211354Y-56811207D02*
X185574211Y-56811207D01*
X185574211Y-56811207D02*
X185695163Y-56871683D01*
X185695163Y-56871683D02*
X185755640Y-56932159D01*
X185755640Y-56932159D02*
X185816116Y-57053111D01*
X185816116Y-57053111D02*
X185816116Y-57234540D01*
X185816116Y-55722635D02*
X184546116Y-55722635D01*
X185755640Y-55722635D02*
X185816116Y-55843587D01*
X185816116Y-55843587D02*
X185816116Y-56085492D01*
X185816116Y-56085492D02*
X185755640Y-56206444D01*
X185755640Y-56206444D02*
X185695163Y-56266921D01*
X185695163Y-56266921D02*
X185574211Y-56327397D01*
X185574211Y-56327397D02*
X185211354Y-56327397D01*
X185211354Y-56327397D02*
X185090401Y-56266921D01*
X185090401Y-56266921D02*
X185029925Y-56206444D01*
X185029925Y-56206444D02*
X184969449Y-56085492D01*
X184969449Y-56085492D02*
X184969449Y-55843587D01*
X184969449Y-55843587D02*
X185029925Y-55722635D01*
X185755640Y-54634063D02*
X185816116Y-54755015D01*
X185816116Y-54755015D02*
X185816116Y-54996920D01*
X185816116Y-54996920D02*
X185755640Y-55117873D01*
X185755640Y-55117873D02*
X185634687Y-55178349D01*
X185634687Y-55178349D02*
X185150878Y-55178349D01*
X185150878Y-55178349D02*
X185029925Y-55117873D01*
X185029925Y-55117873D02*
X184969449Y-54996920D01*
X184969449Y-54996920D02*
X184969449Y-54755015D01*
X184969449Y-54755015D02*
X185029925Y-54634063D01*
X185029925Y-54634063D02*
X185150878Y-54573587D01*
X185150878Y-54573587D02*
X185271830Y-54573587D01*
X185271830Y-54573587D02*
X185392782Y-55178349D01*
X185816116Y-54029302D02*
X184969449Y-54029302D01*
X185211354Y-54029302D02*
X185090401Y-53968825D01*
X185090401Y-53968825D02*
X185029925Y-53908349D01*
X185029925Y-53908349D02*
X184969449Y-53787397D01*
X184969449Y-53787397D02*
X184969449Y-53666444D01*
X185937068Y-53545493D02*
X185937068Y-52577873D01*
X185755640Y-52335969D02*
X185816116Y-52154540D01*
X185816116Y-52154540D02*
X185816116Y-51852159D01*
X185816116Y-51852159D02*
X185755640Y-51731207D01*
X185755640Y-51731207D02*
X185695163Y-51670731D01*
X185695163Y-51670731D02*
X185574211Y-51610254D01*
X185574211Y-51610254D02*
X185453259Y-51610254D01*
X185453259Y-51610254D02*
X185332306Y-51670731D01*
X185332306Y-51670731D02*
X185271830Y-51731207D01*
X185271830Y-51731207D02*
X185211354Y-51852159D01*
X185211354Y-51852159D02*
X185150878Y-52094064D01*
X185150878Y-52094064D02*
X185090401Y-52215016D01*
X185090401Y-52215016D02*
X185029925Y-52275493D01*
X185029925Y-52275493D02*
X184908973Y-52335969D01*
X184908973Y-52335969D02*
X184788020Y-52335969D01*
X184788020Y-52335969D02*
X184667068Y-52275493D01*
X184667068Y-52275493D02*
X184606592Y-52215016D01*
X184606592Y-52215016D02*
X184546116Y-52094064D01*
X184546116Y-52094064D02*
X184546116Y-51791683D01*
X184546116Y-51791683D02*
X184606592Y-51610254D01*
X184969449Y-51186921D02*
X185816116Y-50945016D01*
X185816116Y-50945016D02*
X185211354Y-50703111D01*
X185211354Y-50703111D02*
X185816116Y-50461207D01*
X185816116Y-50461207D02*
X184969449Y-50219302D01*
X185816116Y-49735493D02*
X184969449Y-49735493D01*
X184546116Y-49735493D02*
X184606592Y-49795969D01*
X184606592Y-49795969D02*
X184667068Y-49735493D01*
X184667068Y-49735493D02*
X184606592Y-49675016D01*
X184606592Y-49675016D02*
X184546116Y-49735493D01*
X184546116Y-49735493D02*
X184667068Y-49735493D01*
X184969449Y-49312159D02*
X184969449Y-48828350D01*
X184546116Y-49130731D02*
X185634687Y-49130731D01*
X185634687Y-49130731D02*
X185755640Y-49070254D01*
X185755640Y-49070254D02*
X185816116Y-48949302D01*
X185816116Y-48949302D02*
X185816116Y-48828350D01*
X185755640Y-47860731D02*
X185816116Y-47981683D01*
X185816116Y-47981683D02*
X185816116Y-48223588D01*
X185816116Y-48223588D02*
X185755640Y-48344540D01*
X185755640Y-48344540D02*
X185695163Y-48405017D01*
X185695163Y-48405017D02*
X185574211Y-48465493D01*
X185574211Y-48465493D02*
X185211354Y-48465493D01*
X185211354Y-48465493D02*
X185090401Y-48405017D01*
X185090401Y-48405017D02*
X185029925Y-48344540D01*
X185029925Y-48344540D02*
X184969449Y-48223588D01*
X184969449Y-48223588D02*
X184969449Y-47981683D01*
X184969449Y-47981683D02*
X185029925Y-47860731D01*
X185816116Y-47316446D02*
X184546116Y-47316446D01*
X185816116Y-46772160D02*
X185150878Y-46772160D01*
X185150878Y-46772160D02*
X185029925Y-46832636D01*
X185029925Y-46832636D02*
X184969449Y-46953588D01*
X184969449Y-46953588D02*
X184969449Y-47135017D01*
X184969449Y-47135017D02*
X185029925Y-47255969D01*
X185029925Y-47255969D02*
X185090401Y-47316446D01*
X130631532Y-52347388D02*
X130583913Y-52395008D01*
X130583913Y-52395008D02*
X130441056Y-52442627D01*
X130441056Y-52442627D02*
X130345818Y-52442627D01*
X130345818Y-52442627D02*
X130202961Y-52395008D01*
X130202961Y-52395008D02*
X130107723Y-52299769D01*
X130107723Y-52299769D02*
X130060104Y-52204531D01*
X130060104Y-52204531D02*
X130012485Y-52014055D01*
X130012485Y-52014055D02*
X130012485Y-51871198D01*
X130012485Y-51871198D02*
X130060104Y-51680722D01*
X130060104Y-51680722D02*
X130107723Y-51585484D01*
X130107723Y-51585484D02*
X130202961Y-51490246D01*
X130202961Y-51490246D02*
X130345818Y-51442627D01*
X130345818Y-51442627D02*
X130441056Y-51442627D01*
X130441056Y-51442627D02*
X130583913Y-51490246D01*
X130583913Y-51490246D02*
X130631532Y-51537865D01*
X131583913Y-52442627D02*
X131012485Y-52442627D01*
X131298199Y-52442627D02*
X131298199Y-51442627D01*
X131298199Y-51442627D02*
X131202961Y-51585484D01*
X131202961Y-51585484D02*
X131107723Y-51680722D01*
X131107723Y-51680722D02*
X131012485Y-51728341D01*
X131964866Y-51537865D02*
X132012485Y-51490246D01*
X132012485Y-51490246D02*
X132107723Y-51442627D01*
X132107723Y-51442627D02*
X132345818Y-51442627D01*
X132345818Y-51442627D02*
X132441056Y-51490246D01*
X132441056Y-51490246D02*
X132488675Y-51537865D01*
X132488675Y-51537865D02*
X132536294Y-51633103D01*
X132536294Y-51633103D02*
X132536294Y-51728341D01*
X132536294Y-51728341D02*
X132488675Y-51871198D01*
X132488675Y-51871198D02*
X131917247Y-52442627D01*
X131917247Y-52442627D02*
X132536294Y-52442627D01*
X114872389Y-70103682D02*
X114396198Y-70437015D01*
X114872389Y-70675110D02*
X113872389Y-70675110D01*
X113872389Y-70675110D02*
X113872389Y-70294158D01*
X113872389Y-70294158D02*
X113920008Y-70198920D01*
X113920008Y-70198920D02*
X113967627Y-70151301D01*
X113967627Y-70151301D02*
X114062865Y-70103682D01*
X114062865Y-70103682D02*
X114205722Y-70103682D01*
X114205722Y-70103682D02*
X114300960Y-70151301D01*
X114300960Y-70151301D02*
X114348579Y-70198920D01*
X114348579Y-70198920D02*
X114396198Y-70294158D01*
X114396198Y-70294158D02*
X114396198Y-70675110D01*
X114872389Y-69151301D02*
X114872389Y-69722729D01*
X114872389Y-69437015D02*
X113872389Y-69437015D01*
X113872389Y-69437015D02*
X114015246Y-69532253D01*
X114015246Y-69532253D02*
X114110484Y-69627491D01*
X114110484Y-69627491D02*
X114158103Y-69722729D01*
X130943532Y-65636027D02*
X130610199Y-65159836D01*
X130372104Y-65636027D02*
X130372104Y-64636027D01*
X130372104Y-64636027D02*
X130753056Y-64636027D01*
X130753056Y-64636027D02*
X130848294Y-64683646D01*
X130848294Y-64683646D02*
X130895913Y-64731265D01*
X130895913Y-64731265D02*
X130943532Y-64826503D01*
X130943532Y-64826503D02*
X130943532Y-64969360D01*
X130943532Y-64969360D02*
X130895913Y-65064598D01*
X130895913Y-65064598D02*
X130848294Y-65112217D01*
X130848294Y-65112217D02*
X130753056Y-65159836D01*
X130753056Y-65159836D02*
X130372104Y-65159836D01*
X131324485Y-64731265D02*
X131372104Y-64683646D01*
X131372104Y-64683646D02*
X131467342Y-64636027D01*
X131467342Y-64636027D02*
X131705437Y-64636027D01*
X131705437Y-64636027D02*
X131800675Y-64683646D01*
X131800675Y-64683646D02*
X131848294Y-64731265D01*
X131848294Y-64731265D02*
X131895913Y-64826503D01*
X131895913Y-64826503D02*
X131895913Y-64921741D01*
X131895913Y-64921741D02*
X131848294Y-65064598D01*
X131848294Y-65064598D02*
X131276866Y-65636027D01*
X131276866Y-65636027D02*
X131895913Y-65636027D01*
X132514961Y-64636027D02*
X132610199Y-64636027D01*
X132610199Y-64636027D02*
X132705437Y-64683646D01*
X132705437Y-64683646D02*
X132753056Y-64731265D01*
X132753056Y-64731265D02*
X132800675Y-64826503D01*
X132800675Y-64826503D02*
X132848294Y-65016979D01*
X132848294Y-65016979D02*
X132848294Y-65255074D01*
X132848294Y-65255074D02*
X132800675Y-65445550D01*
X132800675Y-65445550D02*
X132753056Y-65540788D01*
X132753056Y-65540788D02*
X132705437Y-65588408D01*
X132705437Y-65588408D02*
X132610199Y-65636027D01*
X132610199Y-65636027D02*
X132514961Y-65636027D01*
X132514961Y-65636027D02*
X132419723Y-65588408D01*
X132419723Y-65588408D02*
X132372104Y-65540788D01*
X132372104Y-65540788D02*
X132324485Y-65445550D01*
X132324485Y-65445550D02*
X132276866Y-65255074D01*
X132276866Y-65255074D02*
X132276866Y-65016979D01*
X132276866Y-65016979D02*
X132324485Y-64826503D01*
X132324485Y-64826503D02*
X132372104Y-64731265D01*
X132372104Y-64731265D02*
X132419723Y-64683646D01*
X132419723Y-64683646D02*
X132514961Y-64636027D01*
X140276427Y-142429922D02*
X140990712Y-142429922D01*
X140990712Y-142429922D02*
X141133569Y-142477541D01*
X141133569Y-142477541D02*
X141228808Y-142572779D01*
X141228808Y-142572779D02*
X141276427Y-142715636D01*
X141276427Y-142715636D02*
X141276427Y-142810874D01*
X140609760Y-141525160D02*
X141276427Y-141525160D01*
X140228808Y-141763255D02*
X140943093Y-142001350D01*
X140943093Y-142001350D02*
X140943093Y-141382303D01*
X131893532Y-59766027D02*
X131560199Y-59289836D01*
X131322104Y-59766027D02*
X131322104Y-58766027D01*
X131322104Y-58766027D02*
X131703056Y-58766027D01*
X131703056Y-58766027D02*
X131798294Y-58813646D01*
X131798294Y-58813646D02*
X131845913Y-58861265D01*
X131845913Y-58861265D02*
X131893532Y-58956503D01*
X131893532Y-58956503D02*
X131893532Y-59099360D01*
X131893532Y-59099360D02*
X131845913Y-59194598D01*
X131845913Y-59194598D02*
X131798294Y-59242217D01*
X131798294Y-59242217D02*
X131703056Y-59289836D01*
X131703056Y-59289836D02*
X131322104Y-59289836D01*
X132274485Y-58861265D02*
X132322104Y-58813646D01*
X132322104Y-58813646D02*
X132417342Y-58766027D01*
X132417342Y-58766027D02*
X132655437Y-58766027D01*
X132655437Y-58766027D02*
X132750675Y-58813646D01*
X132750675Y-58813646D02*
X132798294Y-58861265D01*
X132798294Y-58861265D02*
X132845913Y-58956503D01*
X132845913Y-58956503D02*
X132845913Y-59051741D01*
X132845913Y-59051741D02*
X132798294Y-59194598D01*
X132798294Y-59194598D02*
X132226866Y-59766027D01*
X132226866Y-59766027D02*
X132845913Y-59766027D01*
X133179247Y-58766027D02*
X133798294Y-58766027D01*
X133798294Y-58766027D02*
X133464961Y-59146979D01*
X133464961Y-59146979D02*
X133607818Y-59146979D01*
X133607818Y-59146979D02*
X133703056Y-59194598D01*
X133703056Y-59194598D02*
X133750675Y-59242217D01*
X133750675Y-59242217D02*
X133798294Y-59337455D01*
X133798294Y-59337455D02*
X133798294Y-59575550D01*
X133798294Y-59575550D02*
X133750675Y-59670788D01*
X133750675Y-59670788D02*
X133703056Y-59718408D01*
X133703056Y-59718408D02*
X133607818Y-59766027D01*
X133607818Y-59766027D02*
X133322104Y-59766027D01*
X133322104Y-59766027D02*
X133226866Y-59718408D01*
X133226866Y-59718408D02*
X133179247Y-59670788D01*
D14*
%TO.C,TP13*%
X126899980Y-67130016D02*
G75*
G02*
X125499980Y-67130016I-700000J0D01*
G01*
X125499980Y-67130016D02*
G75*
G02*
X126899980Y-67130016I700000J0D01*
G01*
%TO.C,TP12*%
X128499980Y-65130016D02*
G75*
G02*
X127099980Y-65130016I-700000J0D01*
G01*
X127099980Y-65130016D02*
G75*
G02*
X128499980Y-65130016I700000J0D01*
G01*
%TO.C,TP4*%
X103899980Y-57230016D02*
G75*
G02*
X102499980Y-57230016I-700000J0D01*
G01*
X102499980Y-57230016D02*
G75*
G02*
X103899980Y-57230016I700000J0D01*
G01*
%TO.C,TP3*%
X103899980Y-54180016D02*
G75*
G02*
X102499980Y-54180016I-700000J0D01*
G01*
X102499980Y-54180016D02*
G75*
G02*
X103899980Y-54180016I700000J0D01*
G01*
%TO.C,TP2*%
X103899980Y-51130016D02*
G75*
G02*
X102499980Y-51130016I-700000J0D01*
G01*
X102499980Y-51130016D02*
G75*
G02*
X103899980Y-51130016I700000J0D01*
G01*
%TO.C,TP11*%
X118051180Y-75906016D02*
G75*
G02*
X116651180Y-75906016I-700000J0D01*
G01*
X116651180Y-75906016D02*
G75*
G02*
X118051180Y-75906016I700000J0D01*
G01*
%TO.C,TP10*%
X116019180Y-74509016D02*
G75*
G02*
X114619180Y-74509016I-700000J0D01*
G01*
X114619180Y-74509016D02*
G75*
G02*
X116019180Y-74509016I700000J0D01*
G01*
%TO.C,TP9*%
X114190380Y-73035816D02*
G75*
G02*
X112790380Y-73035816I-700000J0D01*
G01*
X112790380Y-73035816D02*
G75*
G02*
X114190380Y-73035816I700000J0D01*
G01*
%TO.C,TP8*%
X115333380Y-79614416D02*
G75*
G02*
X113933380Y-79614416I-700000J0D01*
G01*
X113933380Y-79614416D02*
G75*
G02*
X115333380Y-79614416I700000J0D01*
G01*
%TO.C,TP7*%
X113529980Y-77963416D02*
G75*
G02*
X112129980Y-77963416I-700000J0D01*
G01*
X112129980Y-77963416D02*
G75*
G02*
X113529980Y-77963416I700000J0D01*
G01*
%TO.C,TP6*%
X111878980Y-76261616D02*
G75*
G02*
X110478980Y-76261616I-700000J0D01*
G01*
X110478980Y-76261616D02*
G75*
G02*
X111878980Y-76261616I700000J0D01*
G01*
%TO.C,TP5*%
X110075580Y-74661416D02*
G75*
G02*
X108675580Y-74661416I-700000J0D01*
G01*
X108675580Y-74661416D02*
G75*
G02*
X110075580Y-74661416I700000J0D01*
G01*
%TO.C,TP1*%
X108246780Y-73061216D02*
G75*
G02*
X106846780Y-73061216I-700000J0D01*
G01*
X106846780Y-73061216D02*
G75*
G02*
X108246780Y-73061216I700000J0D01*
G01*
D15*
%TO.C,J7*%
X151524180Y-59195216D02*
X150424180Y-59195216D01*
X151524180Y-61095216D02*
X151524180Y-59195216D01*
X151524180Y-72495216D02*
X151524180Y-70595216D01*
X150424180Y-72495216D02*
X151524180Y-72495216D01*
X146524180Y-72495216D02*
X147524180Y-72495216D01*
X146524180Y-59195216D02*
X146524180Y-72495216D01*
X147524180Y-59195216D02*
X146524180Y-59195216D01*
D10*
X153689180Y-61595216D02*
G75*
G02*
X153489180Y-61595216I-100000J0D01*
G01*
X153489180Y-61595216D02*
G75*
G02*
X153689180Y-61595216I100000J0D01*
G01*
D14*
%TO.C,R19*%
X131281666Y-68588708D02*
X131791114Y-68588708D01*
X131281666Y-69633708D02*
X131791114Y-69633708D01*
%TO.C,C11*%
X127663890Y-50714941D02*
X127663890Y-51007475D01*
X128683890Y-50714941D02*
X128683890Y-51007475D01*
%TO.C,R21*%
X129503614Y-60638708D02*
X128994166Y-60638708D01*
X129503614Y-61683708D02*
X128994166Y-61683708D01*
%TO.C,J2*%
X194907608Y-87680589D02*
X196237608Y-87680589D01*
X194907608Y-89010589D02*
X194907608Y-87680589D01*
X194907608Y-90280589D02*
X194907608Y-100500589D01*
X194907608Y-90280589D02*
X197567608Y-90280589D01*
X194907608Y-100500589D02*
X197567608Y-100500589D01*
X197567608Y-90280589D02*
X197567608Y-100500589D01*
D13*
%TO.C,SW6*%
X140741790Y-87583608D02*
X140741790Y-86583608D01*
X140741790Y-101583608D02*
X140741790Y-100583608D01*
X140741790Y-101583608D02*
X141741790Y-101583608D01*
X141741790Y-86583608D02*
X140741790Y-86583608D01*
X154741790Y-101583608D02*
X155741790Y-101583608D01*
X155741790Y-86583608D02*
X154741790Y-86583608D01*
X155741790Y-86583608D02*
X155741790Y-87583608D01*
X155741790Y-100583608D02*
X155741790Y-101583608D01*
%TO.C,SW13*%
X177941790Y-106183608D02*
X177941790Y-105183608D01*
X177941790Y-120183608D02*
X177941790Y-119183608D01*
X177941790Y-120183608D02*
X178941790Y-120183608D01*
X178941790Y-105183608D02*
X177941790Y-105183608D01*
X191941790Y-120183608D02*
X192941790Y-120183608D01*
X192941790Y-105183608D02*
X191941790Y-105183608D01*
X192941790Y-105183608D02*
X192941790Y-106183608D01*
X192941790Y-119183608D02*
X192941790Y-120183608D01*
D14*
%TO.C,J3*%
X98895608Y-87680589D02*
X100225608Y-87680589D01*
X98895608Y-89010589D02*
X98895608Y-87680589D01*
X98895608Y-90280589D02*
X98895608Y-100500589D01*
X98895608Y-90280589D02*
X101555608Y-90280589D01*
X98895608Y-100500589D02*
X101555608Y-100500589D01*
X101555608Y-90280589D02*
X101555608Y-100500589D01*
%TO.C,R18*%
X136789642Y-58587108D02*
X137299090Y-58587108D01*
X136789642Y-59632108D02*
X137299090Y-59632108D01*
D13*
%TO.C,SW12*%
X159341790Y-106183608D02*
X159341790Y-105183608D01*
X159341790Y-120183608D02*
X159341790Y-119183608D01*
X159341790Y-120183608D02*
X160341790Y-120183608D01*
X160341790Y-105183608D02*
X159341790Y-105183608D01*
X173341790Y-120183608D02*
X174341790Y-120183608D01*
X174341790Y-105183608D02*
X173341790Y-105183608D01*
X174341790Y-105183608D02*
X174341790Y-106183608D01*
X174341790Y-119183608D02*
X174341790Y-120183608D01*
%TO.C,SW9*%
X103541790Y-106183608D02*
X103541790Y-105183608D01*
X103541790Y-120183608D02*
X103541790Y-119183608D01*
X103541790Y-120183608D02*
X104541790Y-120183608D01*
X104541790Y-105183608D02*
X103541790Y-105183608D01*
X117541790Y-120183608D02*
X118541790Y-120183608D01*
X118541790Y-105183608D02*
X117541790Y-105183608D01*
X118541790Y-105183608D02*
X118541790Y-106183608D01*
X118541790Y-119183608D02*
X118541790Y-120183608D01*
%TO.C,SW5*%
X122141790Y-87583608D02*
X122141790Y-86583608D01*
X122141790Y-101583608D02*
X122141790Y-100583608D01*
X122141790Y-101583608D02*
X123141790Y-101583608D01*
X123141790Y-86583608D02*
X122141790Y-86583608D01*
X136141790Y-101583608D02*
X137141790Y-101583608D01*
X137141790Y-86583608D02*
X136141790Y-86583608D01*
X137141790Y-86583608D02*
X137141790Y-87583608D01*
X137141790Y-100583608D02*
X137141790Y-101583608D01*
%TO.C,SW11*%
X140741790Y-106183608D02*
X140741790Y-105183608D01*
X140741790Y-120183608D02*
X140741790Y-119183608D01*
X140741790Y-120183608D02*
X141741790Y-120183608D01*
X141741790Y-105183608D02*
X140741790Y-105183608D01*
X154741790Y-120183608D02*
X155741790Y-120183608D01*
X155741790Y-105183608D02*
X154741790Y-105183608D01*
X155741790Y-105183608D02*
X155741790Y-106183608D01*
X155741790Y-119183608D02*
X155741790Y-120183608D01*
D14*
%TO.C,U4*%
X109361390Y-42661208D02*
X109361390Y-45111208D01*
X109361390Y-42661208D02*
X111811390Y-42661208D01*
X109636390Y-42911208D02*
X125236390Y-42911208D01*
X109636390Y-63611208D02*
X109636390Y-42911208D01*
X125236390Y-42911208D02*
X125236390Y-63611208D01*
X125236390Y-63611208D02*
X109636390Y-63611208D01*
X109461390Y-49861208D02*
X109125390Y-50101208D01*
X109125390Y-49621208D01*
X109461390Y-49861208D01*
G36*
X109461390Y-49861208D02*
G01*
X109125390Y-50101208D01*
X109125390Y-49621208D01*
X109461390Y-49861208D01*
G37*
D13*
%TO.C,SW10*%
X122141790Y-106183608D02*
X122141790Y-105183608D01*
X122141790Y-120183608D02*
X122141790Y-119183608D01*
X122141790Y-120183608D02*
X123141790Y-120183608D01*
X123141790Y-105183608D02*
X122141790Y-105183608D01*
X136141790Y-120183608D02*
X137141790Y-120183608D01*
X137141790Y-105183608D02*
X136141790Y-105183608D01*
X137141790Y-105183608D02*
X137141790Y-106183608D01*
X137141790Y-119183608D02*
X137141790Y-120183608D01*
D14*
%TO.C,C13*%
X134127523Y-53154208D02*
X134420057Y-53154208D01*
X134127523Y-54174208D02*
X134420057Y-54174208D01*
D13*
%TO.C,SW20*%
X178536390Y-69061208D02*
X178536390Y-71911208D01*
X178536390Y-69061208D02*
X182611390Y-69061208D01*
X178536390Y-74211208D02*
X178536390Y-74411208D01*
X178536390Y-76711208D02*
X178536390Y-76911208D01*
X178536390Y-79211208D02*
X178536390Y-82061208D01*
X178536390Y-82061208D02*
X182611390Y-82061208D01*
X188361390Y-69061208D02*
X192436390Y-69061208D01*
X188361390Y-82061208D02*
X192436390Y-82061208D01*
X192436390Y-69061208D02*
X192436390Y-71911208D01*
X192436390Y-74211208D02*
X192436390Y-76911208D01*
X192436390Y-79211208D02*
X192436390Y-82061208D01*
D16*
X177911390Y-70961208D02*
G75*
G02*
X177661390Y-70961208I-125000J0D01*
G01*
X177661390Y-70961208D02*
G75*
G02*
X177911390Y-70961208I125000J0D01*
G01*
D13*
%TO.C,SW14*%
X103541790Y-124783608D02*
X103541790Y-123783608D01*
X103541790Y-138783608D02*
X103541790Y-137783608D01*
X103541790Y-138783608D02*
X104541790Y-138783608D01*
X104541790Y-123783608D02*
X103541790Y-123783608D01*
X117541790Y-138783608D02*
X118541790Y-138783608D01*
X118541790Y-123783608D02*
X117541790Y-123783608D01*
X118541790Y-123783608D02*
X118541790Y-124783608D01*
X118541790Y-137783608D02*
X118541790Y-138783608D01*
D14*
%TO.C,C14*%
X106526390Y-53164941D02*
X106526390Y-53457475D01*
X107546390Y-53164941D02*
X107546390Y-53457475D01*
D13*
%TO.C,SW21*%
X178286390Y-50311208D02*
X178286390Y-53161208D01*
X178286390Y-50311208D02*
X182361390Y-50311208D01*
X178286390Y-55461208D02*
X178286390Y-55661208D01*
X178286390Y-57961208D02*
X178286390Y-58161208D01*
X178286390Y-60461208D02*
X178286390Y-63311208D01*
X178286390Y-63311208D02*
X182361390Y-63311208D01*
X188111390Y-50311208D02*
X192186390Y-50311208D01*
X188111390Y-63311208D02*
X192186390Y-63311208D01*
X192186390Y-50311208D02*
X192186390Y-53161208D01*
X192186390Y-55461208D02*
X192186390Y-58161208D01*
X192186390Y-60461208D02*
X192186390Y-63311208D01*
D16*
X177661390Y-52211208D02*
G75*
G02*
X177411390Y-52211208I-125000J0D01*
G01*
X177411390Y-52211208D02*
G75*
G02*
X177661390Y-52211208I125000J0D01*
G01*
D13*
%TO.C,SW18*%
X177941790Y-124783608D02*
X177941790Y-123783608D01*
X177941790Y-138783608D02*
X177941790Y-137783608D01*
X177941790Y-138783608D02*
X178941790Y-138783608D01*
X178941790Y-123783608D02*
X177941790Y-123783608D01*
X191941790Y-138783608D02*
X192941790Y-138783608D01*
X192941790Y-123783608D02*
X191941790Y-123783608D01*
X192941790Y-123783608D02*
X192941790Y-124783608D01*
X192941790Y-137783608D02*
X192941790Y-138783608D01*
%TO.C,SW4*%
X103541790Y-87583608D02*
X103541790Y-86583608D01*
X103541790Y-101583608D02*
X103541790Y-100583608D01*
X103541790Y-101583608D02*
X104541790Y-101583608D01*
X104541790Y-86583608D02*
X103541790Y-86583608D01*
X117541790Y-101583608D02*
X118541790Y-101583608D01*
X118541790Y-86583608D02*
X117541790Y-86583608D01*
X118541790Y-86583608D02*
X118541790Y-87583608D01*
X118541790Y-100583608D02*
X118541790Y-101583608D01*
%TO.C,SW15*%
X122141790Y-124783608D02*
X122141790Y-123783608D01*
X122141790Y-138783608D02*
X122141790Y-137783608D01*
X122141790Y-138783608D02*
X123141790Y-138783608D01*
X123141790Y-123783608D02*
X122141790Y-123783608D01*
X136141790Y-138783608D02*
X137141790Y-138783608D01*
X137141790Y-123783608D02*
X136141790Y-123783608D01*
X137141790Y-123783608D02*
X137141790Y-124783608D01*
X137141790Y-137783608D02*
X137141790Y-138783608D01*
%TO.C,SW8*%
X177941790Y-87583608D02*
X177941790Y-86583608D01*
X177941790Y-101583608D02*
X177941790Y-100583608D01*
X177941790Y-101583608D02*
X178941790Y-101583608D01*
X178941790Y-86583608D02*
X177941790Y-86583608D01*
X191941790Y-101583608D02*
X192941790Y-101583608D01*
X192941790Y-86583608D02*
X191941790Y-86583608D01*
X192941790Y-86583608D02*
X192941790Y-87583608D01*
X192941790Y-100583608D02*
X192941790Y-101583608D01*
%TO.C,SW7*%
X159341790Y-87583608D02*
X159341790Y-86583608D01*
X159341790Y-101583608D02*
X159341790Y-100583608D01*
X159341790Y-101583608D02*
X160341790Y-101583608D01*
X160341790Y-86583608D02*
X159341790Y-86583608D01*
X173341790Y-101583608D02*
X174341790Y-101583608D01*
X174341790Y-86583608D02*
X173341790Y-86583608D01*
X174341790Y-86583608D02*
X174341790Y-87583608D01*
X174341790Y-100583608D02*
X174341790Y-101583608D01*
%TO.C,SW3*%
X159345590Y-69038989D02*
X159345590Y-68038989D01*
X159345590Y-83038989D02*
X159345590Y-82038989D01*
X159345590Y-83038989D02*
X160345590Y-83038989D01*
X160345590Y-68038989D02*
X159345590Y-68038989D01*
X173345590Y-83038989D02*
X174345590Y-83038989D01*
X174345590Y-68038989D02*
X173345590Y-68038989D01*
X174345590Y-68038989D02*
X174345590Y-69038989D01*
X174345590Y-82038989D02*
X174345590Y-83038989D01*
D14*
%TO.C,C12*%
X134202623Y-51477808D02*
X134495157Y-51477808D01*
X134202623Y-52497808D02*
X134495157Y-52497808D01*
%TO.C,R1*%
X113958480Y-67503432D02*
X113958480Y-66993984D01*
X115003480Y-67503432D02*
X115003480Y-66993984D01*
D13*
%TO.C,SW17*%
X159341790Y-124783608D02*
X159341790Y-123783608D01*
X159341790Y-138783608D02*
X159341790Y-137783608D01*
X159341790Y-138783608D02*
X160341790Y-138783608D01*
X160341790Y-123783608D02*
X159341790Y-123783608D01*
X173341790Y-138783608D02*
X174341790Y-138783608D01*
X174341790Y-123783608D02*
X173341790Y-123783608D01*
X174341790Y-123783608D02*
X174341790Y-124783608D01*
X174341790Y-137783608D02*
X174341790Y-138783608D01*
%TO.C,SW16*%
X140741790Y-124783608D02*
X140741790Y-123783608D01*
X140741790Y-138783608D02*
X140741790Y-137783608D01*
X140741790Y-138783608D02*
X141741790Y-138783608D01*
X141741790Y-123783608D02*
X140741790Y-123783608D01*
X154741790Y-138783608D02*
X155741790Y-138783608D01*
X155741790Y-123783608D02*
X154741790Y-123783608D01*
X155741790Y-123783608D02*
X155741790Y-124783608D01*
X155741790Y-137783608D02*
X155741790Y-138783608D01*
D14*
%TO.C,R20*%
X131331666Y-66088708D02*
X131841114Y-66088708D01*
X131331666Y-67133708D02*
X131841114Y-67133708D01*
%TO.C,J4*%
X141821608Y-143426589D02*
X141821608Y-142096589D01*
X143151608Y-143426589D02*
X141821608Y-143426589D01*
X144421608Y-140766589D02*
X154641608Y-140766589D01*
X144421608Y-143426589D02*
X144421608Y-140766589D01*
X144421608Y-143426589D02*
X154641608Y-143426589D01*
X154641608Y-143426589D02*
X154641608Y-140766589D01*
%TO.C,R23*%
X129491114Y-58888708D02*
X128981666Y-58888708D01*
X129491114Y-59933708D02*
X128981666Y-59933708D01*
D13*
%TO.C,SW1*%
X159345590Y-50420789D02*
X159345590Y-49420789D01*
X159345590Y-64420789D02*
X159345590Y-63420789D01*
X159345590Y-64420789D02*
X160345590Y-64420789D01*
X160345590Y-49420789D02*
X159345590Y-49420789D01*
X173345590Y-64420789D02*
X174345590Y-64420789D01*
X174345590Y-49420789D02*
X173345590Y-49420789D01*
X174345590Y-49420789D02*
X174345590Y-50420789D01*
X174345590Y-63420789D02*
X174345590Y-64420789D01*
%TD*%
M02*
