%TF.GenerationSoftware,KiCad,Pcbnew,8.0.6*%
%TF.CreationDate,2025-02-04T14:09:58-07:00*%
%TF.ProjectId,Modular MacroPad,4d6f6475-6c61-4722-904d-6163726f5061,rev?*%
%TF.SameCoordinates,Original*%
%TF.FileFunction,Copper,L1,Top*%
%TF.FilePolarity,Positive*%
%FSLAX46Y46*%
G04 Gerber Fmt 4.6, Leading zero omitted, Abs format (unit mm)*
G04 Created by KiCad (PCBNEW 8.0.6) date 2025-02-04 14:09:58*
%MOMM*%
%LPD*%
G01*
G04 APERTURE LIST*
G04 Aperture macros list*
%AMRoundRect*
0 Rectangle with rounded corners*
0 $1 Rounding radius*
0 $2 $3 $4 $5 $6 $7 $8 $9 X,Y pos of 4 corners*
0 Add a 4 corners polygon primitive as box body*
4,1,4,$2,$3,$4,$5,$6,$7,$8,$9,$2,$3,0*
0 Add four circle primitives for the rounded corners*
1,1,$1+$1,$2,$3*
1,1,$1+$1,$4,$5*
1,1,$1+$1,$6,$7*
1,1,$1+$1,$8,$9*
0 Add four rect primitives between the rounded corners*
20,1,$1+$1,$2,$3,$4,$5,0*
20,1,$1+$1,$4,$5,$6,$7,0*
20,1,$1+$1,$6,$7,$8,$9,0*
20,1,$1+$1,$8,$9,$2,$3,0*%
%AMOutline5P*
0 Free polygon, 5 corners , with rotation*
0 The origin of the aperture is its center*
0 number of corners: always 5*
0 $1 to $10 corner X, Y*
0 $11 Rotation angle, in degrees counterclockwise*
0 create outline with 5 corners*
4,1,5,$1,$2,$3,$4,$5,$6,$7,$8,$9,$10,$1,$2,$11*%
%AMOutline6P*
0 Free polygon, 6 corners , with rotation*
0 The origin of the aperture is its center*
0 number of corners: always 6*
0 $1 to $12 corner X, Y*
0 $13 Rotation angle, in degrees counterclockwise*
0 create outline with 6 corners*
4,1,6,$1,$2,$3,$4,$5,$6,$7,$8,$9,$10,$11,$12,$1,$2,$13*%
%AMOutline7P*
0 Free polygon, 7 corners , with rotation*
0 The origin of the aperture is its center*
0 number of corners: always 7*
0 $1 to $14 corner X, Y*
0 $15 Rotation angle, in degrees counterclockwise*
0 create outline with 7 corners*
4,1,7,$1,$2,$3,$4,$5,$6,$7,$8,$9,$10,$11,$12,$13,$14,$1,$2,$15*%
%AMOutline8P*
0 Free polygon, 8 corners , with rotation*
0 The origin of the aperture is its center*
0 number of corners: always 8*
0 $1 to $16 corner X, Y*
0 $17 Rotation angle, in degrees counterclockwise*
0 create outline with 8 corners*
4,1,8,$1,$2,$3,$4,$5,$6,$7,$8,$9,$10,$11,$12,$13,$14,$15,$16,$1,$2,$17*%
G04 Aperture macros list end*
%TA.AperFunction,SMDPad,CuDef*%
%ADD10C,1.000000*%
%TD*%
%TA.AperFunction,SMDPad,CuDef*%
%ADD11R,1.300000X0.300000*%
%TD*%
%TA.AperFunction,SMDPad,CuDef*%
%ADD12R,2.200000X1.900000*%
%TD*%
%TA.AperFunction,SMDPad,CuDef*%
%ADD13RoundRect,0.237500X-0.250000X-0.237500X0.250000X-0.237500X0.250000X0.237500X-0.250000X0.237500X0*%
%TD*%
%TA.AperFunction,SMDPad,CuDef*%
%ADD14RoundRect,0.237500X-0.237500X0.300000X-0.237500X-0.300000X0.237500X-0.300000X0.237500X0.300000X0*%
%TD*%
%TA.AperFunction,SMDPad,CuDef*%
%ADD15RoundRect,0.237500X0.250000X0.237500X-0.250000X0.237500X-0.250000X-0.237500X0.250000X-0.237500X0*%
%TD*%
%TA.AperFunction,ComponentPad*%
%ADD16C,1.800000*%
%TD*%
%TA.AperFunction,SMDPad,CuDef*%
%ADD17R,0.800000X0.400000*%
%TD*%
%TA.AperFunction,SMDPad,CuDef*%
%ADD18R,0.400000X0.800000*%
%TD*%
%TA.AperFunction,SMDPad,CuDef*%
%ADD19Outline5P,-0.600000X0.204000X-0.204000X0.600000X0.600000X0.600000X0.600000X-0.600000X-0.600000X-0.600000X0.000000*%
%TD*%
%TA.AperFunction,SMDPad,CuDef*%
%ADD20R,1.200000X1.200000*%
%TD*%
%TA.AperFunction,SMDPad,CuDef*%
%ADD21R,0.800000X0.800000*%
%TD*%
%TA.AperFunction,SMDPad,CuDef*%
%ADD22RoundRect,0.237500X-0.300000X-0.237500X0.300000X-0.237500X0.300000X0.237500X-0.300000X0.237500X0*%
%TD*%
%TA.AperFunction,ComponentPad*%
%ADD23RoundRect,1.200000X-1.300000X0.000010X-1.300000X-0.000010X1.300000X-0.000010X1.300000X0.000010X0*%
%TD*%
%TA.AperFunction,ComponentPad*%
%ADD24R,1.550000X1.550000*%
%TD*%
%TA.AperFunction,ComponentPad*%
%ADD25C,1.550000*%
%TD*%
%TA.AperFunction,SMDPad,CuDef*%
%ADD26RoundRect,0.237500X0.237500X-0.250000X0.237500X0.250000X-0.237500X0.250000X-0.237500X-0.250000X0*%
%TD*%
%TA.AperFunction,ComponentPad*%
%ADD27O,1.000000X1.800000*%
%TD*%
%TA.AperFunction,ComponentPad*%
%ADD28O,1.000000X2.100000*%
%TD*%
%TA.AperFunction,ComponentPad*%
%ADD29RoundRect,0.250000X-0.600000X-0.750000X0.600000X-0.750000X0.600000X0.750000X-0.600000X0.750000X0*%
%TD*%
%TA.AperFunction,ComponentPad*%
%ADD30O,1.700000X2.000000*%
%TD*%
%TA.AperFunction,ViaPad*%
%ADD31C,0.650000*%
%TD*%
%TA.AperFunction,ViaPad*%
%ADD32C,0.700000*%
%TD*%
%TA.AperFunction,Conductor*%
%ADD33C,0.200000*%
%TD*%
%TA.AperFunction,Conductor*%
%ADD34C,0.500000*%
%TD*%
%TA.AperFunction,Conductor*%
%ADD35C,0.300000*%
%TD*%
G04 APERTURE END LIST*
D10*
%TO.P,TP13,1,1*%
%TO.N,GPIO16*%
X126199980Y-67130016D03*
%TD*%
%TO.P,TP12,1,1*%
%TO.N,GPIO16*%
X127799980Y-65130016D03*
%TD*%
%TO.P,TP4,1,1*%
%TO.N,/GPIO2*%
X103199980Y-57230016D03*
%TD*%
%TO.P,TP3,1,1*%
%TO.N,/GPIO1*%
X103199980Y-54180016D03*
%TD*%
%TO.P,TP2,1,1*%
%TO.N,/BOOT*%
X103199980Y-51130016D03*
%TD*%
%TO.P,TP11,1,1*%
%TO.N,/RST*%
X117351180Y-75906016D03*
%TD*%
%TO.P,TP10,1,1*%
%TO.N,/TFTCS*%
X115319180Y-74509016D03*
%TD*%
%TO.P,TP9,1,1*%
%TO.N,/MOSI*%
X113490380Y-73035816D03*
%TD*%
%TO.P,TP8,1,1*%
%TO.N,/MISO*%
X114633380Y-79614416D03*
%TD*%
%TO.P,TP7,1,1*%
%TO.N,/SCK*%
X112829980Y-77963416D03*
%TD*%
%TO.P,TP6,1,1*%
%TO.N,/GPIO10*%
X111178980Y-76261616D03*
%TD*%
%TO.P,TP5,1,1*%
%TO.N,/GPIO9*%
X109375580Y-74661416D03*
%TD*%
%TO.P,TP1,1,1*%
%TO.N,/GPIO8*%
X107546780Y-73061216D03*
%TD*%
D11*
%TO.P,J7,18,18*%
%TO.N,unconnected-(J7-Pad18)*%
X152224180Y-70095216D03*
%TO.P,J7,17,17*%
%TO.N,unconnected-(J7-Pad17)*%
X152224180Y-69595216D03*
%TO.P,J7,16,16*%
%TO.N,unconnected-(J7-Pad16)*%
X152224180Y-69095216D03*
%TO.P,J7,15,15*%
%TO.N,unconnected-(J7-Pad15)*%
X152224180Y-68595216D03*
%TO.P,J7,14,14*%
%TO.N,unconnected-(J7-Pad14)*%
X152224180Y-68095216D03*
%TO.P,J7,13,13*%
%TO.N,unconnected-(J7-Pad13)*%
X152224180Y-67595216D03*
%TO.P,J7,12,12*%
%TO.N,unconnected-(J7-Pad12)*%
X152224180Y-67095216D03*
%TO.P,J7,11,11*%
%TO.N,VBUS*%
X152224180Y-66595216D03*
%TO.P,J7,10,10*%
%TO.N,/3VO*%
X152224180Y-66095216D03*
%TO.P,J7,9,9*%
%TO.N,GND*%
X152224180Y-65595216D03*
%TO.P,J7,8,8*%
%TO.N,/SCK*%
X152224180Y-65095216D03*
%TO.P,J7,7,7*%
%TO.N,/MISO*%
X152224180Y-64595216D03*
%TO.P,J7,6,6*%
%TO.N,/MOSI*%
X152224180Y-64095216D03*
%TO.P,J7,5,5*%
%TO.N,/TFTCS*%
X152224180Y-63595216D03*
%TO.P,J7,4,4*%
%TO.N,/RST*%
X152224180Y-63095216D03*
%TO.P,J7,3,3*%
%TO.N,/DC*%
X152224180Y-62595216D03*
%TO.P,J7,2,2*%
%TO.N,/SDCS*%
X152224180Y-62095216D03*
%TO.P,J7,1,1*%
%TO.N,/LITE*%
X152224180Y-61595216D03*
D12*
%TO.P,J7,S2*%
%TO.N,N/C*%
X148974180Y-59645216D03*
%TO.P,J7,S1*%
X148974180Y-72045216D03*
%TD*%
D13*
%TO.P,R19,1*%
%TO.N,GPIO16*%
X130623890Y-69111208D03*
%TO.P,R19,2*%
%TO.N,Net-(U4-IO18)*%
X132448890Y-69111208D03*
%TD*%
D14*
%TO.P,C11,1*%
%TO.N,/ESP32_EN*%
X128173890Y-49998708D03*
%TO.P,C11,2*%
%TO.N,GND*%
X128173890Y-51723708D03*
%TD*%
D15*
%TO.P,R21,1*%
%TO.N,GPIO16*%
X130161390Y-61161208D03*
%TO.P,R21,2*%
%TO.N,Net-(U4-IO35)*%
X128336390Y-61161208D03*
%TD*%
D16*
%TO.P,J2,1,Pin_1*%
%TO.N,unconnected-(J2-Pin_1-Pad1)*%
X196237608Y-89010589D03*
%TO.P,J2,2,Pin_2*%
%TO.N,unconnected-(J2-Pin_2-Pad2)*%
X196237608Y-91550589D03*
%TO.P,J2,3,Pin_3*%
%TO.N,unconnected-(J2-Pin_3-Pad3)*%
X196237608Y-94090589D03*
%TO.P,J2,4,Pin_4*%
%TO.N,unconnected-(J2-Pin_4-Pad4)*%
X196237608Y-96630589D03*
%TO.P,J2,5,Pin_5*%
%TO.N,unconnected-(J2-Pin_5-Pad5)*%
X196237608Y-99170589D03*
%TD*%
%TO.P,J3,1,Pin_1*%
%TO.N,unconnected-(J3-Pin_1-Pad1)*%
X100225608Y-89010589D03*
%TO.P,J3,2,Pin_2*%
%TO.N,unconnected-(J3-Pin_2-Pad2)*%
X100225608Y-91550589D03*
%TO.P,J3,3,Pin_3*%
%TO.N,unconnected-(J3-Pin_3-Pad3)*%
X100225608Y-94090589D03*
%TO.P,J3,4,Pin_4*%
%TO.N,unconnected-(J3-Pin_4-Pad4)*%
X100225608Y-96630589D03*
%TO.P,J3,5,Pin_5*%
%TO.N,unconnected-(J3-Pin_5-Pad5)*%
X100225608Y-99170589D03*
%TD*%
D13*
%TO.P,R18,1*%
%TO.N,GPIO16*%
X136131866Y-59109608D03*
%TO.P,R18,2*%
%TO.N,/ESP32_EN*%
X137956866Y-59109608D03*
%TD*%
D17*
%TO.P,U4,1,GND*%
%TO.N,GND*%
X110436390Y-49861208D03*
%TO.P,U4,2,GND*%
X110436390Y-50711208D03*
%TO.P,U4,3,3V3*%
%TO.N,GPIO16*%
X110436390Y-51561208D03*
%TO.P,U4,4,IO0*%
%TO.N,/BOOT*%
X110436390Y-52411208D03*
%TO.P,U4,5,IO1*%
%TO.N,/GPIO1*%
X110436390Y-53261208D03*
%TO.P,U4,6,IO2*%
%TO.N,/GPIO2*%
X110436390Y-54111208D03*
%TO.P,U4,7,IO3*%
%TO.N,Col0*%
X110436390Y-54961208D03*
%TO.P,U4,8,IO4*%
%TO.N,Row4*%
X110436390Y-55811208D03*
%TO.P,U4,9,IO5*%
%TO.N,Row3*%
X110436390Y-56661208D03*
%TO.P,U4,10,IO6*%
%TO.N,Row2*%
X110436390Y-57511208D03*
%TO.P,U4,11,IO7*%
%TO.N,Col1*%
X110436390Y-58361208D03*
%TO.P,U4,12,IO8*%
%TO.N,/GPIO8*%
X110436390Y-59211208D03*
%TO.P,U4,13,IO9*%
%TO.N,/GPIO9*%
X110436390Y-60061208D03*
%TO.P,U4,14,IO10*%
%TO.N,/GPIO10*%
X110436390Y-60911208D03*
%TO.P,U4,15,IO11*%
%TO.N,/SCK*%
X110436390Y-61761208D03*
D18*
%TO.P,U4,16,IO12*%
%TO.N,/MISO*%
X111486390Y-62811208D03*
%TO.P,U4,17,IO13*%
%TO.N,/MOSI*%
X112336390Y-62811208D03*
%TO.P,U4,18,IO14*%
%TO.N,/TFTCS*%
X113186390Y-62811208D03*
%TO.P,U4,19,IO15*%
%TO.N,/RST*%
X114036390Y-62811208D03*
%TO.P,U4,20,IO16*%
%TO.N,Net-(U4-IO16)*%
X114886390Y-62811208D03*
%TO.P,U4,21,IO17*%
%TO.N,Net-(U4-IO17)*%
X115736390Y-62811208D03*
%TO.P,U4,22,IO18*%
%TO.N,Net-(U4-IO18)*%
X116586390Y-62811208D03*
%TO.P,U4,23,IO19*%
%TO.N,USB_N*%
X117436390Y-62811208D03*
%TO.P,U4,24,IO20*%
%TO.N,USB_P*%
X118286390Y-62811208D03*
%TO.P,U4,25,IO21*%
%TO.N,Col2*%
X119136390Y-62811208D03*
%TO.P,U4,26,IO26*%
%TO.N,Col4*%
X119986390Y-62811208D03*
%TO.P,U4,27,IO47*%
%TO.N,Rotary2B*%
X120836390Y-62811208D03*
%TO.P,U4,28,IO33*%
%TO.N,Rotary2A*%
X121686390Y-62811208D03*
%TO.P,U4,29,IO34*%
%TO.N,unconnected-(U4-IO34-Pad29)*%
X122536390Y-62811208D03*
%TO.P,U4,30,IO48*%
%TO.N,unconnected-(U4-IO48-Pad30)*%
X123386390Y-62811208D03*
D17*
%TO.P,U4,31,IO35*%
%TO.N,Net-(U4-IO35)*%
X124436390Y-61761208D03*
%TO.P,U4,32,IO36*%
%TO.N,Net-(U4-IO36)*%
X124436390Y-60911208D03*
%TO.P,U4,33,IO37*%
%TO.N,unconnected-(U4-IO37-Pad33)*%
X124436390Y-60061208D03*
%TO.P,U4,34,IO38*%
%TO.N,LED_GPIO*%
X124436390Y-59211208D03*
%TO.P,U4,35,IO39*%
%TO.N,unconnected-(U4-IO39-Pad35)*%
X124436390Y-58361208D03*
%TO.P,U4,36,IO40*%
%TO.N,Col3*%
X124436390Y-57511208D03*
%TO.P,U4,37,IO41*%
%TO.N,Row1*%
X124436390Y-56661208D03*
%TO.P,U4,38,IO42*%
%TO.N,Rotary1B*%
X124436390Y-55811208D03*
%TO.P,U4,39,TXD0*%
%TO.N,unconnected-(U4-TXD0-Pad39)*%
X124436390Y-54961208D03*
%TO.P,U4,40,RXD0*%
%TO.N,unconnected-(U4-RXD0-Pad40)*%
X124436390Y-54111208D03*
%TO.P,U4,41,IO45*%
%TO.N,Row0*%
X124436390Y-53261208D03*
%TO.P,U4,42,GND*%
%TO.N,GND*%
X124436390Y-52411208D03*
%TO.P,U4,43,GND*%
X124436390Y-51561208D03*
%TO.P,U4,44,IO46*%
%TO.N,Rotary1A*%
X124436390Y-50711208D03*
%TO.P,U4,45,EN*%
%TO.N,/ESP32_EN*%
X124436390Y-49861208D03*
D18*
%TO.P,U4,46,GND*%
%TO.N,GND*%
X123386390Y-48811208D03*
%TO.P,U4,47,GND*%
X122536390Y-48811208D03*
%TO.P,U4,48,GND*%
X121686390Y-48811208D03*
%TO.P,U4,49,GND*%
X120836390Y-48811208D03*
%TO.P,U4,50,GND*%
X119986390Y-48811208D03*
%TO.P,U4,51,GND*%
X119136390Y-48811208D03*
%TO.P,U4,52,GND*%
X118286390Y-48811208D03*
%TO.P,U4,53,GND*%
X117436390Y-48811208D03*
%TO.P,U4,54,GND*%
X116586390Y-48811208D03*
%TO.P,U4,55,GND*%
X115736390Y-48811208D03*
%TO.P,U4,56,GND*%
X114886390Y-48811208D03*
%TO.P,U4,57,GND*%
X114036390Y-48811208D03*
%TO.P,U4,58,GND*%
X113186390Y-48811208D03*
%TO.P,U4,59,GND*%
X112336390Y-48811208D03*
%TO.P,U4,60,GND*%
X111486390Y-48811208D03*
D19*
%TO.P,U4,61,GND*%
X115786390Y-54161208D03*
D20*
X115786390Y-55811208D03*
X115786390Y-57461208D03*
X117436390Y-54161208D03*
X117436390Y-55811208D03*
X117436390Y-57461208D03*
X119086390Y-54161208D03*
X119086390Y-55811208D03*
X119086390Y-57461208D03*
D21*
%TO.P,U4,62,GND*%
X110436390Y-48811208D03*
%TO.P,U4,63,GND*%
X110436390Y-62811208D03*
%TO.P,U4,64,GND*%
X124436390Y-62811208D03*
%TO.P,U4,65,GND*%
X124436390Y-48811208D03*
%TD*%
D22*
%TO.P,C13,1*%
%TO.N,GPIO16*%
X133411290Y-53664208D03*
%TO.P,C13,2*%
%TO.N,GND*%
X135136290Y-53664208D03*
%TD*%
D23*
%TO.P,SW20,3*%
%TO.N,N/C*%
X185486390Y-69861208D03*
%TO.P,SW20,4*%
X185486390Y-81261208D03*
D24*
%TO.P,SW20,A,A*%
%TO.N,Rotary2A*%
X177986390Y-73061208D03*
D25*
%TO.P,SW20,B,B*%
%TO.N,Rotary2B*%
X177986390Y-78061208D03*
%TO.P,SW20,C,C*%
%TO.N,GND*%
X177986390Y-75561208D03*
%TO.P,SW20,S1,S1*%
%TO.N,Net-(D41-A)*%
X192486390Y-73061208D03*
%TO.P,SW20,S2,S2*%
%TO.N,Col4*%
X192486390Y-78061208D03*
%TD*%
D14*
%TO.P,C14,1*%
%TO.N,/BOOT*%
X107036390Y-52448708D03*
%TO.P,C14,2*%
%TO.N,GND*%
X107036390Y-54173708D03*
%TD*%
D23*
%TO.P,SW21,3*%
%TO.N,N/C*%
X185236390Y-51111208D03*
%TO.P,SW21,4*%
X185236390Y-62511208D03*
D24*
%TO.P,SW21,A,A*%
%TO.N,Rotary1A*%
X177736390Y-54311208D03*
D25*
%TO.P,SW21,B,B*%
%TO.N,Rotary1B*%
X177736390Y-59311208D03*
%TO.P,SW21,C,C*%
%TO.N,GND*%
X177736390Y-56811208D03*
%TO.P,SW21,S1,S1*%
%TO.N,Net-(D40-A)*%
X192236390Y-54311208D03*
%TO.P,SW21,S2,S2*%
%TO.N,Col4*%
X192236390Y-59311208D03*
%TD*%
D22*
%TO.P,C12,1*%
%TO.N,GPIO16*%
X133486390Y-51987808D03*
%TO.P,C12,2*%
%TO.N,GND*%
X135211390Y-51987808D03*
%TD*%
D26*
%TO.P,R1,1*%
%TO.N,GPIO16*%
X114480980Y-68161208D03*
%TO.P,R1,2*%
%TO.N,Net-(U4-IO16)*%
X114480980Y-66336208D03*
%TD*%
D13*
%TO.P,R20,1*%
%TO.N,GPIO16*%
X130673890Y-66611208D03*
%TO.P,R20,2*%
%TO.N,Net-(U4-IO17)*%
X132498890Y-66611208D03*
%TD*%
D16*
%TO.P,J4,1,Pin_1*%
%TO.N,unconnected-(J4-Pin_1-Pad1)*%
X143151608Y-142096589D03*
%TO.P,J4,2,Pin_2*%
%TO.N,unconnected-(J4-Pin_2-Pad2)*%
X145691608Y-142096589D03*
%TO.P,J4,3,Pin_3*%
%TO.N,unconnected-(J4-Pin_3-Pad3)*%
X148231608Y-142096589D03*
%TO.P,J4,4,Pin_4*%
%TO.N,unconnected-(J4-Pin_4-Pad4)*%
X150771608Y-142096589D03*
%TO.P,J4,5,Pin_5*%
%TO.N,unconnected-(J4-Pin_5-Pad5)*%
X153311608Y-142096589D03*
%TD*%
D15*
%TO.P,R23,1*%
%TO.N,GPIO16*%
X130148890Y-59411208D03*
%TO.P,R23,2*%
%TO.N,Net-(U4-IO36)*%
X128323890Y-59411208D03*
%TD*%
D27*
%TO.P,J1,S1,SHIELD*%
%TO.N,GND*%
X143918390Y-49336208D03*
D28*
X143918390Y-53516208D03*
D27*
X152558390Y-49336208D03*
D28*
X152558390Y-53516208D03*
%TD*%
D29*
%TO.P,J5,1,Pin_1*%
%TO.N,BAT+*%
X105486390Y-79611208D03*
D30*
%TO.P,J5,2,Pin_2*%
%TO.N,GND*%
X107986390Y-79611208D03*
%TD*%
D31*
%TO.N,GND*%
X150701380Y-69251216D03*
%TO.N,/RST*%
X112956980Y-70038616D03*
%TO.N,/TFTCS*%
X112067980Y-70064016D03*
%TO.N,/MOSI*%
X111204380Y-70089416D03*
%TO.N,/MISO*%
X110239180Y-70089416D03*
%TO.N,/SCK*%
X109350180Y-70114816D03*
%TO.N,/GPIO10*%
X108410380Y-70140216D03*
%TO.N,/TFTCS*%
X112054383Y-67193816D03*
%TO.N,/RST*%
X112931580Y-67193816D03*
%TO.N,/MOSI*%
X111204380Y-67193816D03*
%TO.N,/MISO*%
X110239180Y-67193816D03*
%TO.N,/GPIO10*%
X108410380Y-67219216D03*
%TO.N,/SCK*%
X109350180Y-67193816D03*
%TO.N,GND*%
X111636390Y-50761208D03*
D32*
X152086390Y-51761208D03*
D31*
X120336390Y-55861208D03*
D32*
X153554408Y-89943189D03*
D31*
X113286390Y-49911208D03*
X116586390Y-49911208D03*
X111586390Y-49961208D03*
D32*
X190904408Y-89893189D03*
X109936390Y-79461208D03*
D31*
X136536390Y-53661208D03*
X124436390Y-64111208D03*
X115836390Y-58711208D03*
X118286390Y-49911208D03*
D32*
X170704408Y-72493189D03*
X132436390Y-80661208D03*
D31*
X123386390Y-49861208D03*
X114436390Y-57461208D03*
D32*
X170704408Y-128543189D03*
D31*
X115686390Y-49911208D03*
D32*
X176286390Y-56761208D03*
X147586390Y-64761208D03*
X106654408Y-106843189D03*
X146948890Y-76011208D03*
D31*
X112486390Y-49911208D03*
X119186390Y-58761208D03*
D32*
X133836390Y-73061208D03*
X133786390Y-64761208D03*
X150786390Y-60461208D03*
D31*
X110436390Y-64111208D03*
D32*
X129586390Y-64761208D03*
D31*
X119986390Y-49911208D03*
X121686390Y-49911208D03*
X122536390Y-49861208D03*
D32*
X125554408Y-106843189D03*
D31*
X144736390Y-54911208D03*
D32*
X134804408Y-127143189D03*
X134804408Y-89943189D03*
D31*
X115836390Y-52811208D03*
D32*
X162604408Y-106793189D03*
X145286390Y-49861208D03*
D31*
X114886390Y-49911208D03*
D32*
X144248890Y-76711208D03*
D31*
X136536390Y-52061208D03*
X119086390Y-52811208D03*
D32*
X107986390Y-81411208D03*
D31*
X114036390Y-49911208D03*
D32*
X144486390Y-51961208D03*
X172204408Y-89943189D03*
D31*
X108186390Y-54111208D03*
D32*
X181354408Y-106793189D03*
X130636390Y-77161208D03*
D31*
X119136390Y-49911208D03*
X114436390Y-55861208D03*
X151586390Y-54761208D03*
D32*
X146196390Y-60486208D03*
X138286390Y-66861208D03*
D31*
X118036390Y-55811208D03*
D32*
X107986390Y-77911208D03*
X109886390Y-80511208D03*
D31*
X117486390Y-58761208D03*
X117436390Y-52711208D03*
D32*
X135136390Y-73061208D03*
D31*
X117436390Y-49911208D03*
D32*
X145236390Y-48911208D03*
D31*
X120836390Y-49911208D03*
D32*
X131486390Y-64611208D03*
X153236390Y-56711208D03*
X141886390Y-64811208D03*
X116504408Y-127143189D03*
D31*
X114486390Y-54261208D03*
D32*
X179386390Y-56761208D03*
D31*
X120386390Y-54211208D03*
X127173890Y-51811208D03*
D32*
X147636390Y-67411208D03*
D31*
X120436390Y-57461208D03*
D32*
X143736390Y-62461208D03*
X116354408Y-89993189D03*
X153454408Y-127143189D03*
X144104408Y-106793189D03*
X151336390Y-49961208D03*
X190754408Y-127093189D03*
X143486390Y-66911208D03*
D31*
X123436390Y-52411208D03*
D32*
X151336390Y-48961208D03*
D31*
X123436390Y-51611208D03*
D32*
X176486390Y-75511208D03*
X130636390Y-74911208D03*
X170654408Y-53993189D03*
X179586390Y-75511208D03*
%TO.N,BAT+*%
X139504408Y-78493189D03*
X129504408Y-77943189D03*
D31*
%TO.N,USB_N*%
X148036390Y-52561208D03*
X117388042Y-65008186D03*
%TO.N,USB_P*%
X118286390Y-65011208D03*
X148936390Y-52611208D03*
%TO.N,Col3*%
X158511390Y-94986208D03*
X158536390Y-113661208D03*
X158536390Y-128711208D03*
X158586390Y-132411208D03*
X158536390Y-109861208D03*
X158570590Y-88193189D03*
X156136390Y-60261208D03*
X127086390Y-57961208D03*
%TO.N,Col0*%
X107436390Y-57011208D03*
%TO.N,Col1*%
X121366790Y-109543189D03*
X121386390Y-94261208D03*
X105961180Y-65949216D03*
X121386390Y-113261208D03*
X121336390Y-91811208D03*
X119104408Y-87443189D03*
X121366790Y-126993189D03*
X117936390Y-82661208D03*
X121386390Y-132011208D03*
%TO.N,Col2*%
X125986390Y-83311208D03*
X125636390Y-70961208D03*
X139986390Y-94661208D03*
X139966790Y-132191608D03*
X140086390Y-109761208D03*
X140086390Y-113761208D03*
X139704408Y-90193189D03*
X139966790Y-127143189D03*
X119136390Y-64311208D03*
%TO.N,Col4*%
X177036390Y-91761208D03*
X177086390Y-132411208D03*
X160636390Y-86061208D03*
X126936390Y-70911208D03*
X156736390Y-86061208D03*
X177166790Y-113191608D03*
X177086390Y-94761208D03*
X119986390Y-64311208D03*
X177136390Y-110211208D03*
X177166790Y-127293189D03*
X127636390Y-82361208D03*
%TO.N,Rotary1B*%
X161010764Y-57586834D03*
X141586390Y-52111208D03*
X126836390Y-55411208D03*
%TO.N,Rotary1A*%
X126236390Y-50661208D03*
X155086390Y-49611208D03*
X141911390Y-48936208D03*
%TO.N,Rotary2B*%
X128886390Y-81261208D03*
X128086390Y-70861208D03*
X120836390Y-64311208D03*
X160636390Y-84961208D03*
X156736390Y-84961208D03*
%TO.N,Rotary2A*%
X129686390Y-71211208D03*
X156986390Y-77761208D03*
X121786390Y-64311208D03*
X160036390Y-77761208D03*
X130061390Y-79736208D03*
%TO.N,Row0*%
X156286390Y-50811208D03*
X141786390Y-50211208D03*
X126486390Y-52861208D03*
%TO.N,Row1*%
X173386390Y-73611208D03*
X161036390Y-58661208D03*
X138436390Y-56611208D03*
X127036390Y-56511208D03*
X173386390Y-70561208D03*
%TO.N,Row2*%
X107386390Y-59761208D03*
X117536390Y-87393189D03*
X114386390Y-82161208D03*
%TO.N,Row3*%
X107386390Y-58861208D03*
%TO.N,Row4*%
X107386390Y-57961208D03*
D32*
%TO.N,GPIO16*%
X136104408Y-70943189D03*
%TO.N,LED_GPIO*%
X160104408Y-55343189D03*
X125904408Y-58793189D03*
%TO.N,Net-(D15-DOUT)*%
X116554408Y-107393189D03*
X118854408Y-108843189D03*
%TO.N,Net-(U7-FB)*%
X146554408Y-79143189D03*
X144854408Y-71593189D03*
D31*
%TO.N,/GPIO9*%
X107506122Y-70180874D03*
X107506122Y-67229358D03*
%TO.N,/GPIO8*%
X106632380Y-70216416D03*
X106632380Y-67219216D03*
D32*
%TO.N,VBUS*%
X124904408Y-86943189D03*
X107804408Y-123393189D03*
X115954408Y-110193189D03*
X134554408Y-110243189D03*
X191254408Y-109443189D03*
X171704408Y-110193189D03*
X164154408Y-67893189D03*
X154954408Y-69743189D03*
X161654408Y-89193189D03*
X153604408Y-110443189D03*
X162129408Y-50968189D03*
X179654408Y-89093189D03*
X143304408Y-90393189D03*
X124904408Y-124443189D03*
X143254408Y-124543189D03*
X181804408Y-123943189D03*
X109654408Y-86143189D03*
X161004408Y-123393189D03*
%TD*%
D33*
%TO.N,/GPIO2*%
X104092380Y-57033816D02*
X103396180Y-57033816D01*
X103396180Y-57033816D02*
X103199980Y-57230016D01*
%TO.N,/GPIO1*%
X103762180Y-54775216D02*
X103762180Y-54742216D01*
X103762180Y-54742216D02*
X103199980Y-54180016D01*
D34*
%TO.N,/BOOT*%
X103762180Y-51725216D02*
X103762180Y-51692216D01*
X103762180Y-51692216D02*
X103199980Y-51130016D01*
D35*
%TO.N,GPIO16*%
X130623890Y-69111208D02*
X128437972Y-69111208D01*
X127025780Y-67955816D02*
X126199980Y-67130016D01*
X128437972Y-69111208D02*
X127282580Y-67955816D01*
X127282580Y-67955816D02*
X127025780Y-67955816D01*
X127866780Y-65196816D02*
X127799980Y-65130016D01*
X130673890Y-66611208D02*
X128223972Y-66611208D01*
X127866780Y-66254016D02*
X127866780Y-65196816D01*
X128223972Y-66611208D02*
X127866780Y-66254016D01*
%TO.N,GND*%
X152224180Y-65595216D02*
X151387180Y-65595216D01*
X151387180Y-65595216D02*
X150879180Y-66103216D01*
X150879180Y-69073416D02*
X150701380Y-69251216D01*
X150879180Y-66103216D02*
X150879180Y-69073416D01*
D34*
%TO.N,VBUS*%
X154954408Y-67865444D02*
X153800180Y-66711216D01*
X154954408Y-69743189D02*
X154954408Y-67865444D01*
D33*
%TO.N,/RST*%
X140236580Y-68971816D02*
X140236580Y-62063016D01*
X117851179Y-76406015D02*
X132802381Y-76406015D01*
X153124180Y-63095216D02*
X152224180Y-63095216D01*
X132802381Y-76406015D02*
X140236580Y-68971816D01*
X140236580Y-62063016D02*
X144960980Y-57338616D01*
X117351180Y-75906016D02*
X117851179Y-76406015D01*
X144960980Y-57338616D02*
X150117180Y-57338616D01*
X150117180Y-57338616D02*
X153723980Y-60945416D01*
X153723980Y-62495416D02*
X153124180Y-63095216D01*
X153723980Y-60945416D02*
X153723980Y-62495416D01*
%TO.N,/SCK*%
X112829980Y-77963416D02*
X112829980Y-78942387D01*
X112829980Y-78942387D02*
X114302009Y-80414416D01*
X114302009Y-80414416D02*
X131562580Y-80414416D01*
X131562580Y-80414416D02*
X142725780Y-69251216D01*
X142725780Y-69251216D02*
X148510094Y-69251216D01*
X148510094Y-69251216D02*
X150345780Y-67415530D01*
X150564780Y-65095216D02*
X152224180Y-65095216D01*
X150345780Y-67415530D02*
X150345780Y-65314216D01*
X150345780Y-65314216D02*
X150564780Y-65095216D01*
%TO.N,/TFTCS*%
X115319180Y-74509016D02*
X115319180Y-75216122D01*
X115319180Y-75216122D02*
X116914155Y-76811097D01*
X129367040Y-76811097D02*
X130367151Y-77811208D01*
X148567780Y-66304816D02*
X149037780Y-65834816D01*
X130367151Y-77811208D02*
X132006788Y-77811208D01*
X142065380Y-67752616D02*
X146307180Y-67752616D01*
X149037780Y-64652644D02*
X150095208Y-63595216D01*
X146307180Y-67752616D02*
X147754980Y-66304816D01*
X116914155Y-76811097D02*
X129367040Y-76811097D01*
X150095208Y-63595216D02*
X152224180Y-63595216D01*
X147754980Y-66304816D02*
X148567780Y-66304816D01*
X132006788Y-77811208D02*
X142065380Y-67752616D01*
X149037780Y-65834816D02*
X149037780Y-64652644D01*
%TO.N,/MOSI*%
X113490380Y-73035816D02*
X113490380Y-73953008D01*
X142173866Y-68209816D02*
X147925894Y-68209816D01*
X113490380Y-73953008D02*
X118130561Y-78593189D01*
X118130561Y-78593189D02*
X131790493Y-78593189D01*
X147925894Y-68209816D02*
X149437780Y-66697930D01*
X131790493Y-78593189D02*
X142173866Y-68209816D01*
X149437780Y-66697930D02*
X149437780Y-64818330D01*
X149437780Y-64818330D02*
X150160894Y-64095216D01*
X150160894Y-64095216D02*
X152224180Y-64095216D01*
%TO.N,/MISO*%
X114633380Y-79614416D02*
X115254607Y-78993189D01*
X115254607Y-78993189D02*
X132247207Y-78993189D01*
X132247207Y-78993189D02*
X142522580Y-68717816D01*
X142522580Y-68717816D02*
X147983580Y-68717816D01*
X147983580Y-68717816D02*
X149837780Y-66863616D01*
X149837780Y-66863616D02*
X149837780Y-64984016D01*
X149837780Y-64984016D02*
X150226580Y-64595216D01*
X150226580Y-64595216D02*
X152224180Y-64595216D01*
D34*
%TO.N,/BOOT*%
X104219380Y-52309416D02*
X104219380Y-52182416D01*
X104219380Y-52182416D02*
X103762180Y-51725216D01*
X107036390Y-52448708D02*
X106897098Y-52309416D01*
X106897098Y-52309416D02*
X104219380Y-52309416D01*
D33*
%TO.N,/GPIO1*%
X110436390Y-53261208D02*
X109920274Y-53261208D01*
X109920274Y-53261208D02*
X108170274Y-55011208D01*
X108170274Y-55011208D02*
X103998172Y-55011208D01*
X103998172Y-55011208D02*
X103762180Y-54775216D01*
%TO.N,/GPIO2*%
X110436390Y-54111208D02*
X109635960Y-54111208D01*
X109635960Y-54111208D02*
X107881752Y-55865416D01*
X107881752Y-55865416D02*
X105260780Y-55865416D01*
X105260780Y-55865416D02*
X104092380Y-57033816D01*
D35*
%TO.N,Col0*%
X107436390Y-57011208D02*
X107579284Y-57011208D01*
X107579284Y-57011208D02*
X109629284Y-54961208D01*
X109629284Y-54961208D02*
X110436390Y-54961208D01*
%TO.N,GPIO16*%
X110436390Y-51561208D02*
X109736390Y-51561208D01*
X108186390Y-50011208D02*
X102529788Y-50011208D01*
X109736390Y-51561208D02*
X108186390Y-50011208D01*
X101780980Y-50760016D02*
X101780980Y-64222016D01*
X102529788Y-50011208D02*
X101780980Y-50760016D01*
X114051372Y-68590816D02*
X114480980Y-68161208D01*
X101780980Y-64222016D02*
X106149780Y-68590816D01*
X106149780Y-68590816D02*
X114051372Y-68590816D01*
X130926340Y-75611208D02*
X130346440Y-75611208D01*
X136036390Y-69871258D02*
X133136390Y-72771258D01*
%TO.N,Net-(U4-IO16)*%
X114480980Y-65116618D02*
X114886390Y-64711208D01*
%TO.N,GPIO16*%
X120018180Y-75321816D02*
X114480980Y-69784616D01*
X133136390Y-72771258D02*
X133136390Y-73351158D01*
X133136390Y-73351158D02*
X133161390Y-73376158D01*
X133161390Y-73376158D02*
X130926340Y-75611208D01*
%TO.N,Net-(U4-IO16)*%
X114480980Y-66336208D02*
X114480980Y-65116618D01*
%TO.N,GPIO16*%
X130346440Y-75611208D02*
X130057048Y-75321816D01*
X130057048Y-75321816D02*
X120018180Y-75321816D01*
X114480980Y-69784616D02*
X114480980Y-68161208D01*
%TO.N,Net-(U4-IO16)*%
X114886390Y-64711208D02*
X114886390Y-62811208D01*
D33*
%TO.N,/RST*%
X112931580Y-67193816D02*
X112931580Y-66558816D01*
X113236390Y-66254006D02*
X113236390Y-63961208D01*
X112931580Y-66558816D02*
X113236390Y-66254006D01*
X113236390Y-63961208D02*
X114036390Y-63161208D01*
X114036390Y-63161208D02*
X114036390Y-62811208D01*
%TO.N,/TFTCS*%
X112054383Y-67193816D02*
X112054383Y-66801013D01*
X112836390Y-63161208D02*
X113186390Y-62811208D01*
X112054383Y-66801013D02*
X112836390Y-66019006D01*
X112836390Y-66019006D02*
X112836390Y-63161208D01*
%TO.N,/MOSI*%
X111204380Y-67193816D02*
X111204380Y-67041416D01*
X111204380Y-67041416D02*
X112169580Y-66076216D01*
X112169580Y-66076216D02*
X112169580Y-62978018D01*
X112169580Y-62978018D02*
X112336390Y-62811208D01*
%TO.N,/MISO*%
X110239180Y-67193816D02*
X110239180Y-67097332D01*
X111486390Y-65850122D02*
X111486390Y-62811208D01*
X110239180Y-67097332D02*
X111486390Y-65850122D01*
%TO.N,/SCK*%
X109731180Y-65129530D02*
X109731180Y-62266418D01*
X109350180Y-67193816D02*
X110201069Y-66342927D01*
X110201069Y-65599419D02*
X109731180Y-65129530D01*
X110201069Y-66342927D02*
X110201069Y-65599419D01*
X109731180Y-62266418D02*
X110236390Y-61761208D01*
X110236390Y-61761208D02*
X110436390Y-61761208D01*
%TO.N,/GPIO10*%
X108410380Y-67219216D02*
X109197780Y-66431816D01*
X109197780Y-66431816D02*
X109197780Y-61799818D01*
X109197780Y-61799818D02*
X110086390Y-60911208D01*
X110086390Y-60911208D02*
X110436390Y-60911208D01*
D35*
%TO.N,Col1*%
X105921180Y-62596416D02*
X109686390Y-58831206D01*
X105921180Y-65909216D02*
X105921180Y-62596416D01*
X109686390Y-58831206D02*
X109686390Y-58661208D01*
X105961180Y-65949216D02*
X105921180Y-65909216D01*
X109686390Y-58661208D02*
X109986390Y-58361208D01*
X109986390Y-58361208D02*
X110436390Y-58361208D01*
%TO.N,/ESP32_EN*%
X137636390Y-49861208D02*
X139586390Y-51811208D01*
X139586390Y-51811208D02*
X139586390Y-58761208D01*
X139237990Y-59109608D02*
X137956866Y-59109608D01*
X139586390Y-58761208D02*
X139237990Y-59109608D01*
X124436390Y-49861208D02*
X137636390Y-49861208D01*
D34*
%TO.N,GND*%
X135139290Y-53661208D02*
X135136290Y-53664208D01*
X151586390Y-54761208D02*
X151586390Y-54488208D01*
X177986390Y-75561208D02*
X176536390Y-75561208D01*
X144736390Y-54911208D02*
X144736390Y-54334208D01*
X128086390Y-51811208D02*
X128173890Y-51723708D01*
X145236390Y-48911208D02*
X144343390Y-48911208D01*
X109936390Y-79461208D02*
X108136390Y-79461208D01*
X108186390Y-54111208D02*
X107098890Y-54111208D01*
X115686390Y-49911208D02*
X115686390Y-48861208D01*
X115686390Y-54261208D02*
X115786390Y-54161208D01*
X120836390Y-48811208D02*
X120836390Y-49911208D01*
X114486390Y-54261208D02*
X115686390Y-54261208D01*
X114486390Y-55811208D02*
X114436390Y-55861208D01*
X109886390Y-80511208D02*
X108886390Y-80511208D01*
X115836390Y-54111208D02*
X115786390Y-54161208D01*
X144343390Y-48911208D02*
X143918390Y-49336208D01*
X151586390Y-54488208D02*
X152558390Y-53516208D01*
X107986390Y-77911208D02*
X107986390Y-79611208D01*
X151590827Y-48961208D02*
X151336390Y-48961208D01*
X135211390Y-51987808D02*
X136462990Y-51987808D01*
X117486390Y-57511208D02*
X117436390Y-57461208D01*
X177986390Y-75561208D02*
X179536390Y-75561208D01*
X122536390Y-49861208D02*
X122536390Y-48811208D01*
X115786390Y-55811208D02*
X114486390Y-55811208D01*
X177786390Y-56761208D02*
X177736390Y-56811208D01*
X144443390Y-49861208D02*
X143918390Y-49336208D01*
X151965827Y-49336208D02*
X151590827Y-48961208D01*
X108136390Y-79461208D02*
X107986390Y-79611208D01*
X151336390Y-49961208D02*
X151933390Y-49961208D01*
X120436390Y-57461208D02*
X119086390Y-57461208D01*
X107098890Y-54111208D02*
X107036390Y-54173708D01*
X121686390Y-48811208D02*
X121686390Y-49911208D01*
X119186390Y-57561208D02*
X119086390Y-57461208D01*
X179386390Y-56761208D02*
X177786390Y-56761208D01*
X144486390Y-51961208D02*
X144486390Y-52948208D01*
X111486390Y-49861208D02*
X111586390Y-49961208D01*
X127173890Y-51811208D02*
X128086390Y-51811208D01*
X115836390Y-58711208D02*
X115836390Y-57511208D01*
X115686390Y-48861208D02*
X115736390Y-48811208D01*
X114036390Y-49911208D02*
X114036390Y-48811208D01*
X111486390Y-48961208D02*
X111486390Y-49861208D01*
X119186390Y-58761208D02*
X119186390Y-57561208D01*
X110436390Y-48811208D02*
X111336390Y-48811208D01*
X117436390Y-54161208D02*
X117436390Y-52711208D01*
X112486390Y-49911208D02*
X112486390Y-48961208D01*
X114886390Y-48811208D02*
X114886390Y-49911208D01*
X117436390Y-48811208D02*
X117436390Y-49911208D01*
X119986390Y-49911208D02*
X119986390Y-48811208D01*
X176336390Y-56811208D02*
X176286390Y-56761208D01*
X176536390Y-75561208D02*
X176486390Y-75511208D01*
X119086390Y-52811208D02*
X119086390Y-54161208D01*
X113186390Y-49811208D02*
X113286390Y-49911208D01*
X111586390Y-50711208D02*
X111636390Y-50761208D01*
X119136390Y-54211208D02*
X119086390Y-54161208D01*
X123386390Y-49861208D02*
X123386390Y-48811208D01*
X120386390Y-54211208D02*
X119136390Y-54211208D01*
X111336390Y-48811208D02*
X111486390Y-48961208D01*
X145286390Y-49861208D02*
X144443390Y-49861208D01*
X107986390Y-81411208D02*
X107986390Y-79611208D01*
X152086390Y-51761208D02*
X152086390Y-53044208D01*
X124436390Y-64111208D02*
X124436390Y-62811208D01*
X120286390Y-55811208D02*
X120336390Y-55861208D01*
X144736390Y-54334208D02*
X143918390Y-53516208D01*
X136536390Y-53661208D02*
X135139290Y-53661208D01*
X110436390Y-62811208D02*
X110436390Y-64111208D01*
X117486390Y-58761208D02*
X117486390Y-57511208D01*
X119136390Y-48811208D02*
X119136390Y-49911208D01*
X177736390Y-56811208D02*
X176336390Y-56811208D01*
X123436390Y-51611208D02*
X124386390Y-51611208D01*
X136462990Y-51987808D02*
X136536390Y-52061208D01*
X111486390Y-48811208D02*
X111486390Y-48961208D01*
X179536390Y-75561208D02*
X179586390Y-75511208D01*
X123386390Y-48811208D02*
X124436390Y-48811208D01*
X115836390Y-52811208D02*
X115836390Y-54111208D01*
X110436390Y-50711208D02*
X111586390Y-50711208D01*
X112486390Y-48961208D02*
X112336390Y-48811208D01*
X152558390Y-49336208D02*
X151965827Y-49336208D01*
X152086390Y-53044208D02*
X152558390Y-53516208D01*
X113186390Y-48811208D02*
X113186390Y-49811208D01*
X118036390Y-55811208D02*
X117436390Y-55811208D01*
X123436390Y-52411208D02*
X124436390Y-52411208D01*
X144486390Y-52948208D02*
X143918390Y-53516208D01*
X118286390Y-49911208D02*
X118286390Y-48811208D01*
X116586390Y-49911208D02*
X116586390Y-48811208D01*
X151933390Y-49961208D02*
X152558390Y-49336208D01*
X124386390Y-51611208D02*
X124436390Y-51561208D01*
X114436390Y-57461208D02*
X115786390Y-57461208D01*
X110436390Y-49861208D02*
X111486390Y-49861208D01*
X115836390Y-57511208D02*
X115786390Y-57461208D01*
X108886390Y-80511208D02*
X107986390Y-79611208D01*
X119086390Y-55811208D02*
X120286390Y-55811208D01*
D33*
%TO.N,USB_N*%
X117388042Y-65008186D02*
X117436390Y-64959838D01*
X117436390Y-64959838D02*
X117436390Y-62811208D01*
D34*
%TO.N,/BOOT*%
X110398890Y-52448708D02*
X110436390Y-52411208D01*
X107036390Y-52448708D02*
X110398890Y-52448708D01*
D33*
%TO.N,USB_P*%
X118286390Y-65011208D02*
X118286390Y-62811208D01*
D35*
%TO.N,Net-(U4-IO18)*%
X121936390Y-73711208D02*
X116586390Y-68361208D01*
X116586390Y-68361208D02*
X116586390Y-62811208D01*
X132448890Y-69111208D02*
X132448890Y-70248708D01*
X128986390Y-73711208D02*
X121936390Y-73711208D01*
X132448890Y-70248708D02*
X131086390Y-71611208D01*
X131086390Y-71611208D02*
X128986390Y-73711208D01*
%TO.N,Net-(U4-IO17)*%
X115736390Y-69261208D02*
X115736390Y-62811208D01*
X133636390Y-70261208D02*
X129386390Y-74511208D01*
X132498890Y-66611208D02*
X133636390Y-67748708D01*
X129386390Y-74511208D02*
X120986390Y-74511208D01*
X120986390Y-74511208D02*
X115736390Y-69261208D01*
X133636390Y-67748708D02*
X133636390Y-70261208D01*
%TO.N,Net-(U4-IO35)*%
X128336390Y-61161208D02*
X126336390Y-61161208D01*
X126336390Y-61161208D02*
X125736390Y-61761208D01*
X125736390Y-61761208D02*
X124436390Y-61761208D01*
%TO.N,Net-(U4-IO36)*%
X126354409Y-59693189D02*
X128041909Y-59693189D01*
X124436390Y-60911208D02*
X125136390Y-60911208D01*
X128041909Y-59693189D02*
X128323890Y-59411208D01*
X125136390Y-60911208D02*
X126354409Y-59693189D01*
X124486390Y-60961208D02*
X124436390Y-60911208D01*
D33*
%TO.N,Col3*%
X126636390Y-57511208D02*
X124436390Y-57511208D01*
X127086390Y-57961208D02*
X126636390Y-57511208D01*
D35*
%TO.N,Col2*%
X119136390Y-64311208D02*
X119136390Y-62811208D01*
%TO.N,Col4*%
X119986390Y-64311208D02*
X119986390Y-62811208D01*
%TO.N,Rotary1B*%
X126836390Y-55411208D02*
X126436390Y-55811208D01*
X126436390Y-55811208D02*
X124436390Y-55811208D01*
%TO.N,Rotary1A*%
X124486390Y-50661208D02*
X124436390Y-50711208D01*
X126236390Y-50661208D02*
X124486390Y-50661208D01*
%TO.N,Rotary2B*%
X120836390Y-64311208D02*
X120836390Y-62811208D01*
%TO.N,Rotary2A*%
X121786390Y-64311208D02*
X121786390Y-62911208D01*
X121786390Y-62911208D02*
X121686390Y-62811208D01*
%TO.N,Row0*%
X126086390Y-53261208D02*
X124436390Y-53261208D01*
X126486390Y-52861208D02*
X126086390Y-53261208D01*
%TO.N,Row1*%
X126086390Y-56511208D02*
X125936390Y-56661208D01*
X125936390Y-56661208D02*
X124436390Y-56661208D01*
X127036390Y-56511208D02*
X126086390Y-56511208D01*
%TO.N,Row2*%
X107536390Y-59761208D02*
X108936390Y-58361208D01*
X108936390Y-58361208D02*
X108936390Y-58111208D01*
X109536390Y-57511208D02*
X110436390Y-57511208D01*
X108936390Y-58111208D02*
X109536390Y-57511208D01*
X107386390Y-59761208D02*
X107536390Y-59761208D01*
%TO.N,Row3*%
X108611390Y-57690803D02*
X108611390Y-57436208D01*
X108611390Y-57436208D02*
X109386390Y-56661208D01*
X109386390Y-56661208D02*
X110436390Y-56661208D01*
X107440985Y-58861208D02*
X108611390Y-57690803D01*
X107386390Y-58861208D02*
X107440985Y-58861208D01*
%TO.N,Row4*%
X108111390Y-57186208D02*
X109386390Y-55911208D01*
X107440985Y-57961208D02*
X108111390Y-57290803D01*
X108111390Y-57290803D02*
X108111390Y-57186208D01*
X107386390Y-57961208D02*
X107440985Y-57961208D01*
X110336390Y-55911208D02*
X110436390Y-55811208D01*
X109386390Y-55911208D02*
X110336390Y-55911208D01*
%TO.N,GPIO16*%
X130673890Y-66611208D02*
X130673890Y-65973708D01*
X134386390Y-65611208D02*
X136036390Y-63961208D01*
X130450490Y-59109608D02*
X136131866Y-59109608D01*
X136036390Y-70875171D02*
X136104408Y-70943189D01*
X136036390Y-63961208D02*
X136036390Y-63811208D01*
X130673890Y-69061208D02*
X130623890Y-69111208D01*
X134880266Y-60361208D02*
X134908328Y-60333146D01*
X133411290Y-56389032D02*
X134009928Y-56987670D01*
X130673890Y-65973708D02*
X131036390Y-65611208D01*
X133411290Y-53664208D02*
X133411290Y-56389032D01*
X134908328Y-60333146D02*
X136131866Y-59109608D01*
X133486390Y-53589108D02*
X133411290Y-53664208D01*
X136036390Y-69871258D02*
X136036390Y-70875171D01*
X131036390Y-65611208D02*
X134386390Y-65611208D01*
X133486390Y-51987808D02*
X133486390Y-53589108D01*
X136036390Y-63811208D02*
X136036390Y-59205084D01*
X130961390Y-60361208D02*
X134880266Y-60361208D01*
X130161390Y-61161208D02*
X130961390Y-60361208D01*
X136036390Y-59205084D02*
X136131866Y-59109608D01*
X136036390Y-63811208D02*
X136036390Y-69871258D01*
X134009928Y-56987670D02*
X136131866Y-59109608D01*
X130148890Y-59411208D02*
X130450490Y-59109608D01*
X130673890Y-66611208D02*
X130673890Y-69061208D01*
D33*
%TO.N,LED_GPIO*%
X124436390Y-59211208D02*
X125486389Y-59211208D01*
X125486389Y-59211208D02*
X125904408Y-58793189D01*
%TO.N,/MOSI*%
X111204380Y-70089416D02*
X111204380Y-70749816D01*
%TO.N,/MISO*%
X111940980Y-72858016D02*
X111940980Y-74001016D01*
X114023780Y-76083816D02*
X114023780Y-77201416D01*
X110239180Y-70089416D02*
X110239180Y-71156216D01*
X111940980Y-74001016D02*
X114023780Y-76083816D01*
X110239180Y-71156216D02*
X111940980Y-72858016D01*
X114023780Y-77201416D02*
X114633380Y-77811016D01*
X114633380Y-77811016D02*
X114633380Y-79614416D01*
%TO.N,/GPIO10*%
X108410380Y-70140216D02*
X108410380Y-71283216D01*
X108410380Y-71283216D02*
X109781980Y-72654816D01*
X109781980Y-72654816D02*
X109781980Y-73569216D01*
X110950380Y-75017016D02*
X111178980Y-75245616D01*
X109781980Y-73569216D02*
X110950380Y-74737616D01*
X110950380Y-74737616D02*
X110950380Y-75017016D01*
X111178980Y-75245616D02*
X111178980Y-76261616D01*
%TO.N,/SCK*%
X109350180Y-70114816D02*
X109350180Y-71207016D01*
X109350180Y-71207016D02*
X110899580Y-72756416D01*
X110899580Y-72756416D02*
X110899580Y-73975616D01*
X110899580Y-73975616D02*
X112880780Y-75956816D01*
X112880780Y-75956816D02*
X112829980Y-76007616D01*
X112829980Y-76007616D02*
X112829980Y-77963416D01*
%TO.N,/TFTCS*%
X112067980Y-70064016D02*
X115319180Y-73315216D01*
%TO.N,/MOSI*%
X111204380Y-70749816D02*
X113490380Y-73035816D01*
%TO.N,/TFTCS*%
X115319180Y-73315216D02*
X115319180Y-74509016D01*
%TO.N,/RST*%
X117351180Y-74432816D02*
X117351180Y-75906016D01*
X112956980Y-70038616D02*
X117351180Y-74432816D01*
%TO.N,/GPIO9*%
X107506122Y-67229358D02*
X108689780Y-66045700D01*
X108689780Y-66045700D02*
X108689780Y-61607818D01*
X108689780Y-61607818D02*
X110236390Y-60061208D01*
X107506122Y-70180874D02*
X107506122Y-71496558D01*
X110236390Y-60061208D02*
X110436390Y-60061208D01*
X107506122Y-71496558D02*
X108791380Y-72781816D01*
X108791380Y-74077216D02*
X109375580Y-74661416D01*
X108791380Y-72781816D02*
X108791380Y-74077216D01*
%TO.N,/GPIO8*%
X107826180Y-61471418D02*
X110086390Y-59211208D01*
X107826180Y-66025416D02*
X107826180Y-61471418D01*
X110086390Y-59211208D02*
X110436390Y-59211208D01*
X106632380Y-67219216D02*
X107826180Y-66025416D01*
X107546780Y-72832616D02*
X107546780Y-73061216D01*
X106632380Y-71918216D02*
X107546780Y-72832616D01*
X106632380Y-70216416D02*
X106632380Y-71918216D01*
D35*
%TO.N,VBUS*%
X152224180Y-66595216D02*
X153684180Y-66595216D01*
X153684180Y-66595216D02*
X153800180Y-66711216D01*
%TD*%
M02*
