%TF.GenerationSoftware,KiCad,Pcbnew,8.0.6*%
%TF.CreationDate,2025-02-04T14:10:00-07:00*%
%TF.ProjectId,Modular MacroPad,4d6f6475-6c61-4722-904d-6163726f5061,rev?*%
%TF.SameCoordinates,Original*%
%TF.FileFunction,Profile,NP*%
%FSLAX46Y46*%
G04 Gerber Fmt 4.6, Leading zero omitted, Abs format (unit mm)*
G04 Created by KiCad (PCBNEW 8.0.6) date 2025-02-04 14:10:00*
%MOMM*%
%LPD*%
G01*
G04 APERTURE LIST*
%TA.AperFunction,Profile*%
%ADD10C,0.200000*%
%TD*%
%TA.AperFunction,Profile*%
%ADD11C,0.000000*%
%TD*%
G04 APERTURE END LIST*
D10*
X138728409Y-145101589D02*
G75*
G02*
X137228411Y-143601589I-9J1499989D01*
G01*
X196228408Y-106601590D02*
G75*
G02*
X197728408Y-105101608I1499992J-10D01*
G01*
X159228408Y-143601589D02*
G75*
G02*
X160728409Y-142101608I1499992J-11D01*
G01*
X97228408Y-103601588D02*
X97228408Y-84601590D01*
X98728408Y-105101589D02*
G75*
G02*
X100228411Y-106601590I-8J-1500011D01*
G01*
X197728408Y-83101589D02*
G75*
G02*
X199228411Y-84601590I-8J-1500011D01*
G01*
X160728409Y-142101589D02*
X192228409Y-142101589D01*
X100228408Y-50101589D02*
X100228408Y-81601588D01*
X100228408Y-50101589D02*
G75*
G02*
X104228408Y-46101608I3999992J-11D01*
G01*
X192228408Y-46101589D02*
X160728408Y-46101589D01*
X104228408Y-142101589D02*
G75*
G02*
X100228411Y-138101588I-8J3999989D01*
G01*
X135728407Y-142101589D02*
G75*
G02*
X137228411Y-143601589I-7J-1500011D01*
G01*
X97228408Y-84601590D02*
G75*
G02*
X98728408Y-83101608I1499992J-10D01*
G01*
X100228408Y-81601588D02*
G75*
G02*
X98728408Y-83101608I-1500008J-12D01*
G01*
X196228408Y-81601588D02*
X196228408Y-50101589D01*
X157728407Y-145101589D02*
X138728409Y-145101589D01*
X197728408Y-83101589D02*
G75*
G02*
X196228411Y-81601588I-8J1499989D01*
G01*
X135728408Y-46101589D02*
X160728408Y-46101589D01*
X98728408Y-105101589D02*
G75*
G02*
X97228411Y-103601588I-8J1499989D01*
G01*
X104228408Y-142101589D02*
X135728407Y-142101589D01*
X199228408Y-103601588D02*
G75*
G02*
X197728408Y-105101608I-1500008J-12D01*
G01*
X196228408Y-138101589D02*
X196228408Y-106601590D01*
X100228408Y-106601590D02*
X100228408Y-138101588D01*
X135728408Y-46101589D02*
X104228408Y-46101589D01*
X199228408Y-84601590D02*
X199228408Y-103601588D01*
X192228408Y-46101589D02*
G75*
G02*
X196228411Y-50101589I-8J-4000011D01*
G01*
X196228408Y-138101589D02*
G75*
G02*
X192228409Y-142101608I-4000008J-11D01*
G01*
X159228408Y-143601589D02*
G75*
G02*
X157728407Y-145101608I-1500008J-11D01*
G01*
D11*
%TA.AperFunction,Profile*%
%TO.C,SW6*%
G36*
X150641790Y-90833608D02*
G01*
X146991790Y-90833608D01*
X146991790Y-87233608D01*
X150641790Y-87233608D01*
X150641790Y-90833608D01*
G37*
%TD.AperFunction*%
%TA.AperFunction,Profile*%
%TO.C,SW13*%
G36*
X187841790Y-109433608D02*
G01*
X184191790Y-109433608D01*
X184191790Y-105833608D01*
X187841790Y-105833608D01*
X187841790Y-109433608D01*
G37*
%TD.AperFunction*%
%TA.AperFunction,Profile*%
%TO.C,SW12*%
G36*
X169241790Y-109433608D02*
G01*
X165591790Y-109433608D01*
X165591790Y-105833608D01*
X169241790Y-105833608D01*
X169241790Y-109433608D01*
G37*
%TD.AperFunction*%
%TA.AperFunction,Profile*%
%TO.C,SW9*%
G36*
X113441790Y-109433608D02*
G01*
X109791790Y-109433608D01*
X109791790Y-105833608D01*
X113441790Y-105833608D01*
X113441790Y-109433608D01*
G37*
%TD.AperFunction*%
%TA.AperFunction,Profile*%
%TO.C,SW5*%
G36*
X132041790Y-90833608D02*
G01*
X128391790Y-90833608D01*
X128391790Y-87233608D01*
X132041790Y-87233608D01*
X132041790Y-90833608D01*
G37*
%TD.AperFunction*%
%TA.AperFunction,Profile*%
%TO.C,SW11*%
G36*
X150641790Y-109433608D02*
G01*
X146991790Y-109433608D01*
X146991790Y-105833608D01*
X150641790Y-105833608D01*
X150641790Y-109433608D01*
G37*
%TD.AperFunction*%
%TA.AperFunction,Profile*%
%TO.C,SW10*%
G36*
X132041790Y-109433608D02*
G01*
X128391790Y-109433608D01*
X128391790Y-105833608D01*
X132041790Y-105833608D01*
X132041790Y-109433608D01*
G37*
%TD.AperFunction*%
%TA.AperFunction,Profile*%
%TO.C,SW14*%
G36*
X113441790Y-128033608D02*
G01*
X109791790Y-128033608D01*
X109791790Y-124433608D01*
X113441790Y-124433608D01*
X113441790Y-128033608D01*
G37*
%TD.AperFunction*%
%TA.AperFunction,Profile*%
%TO.C,SW18*%
G36*
X187841790Y-128033608D02*
G01*
X184191790Y-128033608D01*
X184191790Y-124433608D01*
X187841790Y-124433608D01*
X187841790Y-128033608D01*
G37*
%TD.AperFunction*%
%TA.AperFunction,Profile*%
%TO.C,SW4*%
G36*
X113441790Y-90833608D02*
G01*
X109791790Y-90833608D01*
X109791790Y-87233608D01*
X113441790Y-87233608D01*
X113441790Y-90833608D01*
G37*
%TD.AperFunction*%
%TA.AperFunction,Profile*%
%TO.C,SW15*%
G36*
X132041790Y-128033608D02*
G01*
X128391790Y-128033608D01*
X128391790Y-124433608D01*
X132041790Y-124433608D01*
X132041790Y-128033608D01*
G37*
%TD.AperFunction*%
%TA.AperFunction,Profile*%
%TO.C,SW8*%
G36*
X187841790Y-90833608D02*
G01*
X184191790Y-90833608D01*
X184191790Y-87233608D01*
X187841790Y-87233608D01*
X187841790Y-90833608D01*
G37*
%TD.AperFunction*%
%TA.AperFunction,Profile*%
%TO.C,SW7*%
G36*
X169241790Y-90833608D02*
G01*
X165591790Y-90833608D01*
X165591790Y-87233608D01*
X169241790Y-87233608D01*
X169241790Y-90833608D01*
G37*
%TD.AperFunction*%
%TA.AperFunction,Profile*%
%TO.C,SW3*%
G36*
X169245590Y-72288989D02*
G01*
X165595590Y-72288989D01*
X165595590Y-68688989D01*
X169245590Y-68688989D01*
X169245590Y-72288989D01*
G37*
%TD.AperFunction*%
%TA.AperFunction,Profile*%
%TO.C,SW17*%
G36*
X169241790Y-128033608D02*
G01*
X165591790Y-128033608D01*
X165591790Y-124433608D01*
X169241790Y-124433608D01*
X169241790Y-128033608D01*
G37*
%TD.AperFunction*%
%TA.AperFunction,Profile*%
%TO.C,SW16*%
G36*
X150641790Y-128033608D02*
G01*
X146991790Y-128033608D01*
X146991790Y-124433608D01*
X150641790Y-124433608D01*
X150641790Y-128033608D01*
G37*
%TD.AperFunction*%
%TA.AperFunction,Profile*%
%TO.C,SW1*%
G36*
X169245590Y-53670789D02*
G01*
X165595590Y-53670789D01*
X165595590Y-50070789D01*
X169245590Y-50070789D01*
X169245590Y-53670789D01*
G37*
%TD.AperFunction*%
%TD*%
M02*
